G04 #@! TF.GenerationSoftware,KiCad,Pcbnew,9.0.5*
G04 #@! TF.CreationDate,2026-03-09T10:43:17+01:00*
G04 #@! TF.ProjectId,CanBus_Sniffer_v1,43616e42-7573-45f5-936e-69666665725f,rev?*
G04 #@! TF.SameCoordinates,Original*
G04 #@! TF.FileFunction,Legend,Top*
G04 #@! TF.FilePolarity,Positive*
%FSLAX46Y46*%
G04 Gerber Fmt 4.6, Leading zero omitted, Abs format (unit mm)*
G04 Created by KiCad (PCBNEW 9.0.5) date 2026-03-09 10:43:17*
%MOMM*%
%LPD*%
G01*
G04 APERTURE LIST*
%ADD10C,0.150000*%
%ADD11C,0.100000*%
%ADD12C,0.200000*%
%ADD13C,0.120000*%
%ADD14C,0.127000*%
G04 APERTURE END LIST*
D10*
X179686009Y-117947887D02*
X179733628Y-117805030D01*
X179733628Y-117805030D02*
X179781247Y-117757411D01*
X179781247Y-117757411D02*
X179876485Y-117709792D01*
X179876485Y-117709792D02*
X180019342Y-117709792D01*
X180019342Y-117709792D02*
X180114580Y-117757411D01*
X180114580Y-117757411D02*
X180162200Y-117805030D01*
X180162200Y-117805030D02*
X180209819Y-117900268D01*
X180209819Y-117900268D02*
X180209819Y-118281220D01*
X180209819Y-118281220D02*
X179209819Y-118281220D01*
X179209819Y-118281220D02*
X179209819Y-117947887D01*
X179209819Y-117947887D02*
X179257438Y-117852649D01*
X179257438Y-117852649D02*
X179305057Y-117805030D01*
X179305057Y-117805030D02*
X179400295Y-117757411D01*
X179400295Y-117757411D02*
X179495533Y-117757411D01*
X179495533Y-117757411D02*
X179590771Y-117805030D01*
X179590771Y-117805030D02*
X179638390Y-117852649D01*
X179638390Y-117852649D02*
X179686009Y-117947887D01*
X179686009Y-117947887D02*
X179686009Y-118281220D01*
X179209819Y-117090744D02*
X179209819Y-116900268D01*
X179209819Y-116900268D02*
X179257438Y-116805030D01*
X179257438Y-116805030D02*
X179352676Y-116709792D01*
X179352676Y-116709792D02*
X179543152Y-116662173D01*
X179543152Y-116662173D02*
X179876485Y-116662173D01*
X179876485Y-116662173D02*
X180066961Y-116709792D01*
X180066961Y-116709792D02*
X180162200Y-116805030D01*
X180162200Y-116805030D02*
X180209819Y-116900268D01*
X180209819Y-116900268D02*
X180209819Y-117090744D01*
X180209819Y-117090744D02*
X180162200Y-117185982D01*
X180162200Y-117185982D02*
X180066961Y-117281220D01*
X180066961Y-117281220D02*
X179876485Y-117328839D01*
X179876485Y-117328839D02*
X179543152Y-117328839D01*
X179543152Y-117328839D02*
X179352676Y-117281220D01*
X179352676Y-117281220D02*
X179257438Y-117185982D01*
X179257438Y-117185982D02*
X179209819Y-117090744D01*
X179209819Y-116043125D02*
X179209819Y-115852649D01*
X179209819Y-115852649D02*
X179257438Y-115757411D01*
X179257438Y-115757411D02*
X179352676Y-115662173D01*
X179352676Y-115662173D02*
X179543152Y-115614554D01*
X179543152Y-115614554D02*
X179876485Y-115614554D01*
X179876485Y-115614554D02*
X180066961Y-115662173D01*
X180066961Y-115662173D02*
X180162200Y-115757411D01*
X180162200Y-115757411D02*
X180209819Y-115852649D01*
X180209819Y-115852649D02*
X180209819Y-116043125D01*
X180209819Y-116043125D02*
X180162200Y-116138363D01*
X180162200Y-116138363D02*
X180066961Y-116233601D01*
X180066961Y-116233601D02*
X179876485Y-116281220D01*
X179876485Y-116281220D02*
X179543152Y-116281220D01*
X179543152Y-116281220D02*
X179352676Y-116233601D01*
X179352676Y-116233601D02*
X179257438Y-116138363D01*
X179257438Y-116138363D02*
X179209819Y-116043125D01*
X179209819Y-115328839D02*
X179209819Y-114757411D01*
X180209819Y-115043125D02*
X179209819Y-115043125D01*
D11*
X167420704Y-148086591D02*
X167458800Y-148124687D01*
X167458800Y-148124687D02*
X167496895Y-148238972D01*
X167496895Y-148238972D02*
X167496895Y-148315163D01*
X167496895Y-148315163D02*
X167458800Y-148429449D01*
X167458800Y-148429449D02*
X167382609Y-148505639D01*
X167382609Y-148505639D02*
X167306419Y-148543734D01*
X167306419Y-148543734D02*
X167154038Y-148581830D01*
X167154038Y-148581830D02*
X167039752Y-148581830D01*
X167039752Y-148581830D02*
X166887371Y-148543734D01*
X166887371Y-148543734D02*
X166811180Y-148505639D01*
X166811180Y-148505639D02*
X166734990Y-148429449D01*
X166734990Y-148429449D02*
X166696895Y-148315163D01*
X166696895Y-148315163D02*
X166696895Y-148238972D01*
X166696895Y-148238972D02*
X166734990Y-148124687D01*
X166734990Y-148124687D02*
X166773085Y-148086591D01*
X167573085Y-147934211D02*
X167573085Y-147324687D01*
X166734990Y-146715163D02*
X166696895Y-146791353D01*
X166696895Y-146791353D02*
X166696895Y-146905639D01*
X166696895Y-146905639D02*
X166734990Y-147019925D01*
X166734990Y-147019925D02*
X166811180Y-147096115D01*
X166811180Y-147096115D02*
X166887371Y-147134210D01*
X166887371Y-147134210D02*
X167039752Y-147172306D01*
X167039752Y-147172306D02*
X167154038Y-147172306D01*
X167154038Y-147172306D02*
X167306419Y-147134210D01*
X167306419Y-147134210D02*
X167382609Y-147096115D01*
X167382609Y-147096115D02*
X167458800Y-147019925D01*
X167458800Y-147019925D02*
X167496895Y-146905639D01*
X167496895Y-146905639D02*
X167496895Y-146829448D01*
X167496895Y-146829448D02*
X167458800Y-146715163D01*
X167458800Y-146715163D02*
X167420704Y-146677067D01*
X167420704Y-146677067D02*
X167154038Y-146677067D01*
X167154038Y-146677067D02*
X167154038Y-146829448D01*
X167496895Y-146334210D02*
X166696895Y-146334210D01*
X166696895Y-146334210D02*
X167496895Y-145877067D01*
X167496895Y-145877067D02*
X166696895Y-145877067D01*
X167496895Y-145496115D02*
X166696895Y-145496115D01*
X166696895Y-145496115D02*
X166696895Y-145305639D01*
X166696895Y-145305639D02*
X166734990Y-145191353D01*
X166734990Y-145191353D02*
X166811180Y-145115163D01*
X166811180Y-145115163D02*
X166887371Y-145077068D01*
X166887371Y-145077068D02*
X167039752Y-145038972D01*
X167039752Y-145038972D02*
X167154038Y-145038972D01*
X167154038Y-145038972D02*
X167306419Y-145077068D01*
X167306419Y-145077068D02*
X167382609Y-145115163D01*
X167382609Y-145115163D02*
X167458800Y-145191353D01*
X167458800Y-145191353D02*
X167496895Y-145305639D01*
X167496895Y-145305639D02*
X167496895Y-145496115D01*
D10*
X183788207Y-107565819D02*
X183454874Y-107089628D01*
X183216779Y-107565819D02*
X183216779Y-106565819D01*
X183216779Y-106565819D02*
X183597731Y-106565819D01*
X183597731Y-106565819D02*
X183692969Y-106613438D01*
X183692969Y-106613438D02*
X183740588Y-106661057D01*
X183740588Y-106661057D02*
X183788207Y-106756295D01*
X183788207Y-106756295D02*
X183788207Y-106899152D01*
X183788207Y-106899152D02*
X183740588Y-106994390D01*
X183740588Y-106994390D02*
X183692969Y-107042009D01*
X183692969Y-107042009D02*
X183597731Y-107089628D01*
X183597731Y-107089628D02*
X183216779Y-107089628D01*
X184169160Y-107518200D02*
X184312017Y-107565819D01*
X184312017Y-107565819D02*
X184550112Y-107565819D01*
X184550112Y-107565819D02*
X184645350Y-107518200D01*
X184645350Y-107518200D02*
X184692969Y-107470580D01*
X184692969Y-107470580D02*
X184740588Y-107375342D01*
X184740588Y-107375342D02*
X184740588Y-107280104D01*
X184740588Y-107280104D02*
X184692969Y-107184866D01*
X184692969Y-107184866D02*
X184645350Y-107137247D01*
X184645350Y-107137247D02*
X184550112Y-107089628D01*
X184550112Y-107089628D02*
X184359636Y-107042009D01*
X184359636Y-107042009D02*
X184264398Y-106994390D01*
X184264398Y-106994390D02*
X184216779Y-106946771D01*
X184216779Y-106946771D02*
X184169160Y-106851533D01*
X184169160Y-106851533D02*
X184169160Y-106756295D01*
X184169160Y-106756295D02*
X184216779Y-106661057D01*
X184216779Y-106661057D02*
X184264398Y-106613438D01*
X184264398Y-106613438D02*
X184359636Y-106565819D01*
X184359636Y-106565819D02*
X184597731Y-106565819D01*
X184597731Y-106565819D02*
X184740588Y-106613438D01*
X185026303Y-106565819D02*
X185597731Y-106565819D01*
X185312017Y-107565819D02*
X185312017Y-106565819D01*
D11*
X173570845Y-148581830D02*
X173608940Y-148467544D01*
X173608940Y-148467544D02*
X173608940Y-148277068D01*
X173608940Y-148277068D02*
X173570845Y-148200877D01*
X173570845Y-148200877D02*
X173532749Y-148162782D01*
X173532749Y-148162782D02*
X173456559Y-148124687D01*
X173456559Y-148124687D02*
X173380368Y-148124687D01*
X173380368Y-148124687D02*
X173304178Y-148162782D01*
X173304178Y-148162782D02*
X173266083Y-148200877D01*
X173266083Y-148200877D02*
X173227987Y-148277068D01*
X173227987Y-148277068D02*
X173189892Y-148429449D01*
X173189892Y-148429449D02*
X173151797Y-148505639D01*
X173151797Y-148505639D02*
X173113702Y-148543734D01*
X173113702Y-148543734D02*
X173037511Y-148581830D01*
X173037511Y-148581830D02*
X172961321Y-148581830D01*
X172961321Y-148581830D02*
X172885130Y-148543734D01*
X172885130Y-148543734D02*
X172847035Y-148505639D01*
X172847035Y-148505639D02*
X172808940Y-148429449D01*
X172808940Y-148429449D02*
X172808940Y-148238972D01*
X172808940Y-148238972D02*
X172847035Y-148124687D01*
X173685130Y-147972306D02*
X173685130Y-147362782D01*
X172847035Y-146753258D02*
X172808940Y-146829448D01*
X172808940Y-146829448D02*
X172808940Y-146943734D01*
X172808940Y-146943734D02*
X172847035Y-147058020D01*
X172847035Y-147058020D02*
X172923225Y-147134210D01*
X172923225Y-147134210D02*
X172999416Y-147172305D01*
X172999416Y-147172305D02*
X173151797Y-147210401D01*
X173151797Y-147210401D02*
X173266083Y-147210401D01*
X173266083Y-147210401D02*
X173418464Y-147172305D01*
X173418464Y-147172305D02*
X173494654Y-147134210D01*
X173494654Y-147134210D02*
X173570845Y-147058020D01*
X173570845Y-147058020D02*
X173608940Y-146943734D01*
X173608940Y-146943734D02*
X173608940Y-146867543D01*
X173608940Y-146867543D02*
X173570845Y-146753258D01*
X173570845Y-146753258D02*
X173532749Y-146715162D01*
X173532749Y-146715162D02*
X173266083Y-146715162D01*
X173266083Y-146715162D02*
X173266083Y-146867543D01*
X173608940Y-146372305D02*
X172808940Y-146372305D01*
X172808940Y-146372305D02*
X173608940Y-145915162D01*
X173608940Y-145915162D02*
X172808940Y-145915162D01*
X173608940Y-145534210D02*
X172808940Y-145534210D01*
X172808940Y-145534210D02*
X172808940Y-145343734D01*
X172808940Y-145343734D02*
X172847035Y-145229448D01*
X172847035Y-145229448D02*
X172923225Y-145153258D01*
X172923225Y-145153258D02*
X172999416Y-145115163D01*
X172999416Y-145115163D02*
X173151797Y-145077067D01*
X173151797Y-145077067D02*
X173266083Y-145077067D01*
X173266083Y-145077067D02*
X173418464Y-145115163D01*
X173418464Y-145115163D02*
X173494654Y-145153258D01*
X173494654Y-145153258D02*
X173570845Y-145229448D01*
X173570845Y-145229448D02*
X173608940Y-145343734D01*
X173608940Y-145343734D02*
X173608940Y-145534210D01*
D12*
X171490476Y-131359695D02*
X171490476Y-132007314D01*
X171490476Y-132007314D02*
X171528571Y-132083504D01*
X171528571Y-132083504D02*
X171566666Y-132121600D01*
X171566666Y-132121600D02*
X171642857Y-132159695D01*
X171642857Y-132159695D02*
X171795238Y-132159695D01*
X171795238Y-132159695D02*
X171871428Y-132121600D01*
X171871428Y-132121600D02*
X171909523Y-132083504D01*
X171909523Y-132083504D02*
X171947619Y-132007314D01*
X171947619Y-132007314D02*
X171947619Y-131359695D01*
X172671428Y-131626361D02*
X172671428Y-132159695D01*
X172480952Y-131321600D02*
X172290475Y-131893028D01*
X172290475Y-131893028D02*
X172785714Y-131893028D01*
D10*
X191969524Y-122067295D02*
X191969524Y-121267295D01*
X191969524Y-121267295D02*
X192160000Y-121267295D01*
X192160000Y-121267295D02*
X192274286Y-121305390D01*
X192274286Y-121305390D02*
X192350476Y-121381580D01*
X192350476Y-121381580D02*
X192388571Y-121457771D01*
X192388571Y-121457771D02*
X192426667Y-121610152D01*
X192426667Y-121610152D02*
X192426667Y-121724438D01*
X192426667Y-121724438D02*
X192388571Y-121876819D01*
X192388571Y-121876819D02*
X192350476Y-121953009D01*
X192350476Y-121953009D02*
X192274286Y-122029200D01*
X192274286Y-122029200D02*
X192160000Y-122067295D01*
X192160000Y-122067295D02*
X191969524Y-122067295D01*
X193112381Y-121533961D02*
X193112381Y-122067295D01*
X192921905Y-121229200D02*
X192731428Y-121800628D01*
X192731428Y-121800628D02*
X193226667Y-121800628D01*
X192219048Y-135062295D02*
X192219048Y-134262295D01*
X193057143Y-134986104D02*
X193019047Y-135024200D01*
X193019047Y-135024200D02*
X192904762Y-135062295D01*
X192904762Y-135062295D02*
X192828571Y-135062295D01*
X192828571Y-135062295D02*
X192714285Y-135024200D01*
X192714285Y-135024200D02*
X192638095Y-134948009D01*
X192638095Y-134948009D02*
X192600000Y-134871819D01*
X192600000Y-134871819D02*
X192561904Y-134719438D01*
X192561904Y-134719438D02*
X192561904Y-134605152D01*
X192561904Y-134605152D02*
X192600000Y-134452771D01*
X192600000Y-134452771D02*
X192638095Y-134376580D01*
X192638095Y-134376580D02*
X192714285Y-134300390D01*
X192714285Y-134300390D02*
X192828571Y-134262295D01*
X192828571Y-134262295D02*
X192904762Y-134262295D01*
X192904762Y-134262295D02*
X193019047Y-134300390D01*
X193019047Y-134300390D02*
X193057143Y-134338485D01*
X193361904Y-134338485D02*
X193400000Y-134300390D01*
X193400000Y-134300390D02*
X193476190Y-134262295D01*
X193476190Y-134262295D02*
X193666666Y-134262295D01*
X193666666Y-134262295D02*
X193742857Y-134300390D01*
X193742857Y-134300390D02*
X193780952Y-134338485D01*
X193780952Y-134338485D02*
X193819047Y-134414676D01*
X193819047Y-134414676D02*
X193819047Y-134490866D01*
X193819047Y-134490866D02*
X193780952Y-134605152D01*
X193780952Y-134605152D02*
X193323809Y-135062295D01*
X193323809Y-135062295D02*
X193819047Y-135062295D01*
X181386104Y-129214285D02*
X181424200Y-129252381D01*
X181424200Y-129252381D02*
X181462295Y-129366666D01*
X181462295Y-129366666D02*
X181462295Y-129442857D01*
X181462295Y-129442857D02*
X181424200Y-129557143D01*
X181424200Y-129557143D02*
X181348009Y-129633333D01*
X181348009Y-129633333D02*
X181271819Y-129671428D01*
X181271819Y-129671428D02*
X181119438Y-129709524D01*
X181119438Y-129709524D02*
X181005152Y-129709524D01*
X181005152Y-129709524D02*
X180852771Y-129671428D01*
X180852771Y-129671428D02*
X180776580Y-129633333D01*
X180776580Y-129633333D02*
X180700390Y-129557143D01*
X180700390Y-129557143D02*
X180662295Y-129442857D01*
X180662295Y-129442857D02*
X180662295Y-129366666D01*
X180662295Y-129366666D02*
X180700390Y-129252381D01*
X180700390Y-129252381D02*
X180738485Y-129214285D01*
X180738485Y-128909524D02*
X180700390Y-128871428D01*
X180700390Y-128871428D02*
X180662295Y-128795238D01*
X180662295Y-128795238D02*
X180662295Y-128604762D01*
X180662295Y-128604762D02*
X180700390Y-128528571D01*
X180700390Y-128528571D02*
X180738485Y-128490476D01*
X180738485Y-128490476D02*
X180814676Y-128452381D01*
X180814676Y-128452381D02*
X180890866Y-128452381D01*
X180890866Y-128452381D02*
X181005152Y-128490476D01*
X181005152Y-128490476D02*
X181462295Y-128947619D01*
X181462295Y-128947619D02*
X181462295Y-128452381D01*
X180662295Y-127728571D02*
X180662295Y-128109523D01*
X180662295Y-128109523D02*
X181043247Y-128147619D01*
X181043247Y-128147619D02*
X181005152Y-128109523D01*
X181005152Y-128109523D02*
X180967057Y-128033333D01*
X180967057Y-128033333D02*
X180967057Y-127842857D01*
X180967057Y-127842857D02*
X181005152Y-127766666D01*
X181005152Y-127766666D02*
X181043247Y-127728571D01*
X181043247Y-127728571D02*
X181119438Y-127690476D01*
X181119438Y-127690476D02*
X181309914Y-127690476D01*
X181309914Y-127690476D02*
X181386104Y-127728571D01*
X181386104Y-127728571D02*
X181424200Y-127766666D01*
X181424200Y-127766666D02*
X181462295Y-127842857D01*
X181462295Y-127842857D02*
X181462295Y-128033333D01*
X181462295Y-128033333D02*
X181424200Y-128109523D01*
X181424200Y-128109523D02*
X181386104Y-128147619D01*
X170519048Y-143781342D02*
X170519048Y-144162295D01*
X170252381Y-143362295D02*
X170519048Y-143781342D01*
X170519048Y-143781342D02*
X170785714Y-143362295D01*
X171471428Y-144162295D02*
X171014285Y-144162295D01*
X171242857Y-144162295D02*
X171242857Y-143362295D01*
X171242857Y-143362295D02*
X171166666Y-143476580D01*
X171166666Y-143476580D02*
X171090476Y-143552771D01*
X171090476Y-143552771D02*
X171014285Y-143590866D01*
X183464332Y-114243200D02*
X183578618Y-114281295D01*
X183578618Y-114281295D02*
X183769094Y-114281295D01*
X183769094Y-114281295D02*
X183845285Y-114243200D01*
X183845285Y-114243200D02*
X183883380Y-114205104D01*
X183883380Y-114205104D02*
X183921475Y-114128914D01*
X183921475Y-114128914D02*
X183921475Y-114052723D01*
X183921475Y-114052723D02*
X183883380Y-113976533D01*
X183883380Y-113976533D02*
X183845285Y-113938438D01*
X183845285Y-113938438D02*
X183769094Y-113900342D01*
X183769094Y-113900342D02*
X183616713Y-113862247D01*
X183616713Y-113862247D02*
X183540523Y-113824152D01*
X183540523Y-113824152D02*
X183502428Y-113786057D01*
X183502428Y-113786057D02*
X183464332Y-113709866D01*
X183464332Y-113709866D02*
X183464332Y-113633676D01*
X183464332Y-113633676D02*
X183502428Y-113557485D01*
X183502428Y-113557485D02*
X183540523Y-113519390D01*
X183540523Y-113519390D02*
X183616713Y-113481295D01*
X183616713Y-113481295D02*
X183807190Y-113481295D01*
X183807190Y-113481295D02*
X183921475Y-113519390D01*
X184188142Y-113481295D02*
X184378618Y-114281295D01*
X184378618Y-114281295D02*
X184530999Y-113709866D01*
X184530999Y-113709866D02*
X184683380Y-114281295D01*
X184683380Y-114281295D02*
X184873857Y-113481295D01*
X185140523Y-113557485D02*
X185178619Y-113519390D01*
X185178619Y-113519390D02*
X185254809Y-113481295D01*
X185254809Y-113481295D02*
X185445285Y-113481295D01*
X185445285Y-113481295D02*
X185521476Y-113519390D01*
X185521476Y-113519390D02*
X185559571Y-113557485D01*
X185559571Y-113557485D02*
X185597666Y-113633676D01*
X185597666Y-113633676D02*
X185597666Y-113709866D01*
X185597666Y-113709866D02*
X185559571Y-113824152D01*
X185559571Y-113824152D02*
X185102428Y-114281295D01*
X185102428Y-114281295D02*
X185597666Y-114281295D01*
X196662295Y-129314285D02*
X196281342Y-129580952D01*
X196662295Y-129771428D02*
X195862295Y-129771428D01*
X195862295Y-129771428D02*
X195862295Y-129466666D01*
X195862295Y-129466666D02*
X195900390Y-129390476D01*
X195900390Y-129390476D02*
X195938485Y-129352381D01*
X195938485Y-129352381D02*
X196014676Y-129314285D01*
X196014676Y-129314285D02*
X196128961Y-129314285D01*
X196128961Y-129314285D02*
X196205152Y-129352381D01*
X196205152Y-129352381D02*
X196243247Y-129390476D01*
X196243247Y-129390476D02*
X196281342Y-129466666D01*
X196281342Y-129466666D02*
X196281342Y-129771428D01*
X196662295Y-128552381D02*
X196662295Y-129009524D01*
X196662295Y-128780952D02*
X195862295Y-128780952D01*
X195862295Y-128780952D02*
X195976580Y-128857143D01*
X195976580Y-128857143D02*
X196052771Y-128933333D01*
X196052771Y-128933333D02*
X196090866Y-129009524D01*
X195862295Y-127828571D02*
X195862295Y-128209523D01*
X195862295Y-128209523D02*
X196243247Y-128247619D01*
X196243247Y-128247619D02*
X196205152Y-128209523D01*
X196205152Y-128209523D02*
X196167057Y-128133333D01*
X196167057Y-128133333D02*
X196167057Y-127942857D01*
X196167057Y-127942857D02*
X196205152Y-127866666D01*
X196205152Y-127866666D02*
X196243247Y-127828571D01*
X196243247Y-127828571D02*
X196319438Y-127790476D01*
X196319438Y-127790476D02*
X196509914Y-127790476D01*
X196509914Y-127790476D02*
X196586104Y-127828571D01*
X196586104Y-127828571D02*
X196624200Y-127866666D01*
X196624200Y-127866666D02*
X196662295Y-127942857D01*
X196662295Y-127942857D02*
X196662295Y-128133333D01*
X196662295Y-128133333D02*
X196624200Y-128209523D01*
X196624200Y-128209523D02*
X196586104Y-128247619D01*
X193719524Y-141840295D02*
X193719524Y-141040295D01*
X193719524Y-141040295D02*
X193910000Y-141040295D01*
X193910000Y-141040295D02*
X194024286Y-141078390D01*
X194024286Y-141078390D02*
X194100476Y-141154580D01*
X194100476Y-141154580D02*
X194138571Y-141230771D01*
X194138571Y-141230771D02*
X194176667Y-141383152D01*
X194176667Y-141383152D02*
X194176667Y-141497438D01*
X194176667Y-141497438D02*
X194138571Y-141649819D01*
X194138571Y-141649819D02*
X194100476Y-141726009D01*
X194100476Y-141726009D02*
X194024286Y-141802200D01*
X194024286Y-141802200D02*
X193910000Y-141840295D01*
X193910000Y-141840295D02*
X193719524Y-141840295D01*
X194557619Y-141840295D02*
X194710000Y-141840295D01*
X194710000Y-141840295D02*
X194786190Y-141802200D01*
X194786190Y-141802200D02*
X194824286Y-141764104D01*
X194824286Y-141764104D02*
X194900476Y-141649819D01*
X194900476Y-141649819D02*
X194938571Y-141497438D01*
X194938571Y-141497438D02*
X194938571Y-141192676D01*
X194938571Y-141192676D02*
X194900476Y-141116485D01*
X194900476Y-141116485D02*
X194862381Y-141078390D01*
X194862381Y-141078390D02*
X194786190Y-141040295D01*
X194786190Y-141040295D02*
X194633809Y-141040295D01*
X194633809Y-141040295D02*
X194557619Y-141078390D01*
X194557619Y-141078390D02*
X194519524Y-141116485D01*
X194519524Y-141116485D02*
X194481428Y-141192676D01*
X194481428Y-141192676D02*
X194481428Y-141383152D01*
X194481428Y-141383152D02*
X194519524Y-141459342D01*
X194519524Y-141459342D02*
X194557619Y-141497438D01*
X194557619Y-141497438D02*
X194633809Y-141535533D01*
X194633809Y-141535533D02*
X194786190Y-141535533D01*
X194786190Y-141535533D02*
X194862381Y-141497438D01*
X194862381Y-141497438D02*
X194900476Y-141459342D01*
X194900476Y-141459342D02*
X194938571Y-141383152D01*
X186633247Y-145192666D02*
X186633247Y-145459332D01*
X187052295Y-145459332D02*
X186252295Y-145459332D01*
X186252295Y-145459332D02*
X186252295Y-145078380D01*
X186633247Y-144506952D02*
X186671342Y-144392666D01*
X186671342Y-144392666D02*
X186709438Y-144354571D01*
X186709438Y-144354571D02*
X186785628Y-144316475D01*
X186785628Y-144316475D02*
X186899914Y-144316475D01*
X186899914Y-144316475D02*
X186976104Y-144354571D01*
X186976104Y-144354571D02*
X187014200Y-144392666D01*
X187014200Y-144392666D02*
X187052295Y-144468856D01*
X187052295Y-144468856D02*
X187052295Y-144773618D01*
X187052295Y-144773618D02*
X186252295Y-144773618D01*
X186252295Y-144773618D02*
X186252295Y-144506952D01*
X186252295Y-144506952D02*
X186290390Y-144430761D01*
X186290390Y-144430761D02*
X186328485Y-144392666D01*
X186328485Y-144392666D02*
X186404676Y-144354571D01*
X186404676Y-144354571D02*
X186480866Y-144354571D01*
X186480866Y-144354571D02*
X186557057Y-144392666D01*
X186557057Y-144392666D02*
X186595152Y-144430761D01*
X186595152Y-144430761D02*
X186633247Y-144506952D01*
X186633247Y-144506952D02*
X186633247Y-144773618D01*
X187052295Y-143554571D02*
X187052295Y-144011714D01*
X187052295Y-143783142D02*
X186252295Y-143783142D01*
X186252295Y-143783142D02*
X186366580Y-143859333D01*
X186366580Y-143859333D02*
X186442771Y-143935523D01*
X186442771Y-143935523D02*
X186480866Y-144011714D01*
X175785714Y-135186104D02*
X175747618Y-135224200D01*
X175747618Y-135224200D02*
X175633333Y-135262295D01*
X175633333Y-135262295D02*
X175557142Y-135262295D01*
X175557142Y-135262295D02*
X175442856Y-135224200D01*
X175442856Y-135224200D02*
X175366666Y-135148009D01*
X175366666Y-135148009D02*
X175328571Y-135071819D01*
X175328571Y-135071819D02*
X175290475Y-134919438D01*
X175290475Y-134919438D02*
X175290475Y-134805152D01*
X175290475Y-134805152D02*
X175328571Y-134652771D01*
X175328571Y-134652771D02*
X175366666Y-134576580D01*
X175366666Y-134576580D02*
X175442856Y-134500390D01*
X175442856Y-134500390D02*
X175557142Y-134462295D01*
X175557142Y-134462295D02*
X175633333Y-134462295D01*
X175633333Y-134462295D02*
X175747618Y-134500390D01*
X175747618Y-134500390D02*
X175785714Y-134538485D01*
X176547618Y-135262295D02*
X176090475Y-135262295D01*
X176319047Y-135262295D02*
X176319047Y-134462295D01*
X176319047Y-134462295D02*
X176242856Y-134576580D01*
X176242856Y-134576580D02*
X176166666Y-134652771D01*
X176166666Y-134652771D02*
X176090475Y-134690866D01*
X177309523Y-135262295D02*
X176852380Y-135262295D01*
X177080952Y-135262295D02*
X177080952Y-134462295D01*
X177080952Y-134462295D02*
X177004761Y-134576580D01*
X177004761Y-134576580D02*
X176928571Y-134652771D01*
X176928571Y-134652771D02*
X176852380Y-134690866D01*
X170459476Y-122117295D02*
X170459476Y-122764914D01*
X170459476Y-122764914D02*
X170497571Y-122841104D01*
X170497571Y-122841104D02*
X170535666Y-122879200D01*
X170535666Y-122879200D02*
X170611857Y-122917295D01*
X170611857Y-122917295D02*
X170764238Y-122917295D01*
X170764238Y-122917295D02*
X170840428Y-122879200D01*
X170840428Y-122879200D02*
X170878523Y-122841104D01*
X170878523Y-122841104D02*
X170916619Y-122764914D01*
X170916619Y-122764914D02*
X170916619Y-122117295D01*
X171221380Y-122117295D02*
X171716618Y-122117295D01*
X171716618Y-122117295D02*
X171449952Y-122422057D01*
X171449952Y-122422057D02*
X171564237Y-122422057D01*
X171564237Y-122422057D02*
X171640428Y-122460152D01*
X171640428Y-122460152D02*
X171678523Y-122498247D01*
X171678523Y-122498247D02*
X171716618Y-122574438D01*
X171716618Y-122574438D02*
X171716618Y-122764914D01*
X171716618Y-122764914D02*
X171678523Y-122841104D01*
X171678523Y-122841104D02*
X171640428Y-122879200D01*
X171640428Y-122879200D02*
X171564237Y-122917295D01*
X171564237Y-122917295D02*
X171335666Y-122917295D01*
X171335666Y-122917295D02*
X171259475Y-122879200D01*
X171259475Y-122879200D02*
X171221380Y-122841104D01*
X181437476Y-121990295D02*
X181437476Y-122637914D01*
X181437476Y-122637914D02*
X181475571Y-122714104D01*
X181475571Y-122714104D02*
X181513666Y-122752200D01*
X181513666Y-122752200D02*
X181589857Y-122790295D01*
X181589857Y-122790295D02*
X181742238Y-122790295D01*
X181742238Y-122790295D02*
X181818428Y-122752200D01*
X181818428Y-122752200D02*
X181856523Y-122714104D01*
X181856523Y-122714104D02*
X181894619Y-122637914D01*
X181894619Y-122637914D02*
X181894619Y-121990295D01*
X182199380Y-121990295D02*
X182732714Y-121990295D01*
X182732714Y-121990295D02*
X182389856Y-122790295D01*
X196486104Y-139314285D02*
X196524200Y-139352381D01*
X196524200Y-139352381D02*
X196562295Y-139466666D01*
X196562295Y-139466666D02*
X196562295Y-139542857D01*
X196562295Y-139542857D02*
X196524200Y-139657143D01*
X196524200Y-139657143D02*
X196448009Y-139733333D01*
X196448009Y-139733333D02*
X196371819Y-139771428D01*
X196371819Y-139771428D02*
X196219438Y-139809524D01*
X196219438Y-139809524D02*
X196105152Y-139809524D01*
X196105152Y-139809524D02*
X195952771Y-139771428D01*
X195952771Y-139771428D02*
X195876580Y-139733333D01*
X195876580Y-139733333D02*
X195800390Y-139657143D01*
X195800390Y-139657143D02*
X195762295Y-139542857D01*
X195762295Y-139542857D02*
X195762295Y-139466666D01*
X195762295Y-139466666D02*
X195800390Y-139352381D01*
X195800390Y-139352381D02*
X195838485Y-139314285D01*
X195838485Y-139009524D02*
X195800390Y-138971428D01*
X195800390Y-138971428D02*
X195762295Y-138895238D01*
X195762295Y-138895238D02*
X195762295Y-138704762D01*
X195762295Y-138704762D02*
X195800390Y-138628571D01*
X195800390Y-138628571D02*
X195838485Y-138590476D01*
X195838485Y-138590476D02*
X195914676Y-138552381D01*
X195914676Y-138552381D02*
X195990866Y-138552381D01*
X195990866Y-138552381D02*
X196105152Y-138590476D01*
X196105152Y-138590476D02*
X196562295Y-139047619D01*
X196562295Y-139047619D02*
X196562295Y-138552381D01*
X195838485Y-138247619D02*
X195800390Y-138209523D01*
X195800390Y-138209523D02*
X195762295Y-138133333D01*
X195762295Y-138133333D02*
X195762295Y-137942857D01*
X195762295Y-137942857D02*
X195800390Y-137866666D01*
X195800390Y-137866666D02*
X195838485Y-137828571D01*
X195838485Y-137828571D02*
X195914676Y-137790476D01*
X195914676Y-137790476D02*
X195990866Y-137790476D01*
X195990866Y-137790476D02*
X196105152Y-137828571D01*
X196105152Y-137828571D02*
X196562295Y-138285714D01*
X196562295Y-138285714D02*
X196562295Y-137790476D01*
X160966667Y-113362295D02*
X160700000Y-112981342D01*
X160509524Y-113362295D02*
X160509524Y-112562295D01*
X160509524Y-112562295D02*
X160814286Y-112562295D01*
X160814286Y-112562295D02*
X160890476Y-112600390D01*
X160890476Y-112600390D02*
X160928571Y-112638485D01*
X160928571Y-112638485D02*
X160966667Y-112714676D01*
X160966667Y-112714676D02*
X160966667Y-112828961D01*
X160966667Y-112828961D02*
X160928571Y-112905152D01*
X160928571Y-112905152D02*
X160890476Y-112943247D01*
X160890476Y-112943247D02*
X160814286Y-112981342D01*
X160814286Y-112981342D02*
X160509524Y-112981342D01*
X161271428Y-112638485D02*
X161309524Y-112600390D01*
X161309524Y-112600390D02*
X161385714Y-112562295D01*
X161385714Y-112562295D02*
X161576190Y-112562295D01*
X161576190Y-112562295D02*
X161652381Y-112600390D01*
X161652381Y-112600390D02*
X161690476Y-112638485D01*
X161690476Y-112638485D02*
X161728571Y-112714676D01*
X161728571Y-112714676D02*
X161728571Y-112790866D01*
X161728571Y-112790866D02*
X161690476Y-112905152D01*
X161690476Y-112905152D02*
X161233333Y-113362295D01*
X161233333Y-113362295D02*
X161728571Y-113362295D01*
X156109524Y-108862295D02*
X156109524Y-108062295D01*
X156109524Y-108062295D02*
X156300000Y-108062295D01*
X156300000Y-108062295D02*
X156414286Y-108100390D01*
X156414286Y-108100390D02*
X156490476Y-108176580D01*
X156490476Y-108176580D02*
X156528571Y-108252771D01*
X156528571Y-108252771D02*
X156566667Y-108405152D01*
X156566667Y-108405152D02*
X156566667Y-108519438D01*
X156566667Y-108519438D02*
X156528571Y-108671819D01*
X156528571Y-108671819D02*
X156490476Y-108748009D01*
X156490476Y-108748009D02*
X156414286Y-108824200D01*
X156414286Y-108824200D02*
X156300000Y-108862295D01*
X156300000Y-108862295D02*
X156109524Y-108862295D01*
X157328571Y-108862295D02*
X156871428Y-108862295D01*
X157100000Y-108862295D02*
X157100000Y-108062295D01*
X157100000Y-108062295D02*
X157023809Y-108176580D01*
X157023809Y-108176580D02*
X156947619Y-108252771D01*
X156947619Y-108252771D02*
X156871428Y-108290866D01*
X180448295Y-106940332D02*
X180067342Y-107206999D01*
X180448295Y-107397475D02*
X179648295Y-107397475D01*
X179648295Y-107397475D02*
X179648295Y-107092713D01*
X179648295Y-107092713D02*
X179686390Y-107016523D01*
X179686390Y-107016523D02*
X179724485Y-106978428D01*
X179724485Y-106978428D02*
X179800676Y-106940332D01*
X179800676Y-106940332D02*
X179914961Y-106940332D01*
X179914961Y-106940332D02*
X179991152Y-106978428D01*
X179991152Y-106978428D02*
X180029247Y-107016523D01*
X180029247Y-107016523D02*
X180067342Y-107092713D01*
X180067342Y-107092713D02*
X180067342Y-107397475D01*
X180448295Y-106559380D02*
X180448295Y-106406999D01*
X180448295Y-106406999D02*
X180410200Y-106330809D01*
X180410200Y-106330809D02*
X180372104Y-106292713D01*
X180372104Y-106292713D02*
X180257819Y-106216523D01*
X180257819Y-106216523D02*
X180105438Y-106178428D01*
X180105438Y-106178428D02*
X179800676Y-106178428D01*
X179800676Y-106178428D02*
X179724485Y-106216523D01*
X179724485Y-106216523D02*
X179686390Y-106254618D01*
X179686390Y-106254618D02*
X179648295Y-106330809D01*
X179648295Y-106330809D02*
X179648295Y-106483190D01*
X179648295Y-106483190D02*
X179686390Y-106559380D01*
X179686390Y-106559380D02*
X179724485Y-106597475D01*
X179724485Y-106597475D02*
X179800676Y-106635571D01*
X179800676Y-106635571D02*
X179991152Y-106635571D01*
X179991152Y-106635571D02*
X180067342Y-106597475D01*
X180067342Y-106597475D02*
X180105438Y-106559380D01*
X180105438Y-106559380D02*
X180143533Y-106483190D01*
X180143533Y-106483190D02*
X180143533Y-106330809D01*
X180143533Y-106330809D02*
X180105438Y-106254618D01*
X180105438Y-106254618D02*
X180067342Y-106216523D01*
X180067342Y-106216523D02*
X179991152Y-106178428D01*
X196486104Y-142114285D02*
X196524200Y-142152381D01*
X196524200Y-142152381D02*
X196562295Y-142266666D01*
X196562295Y-142266666D02*
X196562295Y-142342857D01*
X196562295Y-142342857D02*
X196524200Y-142457143D01*
X196524200Y-142457143D02*
X196448009Y-142533333D01*
X196448009Y-142533333D02*
X196371819Y-142571428D01*
X196371819Y-142571428D02*
X196219438Y-142609524D01*
X196219438Y-142609524D02*
X196105152Y-142609524D01*
X196105152Y-142609524D02*
X195952771Y-142571428D01*
X195952771Y-142571428D02*
X195876580Y-142533333D01*
X195876580Y-142533333D02*
X195800390Y-142457143D01*
X195800390Y-142457143D02*
X195762295Y-142342857D01*
X195762295Y-142342857D02*
X195762295Y-142266666D01*
X195762295Y-142266666D02*
X195800390Y-142152381D01*
X195800390Y-142152381D02*
X195838485Y-142114285D01*
X195838485Y-141809524D02*
X195800390Y-141771428D01*
X195800390Y-141771428D02*
X195762295Y-141695238D01*
X195762295Y-141695238D02*
X195762295Y-141504762D01*
X195762295Y-141504762D02*
X195800390Y-141428571D01*
X195800390Y-141428571D02*
X195838485Y-141390476D01*
X195838485Y-141390476D02*
X195914676Y-141352381D01*
X195914676Y-141352381D02*
X195990866Y-141352381D01*
X195990866Y-141352381D02*
X196105152Y-141390476D01*
X196105152Y-141390476D02*
X196562295Y-141847619D01*
X196562295Y-141847619D02*
X196562295Y-141352381D01*
X195762295Y-141085714D02*
X195762295Y-140590476D01*
X195762295Y-140590476D02*
X196067057Y-140857142D01*
X196067057Y-140857142D02*
X196067057Y-140742857D01*
X196067057Y-140742857D02*
X196105152Y-140666666D01*
X196105152Y-140666666D02*
X196143247Y-140628571D01*
X196143247Y-140628571D02*
X196219438Y-140590476D01*
X196219438Y-140590476D02*
X196409914Y-140590476D01*
X196409914Y-140590476D02*
X196486104Y-140628571D01*
X196486104Y-140628571D02*
X196524200Y-140666666D01*
X196524200Y-140666666D02*
X196562295Y-140742857D01*
X196562295Y-140742857D02*
X196562295Y-140971428D01*
X196562295Y-140971428D02*
X196524200Y-141047619D01*
X196524200Y-141047619D02*
X196486104Y-141085714D01*
X178085714Y-123386104D02*
X178047618Y-123424200D01*
X178047618Y-123424200D02*
X177933333Y-123462295D01*
X177933333Y-123462295D02*
X177857142Y-123462295D01*
X177857142Y-123462295D02*
X177742856Y-123424200D01*
X177742856Y-123424200D02*
X177666666Y-123348009D01*
X177666666Y-123348009D02*
X177628571Y-123271819D01*
X177628571Y-123271819D02*
X177590475Y-123119438D01*
X177590475Y-123119438D02*
X177590475Y-123005152D01*
X177590475Y-123005152D02*
X177628571Y-122852771D01*
X177628571Y-122852771D02*
X177666666Y-122776580D01*
X177666666Y-122776580D02*
X177742856Y-122700390D01*
X177742856Y-122700390D02*
X177857142Y-122662295D01*
X177857142Y-122662295D02*
X177933333Y-122662295D01*
X177933333Y-122662295D02*
X178047618Y-122700390D01*
X178047618Y-122700390D02*
X178085714Y-122738485D01*
X178390475Y-122738485D02*
X178428571Y-122700390D01*
X178428571Y-122700390D02*
X178504761Y-122662295D01*
X178504761Y-122662295D02*
X178695237Y-122662295D01*
X178695237Y-122662295D02*
X178771428Y-122700390D01*
X178771428Y-122700390D02*
X178809523Y-122738485D01*
X178809523Y-122738485D02*
X178847618Y-122814676D01*
X178847618Y-122814676D02*
X178847618Y-122890866D01*
X178847618Y-122890866D02*
X178809523Y-123005152D01*
X178809523Y-123005152D02*
X178352380Y-123462295D01*
X178352380Y-123462295D02*
X178847618Y-123462295D01*
X179533333Y-122928961D02*
X179533333Y-123462295D01*
X179342857Y-122624200D02*
X179152380Y-123195628D01*
X179152380Y-123195628D02*
X179647619Y-123195628D01*
X168866667Y-144562295D02*
X168600000Y-144181342D01*
X168409524Y-144562295D02*
X168409524Y-143762295D01*
X168409524Y-143762295D02*
X168714286Y-143762295D01*
X168714286Y-143762295D02*
X168790476Y-143800390D01*
X168790476Y-143800390D02*
X168828571Y-143838485D01*
X168828571Y-143838485D02*
X168866667Y-143914676D01*
X168866667Y-143914676D02*
X168866667Y-144028961D01*
X168866667Y-144028961D02*
X168828571Y-144105152D01*
X168828571Y-144105152D02*
X168790476Y-144143247D01*
X168790476Y-144143247D02*
X168714286Y-144181342D01*
X168714286Y-144181342D02*
X168409524Y-144181342D01*
X169590476Y-143762295D02*
X169209524Y-143762295D01*
X169209524Y-143762295D02*
X169171428Y-144143247D01*
X169171428Y-144143247D02*
X169209524Y-144105152D01*
X169209524Y-144105152D02*
X169285714Y-144067057D01*
X169285714Y-144067057D02*
X169476190Y-144067057D01*
X169476190Y-144067057D02*
X169552381Y-144105152D01*
X169552381Y-144105152D02*
X169590476Y-144143247D01*
X169590476Y-144143247D02*
X169628571Y-144219438D01*
X169628571Y-144219438D02*
X169628571Y-144409914D01*
X169628571Y-144409914D02*
X169590476Y-144486104D01*
X169590476Y-144486104D02*
X169552381Y-144524200D01*
X169552381Y-144524200D02*
X169476190Y-144562295D01*
X169476190Y-144562295D02*
X169285714Y-144562295D01*
X169285714Y-144562295D02*
X169209524Y-144524200D01*
X169209524Y-144524200D02*
X169171428Y-144486104D01*
X186214104Y-117393485D02*
X186252200Y-117431581D01*
X186252200Y-117431581D02*
X186290295Y-117545866D01*
X186290295Y-117545866D02*
X186290295Y-117622057D01*
X186290295Y-117622057D02*
X186252200Y-117736343D01*
X186252200Y-117736343D02*
X186176009Y-117812533D01*
X186176009Y-117812533D02*
X186099819Y-117850628D01*
X186099819Y-117850628D02*
X185947438Y-117888724D01*
X185947438Y-117888724D02*
X185833152Y-117888724D01*
X185833152Y-117888724D02*
X185680771Y-117850628D01*
X185680771Y-117850628D02*
X185604580Y-117812533D01*
X185604580Y-117812533D02*
X185528390Y-117736343D01*
X185528390Y-117736343D02*
X185490295Y-117622057D01*
X185490295Y-117622057D02*
X185490295Y-117545866D01*
X185490295Y-117545866D02*
X185528390Y-117431581D01*
X185528390Y-117431581D02*
X185566485Y-117393485D01*
X185566485Y-117088724D02*
X185528390Y-117050628D01*
X185528390Y-117050628D02*
X185490295Y-116974438D01*
X185490295Y-116974438D02*
X185490295Y-116783962D01*
X185490295Y-116783962D02*
X185528390Y-116707771D01*
X185528390Y-116707771D02*
X185566485Y-116669676D01*
X185566485Y-116669676D02*
X185642676Y-116631581D01*
X185642676Y-116631581D02*
X185718866Y-116631581D01*
X185718866Y-116631581D02*
X185833152Y-116669676D01*
X185833152Y-116669676D02*
X186290295Y-117126819D01*
X186290295Y-117126819D02*
X186290295Y-116631581D01*
X185490295Y-115945866D02*
X185490295Y-116098247D01*
X185490295Y-116098247D02*
X185528390Y-116174438D01*
X185528390Y-116174438D02*
X185566485Y-116212533D01*
X185566485Y-116212533D02*
X185680771Y-116288723D01*
X185680771Y-116288723D02*
X185833152Y-116326819D01*
X185833152Y-116326819D02*
X186137914Y-116326819D01*
X186137914Y-116326819D02*
X186214104Y-116288723D01*
X186214104Y-116288723D02*
X186252200Y-116250628D01*
X186252200Y-116250628D02*
X186290295Y-116174438D01*
X186290295Y-116174438D02*
X186290295Y-116022057D01*
X186290295Y-116022057D02*
X186252200Y-115945866D01*
X186252200Y-115945866D02*
X186214104Y-115907771D01*
X186214104Y-115907771D02*
X186137914Y-115869676D01*
X186137914Y-115869676D02*
X185947438Y-115869676D01*
X185947438Y-115869676D02*
X185871247Y-115907771D01*
X185871247Y-115907771D02*
X185833152Y-115945866D01*
X185833152Y-115945866D02*
X185795057Y-116022057D01*
X185795057Y-116022057D02*
X185795057Y-116174438D01*
X185795057Y-116174438D02*
X185833152Y-116250628D01*
X185833152Y-116250628D02*
X185871247Y-116288723D01*
X185871247Y-116288723D02*
X185947438Y-116326819D01*
X179309524Y-145362295D02*
X179309524Y-144562295D01*
X179309524Y-144562295D02*
X179500000Y-144562295D01*
X179500000Y-144562295D02*
X179614286Y-144600390D01*
X179614286Y-144600390D02*
X179690476Y-144676580D01*
X179690476Y-144676580D02*
X179728571Y-144752771D01*
X179728571Y-144752771D02*
X179766667Y-144905152D01*
X179766667Y-144905152D02*
X179766667Y-145019438D01*
X179766667Y-145019438D02*
X179728571Y-145171819D01*
X179728571Y-145171819D02*
X179690476Y-145248009D01*
X179690476Y-145248009D02*
X179614286Y-145324200D01*
X179614286Y-145324200D02*
X179500000Y-145362295D01*
X179500000Y-145362295D02*
X179309524Y-145362295D01*
X180490476Y-144562295D02*
X180109524Y-144562295D01*
X180109524Y-144562295D02*
X180071428Y-144943247D01*
X180071428Y-144943247D02*
X180109524Y-144905152D01*
X180109524Y-144905152D02*
X180185714Y-144867057D01*
X180185714Y-144867057D02*
X180376190Y-144867057D01*
X180376190Y-144867057D02*
X180452381Y-144905152D01*
X180452381Y-144905152D02*
X180490476Y-144943247D01*
X180490476Y-144943247D02*
X180528571Y-145019438D01*
X180528571Y-145019438D02*
X180528571Y-145209914D01*
X180528571Y-145209914D02*
X180490476Y-145286104D01*
X180490476Y-145286104D02*
X180452381Y-145324200D01*
X180452381Y-145324200D02*
X180376190Y-145362295D01*
X180376190Y-145362295D02*
X180185714Y-145362295D01*
X180185714Y-145362295D02*
X180109524Y-145324200D01*
X180109524Y-145324200D02*
X180071428Y-145286104D01*
X184185714Y-141462295D02*
X183919047Y-141081342D01*
X183728571Y-141462295D02*
X183728571Y-140662295D01*
X183728571Y-140662295D02*
X184033333Y-140662295D01*
X184033333Y-140662295D02*
X184109523Y-140700390D01*
X184109523Y-140700390D02*
X184147618Y-140738485D01*
X184147618Y-140738485D02*
X184185714Y-140814676D01*
X184185714Y-140814676D02*
X184185714Y-140928961D01*
X184185714Y-140928961D02*
X184147618Y-141005152D01*
X184147618Y-141005152D02*
X184109523Y-141043247D01*
X184109523Y-141043247D02*
X184033333Y-141081342D01*
X184033333Y-141081342D02*
X183728571Y-141081342D01*
X184947618Y-141462295D02*
X184490475Y-141462295D01*
X184719047Y-141462295D02*
X184719047Y-140662295D01*
X184719047Y-140662295D02*
X184642856Y-140776580D01*
X184642856Y-140776580D02*
X184566666Y-140852771D01*
X184566666Y-140852771D02*
X184490475Y-140890866D01*
X185214285Y-140662295D02*
X185709523Y-140662295D01*
X185709523Y-140662295D02*
X185442857Y-140967057D01*
X185442857Y-140967057D02*
X185557142Y-140967057D01*
X185557142Y-140967057D02*
X185633333Y-141005152D01*
X185633333Y-141005152D02*
X185671428Y-141043247D01*
X185671428Y-141043247D02*
X185709523Y-141119438D01*
X185709523Y-141119438D02*
X185709523Y-141309914D01*
X185709523Y-141309914D02*
X185671428Y-141386104D01*
X185671428Y-141386104D02*
X185633333Y-141424200D01*
X185633333Y-141424200D02*
X185557142Y-141462295D01*
X185557142Y-141462295D02*
X185328571Y-141462295D01*
X185328571Y-141462295D02*
X185252380Y-141424200D01*
X185252380Y-141424200D02*
X185214285Y-141386104D01*
X184285714Y-120686104D02*
X184247618Y-120724200D01*
X184247618Y-120724200D02*
X184133333Y-120762295D01*
X184133333Y-120762295D02*
X184057142Y-120762295D01*
X184057142Y-120762295D02*
X183942856Y-120724200D01*
X183942856Y-120724200D02*
X183866666Y-120648009D01*
X183866666Y-120648009D02*
X183828571Y-120571819D01*
X183828571Y-120571819D02*
X183790475Y-120419438D01*
X183790475Y-120419438D02*
X183790475Y-120305152D01*
X183790475Y-120305152D02*
X183828571Y-120152771D01*
X183828571Y-120152771D02*
X183866666Y-120076580D01*
X183866666Y-120076580D02*
X183942856Y-120000390D01*
X183942856Y-120000390D02*
X184057142Y-119962295D01*
X184057142Y-119962295D02*
X184133333Y-119962295D01*
X184133333Y-119962295D02*
X184247618Y-120000390D01*
X184247618Y-120000390D02*
X184285714Y-120038485D01*
X184590475Y-120038485D02*
X184628571Y-120000390D01*
X184628571Y-120000390D02*
X184704761Y-119962295D01*
X184704761Y-119962295D02*
X184895237Y-119962295D01*
X184895237Y-119962295D02*
X184971428Y-120000390D01*
X184971428Y-120000390D02*
X185009523Y-120038485D01*
X185009523Y-120038485D02*
X185047618Y-120114676D01*
X185047618Y-120114676D02*
X185047618Y-120190866D01*
X185047618Y-120190866D02*
X185009523Y-120305152D01*
X185009523Y-120305152D02*
X184552380Y-120762295D01*
X184552380Y-120762295D02*
X185047618Y-120762295D01*
X185504761Y-120305152D02*
X185428571Y-120267057D01*
X185428571Y-120267057D02*
X185390476Y-120228961D01*
X185390476Y-120228961D02*
X185352380Y-120152771D01*
X185352380Y-120152771D02*
X185352380Y-120114676D01*
X185352380Y-120114676D02*
X185390476Y-120038485D01*
X185390476Y-120038485D02*
X185428571Y-120000390D01*
X185428571Y-120000390D02*
X185504761Y-119962295D01*
X185504761Y-119962295D02*
X185657142Y-119962295D01*
X185657142Y-119962295D02*
X185733333Y-120000390D01*
X185733333Y-120000390D02*
X185771428Y-120038485D01*
X185771428Y-120038485D02*
X185809523Y-120114676D01*
X185809523Y-120114676D02*
X185809523Y-120152771D01*
X185809523Y-120152771D02*
X185771428Y-120228961D01*
X185771428Y-120228961D02*
X185733333Y-120267057D01*
X185733333Y-120267057D02*
X185657142Y-120305152D01*
X185657142Y-120305152D02*
X185504761Y-120305152D01*
X185504761Y-120305152D02*
X185428571Y-120343247D01*
X185428571Y-120343247D02*
X185390476Y-120381342D01*
X185390476Y-120381342D02*
X185352380Y-120457533D01*
X185352380Y-120457533D02*
X185352380Y-120609914D01*
X185352380Y-120609914D02*
X185390476Y-120686104D01*
X185390476Y-120686104D02*
X185428571Y-120724200D01*
X185428571Y-120724200D02*
X185504761Y-120762295D01*
X185504761Y-120762295D02*
X185657142Y-120762295D01*
X185657142Y-120762295D02*
X185733333Y-120724200D01*
X185733333Y-120724200D02*
X185771428Y-120686104D01*
X185771428Y-120686104D02*
X185809523Y-120609914D01*
X185809523Y-120609914D02*
X185809523Y-120457533D01*
X185809523Y-120457533D02*
X185771428Y-120381342D01*
X185771428Y-120381342D02*
X185733333Y-120343247D01*
X185733333Y-120343247D02*
X185657142Y-120305152D01*
X193262295Y-133014285D02*
X192881342Y-133280952D01*
X193262295Y-133471428D02*
X192462295Y-133471428D01*
X192462295Y-133471428D02*
X192462295Y-133166666D01*
X192462295Y-133166666D02*
X192500390Y-133090476D01*
X192500390Y-133090476D02*
X192538485Y-133052381D01*
X192538485Y-133052381D02*
X192614676Y-133014285D01*
X192614676Y-133014285D02*
X192728961Y-133014285D01*
X192728961Y-133014285D02*
X192805152Y-133052381D01*
X192805152Y-133052381D02*
X192843247Y-133090476D01*
X192843247Y-133090476D02*
X192881342Y-133166666D01*
X192881342Y-133166666D02*
X192881342Y-133471428D01*
X193262295Y-132252381D02*
X193262295Y-132709524D01*
X193262295Y-132480952D02*
X192462295Y-132480952D01*
X192462295Y-132480952D02*
X192576580Y-132557143D01*
X192576580Y-132557143D02*
X192652771Y-132633333D01*
X192652771Y-132633333D02*
X192690866Y-132709524D01*
X192462295Y-131566666D02*
X192462295Y-131719047D01*
X192462295Y-131719047D02*
X192500390Y-131795238D01*
X192500390Y-131795238D02*
X192538485Y-131833333D01*
X192538485Y-131833333D02*
X192652771Y-131909523D01*
X192652771Y-131909523D02*
X192805152Y-131947619D01*
X192805152Y-131947619D02*
X193109914Y-131947619D01*
X193109914Y-131947619D02*
X193186104Y-131909523D01*
X193186104Y-131909523D02*
X193224200Y-131871428D01*
X193224200Y-131871428D02*
X193262295Y-131795238D01*
X193262295Y-131795238D02*
X193262295Y-131642857D01*
X193262295Y-131642857D02*
X193224200Y-131566666D01*
X193224200Y-131566666D02*
X193186104Y-131528571D01*
X193186104Y-131528571D02*
X193109914Y-131490476D01*
X193109914Y-131490476D02*
X192919438Y-131490476D01*
X192919438Y-131490476D02*
X192843247Y-131528571D01*
X192843247Y-131528571D02*
X192805152Y-131566666D01*
X192805152Y-131566666D02*
X192767057Y-131642857D01*
X192767057Y-131642857D02*
X192767057Y-131795238D01*
X192767057Y-131795238D02*
X192805152Y-131871428D01*
X192805152Y-131871428D02*
X192843247Y-131909523D01*
X192843247Y-131909523D02*
X192919438Y-131947619D01*
X164462295Y-144319523D02*
X165109914Y-144319523D01*
X165109914Y-144319523D02*
X165186104Y-144281428D01*
X165186104Y-144281428D02*
X165224200Y-144243333D01*
X165224200Y-144243333D02*
X165262295Y-144167142D01*
X165262295Y-144167142D02*
X165262295Y-144014761D01*
X165262295Y-144014761D02*
X165224200Y-143938571D01*
X165224200Y-143938571D02*
X165186104Y-143900476D01*
X165186104Y-143900476D02*
X165109914Y-143862380D01*
X165109914Y-143862380D02*
X164462295Y-143862380D01*
X165262295Y-143062381D02*
X165262295Y-143519524D01*
X165262295Y-143290952D02*
X164462295Y-143290952D01*
X164462295Y-143290952D02*
X164576580Y-143367143D01*
X164576580Y-143367143D02*
X164652771Y-143443333D01*
X164652771Y-143443333D02*
X164690866Y-143519524D01*
X157042400Y-117601167D02*
X157080495Y-117486881D01*
X157080495Y-117486881D02*
X157080495Y-117296405D01*
X157080495Y-117296405D02*
X157042400Y-117220214D01*
X157042400Y-117220214D02*
X157004304Y-117182119D01*
X157004304Y-117182119D02*
X156928114Y-117144024D01*
X156928114Y-117144024D02*
X156851923Y-117144024D01*
X156851923Y-117144024D02*
X156775733Y-117182119D01*
X156775733Y-117182119D02*
X156737638Y-117220214D01*
X156737638Y-117220214D02*
X156699542Y-117296405D01*
X156699542Y-117296405D02*
X156661447Y-117448786D01*
X156661447Y-117448786D02*
X156623352Y-117524976D01*
X156623352Y-117524976D02*
X156585257Y-117563071D01*
X156585257Y-117563071D02*
X156509066Y-117601167D01*
X156509066Y-117601167D02*
X156432876Y-117601167D01*
X156432876Y-117601167D02*
X156356685Y-117563071D01*
X156356685Y-117563071D02*
X156318590Y-117524976D01*
X156318590Y-117524976D02*
X156280495Y-117448786D01*
X156280495Y-117448786D02*
X156280495Y-117258309D01*
X156280495Y-117258309D02*
X156318590Y-117144024D01*
X156280495Y-116877357D02*
X157080495Y-116686881D01*
X157080495Y-116686881D02*
X156509066Y-116534500D01*
X156509066Y-116534500D02*
X157080495Y-116382119D01*
X157080495Y-116382119D02*
X156280495Y-116191643D01*
X156280495Y-115963071D02*
X156280495Y-115467833D01*
X156280495Y-115467833D02*
X156585257Y-115734499D01*
X156585257Y-115734499D02*
X156585257Y-115620214D01*
X156585257Y-115620214D02*
X156623352Y-115544023D01*
X156623352Y-115544023D02*
X156661447Y-115505928D01*
X156661447Y-115505928D02*
X156737638Y-115467833D01*
X156737638Y-115467833D02*
X156928114Y-115467833D01*
X156928114Y-115467833D02*
X157004304Y-115505928D01*
X157004304Y-115505928D02*
X157042400Y-115544023D01*
X157042400Y-115544023D02*
X157080495Y-115620214D01*
X157080495Y-115620214D02*
X157080495Y-115848785D01*
X157080495Y-115848785D02*
X157042400Y-115924976D01*
X157042400Y-115924976D02*
X157004304Y-115963071D01*
X184285714Y-122186104D02*
X184247618Y-122224200D01*
X184247618Y-122224200D02*
X184133333Y-122262295D01*
X184133333Y-122262295D02*
X184057142Y-122262295D01*
X184057142Y-122262295D02*
X183942856Y-122224200D01*
X183942856Y-122224200D02*
X183866666Y-122148009D01*
X183866666Y-122148009D02*
X183828571Y-122071819D01*
X183828571Y-122071819D02*
X183790475Y-121919438D01*
X183790475Y-121919438D02*
X183790475Y-121805152D01*
X183790475Y-121805152D02*
X183828571Y-121652771D01*
X183828571Y-121652771D02*
X183866666Y-121576580D01*
X183866666Y-121576580D02*
X183942856Y-121500390D01*
X183942856Y-121500390D02*
X184057142Y-121462295D01*
X184057142Y-121462295D02*
X184133333Y-121462295D01*
X184133333Y-121462295D02*
X184247618Y-121500390D01*
X184247618Y-121500390D02*
X184285714Y-121538485D01*
X184590475Y-121538485D02*
X184628571Y-121500390D01*
X184628571Y-121500390D02*
X184704761Y-121462295D01*
X184704761Y-121462295D02*
X184895237Y-121462295D01*
X184895237Y-121462295D02*
X184971428Y-121500390D01*
X184971428Y-121500390D02*
X185009523Y-121538485D01*
X185009523Y-121538485D02*
X185047618Y-121614676D01*
X185047618Y-121614676D02*
X185047618Y-121690866D01*
X185047618Y-121690866D02*
X185009523Y-121805152D01*
X185009523Y-121805152D02*
X184552380Y-122262295D01*
X184552380Y-122262295D02*
X185047618Y-122262295D01*
X185314285Y-121462295D02*
X185847619Y-121462295D01*
X185847619Y-121462295D02*
X185504761Y-122262295D01*
X190990476Y-119562295D02*
X190990476Y-120209914D01*
X190990476Y-120209914D02*
X191028571Y-120286104D01*
X191028571Y-120286104D02*
X191066666Y-120324200D01*
X191066666Y-120324200D02*
X191142857Y-120362295D01*
X191142857Y-120362295D02*
X191295238Y-120362295D01*
X191295238Y-120362295D02*
X191371428Y-120324200D01*
X191371428Y-120324200D02*
X191409523Y-120286104D01*
X191409523Y-120286104D02*
X191447619Y-120209914D01*
X191447619Y-120209914D02*
X191447619Y-119562295D01*
X192171428Y-119562295D02*
X192019047Y-119562295D01*
X192019047Y-119562295D02*
X191942856Y-119600390D01*
X191942856Y-119600390D02*
X191904761Y-119638485D01*
X191904761Y-119638485D02*
X191828571Y-119752771D01*
X191828571Y-119752771D02*
X191790475Y-119905152D01*
X191790475Y-119905152D02*
X191790475Y-120209914D01*
X191790475Y-120209914D02*
X191828571Y-120286104D01*
X191828571Y-120286104D02*
X191866666Y-120324200D01*
X191866666Y-120324200D02*
X191942856Y-120362295D01*
X191942856Y-120362295D02*
X192095237Y-120362295D01*
X192095237Y-120362295D02*
X192171428Y-120324200D01*
X192171428Y-120324200D02*
X192209523Y-120286104D01*
X192209523Y-120286104D02*
X192247618Y-120209914D01*
X192247618Y-120209914D02*
X192247618Y-120019438D01*
X192247618Y-120019438D02*
X192209523Y-119943247D01*
X192209523Y-119943247D02*
X192171428Y-119905152D01*
X192171428Y-119905152D02*
X192095237Y-119867057D01*
X192095237Y-119867057D02*
X191942856Y-119867057D01*
X191942856Y-119867057D02*
X191866666Y-119905152D01*
X191866666Y-119905152D02*
X191828571Y-119943247D01*
X191828571Y-119943247D02*
X191790475Y-120019438D01*
X194685714Y-120362295D02*
X194419047Y-119981342D01*
X194228571Y-120362295D02*
X194228571Y-119562295D01*
X194228571Y-119562295D02*
X194533333Y-119562295D01*
X194533333Y-119562295D02*
X194609523Y-119600390D01*
X194609523Y-119600390D02*
X194647618Y-119638485D01*
X194647618Y-119638485D02*
X194685714Y-119714676D01*
X194685714Y-119714676D02*
X194685714Y-119828961D01*
X194685714Y-119828961D02*
X194647618Y-119905152D01*
X194647618Y-119905152D02*
X194609523Y-119943247D01*
X194609523Y-119943247D02*
X194533333Y-119981342D01*
X194533333Y-119981342D02*
X194228571Y-119981342D01*
X195447618Y-120362295D02*
X194990475Y-120362295D01*
X195219047Y-120362295D02*
X195219047Y-119562295D01*
X195219047Y-119562295D02*
X195142856Y-119676580D01*
X195142856Y-119676580D02*
X195066666Y-119752771D01*
X195066666Y-119752771D02*
X194990475Y-119790866D01*
X195904761Y-119905152D02*
X195828571Y-119867057D01*
X195828571Y-119867057D02*
X195790476Y-119828961D01*
X195790476Y-119828961D02*
X195752380Y-119752771D01*
X195752380Y-119752771D02*
X195752380Y-119714676D01*
X195752380Y-119714676D02*
X195790476Y-119638485D01*
X195790476Y-119638485D02*
X195828571Y-119600390D01*
X195828571Y-119600390D02*
X195904761Y-119562295D01*
X195904761Y-119562295D02*
X196057142Y-119562295D01*
X196057142Y-119562295D02*
X196133333Y-119600390D01*
X196133333Y-119600390D02*
X196171428Y-119638485D01*
X196171428Y-119638485D02*
X196209523Y-119714676D01*
X196209523Y-119714676D02*
X196209523Y-119752771D01*
X196209523Y-119752771D02*
X196171428Y-119828961D01*
X196171428Y-119828961D02*
X196133333Y-119867057D01*
X196133333Y-119867057D02*
X196057142Y-119905152D01*
X196057142Y-119905152D02*
X195904761Y-119905152D01*
X195904761Y-119905152D02*
X195828571Y-119943247D01*
X195828571Y-119943247D02*
X195790476Y-119981342D01*
X195790476Y-119981342D02*
X195752380Y-120057533D01*
X195752380Y-120057533D02*
X195752380Y-120209914D01*
X195752380Y-120209914D02*
X195790476Y-120286104D01*
X195790476Y-120286104D02*
X195828571Y-120324200D01*
X195828571Y-120324200D02*
X195904761Y-120362295D01*
X195904761Y-120362295D02*
X196057142Y-120362295D01*
X196057142Y-120362295D02*
X196133333Y-120324200D01*
X196133333Y-120324200D02*
X196171428Y-120286104D01*
X196171428Y-120286104D02*
X196209523Y-120209914D01*
X196209523Y-120209914D02*
X196209523Y-120057533D01*
X196209523Y-120057533D02*
X196171428Y-119981342D01*
X196171428Y-119981342D02*
X196133333Y-119943247D01*
X196133333Y-119943247D02*
X196057142Y-119905152D01*
X191666667Y-123762295D02*
X191400000Y-123381342D01*
X191209524Y-123762295D02*
X191209524Y-122962295D01*
X191209524Y-122962295D02*
X191514286Y-122962295D01*
X191514286Y-122962295D02*
X191590476Y-123000390D01*
X191590476Y-123000390D02*
X191628571Y-123038485D01*
X191628571Y-123038485D02*
X191666667Y-123114676D01*
X191666667Y-123114676D02*
X191666667Y-123228961D01*
X191666667Y-123228961D02*
X191628571Y-123305152D01*
X191628571Y-123305152D02*
X191590476Y-123343247D01*
X191590476Y-123343247D02*
X191514286Y-123381342D01*
X191514286Y-123381342D02*
X191209524Y-123381342D01*
X192352381Y-123228961D02*
X192352381Y-123762295D01*
X192161905Y-122924200D02*
X191971428Y-123495628D01*
X191971428Y-123495628D02*
X192466667Y-123495628D01*
X196662295Y-125914285D02*
X196281342Y-126180952D01*
X196662295Y-126371428D02*
X195862295Y-126371428D01*
X195862295Y-126371428D02*
X195862295Y-126066666D01*
X195862295Y-126066666D02*
X195900390Y-125990476D01*
X195900390Y-125990476D02*
X195938485Y-125952381D01*
X195938485Y-125952381D02*
X196014676Y-125914285D01*
X196014676Y-125914285D02*
X196128961Y-125914285D01*
X196128961Y-125914285D02*
X196205152Y-125952381D01*
X196205152Y-125952381D02*
X196243247Y-125990476D01*
X196243247Y-125990476D02*
X196281342Y-126066666D01*
X196281342Y-126066666D02*
X196281342Y-126371428D01*
X196662295Y-125152381D02*
X196662295Y-125609524D01*
X196662295Y-125380952D02*
X195862295Y-125380952D01*
X195862295Y-125380952D02*
X195976580Y-125457143D01*
X195976580Y-125457143D02*
X196052771Y-125533333D01*
X196052771Y-125533333D02*
X196090866Y-125609524D01*
X196128961Y-124466666D02*
X196662295Y-124466666D01*
X195824200Y-124657142D02*
X196395628Y-124847619D01*
X196395628Y-124847619D02*
X196395628Y-124352380D01*
X181828571Y-131562295D02*
X181828571Y-130762295D01*
X181828571Y-130762295D02*
X182019047Y-130762295D01*
X182019047Y-130762295D02*
X182133333Y-130800390D01*
X182133333Y-130800390D02*
X182209523Y-130876580D01*
X182209523Y-130876580D02*
X182247618Y-130952771D01*
X182247618Y-130952771D02*
X182285714Y-131105152D01*
X182285714Y-131105152D02*
X182285714Y-131219438D01*
X182285714Y-131219438D02*
X182247618Y-131371819D01*
X182247618Y-131371819D02*
X182209523Y-131448009D01*
X182209523Y-131448009D02*
X182133333Y-131524200D01*
X182133333Y-131524200D02*
X182019047Y-131562295D01*
X182019047Y-131562295D02*
X181828571Y-131562295D01*
X183047618Y-131562295D02*
X182590475Y-131562295D01*
X182819047Y-131562295D02*
X182819047Y-130762295D01*
X182819047Y-130762295D02*
X182742856Y-130876580D01*
X182742856Y-130876580D02*
X182666666Y-130952771D01*
X182666666Y-130952771D02*
X182590475Y-130990866D01*
X183542857Y-130762295D02*
X183619047Y-130762295D01*
X183619047Y-130762295D02*
X183695238Y-130800390D01*
X183695238Y-130800390D02*
X183733333Y-130838485D01*
X183733333Y-130838485D02*
X183771428Y-130914676D01*
X183771428Y-130914676D02*
X183809523Y-131067057D01*
X183809523Y-131067057D02*
X183809523Y-131257533D01*
X183809523Y-131257533D02*
X183771428Y-131409914D01*
X183771428Y-131409914D02*
X183733333Y-131486104D01*
X183733333Y-131486104D02*
X183695238Y-131524200D01*
X183695238Y-131524200D02*
X183619047Y-131562295D01*
X183619047Y-131562295D02*
X183542857Y-131562295D01*
X183542857Y-131562295D02*
X183466666Y-131524200D01*
X183466666Y-131524200D02*
X183428571Y-131486104D01*
X183428571Y-131486104D02*
X183390476Y-131409914D01*
X183390476Y-131409914D02*
X183352380Y-131257533D01*
X183352380Y-131257533D02*
X183352380Y-131067057D01*
X183352380Y-131067057D02*
X183390476Y-130914676D01*
X183390476Y-130914676D02*
X183428571Y-130838485D01*
X183428571Y-130838485D02*
X183466666Y-130800390D01*
X183466666Y-130800390D02*
X183542857Y-130762295D01*
X182662295Y-140814285D02*
X182281342Y-141080952D01*
X182662295Y-141271428D02*
X181862295Y-141271428D01*
X181862295Y-141271428D02*
X181862295Y-140966666D01*
X181862295Y-140966666D02*
X181900390Y-140890476D01*
X181900390Y-140890476D02*
X181938485Y-140852381D01*
X181938485Y-140852381D02*
X182014676Y-140814285D01*
X182014676Y-140814285D02*
X182128961Y-140814285D01*
X182128961Y-140814285D02*
X182205152Y-140852381D01*
X182205152Y-140852381D02*
X182243247Y-140890476D01*
X182243247Y-140890476D02*
X182281342Y-140966666D01*
X182281342Y-140966666D02*
X182281342Y-141271428D01*
X182662295Y-140052381D02*
X182662295Y-140509524D01*
X182662295Y-140280952D02*
X181862295Y-140280952D01*
X181862295Y-140280952D02*
X181976580Y-140357143D01*
X181976580Y-140357143D02*
X182052771Y-140433333D01*
X182052771Y-140433333D02*
X182090866Y-140509524D01*
X181938485Y-139747619D02*
X181900390Y-139709523D01*
X181900390Y-139709523D02*
X181862295Y-139633333D01*
X181862295Y-139633333D02*
X181862295Y-139442857D01*
X181862295Y-139442857D02*
X181900390Y-139366666D01*
X181900390Y-139366666D02*
X181938485Y-139328571D01*
X181938485Y-139328571D02*
X182014676Y-139290476D01*
X182014676Y-139290476D02*
X182090866Y-139290476D01*
X182090866Y-139290476D02*
X182205152Y-139328571D01*
X182205152Y-139328571D02*
X182662295Y-139785714D01*
X182662295Y-139785714D02*
X182662295Y-139290476D01*
X180302295Y-113300475D02*
X179502295Y-113300475D01*
X179502295Y-113300475D02*
X179502295Y-113109999D01*
X179502295Y-113109999D02*
X179540390Y-112995713D01*
X179540390Y-112995713D02*
X179616580Y-112919523D01*
X179616580Y-112919523D02*
X179692771Y-112881428D01*
X179692771Y-112881428D02*
X179845152Y-112843332D01*
X179845152Y-112843332D02*
X179959438Y-112843332D01*
X179959438Y-112843332D02*
X180111819Y-112881428D01*
X180111819Y-112881428D02*
X180188009Y-112919523D01*
X180188009Y-112919523D02*
X180264200Y-112995713D01*
X180264200Y-112995713D02*
X180302295Y-113109999D01*
X180302295Y-113109999D02*
X180302295Y-113300475D01*
X179502295Y-112157618D02*
X179502295Y-112309999D01*
X179502295Y-112309999D02*
X179540390Y-112386190D01*
X179540390Y-112386190D02*
X179578485Y-112424285D01*
X179578485Y-112424285D02*
X179692771Y-112500475D01*
X179692771Y-112500475D02*
X179845152Y-112538571D01*
X179845152Y-112538571D02*
X180149914Y-112538571D01*
X180149914Y-112538571D02*
X180226104Y-112500475D01*
X180226104Y-112500475D02*
X180264200Y-112462380D01*
X180264200Y-112462380D02*
X180302295Y-112386190D01*
X180302295Y-112386190D02*
X180302295Y-112233809D01*
X180302295Y-112233809D02*
X180264200Y-112157618D01*
X180264200Y-112157618D02*
X180226104Y-112119523D01*
X180226104Y-112119523D02*
X180149914Y-112081428D01*
X180149914Y-112081428D02*
X179959438Y-112081428D01*
X179959438Y-112081428D02*
X179883247Y-112119523D01*
X179883247Y-112119523D02*
X179845152Y-112157618D01*
X179845152Y-112157618D02*
X179807057Y-112233809D01*
X179807057Y-112233809D02*
X179807057Y-112386190D01*
X179807057Y-112386190D02*
X179845152Y-112462380D01*
X179845152Y-112462380D02*
X179883247Y-112500475D01*
X179883247Y-112500475D02*
X179959438Y-112538571D01*
X188957295Y-148799475D02*
X188157295Y-148799475D01*
X188157295Y-148799475D02*
X188157295Y-148608999D01*
X188157295Y-148608999D02*
X188195390Y-148494713D01*
X188195390Y-148494713D02*
X188271580Y-148418523D01*
X188271580Y-148418523D02*
X188347771Y-148380428D01*
X188347771Y-148380428D02*
X188500152Y-148342332D01*
X188500152Y-148342332D02*
X188614438Y-148342332D01*
X188614438Y-148342332D02*
X188766819Y-148380428D01*
X188766819Y-148380428D02*
X188843009Y-148418523D01*
X188843009Y-148418523D02*
X188919200Y-148494713D01*
X188919200Y-148494713D02*
X188957295Y-148608999D01*
X188957295Y-148608999D02*
X188957295Y-148799475D01*
X188500152Y-147885190D02*
X188462057Y-147961380D01*
X188462057Y-147961380D02*
X188423961Y-147999475D01*
X188423961Y-147999475D02*
X188347771Y-148037571D01*
X188347771Y-148037571D02*
X188309676Y-148037571D01*
X188309676Y-148037571D02*
X188233485Y-147999475D01*
X188233485Y-147999475D02*
X188195390Y-147961380D01*
X188195390Y-147961380D02*
X188157295Y-147885190D01*
X188157295Y-147885190D02*
X188157295Y-147732809D01*
X188157295Y-147732809D02*
X188195390Y-147656618D01*
X188195390Y-147656618D02*
X188233485Y-147618523D01*
X188233485Y-147618523D02*
X188309676Y-147580428D01*
X188309676Y-147580428D02*
X188347771Y-147580428D01*
X188347771Y-147580428D02*
X188423961Y-147618523D01*
X188423961Y-147618523D02*
X188462057Y-147656618D01*
X188462057Y-147656618D02*
X188500152Y-147732809D01*
X188500152Y-147732809D02*
X188500152Y-147885190D01*
X188500152Y-147885190D02*
X188538247Y-147961380D01*
X188538247Y-147961380D02*
X188576342Y-147999475D01*
X188576342Y-147999475D02*
X188652533Y-148037571D01*
X188652533Y-148037571D02*
X188804914Y-148037571D01*
X188804914Y-148037571D02*
X188881104Y-147999475D01*
X188881104Y-147999475D02*
X188919200Y-147961380D01*
X188919200Y-147961380D02*
X188957295Y-147885190D01*
X188957295Y-147885190D02*
X188957295Y-147732809D01*
X188957295Y-147732809D02*
X188919200Y-147656618D01*
X188919200Y-147656618D02*
X188881104Y-147618523D01*
X188881104Y-147618523D02*
X188804914Y-147580428D01*
X188804914Y-147580428D02*
X188652533Y-147580428D01*
X188652533Y-147580428D02*
X188576342Y-147618523D01*
X188576342Y-147618523D02*
X188538247Y-147656618D01*
X188538247Y-147656618D02*
X188500152Y-147732809D01*
X181866104Y-106940332D02*
X181904200Y-106978428D01*
X181904200Y-106978428D02*
X181942295Y-107092713D01*
X181942295Y-107092713D02*
X181942295Y-107168904D01*
X181942295Y-107168904D02*
X181904200Y-107283190D01*
X181904200Y-107283190D02*
X181828009Y-107359380D01*
X181828009Y-107359380D02*
X181751819Y-107397475D01*
X181751819Y-107397475D02*
X181599438Y-107435571D01*
X181599438Y-107435571D02*
X181485152Y-107435571D01*
X181485152Y-107435571D02*
X181332771Y-107397475D01*
X181332771Y-107397475D02*
X181256580Y-107359380D01*
X181256580Y-107359380D02*
X181180390Y-107283190D01*
X181180390Y-107283190D02*
X181142295Y-107168904D01*
X181142295Y-107168904D02*
X181142295Y-107092713D01*
X181142295Y-107092713D02*
X181180390Y-106978428D01*
X181180390Y-106978428D02*
X181218485Y-106940332D01*
X181142295Y-106254618D02*
X181142295Y-106406999D01*
X181142295Y-106406999D02*
X181180390Y-106483190D01*
X181180390Y-106483190D02*
X181218485Y-106521285D01*
X181218485Y-106521285D02*
X181332771Y-106597475D01*
X181332771Y-106597475D02*
X181485152Y-106635571D01*
X181485152Y-106635571D02*
X181789914Y-106635571D01*
X181789914Y-106635571D02*
X181866104Y-106597475D01*
X181866104Y-106597475D02*
X181904200Y-106559380D01*
X181904200Y-106559380D02*
X181942295Y-106483190D01*
X181942295Y-106483190D02*
X181942295Y-106330809D01*
X181942295Y-106330809D02*
X181904200Y-106254618D01*
X181904200Y-106254618D02*
X181866104Y-106216523D01*
X181866104Y-106216523D02*
X181789914Y-106178428D01*
X181789914Y-106178428D02*
X181599438Y-106178428D01*
X181599438Y-106178428D02*
X181523247Y-106216523D01*
X181523247Y-106216523D02*
X181485152Y-106254618D01*
X181485152Y-106254618D02*
X181447057Y-106330809D01*
X181447057Y-106330809D02*
X181447057Y-106483190D01*
X181447057Y-106483190D02*
X181485152Y-106559380D01*
X181485152Y-106559380D02*
X181523247Y-106597475D01*
X181523247Y-106597475D02*
X181599438Y-106635571D01*
X161410667Y-134906104D02*
X161372571Y-134944200D01*
X161372571Y-134944200D02*
X161258286Y-134982295D01*
X161258286Y-134982295D02*
X161182095Y-134982295D01*
X161182095Y-134982295D02*
X161067809Y-134944200D01*
X161067809Y-134944200D02*
X160991619Y-134868009D01*
X160991619Y-134868009D02*
X160953524Y-134791819D01*
X160953524Y-134791819D02*
X160915428Y-134639438D01*
X160915428Y-134639438D02*
X160915428Y-134525152D01*
X160915428Y-134525152D02*
X160953524Y-134372771D01*
X160953524Y-134372771D02*
X160991619Y-134296580D01*
X160991619Y-134296580D02*
X161067809Y-134220390D01*
X161067809Y-134220390D02*
X161182095Y-134182295D01*
X161182095Y-134182295D02*
X161258286Y-134182295D01*
X161258286Y-134182295D02*
X161372571Y-134220390D01*
X161372571Y-134220390D02*
X161410667Y-134258485D01*
X162096381Y-134448961D02*
X162096381Y-134982295D01*
X161905905Y-134144200D02*
X161715428Y-134715628D01*
X161715428Y-134715628D02*
X162210667Y-134715628D01*
X194685714Y-119162295D02*
X194419047Y-118781342D01*
X194228571Y-119162295D02*
X194228571Y-118362295D01*
X194228571Y-118362295D02*
X194533333Y-118362295D01*
X194533333Y-118362295D02*
X194609523Y-118400390D01*
X194609523Y-118400390D02*
X194647618Y-118438485D01*
X194647618Y-118438485D02*
X194685714Y-118514676D01*
X194685714Y-118514676D02*
X194685714Y-118628961D01*
X194685714Y-118628961D02*
X194647618Y-118705152D01*
X194647618Y-118705152D02*
X194609523Y-118743247D01*
X194609523Y-118743247D02*
X194533333Y-118781342D01*
X194533333Y-118781342D02*
X194228571Y-118781342D01*
X195447618Y-119162295D02*
X194990475Y-119162295D01*
X195219047Y-119162295D02*
X195219047Y-118362295D01*
X195219047Y-118362295D02*
X195142856Y-118476580D01*
X195142856Y-118476580D02*
X195066666Y-118552771D01*
X195066666Y-118552771D02*
X194990475Y-118590866D01*
X195714285Y-118362295D02*
X196247619Y-118362295D01*
X196247619Y-118362295D02*
X195904761Y-119162295D01*
X162886104Y-107133332D02*
X162924200Y-107171428D01*
X162924200Y-107171428D02*
X162962295Y-107285713D01*
X162962295Y-107285713D02*
X162962295Y-107361904D01*
X162962295Y-107361904D02*
X162924200Y-107476190D01*
X162924200Y-107476190D02*
X162848009Y-107552380D01*
X162848009Y-107552380D02*
X162771819Y-107590475D01*
X162771819Y-107590475D02*
X162619438Y-107628571D01*
X162619438Y-107628571D02*
X162505152Y-107628571D01*
X162505152Y-107628571D02*
X162352771Y-107590475D01*
X162352771Y-107590475D02*
X162276580Y-107552380D01*
X162276580Y-107552380D02*
X162200390Y-107476190D01*
X162200390Y-107476190D02*
X162162295Y-107361904D01*
X162162295Y-107361904D02*
X162162295Y-107285713D01*
X162162295Y-107285713D02*
X162200390Y-107171428D01*
X162200390Y-107171428D02*
X162238485Y-107133332D01*
X162162295Y-106866666D02*
X162162295Y-106371428D01*
X162162295Y-106371428D02*
X162467057Y-106638094D01*
X162467057Y-106638094D02*
X162467057Y-106523809D01*
X162467057Y-106523809D02*
X162505152Y-106447618D01*
X162505152Y-106447618D02*
X162543247Y-106409523D01*
X162543247Y-106409523D02*
X162619438Y-106371428D01*
X162619438Y-106371428D02*
X162809914Y-106371428D01*
X162809914Y-106371428D02*
X162886104Y-106409523D01*
X162886104Y-106409523D02*
X162924200Y-106447618D01*
X162924200Y-106447618D02*
X162962295Y-106523809D01*
X162962295Y-106523809D02*
X162962295Y-106752380D01*
X162962295Y-106752380D02*
X162924200Y-106828571D01*
X162924200Y-106828571D02*
X162886104Y-106866666D01*
X174486104Y-148914285D02*
X174524200Y-148952381D01*
X174524200Y-148952381D02*
X174562295Y-149066666D01*
X174562295Y-149066666D02*
X174562295Y-149142857D01*
X174562295Y-149142857D02*
X174524200Y-149257143D01*
X174524200Y-149257143D02*
X174448009Y-149333333D01*
X174448009Y-149333333D02*
X174371819Y-149371428D01*
X174371819Y-149371428D02*
X174219438Y-149409524D01*
X174219438Y-149409524D02*
X174105152Y-149409524D01*
X174105152Y-149409524D02*
X173952771Y-149371428D01*
X173952771Y-149371428D02*
X173876580Y-149333333D01*
X173876580Y-149333333D02*
X173800390Y-149257143D01*
X173800390Y-149257143D02*
X173762295Y-149142857D01*
X173762295Y-149142857D02*
X173762295Y-149066666D01*
X173762295Y-149066666D02*
X173800390Y-148952381D01*
X173800390Y-148952381D02*
X173838485Y-148914285D01*
X174562295Y-148152381D02*
X174562295Y-148609524D01*
X174562295Y-148380952D02*
X173762295Y-148380952D01*
X173762295Y-148380952D02*
X173876580Y-148457143D01*
X173876580Y-148457143D02*
X173952771Y-148533333D01*
X173952771Y-148533333D02*
X173990866Y-148609524D01*
X173762295Y-147657142D02*
X173762295Y-147580952D01*
X173762295Y-147580952D02*
X173800390Y-147504761D01*
X173800390Y-147504761D02*
X173838485Y-147466666D01*
X173838485Y-147466666D02*
X173914676Y-147428571D01*
X173914676Y-147428571D02*
X174067057Y-147390476D01*
X174067057Y-147390476D02*
X174257533Y-147390476D01*
X174257533Y-147390476D02*
X174409914Y-147428571D01*
X174409914Y-147428571D02*
X174486104Y-147466666D01*
X174486104Y-147466666D02*
X174524200Y-147504761D01*
X174524200Y-147504761D02*
X174562295Y-147580952D01*
X174562295Y-147580952D02*
X174562295Y-147657142D01*
X174562295Y-147657142D02*
X174524200Y-147733333D01*
X174524200Y-147733333D02*
X174486104Y-147771428D01*
X174486104Y-147771428D02*
X174409914Y-147809523D01*
X174409914Y-147809523D02*
X174257533Y-147847619D01*
X174257533Y-147847619D02*
X174067057Y-147847619D01*
X174067057Y-147847619D02*
X173914676Y-147809523D01*
X173914676Y-147809523D02*
X173838485Y-147771428D01*
X173838485Y-147771428D02*
X173800390Y-147733333D01*
X173800390Y-147733333D02*
X173762295Y-147657142D01*
X181686104Y-133914285D02*
X181724200Y-133952381D01*
X181724200Y-133952381D02*
X181762295Y-134066666D01*
X181762295Y-134066666D02*
X181762295Y-134142857D01*
X181762295Y-134142857D02*
X181724200Y-134257143D01*
X181724200Y-134257143D02*
X181648009Y-134333333D01*
X181648009Y-134333333D02*
X181571819Y-134371428D01*
X181571819Y-134371428D02*
X181419438Y-134409524D01*
X181419438Y-134409524D02*
X181305152Y-134409524D01*
X181305152Y-134409524D02*
X181152771Y-134371428D01*
X181152771Y-134371428D02*
X181076580Y-134333333D01*
X181076580Y-134333333D02*
X181000390Y-134257143D01*
X181000390Y-134257143D02*
X180962295Y-134142857D01*
X180962295Y-134142857D02*
X180962295Y-134066666D01*
X180962295Y-134066666D02*
X181000390Y-133952381D01*
X181000390Y-133952381D02*
X181038485Y-133914285D01*
X181762295Y-133152381D02*
X181762295Y-133609524D01*
X181762295Y-133380952D02*
X180962295Y-133380952D01*
X180962295Y-133380952D02*
X181076580Y-133457143D01*
X181076580Y-133457143D02*
X181152771Y-133533333D01*
X181152771Y-133533333D02*
X181190866Y-133609524D01*
X180962295Y-132428571D02*
X180962295Y-132809523D01*
X180962295Y-132809523D02*
X181343247Y-132847619D01*
X181343247Y-132847619D02*
X181305152Y-132809523D01*
X181305152Y-132809523D02*
X181267057Y-132733333D01*
X181267057Y-132733333D02*
X181267057Y-132542857D01*
X181267057Y-132542857D02*
X181305152Y-132466666D01*
X181305152Y-132466666D02*
X181343247Y-132428571D01*
X181343247Y-132428571D02*
X181419438Y-132390476D01*
X181419438Y-132390476D02*
X181609914Y-132390476D01*
X181609914Y-132390476D02*
X181686104Y-132428571D01*
X181686104Y-132428571D02*
X181724200Y-132466666D01*
X181724200Y-132466666D02*
X181762295Y-132542857D01*
X181762295Y-132542857D02*
X181762295Y-132733333D01*
X181762295Y-132733333D02*
X181724200Y-132809523D01*
X181724200Y-132809523D02*
X181686104Y-132847619D01*
X160299476Y-127845295D02*
X160299476Y-128492914D01*
X160299476Y-128492914D02*
X160337571Y-128569104D01*
X160337571Y-128569104D02*
X160375666Y-128607200D01*
X160375666Y-128607200D02*
X160451857Y-128645295D01*
X160451857Y-128645295D02*
X160604238Y-128645295D01*
X160604238Y-128645295D02*
X160680428Y-128607200D01*
X160680428Y-128607200D02*
X160718523Y-128569104D01*
X160718523Y-128569104D02*
X160756619Y-128492914D01*
X160756619Y-128492914D02*
X160756619Y-127845295D01*
X161099475Y-127921485D02*
X161137571Y-127883390D01*
X161137571Y-127883390D02*
X161213761Y-127845295D01*
X161213761Y-127845295D02*
X161404237Y-127845295D01*
X161404237Y-127845295D02*
X161480428Y-127883390D01*
X161480428Y-127883390D02*
X161518523Y-127921485D01*
X161518523Y-127921485D02*
X161556618Y-127997676D01*
X161556618Y-127997676D02*
X161556618Y-128073866D01*
X161556618Y-128073866D02*
X161518523Y-128188152D01*
X161518523Y-128188152D02*
X161061380Y-128645295D01*
X161061380Y-128645295D02*
X161556618Y-128645295D01*
X185185714Y-142786104D02*
X185147618Y-142824200D01*
X185147618Y-142824200D02*
X185033333Y-142862295D01*
X185033333Y-142862295D02*
X184957142Y-142862295D01*
X184957142Y-142862295D02*
X184842856Y-142824200D01*
X184842856Y-142824200D02*
X184766666Y-142748009D01*
X184766666Y-142748009D02*
X184728571Y-142671819D01*
X184728571Y-142671819D02*
X184690475Y-142519438D01*
X184690475Y-142519438D02*
X184690475Y-142405152D01*
X184690475Y-142405152D02*
X184728571Y-142252771D01*
X184728571Y-142252771D02*
X184766666Y-142176580D01*
X184766666Y-142176580D02*
X184842856Y-142100390D01*
X184842856Y-142100390D02*
X184957142Y-142062295D01*
X184957142Y-142062295D02*
X185033333Y-142062295D01*
X185033333Y-142062295D02*
X185147618Y-142100390D01*
X185147618Y-142100390D02*
X185185714Y-142138485D01*
X185490475Y-142138485D02*
X185528571Y-142100390D01*
X185528571Y-142100390D02*
X185604761Y-142062295D01*
X185604761Y-142062295D02*
X185795237Y-142062295D01*
X185795237Y-142062295D02*
X185871428Y-142100390D01*
X185871428Y-142100390D02*
X185909523Y-142138485D01*
X185909523Y-142138485D02*
X185947618Y-142214676D01*
X185947618Y-142214676D02*
X185947618Y-142290866D01*
X185947618Y-142290866D02*
X185909523Y-142405152D01*
X185909523Y-142405152D02*
X185452380Y-142862295D01*
X185452380Y-142862295D02*
X185947618Y-142862295D01*
X186709523Y-142862295D02*
X186252380Y-142862295D01*
X186480952Y-142862295D02*
X186480952Y-142062295D01*
X186480952Y-142062295D02*
X186404761Y-142176580D01*
X186404761Y-142176580D02*
X186328571Y-142252771D01*
X186328571Y-142252771D02*
X186252380Y-142290866D01*
X191123333Y-110302295D02*
X191123333Y-110873723D01*
X191123333Y-110873723D02*
X191085238Y-110988009D01*
X191085238Y-110988009D02*
X191009047Y-111064200D01*
X191009047Y-111064200D02*
X190894762Y-111102295D01*
X190894762Y-111102295D02*
X190818571Y-111102295D01*
X191428095Y-110302295D02*
X191923333Y-110302295D01*
X191923333Y-110302295D02*
X191656667Y-110607057D01*
X191656667Y-110607057D02*
X191770952Y-110607057D01*
X191770952Y-110607057D02*
X191847143Y-110645152D01*
X191847143Y-110645152D02*
X191885238Y-110683247D01*
X191885238Y-110683247D02*
X191923333Y-110759438D01*
X191923333Y-110759438D02*
X191923333Y-110949914D01*
X191923333Y-110949914D02*
X191885238Y-111026104D01*
X191885238Y-111026104D02*
X191847143Y-111064200D01*
X191847143Y-111064200D02*
X191770952Y-111102295D01*
X191770952Y-111102295D02*
X191542381Y-111102295D01*
X191542381Y-111102295D02*
X191466190Y-111064200D01*
X191466190Y-111064200D02*
X191428095Y-111026104D01*
X156209524Y-110362295D02*
X156209524Y-109562295D01*
X156209524Y-109562295D02*
X156400000Y-109562295D01*
X156400000Y-109562295D02*
X156514286Y-109600390D01*
X156514286Y-109600390D02*
X156590476Y-109676580D01*
X156590476Y-109676580D02*
X156628571Y-109752771D01*
X156628571Y-109752771D02*
X156666667Y-109905152D01*
X156666667Y-109905152D02*
X156666667Y-110019438D01*
X156666667Y-110019438D02*
X156628571Y-110171819D01*
X156628571Y-110171819D02*
X156590476Y-110248009D01*
X156590476Y-110248009D02*
X156514286Y-110324200D01*
X156514286Y-110324200D02*
X156400000Y-110362295D01*
X156400000Y-110362295D02*
X156209524Y-110362295D01*
X156971428Y-109638485D02*
X157009524Y-109600390D01*
X157009524Y-109600390D02*
X157085714Y-109562295D01*
X157085714Y-109562295D02*
X157276190Y-109562295D01*
X157276190Y-109562295D02*
X157352381Y-109600390D01*
X157352381Y-109600390D02*
X157390476Y-109638485D01*
X157390476Y-109638485D02*
X157428571Y-109714676D01*
X157428571Y-109714676D02*
X157428571Y-109790866D01*
X157428571Y-109790866D02*
X157390476Y-109905152D01*
X157390476Y-109905152D02*
X156933333Y-110362295D01*
X156933333Y-110362295D02*
X157428571Y-110362295D01*
X160866667Y-115162295D02*
X160600000Y-114781342D01*
X160409524Y-115162295D02*
X160409524Y-114362295D01*
X160409524Y-114362295D02*
X160714286Y-114362295D01*
X160714286Y-114362295D02*
X160790476Y-114400390D01*
X160790476Y-114400390D02*
X160828571Y-114438485D01*
X160828571Y-114438485D02*
X160866667Y-114514676D01*
X160866667Y-114514676D02*
X160866667Y-114628961D01*
X160866667Y-114628961D02*
X160828571Y-114705152D01*
X160828571Y-114705152D02*
X160790476Y-114743247D01*
X160790476Y-114743247D02*
X160714286Y-114781342D01*
X160714286Y-114781342D02*
X160409524Y-114781342D01*
X161133333Y-114362295D02*
X161628571Y-114362295D01*
X161628571Y-114362295D02*
X161361905Y-114667057D01*
X161361905Y-114667057D02*
X161476190Y-114667057D01*
X161476190Y-114667057D02*
X161552381Y-114705152D01*
X161552381Y-114705152D02*
X161590476Y-114743247D01*
X161590476Y-114743247D02*
X161628571Y-114819438D01*
X161628571Y-114819438D02*
X161628571Y-115009914D01*
X161628571Y-115009914D02*
X161590476Y-115086104D01*
X161590476Y-115086104D02*
X161552381Y-115124200D01*
X161552381Y-115124200D02*
X161476190Y-115162295D01*
X161476190Y-115162295D02*
X161247619Y-115162295D01*
X161247619Y-115162295D02*
X161171428Y-115124200D01*
X161171428Y-115124200D02*
X161133333Y-115086104D01*
X172466667Y-144562295D02*
X172200000Y-144181342D01*
X172009524Y-144562295D02*
X172009524Y-143762295D01*
X172009524Y-143762295D02*
X172314286Y-143762295D01*
X172314286Y-143762295D02*
X172390476Y-143800390D01*
X172390476Y-143800390D02*
X172428571Y-143838485D01*
X172428571Y-143838485D02*
X172466667Y-143914676D01*
X172466667Y-143914676D02*
X172466667Y-144028961D01*
X172466667Y-144028961D02*
X172428571Y-144105152D01*
X172428571Y-144105152D02*
X172390476Y-144143247D01*
X172390476Y-144143247D02*
X172314286Y-144181342D01*
X172314286Y-144181342D02*
X172009524Y-144181342D01*
X172923809Y-144105152D02*
X172847619Y-144067057D01*
X172847619Y-144067057D02*
X172809524Y-144028961D01*
X172809524Y-144028961D02*
X172771428Y-143952771D01*
X172771428Y-143952771D02*
X172771428Y-143914676D01*
X172771428Y-143914676D02*
X172809524Y-143838485D01*
X172809524Y-143838485D02*
X172847619Y-143800390D01*
X172847619Y-143800390D02*
X172923809Y-143762295D01*
X172923809Y-143762295D02*
X173076190Y-143762295D01*
X173076190Y-143762295D02*
X173152381Y-143800390D01*
X173152381Y-143800390D02*
X173190476Y-143838485D01*
X173190476Y-143838485D02*
X173228571Y-143914676D01*
X173228571Y-143914676D02*
X173228571Y-143952771D01*
X173228571Y-143952771D02*
X173190476Y-144028961D01*
X173190476Y-144028961D02*
X173152381Y-144067057D01*
X173152381Y-144067057D02*
X173076190Y-144105152D01*
X173076190Y-144105152D02*
X172923809Y-144105152D01*
X172923809Y-144105152D02*
X172847619Y-144143247D01*
X172847619Y-144143247D02*
X172809524Y-144181342D01*
X172809524Y-144181342D02*
X172771428Y-144257533D01*
X172771428Y-144257533D02*
X172771428Y-144409914D01*
X172771428Y-144409914D02*
X172809524Y-144486104D01*
X172809524Y-144486104D02*
X172847619Y-144524200D01*
X172847619Y-144524200D02*
X172923809Y-144562295D01*
X172923809Y-144562295D02*
X173076190Y-144562295D01*
X173076190Y-144562295D02*
X173152381Y-144524200D01*
X173152381Y-144524200D02*
X173190476Y-144486104D01*
X173190476Y-144486104D02*
X173228571Y-144409914D01*
X173228571Y-144409914D02*
X173228571Y-144257533D01*
X173228571Y-144257533D02*
X173190476Y-144181342D01*
X173190476Y-144181342D02*
X173152381Y-144143247D01*
X173152381Y-144143247D02*
X173076190Y-144105152D01*
X161285714Y-117762295D02*
X161019047Y-117381342D01*
X160828571Y-117762295D02*
X160828571Y-116962295D01*
X160828571Y-116962295D02*
X161133333Y-116962295D01*
X161133333Y-116962295D02*
X161209523Y-117000390D01*
X161209523Y-117000390D02*
X161247618Y-117038485D01*
X161247618Y-117038485D02*
X161285714Y-117114676D01*
X161285714Y-117114676D02*
X161285714Y-117228961D01*
X161285714Y-117228961D02*
X161247618Y-117305152D01*
X161247618Y-117305152D02*
X161209523Y-117343247D01*
X161209523Y-117343247D02*
X161133333Y-117381342D01*
X161133333Y-117381342D02*
X160828571Y-117381342D01*
X162047618Y-117762295D02*
X161590475Y-117762295D01*
X161819047Y-117762295D02*
X161819047Y-116962295D01*
X161819047Y-116962295D02*
X161742856Y-117076580D01*
X161742856Y-117076580D02*
X161666666Y-117152771D01*
X161666666Y-117152771D02*
X161590475Y-117190866D01*
X162809523Y-117762295D02*
X162352380Y-117762295D01*
X162580952Y-117762295D02*
X162580952Y-116962295D01*
X162580952Y-116962295D02*
X162504761Y-117076580D01*
X162504761Y-117076580D02*
X162428571Y-117152771D01*
X162428571Y-117152771D02*
X162352380Y-117190866D01*
X174486104Y-142314285D02*
X174524200Y-142352381D01*
X174524200Y-142352381D02*
X174562295Y-142466666D01*
X174562295Y-142466666D02*
X174562295Y-142542857D01*
X174562295Y-142542857D02*
X174524200Y-142657143D01*
X174524200Y-142657143D02*
X174448009Y-142733333D01*
X174448009Y-142733333D02*
X174371819Y-142771428D01*
X174371819Y-142771428D02*
X174219438Y-142809524D01*
X174219438Y-142809524D02*
X174105152Y-142809524D01*
X174105152Y-142809524D02*
X173952771Y-142771428D01*
X173952771Y-142771428D02*
X173876580Y-142733333D01*
X173876580Y-142733333D02*
X173800390Y-142657143D01*
X173800390Y-142657143D02*
X173762295Y-142542857D01*
X173762295Y-142542857D02*
X173762295Y-142466666D01*
X173762295Y-142466666D02*
X173800390Y-142352381D01*
X173800390Y-142352381D02*
X173838485Y-142314285D01*
X174562295Y-141552381D02*
X174562295Y-142009524D01*
X174562295Y-141780952D02*
X173762295Y-141780952D01*
X173762295Y-141780952D02*
X173876580Y-141857143D01*
X173876580Y-141857143D02*
X173952771Y-141933333D01*
X173952771Y-141933333D02*
X173990866Y-142009524D01*
X174028961Y-140866666D02*
X174562295Y-140866666D01*
X173724200Y-141057142D02*
X174295628Y-141247619D01*
X174295628Y-141247619D02*
X174295628Y-140752380D01*
X166181104Y-130789832D02*
X166219200Y-130827928D01*
X166219200Y-130827928D02*
X166257295Y-130942213D01*
X166257295Y-130942213D02*
X166257295Y-131018404D01*
X166257295Y-131018404D02*
X166219200Y-131132690D01*
X166219200Y-131132690D02*
X166143009Y-131208880D01*
X166143009Y-131208880D02*
X166066819Y-131246975D01*
X166066819Y-131246975D02*
X165914438Y-131285071D01*
X165914438Y-131285071D02*
X165800152Y-131285071D01*
X165800152Y-131285071D02*
X165647771Y-131246975D01*
X165647771Y-131246975D02*
X165571580Y-131208880D01*
X165571580Y-131208880D02*
X165495390Y-131132690D01*
X165495390Y-131132690D02*
X165457295Y-131018404D01*
X165457295Y-131018404D02*
X165457295Y-130942213D01*
X165457295Y-130942213D02*
X165495390Y-130827928D01*
X165495390Y-130827928D02*
X165533485Y-130789832D01*
X165457295Y-130066023D02*
X165457295Y-130446975D01*
X165457295Y-130446975D02*
X165838247Y-130485071D01*
X165838247Y-130485071D02*
X165800152Y-130446975D01*
X165800152Y-130446975D02*
X165762057Y-130370785D01*
X165762057Y-130370785D02*
X165762057Y-130180309D01*
X165762057Y-130180309D02*
X165800152Y-130104118D01*
X165800152Y-130104118D02*
X165838247Y-130066023D01*
X165838247Y-130066023D02*
X165914438Y-130027928D01*
X165914438Y-130027928D02*
X166104914Y-130027928D01*
X166104914Y-130027928D02*
X166181104Y-130066023D01*
X166181104Y-130066023D02*
X166219200Y-130104118D01*
X166219200Y-130104118D02*
X166257295Y-130180309D01*
X166257295Y-130180309D02*
X166257295Y-130370785D01*
X166257295Y-130370785D02*
X166219200Y-130446975D01*
X166219200Y-130446975D02*
X166181104Y-130485071D01*
X183585714Y-134786104D02*
X183547618Y-134824200D01*
X183547618Y-134824200D02*
X183433333Y-134862295D01*
X183433333Y-134862295D02*
X183357142Y-134862295D01*
X183357142Y-134862295D02*
X183242856Y-134824200D01*
X183242856Y-134824200D02*
X183166666Y-134748009D01*
X183166666Y-134748009D02*
X183128571Y-134671819D01*
X183128571Y-134671819D02*
X183090475Y-134519438D01*
X183090475Y-134519438D02*
X183090475Y-134405152D01*
X183090475Y-134405152D02*
X183128571Y-134252771D01*
X183128571Y-134252771D02*
X183166666Y-134176580D01*
X183166666Y-134176580D02*
X183242856Y-134100390D01*
X183242856Y-134100390D02*
X183357142Y-134062295D01*
X183357142Y-134062295D02*
X183433333Y-134062295D01*
X183433333Y-134062295D02*
X183547618Y-134100390D01*
X183547618Y-134100390D02*
X183585714Y-134138485D01*
X184347618Y-134862295D02*
X183890475Y-134862295D01*
X184119047Y-134862295D02*
X184119047Y-134062295D01*
X184119047Y-134062295D02*
X184042856Y-134176580D01*
X184042856Y-134176580D02*
X183966666Y-134252771D01*
X183966666Y-134252771D02*
X183890475Y-134290866D01*
X184614285Y-134062295D02*
X185147619Y-134062295D01*
X185147619Y-134062295D02*
X184804761Y-134862295D01*
X181603714Y-120410295D02*
X181337047Y-120029342D01*
X181146571Y-120410295D02*
X181146571Y-119610295D01*
X181146571Y-119610295D02*
X181451333Y-119610295D01*
X181451333Y-119610295D02*
X181527523Y-119648390D01*
X181527523Y-119648390D02*
X181565618Y-119686485D01*
X181565618Y-119686485D02*
X181603714Y-119762676D01*
X181603714Y-119762676D02*
X181603714Y-119876961D01*
X181603714Y-119876961D02*
X181565618Y-119953152D01*
X181565618Y-119953152D02*
X181527523Y-119991247D01*
X181527523Y-119991247D02*
X181451333Y-120029342D01*
X181451333Y-120029342D02*
X181146571Y-120029342D01*
X182365618Y-120410295D02*
X181908475Y-120410295D01*
X182137047Y-120410295D02*
X182137047Y-119610295D01*
X182137047Y-119610295D02*
X182060856Y-119724580D01*
X182060856Y-119724580D02*
X181984666Y-119800771D01*
X181984666Y-119800771D02*
X181908475Y-119838866D01*
X182860857Y-119610295D02*
X182937047Y-119610295D01*
X182937047Y-119610295D02*
X183013238Y-119648390D01*
X183013238Y-119648390D02*
X183051333Y-119686485D01*
X183051333Y-119686485D02*
X183089428Y-119762676D01*
X183089428Y-119762676D02*
X183127523Y-119915057D01*
X183127523Y-119915057D02*
X183127523Y-120105533D01*
X183127523Y-120105533D02*
X183089428Y-120257914D01*
X183089428Y-120257914D02*
X183051333Y-120334104D01*
X183051333Y-120334104D02*
X183013238Y-120372200D01*
X183013238Y-120372200D02*
X182937047Y-120410295D01*
X182937047Y-120410295D02*
X182860857Y-120410295D01*
X182860857Y-120410295D02*
X182784666Y-120372200D01*
X182784666Y-120372200D02*
X182746571Y-120334104D01*
X182746571Y-120334104D02*
X182708476Y-120257914D01*
X182708476Y-120257914D02*
X182670380Y-120105533D01*
X182670380Y-120105533D02*
X182670380Y-119915057D01*
X182670380Y-119915057D02*
X182708476Y-119762676D01*
X182708476Y-119762676D02*
X182746571Y-119686485D01*
X182746571Y-119686485D02*
X182784666Y-119648390D01*
X182784666Y-119648390D02*
X182860857Y-119610295D01*
X183966667Y-145886104D02*
X183928571Y-145924200D01*
X183928571Y-145924200D02*
X183814286Y-145962295D01*
X183814286Y-145962295D02*
X183738095Y-145962295D01*
X183738095Y-145962295D02*
X183623809Y-145924200D01*
X183623809Y-145924200D02*
X183547619Y-145848009D01*
X183547619Y-145848009D02*
X183509524Y-145771819D01*
X183509524Y-145771819D02*
X183471428Y-145619438D01*
X183471428Y-145619438D02*
X183471428Y-145505152D01*
X183471428Y-145505152D02*
X183509524Y-145352771D01*
X183509524Y-145352771D02*
X183547619Y-145276580D01*
X183547619Y-145276580D02*
X183623809Y-145200390D01*
X183623809Y-145200390D02*
X183738095Y-145162295D01*
X183738095Y-145162295D02*
X183814286Y-145162295D01*
X183814286Y-145162295D02*
X183928571Y-145200390D01*
X183928571Y-145200390D02*
X183966667Y-145238485D01*
X184728571Y-145962295D02*
X184271428Y-145962295D01*
X184500000Y-145962295D02*
X184500000Y-145162295D01*
X184500000Y-145162295D02*
X184423809Y-145276580D01*
X184423809Y-145276580D02*
X184347619Y-145352771D01*
X184347619Y-145352771D02*
X184271428Y-145390866D01*
X153911333Y-120372295D02*
X153911333Y-120943723D01*
X153911333Y-120943723D02*
X153873238Y-121058009D01*
X153873238Y-121058009D02*
X153797047Y-121134200D01*
X153797047Y-121134200D02*
X153682762Y-121172295D01*
X153682762Y-121172295D02*
X153606571Y-121172295D01*
X154254190Y-120448485D02*
X154292286Y-120410390D01*
X154292286Y-120410390D02*
X154368476Y-120372295D01*
X154368476Y-120372295D02*
X154558952Y-120372295D01*
X154558952Y-120372295D02*
X154635143Y-120410390D01*
X154635143Y-120410390D02*
X154673238Y-120448485D01*
X154673238Y-120448485D02*
X154711333Y-120524676D01*
X154711333Y-120524676D02*
X154711333Y-120600866D01*
X154711333Y-120600866D02*
X154673238Y-120715152D01*
X154673238Y-120715152D02*
X154216095Y-121172295D01*
X154216095Y-121172295D02*
X154711333Y-121172295D01*
X157133333Y-154962295D02*
X157133333Y-155533723D01*
X157133333Y-155533723D02*
X157095238Y-155648009D01*
X157095238Y-155648009D02*
X157019047Y-155724200D01*
X157019047Y-155724200D02*
X156904762Y-155762295D01*
X156904762Y-155762295D02*
X156828571Y-155762295D01*
X157933333Y-155762295D02*
X157476190Y-155762295D01*
X157704762Y-155762295D02*
X157704762Y-154962295D01*
X157704762Y-154962295D02*
X157628571Y-155076580D01*
X157628571Y-155076580D02*
X157552381Y-155152771D01*
X157552381Y-155152771D02*
X157476190Y-155190866D01*
X156840995Y-120595575D02*
X156040995Y-120595575D01*
X156040995Y-120595575D02*
X156040995Y-120405099D01*
X156040995Y-120405099D02*
X156079090Y-120290813D01*
X156079090Y-120290813D02*
X156155280Y-120214623D01*
X156155280Y-120214623D02*
X156231471Y-120176528D01*
X156231471Y-120176528D02*
X156383852Y-120138432D01*
X156383852Y-120138432D02*
X156498138Y-120138432D01*
X156498138Y-120138432D02*
X156650519Y-120176528D01*
X156650519Y-120176528D02*
X156726709Y-120214623D01*
X156726709Y-120214623D02*
X156802900Y-120290813D01*
X156802900Y-120290813D02*
X156840995Y-120405099D01*
X156840995Y-120405099D02*
X156840995Y-120595575D01*
X156040995Y-119871766D02*
X156040995Y-119338432D01*
X156040995Y-119338432D02*
X156840995Y-119681290D01*
X163735104Y-135896285D02*
X163773200Y-135934381D01*
X163773200Y-135934381D02*
X163811295Y-136048666D01*
X163811295Y-136048666D02*
X163811295Y-136124857D01*
X163811295Y-136124857D02*
X163773200Y-136239143D01*
X163773200Y-136239143D02*
X163697009Y-136315333D01*
X163697009Y-136315333D02*
X163620819Y-136353428D01*
X163620819Y-136353428D02*
X163468438Y-136391524D01*
X163468438Y-136391524D02*
X163354152Y-136391524D01*
X163354152Y-136391524D02*
X163201771Y-136353428D01*
X163201771Y-136353428D02*
X163125580Y-136315333D01*
X163125580Y-136315333D02*
X163049390Y-136239143D01*
X163049390Y-136239143D02*
X163011295Y-136124857D01*
X163011295Y-136124857D02*
X163011295Y-136048666D01*
X163011295Y-136048666D02*
X163049390Y-135934381D01*
X163049390Y-135934381D02*
X163087485Y-135896285D01*
X163811295Y-135134381D02*
X163811295Y-135591524D01*
X163811295Y-135362952D02*
X163011295Y-135362952D01*
X163011295Y-135362952D02*
X163125580Y-135439143D01*
X163125580Y-135439143D02*
X163201771Y-135515333D01*
X163201771Y-135515333D02*
X163239866Y-135591524D01*
X163087485Y-134829619D02*
X163049390Y-134791523D01*
X163049390Y-134791523D02*
X163011295Y-134715333D01*
X163011295Y-134715333D02*
X163011295Y-134524857D01*
X163011295Y-134524857D02*
X163049390Y-134448666D01*
X163049390Y-134448666D02*
X163087485Y-134410571D01*
X163087485Y-134410571D02*
X163163676Y-134372476D01*
X163163676Y-134372476D02*
X163239866Y-134372476D01*
X163239866Y-134372476D02*
X163354152Y-134410571D01*
X163354152Y-134410571D02*
X163811295Y-134867714D01*
X163811295Y-134867714D02*
X163811295Y-134372476D01*
X158362667Y-136811104D02*
X158324571Y-136849200D01*
X158324571Y-136849200D02*
X158210286Y-136887295D01*
X158210286Y-136887295D02*
X158134095Y-136887295D01*
X158134095Y-136887295D02*
X158019809Y-136849200D01*
X158019809Y-136849200D02*
X157943619Y-136773009D01*
X157943619Y-136773009D02*
X157905524Y-136696819D01*
X157905524Y-136696819D02*
X157867428Y-136544438D01*
X157867428Y-136544438D02*
X157867428Y-136430152D01*
X157867428Y-136430152D02*
X157905524Y-136277771D01*
X157905524Y-136277771D02*
X157943619Y-136201580D01*
X157943619Y-136201580D02*
X158019809Y-136125390D01*
X158019809Y-136125390D02*
X158134095Y-136087295D01*
X158134095Y-136087295D02*
X158210286Y-136087295D01*
X158210286Y-136087295D02*
X158324571Y-136125390D01*
X158324571Y-136125390D02*
X158362667Y-136163485D01*
X158629333Y-136087295D02*
X159162667Y-136087295D01*
X159162667Y-136087295D02*
X158819809Y-136887295D01*
X161283667Y-136811104D02*
X161245571Y-136849200D01*
X161245571Y-136849200D02*
X161131286Y-136887295D01*
X161131286Y-136887295D02*
X161055095Y-136887295D01*
X161055095Y-136887295D02*
X160940809Y-136849200D01*
X160940809Y-136849200D02*
X160864619Y-136773009D01*
X160864619Y-136773009D02*
X160826524Y-136696819D01*
X160826524Y-136696819D02*
X160788428Y-136544438D01*
X160788428Y-136544438D02*
X160788428Y-136430152D01*
X160788428Y-136430152D02*
X160826524Y-136277771D01*
X160826524Y-136277771D02*
X160864619Y-136201580D01*
X160864619Y-136201580D02*
X160940809Y-136125390D01*
X160940809Y-136125390D02*
X161055095Y-136087295D01*
X161055095Y-136087295D02*
X161131286Y-136087295D01*
X161131286Y-136087295D02*
X161245571Y-136125390D01*
X161245571Y-136125390D02*
X161283667Y-136163485D01*
X161740809Y-136430152D02*
X161664619Y-136392057D01*
X161664619Y-136392057D02*
X161626524Y-136353961D01*
X161626524Y-136353961D02*
X161588428Y-136277771D01*
X161588428Y-136277771D02*
X161588428Y-136239676D01*
X161588428Y-136239676D02*
X161626524Y-136163485D01*
X161626524Y-136163485D02*
X161664619Y-136125390D01*
X161664619Y-136125390D02*
X161740809Y-136087295D01*
X161740809Y-136087295D02*
X161893190Y-136087295D01*
X161893190Y-136087295D02*
X161969381Y-136125390D01*
X161969381Y-136125390D02*
X162007476Y-136163485D01*
X162007476Y-136163485D02*
X162045571Y-136239676D01*
X162045571Y-136239676D02*
X162045571Y-136277771D01*
X162045571Y-136277771D02*
X162007476Y-136353961D01*
X162007476Y-136353961D02*
X161969381Y-136392057D01*
X161969381Y-136392057D02*
X161893190Y-136430152D01*
X161893190Y-136430152D02*
X161740809Y-136430152D01*
X161740809Y-136430152D02*
X161664619Y-136468247D01*
X161664619Y-136468247D02*
X161626524Y-136506342D01*
X161626524Y-136506342D02*
X161588428Y-136582533D01*
X161588428Y-136582533D02*
X161588428Y-136734914D01*
X161588428Y-136734914D02*
X161626524Y-136811104D01*
X161626524Y-136811104D02*
X161664619Y-136849200D01*
X161664619Y-136849200D02*
X161740809Y-136887295D01*
X161740809Y-136887295D02*
X161893190Y-136887295D01*
X161893190Y-136887295D02*
X161969381Y-136849200D01*
X161969381Y-136849200D02*
X162007476Y-136811104D01*
X162007476Y-136811104D02*
X162045571Y-136734914D01*
X162045571Y-136734914D02*
X162045571Y-136582533D01*
X162045571Y-136582533D02*
X162007476Y-136506342D01*
X162007476Y-136506342D02*
X161969381Y-136468247D01*
X161969381Y-136468247D02*
X161893190Y-136430152D01*
X190066666Y-123762295D02*
X189685714Y-123762295D01*
X189685714Y-123762295D02*
X189685714Y-122962295D01*
X190752380Y-123762295D02*
X190295237Y-123762295D01*
X190523809Y-123762295D02*
X190523809Y-122962295D01*
X190523809Y-122962295D02*
X190447618Y-123076580D01*
X190447618Y-123076580D02*
X190371428Y-123152771D01*
X190371428Y-123152771D02*
X190295237Y-123190866D01*
X181019048Y-142662295D02*
X181019048Y-141862295D01*
X181857143Y-142586104D02*
X181819047Y-142624200D01*
X181819047Y-142624200D02*
X181704762Y-142662295D01*
X181704762Y-142662295D02*
X181628571Y-142662295D01*
X181628571Y-142662295D02*
X181514285Y-142624200D01*
X181514285Y-142624200D02*
X181438095Y-142548009D01*
X181438095Y-142548009D02*
X181400000Y-142471819D01*
X181400000Y-142471819D02*
X181361904Y-142319438D01*
X181361904Y-142319438D02*
X181361904Y-142205152D01*
X181361904Y-142205152D02*
X181400000Y-142052771D01*
X181400000Y-142052771D02*
X181438095Y-141976580D01*
X181438095Y-141976580D02*
X181514285Y-141900390D01*
X181514285Y-141900390D02*
X181628571Y-141862295D01*
X181628571Y-141862295D02*
X181704762Y-141862295D01*
X181704762Y-141862295D02*
X181819047Y-141900390D01*
X181819047Y-141900390D02*
X181857143Y-141938485D01*
X182619047Y-142662295D02*
X182161904Y-142662295D01*
X182390476Y-142662295D02*
X182390476Y-141862295D01*
X182390476Y-141862295D02*
X182314285Y-141976580D01*
X182314285Y-141976580D02*
X182238095Y-142052771D01*
X182238095Y-142052771D02*
X182161904Y-142090866D01*
X162786104Y-109533332D02*
X162824200Y-109571428D01*
X162824200Y-109571428D02*
X162862295Y-109685713D01*
X162862295Y-109685713D02*
X162862295Y-109761904D01*
X162862295Y-109761904D02*
X162824200Y-109876190D01*
X162824200Y-109876190D02*
X162748009Y-109952380D01*
X162748009Y-109952380D02*
X162671819Y-109990475D01*
X162671819Y-109990475D02*
X162519438Y-110028571D01*
X162519438Y-110028571D02*
X162405152Y-110028571D01*
X162405152Y-110028571D02*
X162252771Y-109990475D01*
X162252771Y-109990475D02*
X162176580Y-109952380D01*
X162176580Y-109952380D02*
X162100390Y-109876190D01*
X162100390Y-109876190D02*
X162062295Y-109761904D01*
X162062295Y-109761904D02*
X162062295Y-109685713D01*
X162062295Y-109685713D02*
X162100390Y-109571428D01*
X162100390Y-109571428D02*
X162138485Y-109533332D01*
X162138485Y-109228571D02*
X162100390Y-109190475D01*
X162100390Y-109190475D02*
X162062295Y-109114285D01*
X162062295Y-109114285D02*
X162062295Y-108923809D01*
X162062295Y-108923809D02*
X162100390Y-108847618D01*
X162100390Y-108847618D02*
X162138485Y-108809523D01*
X162138485Y-108809523D02*
X162214676Y-108771428D01*
X162214676Y-108771428D02*
X162290866Y-108771428D01*
X162290866Y-108771428D02*
X162405152Y-108809523D01*
X162405152Y-108809523D02*
X162862295Y-109266666D01*
X162862295Y-109266666D02*
X162862295Y-108771428D01*
X167385104Y-142246285D02*
X167423200Y-142284381D01*
X167423200Y-142284381D02*
X167461295Y-142398666D01*
X167461295Y-142398666D02*
X167461295Y-142474857D01*
X167461295Y-142474857D02*
X167423200Y-142589143D01*
X167423200Y-142589143D02*
X167347009Y-142665333D01*
X167347009Y-142665333D02*
X167270819Y-142703428D01*
X167270819Y-142703428D02*
X167118438Y-142741524D01*
X167118438Y-142741524D02*
X167004152Y-142741524D01*
X167004152Y-142741524D02*
X166851771Y-142703428D01*
X166851771Y-142703428D02*
X166775580Y-142665333D01*
X166775580Y-142665333D02*
X166699390Y-142589143D01*
X166699390Y-142589143D02*
X166661295Y-142474857D01*
X166661295Y-142474857D02*
X166661295Y-142398666D01*
X166661295Y-142398666D02*
X166699390Y-142284381D01*
X166699390Y-142284381D02*
X166737485Y-142246285D01*
X167461295Y-141484381D02*
X167461295Y-141941524D01*
X167461295Y-141712952D02*
X166661295Y-141712952D01*
X166661295Y-141712952D02*
X166775580Y-141789143D01*
X166775580Y-141789143D02*
X166851771Y-141865333D01*
X166851771Y-141865333D02*
X166889866Y-141941524D01*
X166661295Y-141217714D02*
X166661295Y-140722476D01*
X166661295Y-140722476D02*
X166966057Y-140989142D01*
X166966057Y-140989142D02*
X166966057Y-140874857D01*
X166966057Y-140874857D02*
X167004152Y-140798666D01*
X167004152Y-140798666D02*
X167042247Y-140760571D01*
X167042247Y-140760571D02*
X167118438Y-140722476D01*
X167118438Y-140722476D02*
X167308914Y-140722476D01*
X167308914Y-140722476D02*
X167385104Y-140760571D01*
X167385104Y-140760571D02*
X167423200Y-140798666D01*
X167423200Y-140798666D02*
X167461295Y-140874857D01*
X167461295Y-140874857D02*
X167461295Y-141103428D01*
X167461295Y-141103428D02*
X167423200Y-141179619D01*
X167423200Y-141179619D02*
X167385104Y-141217714D01*
X182886104Y-133914285D02*
X182924200Y-133952381D01*
X182924200Y-133952381D02*
X182962295Y-134066666D01*
X182962295Y-134066666D02*
X182962295Y-134142857D01*
X182962295Y-134142857D02*
X182924200Y-134257143D01*
X182924200Y-134257143D02*
X182848009Y-134333333D01*
X182848009Y-134333333D02*
X182771819Y-134371428D01*
X182771819Y-134371428D02*
X182619438Y-134409524D01*
X182619438Y-134409524D02*
X182505152Y-134409524D01*
X182505152Y-134409524D02*
X182352771Y-134371428D01*
X182352771Y-134371428D02*
X182276580Y-134333333D01*
X182276580Y-134333333D02*
X182200390Y-134257143D01*
X182200390Y-134257143D02*
X182162295Y-134142857D01*
X182162295Y-134142857D02*
X182162295Y-134066666D01*
X182162295Y-134066666D02*
X182200390Y-133952381D01*
X182200390Y-133952381D02*
X182238485Y-133914285D01*
X182962295Y-133152381D02*
X182962295Y-133609524D01*
X182962295Y-133380952D02*
X182162295Y-133380952D01*
X182162295Y-133380952D02*
X182276580Y-133457143D01*
X182276580Y-133457143D02*
X182352771Y-133533333D01*
X182352771Y-133533333D02*
X182390866Y-133609524D01*
X182162295Y-132466666D02*
X182162295Y-132619047D01*
X182162295Y-132619047D02*
X182200390Y-132695238D01*
X182200390Y-132695238D02*
X182238485Y-132733333D01*
X182238485Y-132733333D02*
X182352771Y-132809523D01*
X182352771Y-132809523D02*
X182505152Y-132847619D01*
X182505152Y-132847619D02*
X182809914Y-132847619D01*
X182809914Y-132847619D02*
X182886104Y-132809523D01*
X182886104Y-132809523D02*
X182924200Y-132771428D01*
X182924200Y-132771428D02*
X182962295Y-132695238D01*
X182962295Y-132695238D02*
X182962295Y-132542857D01*
X182962295Y-132542857D02*
X182924200Y-132466666D01*
X182924200Y-132466666D02*
X182886104Y-132428571D01*
X182886104Y-132428571D02*
X182809914Y-132390476D01*
X182809914Y-132390476D02*
X182619438Y-132390476D01*
X182619438Y-132390476D02*
X182543247Y-132428571D01*
X182543247Y-132428571D02*
X182505152Y-132466666D01*
X182505152Y-132466666D02*
X182467057Y-132542857D01*
X182467057Y-132542857D02*
X182467057Y-132695238D01*
X182467057Y-132695238D02*
X182505152Y-132771428D01*
X182505152Y-132771428D02*
X182543247Y-132809523D01*
X182543247Y-132809523D02*
X182619438Y-132847619D01*
X181766667Y-145862295D02*
X181500000Y-145481342D01*
X181309524Y-145862295D02*
X181309524Y-145062295D01*
X181309524Y-145062295D02*
X181614286Y-145062295D01*
X181614286Y-145062295D02*
X181690476Y-145100390D01*
X181690476Y-145100390D02*
X181728571Y-145138485D01*
X181728571Y-145138485D02*
X181766667Y-145214676D01*
X181766667Y-145214676D02*
X181766667Y-145328961D01*
X181766667Y-145328961D02*
X181728571Y-145405152D01*
X181728571Y-145405152D02*
X181690476Y-145443247D01*
X181690476Y-145443247D02*
X181614286Y-145481342D01*
X181614286Y-145481342D02*
X181309524Y-145481342D01*
X182033333Y-145062295D02*
X182566667Y-145062295D01*
X182566667Y-145062295D02*
X182223809Y-145862295D01*
X190523247Y-153406666D02*
X190523247Y-153673332D01*
X190942295Y-153673332D02*
X190142295Y-153673332D01*
X190142295Y-153673332D02*
X190142295Y-153292380D01*
X190942295Y-152568571D02*
X190942295Y-153025714D01*
X190942295Y-152797142D02*
X190142295Y-152797142D01*
X190142295Y-152797142D02*
X190256580Y-152873333D01*
X190256580Y-152873333D02*
X190332771Y-152949523D01*
X190332771Y-152949523D02*
X190370866Y-153025714D01*
X190189247Y-121678666D02*
X190189247Y-121945332D01*
X190608295Y-121945332D02*
X189808295Y-121945332D01*
X189808295Y-121945332D02*
X189808295Y-121564380D01*
X189884485Y-121297714D02*
X189846390Y-121259618D01*
X189846390Y-121259618D02*
X189808295Y-121183428D01*
X189808295Y-121183428D02*
X189808295Y-120992952D01*
X189808295Y-120992952D02*
X189846390Y-120916761D01*
X189846390Y-120916761D02*
X189884485Y-120878666D01*
X189884485Y-120878666D02*
X189960676Y-120840571D01*
X189960676Y-120840571D02*
X190036866Y-120840571D01*
X190036866Y-120840571D02*
X190151152Y-120878666D01*
X190151152Y-120878666D02*
X190608295Y-121335809D01*
X190608295Y-121335809D02*
X190608295Y-120840571D01*
X160966667Y-111762295D02*
X160700000Y-111381342D01*
X160509524Y-111762295D02*
X160509524Y-110962295D01*
X160509524Y-110962295D02*
X160814286Y-110962295D01*
X160814286Y-110962295D02*
X160890476Y-111000390D01*
X160890476Y-111000390D02*
X160928571Y-111038485D01*
X160928571Y-111038485D02*
X160966667Y-111114676D01*
X160966667Y-111114676D02*
X160966667Y-111228961D01*
X160966667Y-111228961D02*
X160928571Y-111305152D01*
X160928571Y-111305152D02*
X160890476Y-111343247D01*
X160890476Y-111343247D02*
X160814286Y-111381342D01*
X160814286Y-111381342D02*
X160509524Y-111381342D01*
X161728571Y-111762295D02*
X161271428Y-111762295D01*
X161500000Y-111762295D02*
X161500000Y-110962295D01*
X161500000Y-110962295D02*
X161423809Y-111076580D01*
X161423809Y-111076580D02*
X161347619Y-111152771D01*
X161347619Y-111152771D02*
X161271428Y-111190866D01*
X191485714Y-131386104D02*
X191447618Y-131424200D01*
X191447618Y-131424200D02*
X191333333Y-131462295D01*
X191333333Y-131462295D02*
X191257142Y-131462295D01*
X191257142Y-131462295D02*
X191142856Y-131424200D01*
X191142856Y-131424200D02*
X191066666Y-131348009D01*
X191066666Y-131348009D02*
X191028571Y-131271819D01*
X191028571Y-131271819D02*
X190990475Y-131119438D01*
X190990475Y-131119438D02*
X190990475Y-131005152D01*
X190990475Y-131005152D02*
X191028571Y-130852771D01*
X191028571Y-130852771D02*
X191066666Y-130776580D01*
X191066666Y-130776580D02*
X191142856Y-130700390D01*
X191142856Y-130700390D02*
X191257142Y-130662295D01*
X191257142Y-130662295D02*
X191333333Y-130662295D01*
X191333333Y-130662295D02*
X191447618Y-130700390D01*
X191447618Y-130700390D02*
X191485714Y-130738485D01*
X192247618Y-131462295D02*
X191790475Y-131462295D01*
X192019047Y-131462295D02*
X192019047Y-130662295D01*
X192019047Y-130662295D02*
X191942856Y-130776580D01*
X191942856Y-130776580D02*
X191866666Y-130852771D01*
X191866666Y-130852771D02*
X191790475Y-130890866D01*
X192704761Y-131005152D02*
X192628571Y-130967057D01*
X192628571Y-130967057D02*
X192590476Y-130928961D01*
X192590476Y-130928961D02*
X192552380Y-130852771D01*
X192552380Y-130852771D02*
X192552380Y-130814676D01*
X192552380Y-130814676D02*
X192590476Y-130738485D01*
X192590476Y-130738485D02*
X192628571Y-130700390D01*
X192628571Y-130700390D02*
X192704761Y-130662295D01*
X192704761Y-130662295D02*
X192857142Y-130662295D01*
X192857142Y-130662295D02*
X192933333Y-130700390D01*
X192933333Y-130700390D02*
X192971428Y-130738485D01*
X192971428Y-130738485D02*
X193009523Y-130814676D01*
X193009523Y-130814676D02*
X193009523Y-130852771D01*
X193009523Y-130852771D02*
X192971428Y-130928961D01*
X192971428Y-130928961D02*
X192933333Y-130967057D01*
X192933333Y-130967057D02*
X192857142Y-131005152D01*
X192857142Y-131005152D02*
X192704761Y-131005152D01*
X192704761Y-131005152D02*
X192628571Y-131043247D01*
X192628571Y-131043247D02*
X192590476Y-131081342D01*
X192590476Y-131081342D02*
X192552380Y-131157533D01*
X192552380Y-131157533D02*
X192552380Y-131309914D01*
X192552380Y-131309914D02*
X192590476Y-131386104D01*
X192590476Y-131386104D02*
X192628571Y-131424200D01*
X192628571Y-131424200D02*
X192704761Y-131462295D01*
X192704761Y-131462295D02*
X192857142Y-131462295D01*
X192857142Y-131462295D02*
X192933333Y-131424200D01*
X192933333Y-131424200D02*
X192971428Y-131386104D01*
X192971428Y-131386104D02*
X193009523Y-131309914D01*
X193009523Y-131309914D02*
X193009523Y-131157533D01*
X193009523Y-131157533D02*
X192971428Y-131081342D01*
X192971428Y-131081342D02*
X192933333Y-131043247D01*
X192933333Y-131043247D02*
X192857142Y-131005152D01*
X177166667Y-145762295D02*
X176900000Y-145381342D01*
X176709524Y-145762295D02*
X176709524Y-144962295D01*
X176709524Y-144962295D02*
X177014286Y-144962295D01*
X177014286Y-144962295D02*
X177090476Y-145000390D01*
X177090476Y-145000390D02*
X177128571Y-145038485D01*
X177128571Y-145038485D02*
X177166667Y-145114676D01*
X177166667Y-145114676D02*
X177166667Y-145228961D01*
X177166667Y-145228961D02*
X177128571Y-145305152D01*
X177128571Y-145305152D02*
X177090476Y-145343247D01*
X177090476Y-145343247D02*
X177014286Y-145381342D01*
X177014286Y-145381342D02*
X176709524Y-145381342D01*
X177852381Y-144962295D02*
X177700000Y-144962295D01*
X177700000Y-144962295D02*
X177623809Y-145000390D01*
X177623809Y-145000390D02*
X177585714Y-145038485D01*
X177585714Y-145038485D02*
X177509524Y-145152771D01*
X177509524Y-145152771D02*
X177471428Y-145305152D01*
X177471428Y-145305152D02*
X177471428Y-145609914D01*
X177471428Y-145609914D02*
X177509524Y-145686104D01*
X177509524Y-145686104D02*
X177547619Y-145724200D01*
X177547619Y-145724200D02*
X177623809Y-145762295D01*
X177623809Y-145762295D02*
X177776190Y-145762295D01*
X177776190Y-145762295D02*
X177852381Y-145724200D01*
X177852381Y-145724200D02*
X177890476Y-145686104D01*
X177890476Y-145686104D02*
X177928571Y-145609914D01*
X177928571Y-145609914D02*
X177928571Y-145419438D01*
X177928571Y-145419438D02*
X177890476Y-145343247D01*
X177890476Y-145343247D02*
X177852381Y-145305152D01*
X177852381Y-145305152D02*
X177776190Y-145267057D01*
X177776190Y-145267057D02*
X177623809Y-145267057D01*
X177623809Y-145267057D02*
X177547619Y-145305152D01*
X177547619Y-145305152D02*
X177509524Y-145343247D01*
X177509524Y-145343247D02*
X177471428Y-145419438D01*
X166186295Y-127609523D02*
X166833914Y-127609523D01*
X166833914Y-127609523D02*
X166910104Y-127571428D01*
X166910104Y-127571428D02*
X166948200Y-127533333D01*
X166948200Y-127533333D02*
X166986295Y-127457142D01*
X166986295Y-127457142D02*
X166986295Y-127304761D01*
X166986295Y-127304761D02*
X166948200Y-127228571D01*
X166948200Y-127228571D02*
X166910104Y-127190476D01*
X166910104Y-127190476D02*
X166833914Y-127152380D01*
X166833914Y-127152380D02*
X166186295Y-127152380D01*
X166186295Y-126390476D02*
X166186295Y-126771428D01*
X166186295Y-126771428D02*
X166567247Y-126809524D01*
X166567247Y-126809524D02*
X166529152Y-126771428D01*
X166529152Y-126771428D02*
X166491057Y-126695238D01*
X166491057Y-126695238D02*
X166491057Y-126504762D01*
X166491057Y-126504762D02*
X166529152Y-126428571D01*
X166529152Y-126428571D02*
X166567247Y-126390476D01*
X166567247Y-126390476D02*
X166643438Y-126352381D01*
X166643438Y-126352381D02*
X166833914Y-126352381D01*
X166833914Y-126352381D02*
X166910104Y-126390476D01*
X166910104Y-126390476D02*
X166948200Y-126428571D01*
X166948200Y-126428571D02*
X166986295Y-126504762D01*
X166986295Y-126504762D02*
X166986295Y-126695238D01*
X166986295Y-126695238D02*
X166948200Y-126771428D01*
X166948200Y-126771428D02*
X166910104Y-126809524D01*
X161596104Y-119953332D02*
X161634200Y-119991428D01*
X161634200Y-119991428D02*
X161672295Y-120105713D01*
X161672295Y-120105713D02*
X161672295Y-120181904D01*
X161672295Y-120181904D02*
X161634200Y-120296190D01*
X161634200Y-120296190D02*
X161558009Y-120372380D01*
X161558009Y-120372380D02*
X161481819Y-120410475D01*
X161481819Y-120410475D02*
X161329438Y-120448571D01*
X161329438Y-120448571D02*
X161215152Y-120448571D01*
X161215152Y-120448571D02*
X161062771Y-120410475D01*
X161062771Y-120410475D02*
X160986580Y-120372380D01*
X160986580Y-120372380D02*
X160910390Y-120296190D01*
X160910390Y-120296190D02*
X160872295Y-120181904D01*
X160872295Y-120181904D02*
X160872295Y-120105713D01*
X160872295Y-120105713D02*
X160910390Y-119991428D01*
X160910390Y-119991428D02*
X160948485Y-119953332D01*
X161672295Y-119572380D02*
X161672295Y-119419999D01*
X161672295Y-119419999D02*
X161634200Y-119343809D01*
X161634200Y-119343809D02*
X161596104Y-119305713D01*
X161596104Y-119305713D02*
X161481819Y-119229523D01*
X161481819Y-119229523D02*
X161329438Y-119191428D01*
X161329438Y-119191428D02*
X161024676Y-119191428D01*
X161024676Y-119191428D02*
X160948485Y-119229523D01*
X160948485Y-119229523D02*
X160910390Y-119267618D01*
X160910390Y-119267618D02*
X160872295Y-119343809D01*
X160872295Y-119343809D02*
X160872295Y-119496190D01*
X160872295Y-119496190D02*
X160910390Y-119572380D01*
X160910390Y-119572380D02*
X160948485Y-119610475D01*
X160948485Y-119610475D02*
X161024676Y-119648571D01*
X161024676Y-119648571D02*
X161215152Y-119648571D01*
X161215152Y-119648571D02*
X161291342Y-119610475D01*
X161291342Y-119610475D02*
X161329438Y-119572380D01*
X161329438Y-119572380D02*
X161367533Y-119496190D01*
X161367533Y-119496190D02*
X161367533Y-119343809D01*
X161367533Y-119343809D02*
X161329438Y-119267618D01*
X161329438Y-119267618D02*
X161291342Y-119229523D01*
X161291342Y-119229523D02*
X161215152Y-119191428D01*
X183547104Y-129024285D02*
X183585200Y-129062381D01*
X183585200Y-129062381D02*
X183623295Y-129176666D01*
X183623295Y-129176666D02*
X183623295Y-129252857D01*
X183623295Y-129252857D02*
X183585200Y-129367143D01*
X183585200Y-129367143D02*
X183509009Y-129443333D01*
X183509009Y-129443333D02*
X183432819Y-129481428D01*
X183432819Y-129481428D02*
X183280438Y-129519524D01*
X183280438Y-129519524D02*
X183166152Y-129519524D01*
X183166152Y-129519524D02*
X183013771Y-129481428D01*
X183013771Y-129481428D02*
X182937580Y-129443333D01*
X182937580Y-129443333D02*
X182861390Y-129367143D01*
X182861390Y-129367143D02*
X182823295Y-129252857D01*
X182823295Y-129252857D02*
X182823295Y-129176666D01*
X182823295Y-129176666D02*
X182861390Y-129062381D01*
X182861390Y-129062381D02*
X182899485Y-129024285D01*
X182899485Y-128719524D02*
X182861390Y-128681428D01*
X182861390Y-128681428D02*
X182823295Y-128605238D01*
X182823295Y-128605238D02*
X182823295Y-128414762D01*
X182823295Y-128414762D02*
X182861390Y-128338571D01*
X182861390Y-128338571D02*
X182899485Y-128300476D01*
X182899485Y-128300476D02*
X182975676Y-128262381D01*
X182975676Y-128262381D02*
X183051866Y-128262381D01*
X183051866Y-128262381D02*
X183166152Y-128300476D01*
X183166152Y-128300476D02*
X183623295Y-128757619D01*
X183623295Y-128757619D02*
X183623295Y-128262381D01*
X182823295Y-127767142D02*
X182823295Y-127690952D01*
X182823295Y-127690952D02*
X182861390Y-127614761D01*
X182861390Y-127614761D02*
X182899485Y-127576666D01*
X182899485Y-127576666D02*
X182975676Y-127538571D01*
X182975676Y-127538571D02*
X183128057Y-127500476D01*
X183128057Y-127500476D02*
X183318533Y-127500476D01*
X183318533Y-127500476D02*
X183470914Y-127538571D01*
X183470914Y-127538571D02*
X183547104Y-127576666D01*
X183547104Y-127576666D02*
X183585200Y-127614761D01*
X183585200Y-127614761D02*
X183623295Y-127690952D01*
X183623295Y-127690952D02*
X183623295Y-127767142D01*
X183623295Y-127767142D02*
X183585200Y-127843333D01*
X183585200Y-127843333D02*
X183547104Y-127881428D01*
X183547104Y-127881428D02*
X183470914Y-127919523D01*
X183470914Y-127919523D02*
X183318533Y-127957619D01*
X183318533Y-127957619D02*
X183128057Y-127957619D01*
X183128057Y-127957619D02*
X182975676Y-127919523D01*
X182975676Y-127919523D02*
X182899485Y-127881428D01*
X182899485Y-127881428D02*
X182861390Y-127843333D01*
X182861390Y-127843333D02*
X182823295Y-127767142D01*
X182085714Y-126486104D02*
X182047618Y-126524200D01*
X182047618Y-126524200D02*
X181933333Y-126562295D01*
X181933333Y-126562295D02*
X181857142Y-126562295D01*
X181857142Y-126562295D02*
X181742856Y-126524200D01*
X181742856Y-126524200D02*
X181666666Y-126448009D01*
X181666666Y-126448009D02*
X181628571Y-126371819D01*
X181628571Y-126371819D02*
X181590475Y-126219438D01*
X181590475Y-126219438D02*
X181590475Y-126105152D01*
X181590475Y-126105152D02*
X181628571Y-125952771D01*
X181628571Y-125952771D02*
X181666666Y-125876580D01*
X181666666Y-125876580D02*
X181742856Y-125800390D01*
X181742856Y-125800390D02*
X181857142Y-125762295D01*
X181857142Y-125762295D02*
X181933333Y-125762295D01*
X181933333Y-125762295D02*
X182047618Y-125800390D01*
X182047618Y-125800390D02*
X182085714Y-125838485D01*
X182847618Y-126562295D02*
X182390475Y-126562295D01*
X182619047Y-126562295D02*
X182619047Y-125762295D01*
X182619047Y-125762295D02*
X182542856Y-125876580D01*
X182542856Y-125876580D02*
X182466666Y-125952771D01*
X182466666Y-125952771D02*
X182390475Y-125990866D01*
X183228571Y-126562295D02*
X183380952Y-126562295D01*
X183380952Y-126562295D02*
X183457142Y-126524200D01*
X183457142Y-126524200D02*
X183495238Y-126486104D01*
X183495238Y-126486104D02*
X183571428Y-126371819D01*
X183571428Y-126371819D02*
X183609523Y-126219438D01*
X183609523Y-126219438D02*
X183609523Y-125914676D01*
X183609523Y-125914676D02*
X183571428Y-125838485D01*
X183571428Y-125838485D02*
X183533333Y-125800390D01*
X183533333Y-125800390D02*
X183457142Y-125762295D01*
X183457142Y-125762295D02*
X183304761Y-125762295D01*
X183304761Y-125762295D02*
X183228571Y-125800390D01*
X183228571Y-125800390D02*
X183190476Y-125838485D01*
X183190476Y-125838485D02*
X183152380Y-125914676D01*
X183152380Y-125914676D02*
X183152380Y-126105152D01*
X183152380Y-126105152D02*
X183190476Y-126181342D01*
X183190476Y-126181342D02*
X183228571Y-126219438D01*
X183228571Y-126219438D02*
X183304761Y-126257533D01*
X183304761Y-126257533D02*
X183457142Y-126257533D01*
X183457142Y-126257533D02*
X183533333Y-126219438D01*
X183533333Y-126219438D02*
X183571428Y-126181342D01*
X183571428Y-126181342D02*
X183609523Y-126105152D01*
X155609524Y-113262295D02*
X155609524Y-112462295D01*
X155609524Y-112462295D02*
X155800000Y-112462295D01*
X155800000Y-112462295D02*
X155914286Y-112500390D01*
X155914286Y-112500390D02*
X155990476Y-112576580D01*
X155990476Y-112576580D02*
X156028571Y-112652771D01*
X156028571Y-112652771D02*
X156066667Y-112805152D01*
X156066667Y-112805152D02*
X156066667Y-112919438D01*
X156066667Y-112919438D02*
X156028571Y-113071819D01*
X156028571Y-113071819D02*
X155990476Y-113148009D01*
X155990476Y-113148009D02*
X155914286Y-113224200D01*
X155914286Y-113224200D02*
X155800000Y-113262295D01*
X155800000Y-113262295D02*
X155609524Y-113262295D01*
X156333333Y-112462295D02*
X156828571Y-112462295D01*
X156828571Y-112462295D02*
X156561905Y-112767057D01*
X156561905Y-112767057D02*
X156676190Y-112767057D01*
X156676190Y-112767057D02*
X156752381Y-112805152D01*
X156752381Y-112805152D02*
X156790476Y-112843247D01*
X156790476Y-112843247D02*
X156828571Y-112919438D01*
X156828571Y-112919438D02*
X156828571Y-113109914D01*
X156828571Y-113109914D02*
X156790476Y-113186104D01*
X156790476Y-113186104D02*
X156752381Y-113224200D01*
X156752381Y-113224200D02*
X156676190Y-113262295D01*
X156676190Y-113262295D02*
X156447619Y-113262295D01*
X156447619Y-113262295D02*
X156371428Y-113224200D01*
X156371428Y-113224200D02*
X156333333Y-113186104D01*
D13*
X182910000Y-109170000D02*
X183310000Y-109170000D01*
X182910000Y-112090000D02*
X182910000Y-109180000D01*
X182910000Y-112090000D02*
X183310000Y-112090000D01*
X185770000Y-109160000D02*
X185370000Y-109160000D01*
X185770000Y-109170000D02*
X185770000Y-112090000D01*
X185770000Y-112090000D02*
X185370000Y-112090000D01*
D12*
X165695000Y-139815000D02*
X165695000Y-138315000D01*
X165855000Y-134765000D02*
X174505000Y-134765000D01*
X165855000Y-137965000D02*
X165855000Y-134765000D01*
X174505000Y-134765000D02*
X174505000Y-137965000D01*
X174505000Y-137965000D02*
X165855000Y-137965000D01*
D13*
X193576000Y-120565000D02*
X193576000Y-122035000D01*
X193576000Y-122035000D02*
X196036000Y-122035000D01*
X196036000Y-120565000D02*
X193576000Y-120565000D01*
X187890000Y-134795000D02*
X192010000Y-134795000D01*
X187890000Y-134890000D02*
X187890000Y-134795000D01*
X187890000Y-139915000D02*
X187890000Y-139820000D01*
X192010000Y-134795000D02*
X192010000Y-134890000D01*
X192010000Y-139820000D02*
X192010000Y-139915000D01*
X192010000Y-139915000D02*
X187890000Y-139915000D01*
X187350000Y-134885000D02*
X187110000Y-134555000D01*
X187590000Y-134555000D01*
X187350000Y-134885000D01*
G36*
X187350000Y-134885000D02*
G01*
X187110000Y-134555000D01*
X187590000Y-134555000D01*
X187350000Y-134885000D01*
G37*
X178975000Y-128828973D02*
X178975000Y-128536439D01*
X179995000Y-128828973D02*
X179995000Y-128536439D01*
X169419000Y-140184500D02*
X169419000Y-143004500D01*
X171839000Y-140184500D02*
X169419000Y-140184500D01*
X181450000Y-114739600D02*
X181450000Y-115139600D01*
X181450000Y-114739600D02*
X184360000Y-114739600D01*
X181450000Y-117599600D02*
X181450000Y-117199600D01*
X184370000Y-114739600D02*
X184370000Y-115139600D01*
X184370000Y-117599600D02*
X181450000Y-117599600D01*
X184380000Y-117599600D02*
X184380000Y-117199600D01*
X195437500Y-135592776D02*
X195437500Y-136102224D01*
X196482500Y-135592776D02*
X196482500Y-136102224D01*
X189190000Y-141950000D02*
X189190000Y-146250000D01*
X189190000Y-141950000D02*
X195000000Y-141950000D01*
X189190000Y-146250000D02*
X195000000Y-146250000D01*
X187640000Y-144710242D02*
X187640000Y-143889758D01*
X188760000Y-144710242D02*
X188760000Y-143889758D01*
X177903733Y-135690000D02*
X178196267Y-135690000D01*
X177903733Y-136710000D02*
X178196267Y-136710000D01*
X163065000Y-100720000D02*
X163065000Y-103170000D01*
X163065000Y-100720000D02*
X165515000Y-100720000D01*
X163340000Y-100970000D02*
X178940000Y-100970000D01*
X163340000Y-121670000D02*
X163340000Y-100970000D01*
X178940000Y-100970000D02*
X178940000Y-121670000D01*
X178940000Y-121670000D02*
X163340000Y-121670000D01*
X163165000Y-107920000D02*
X162829000Y-108160000D01*
X162829000Y-107680000D01*
X163165000Y-107920000D01*
G36*
X163165000Y-107920000D02*
G01*
X162829000Y-108160000D01*
X162829000Y-107680000D01*
X163165000Y-107920000D01*
G37*
D12*
X181797000Y-123200000D02*
X182297000Y-123200000D01*
X181797000Y-125300000D02*
X181797000Y-123200000D01*
X182297000Y-123200000D02*
X182297000Y-125300000D01*
X182297000Y-125300000D02*
X181797000Y-125300000D01*
X183122000Y-125400000D02*
X182647000Y-125400000D01*
D13*
X193930000Y-136003767D02*
X193930000Y-135711233D01*
X194950000Y-136003767D02*
X194950000Y-135711233D01*
X158737224Y-112533100D02*
X158227776Y-112533100D01*
X158737224Y-113578100D02*
X158227776Y-113578100D01*
X152873600Y-106757800D02*
X152873600Y-108227800D01*
X152873600Y-108227800D02*
X155333600Y-108227800D01*
X155333600Y-106757800D02*
X152873600Y-106757800D01*
X179547500Y-109657224D02*
X179547500Y-109147776D01*
X180592500Y-109657224D02*
X180592500Y-109147776D01*
X193930000Y-139081233D02*
X193930000Y-139373767D01*
X194950000Y-139081233D02*
X194950000Y-139373767D01*
X178935000Y-125076439D02*
X178935000Y-125368973D01*
X179955000Y-125076439D02*
X179955000Y-125368973D01*
X168140000Y-147977064D02*
X168140000Y-146522936D01*
X169960000Y-147977064D02*
X169960000Y-146522936D01*
X187827533Y-116369200D02*
X188120067Y-116369200D01*
X187827533Y-117389200D02*
X188120067Y-117389200D01*
X178360000Y-146690000D02*
X178360000Y-148540000D01*
X178360000Y-146690000D02*
X179250000Y-146690000D01*
X180590000Y-146705000D02*
X181480000Y-146705000D01*
X181480000Y-146705000D02*
X181480000Y-148555000D01*
X178350000Y-148930000D02*
X178020000Y-149170000D01*
X178020000Y-148690000D01*
X178350000Y-148930000D01*
G36*
X178350000Y-148930000D02*
G01*
X178020000Y-149170000D01*
X178020000Y-148690000D01*
X178350000Y-148930000D01*
G37*
X187595276Y-140325000D02*
X188104724Y-140325000D01*
X187595276Y-141370000D02*
X188104724Y-141370000D01*
X186517233Y-123061000D02*
X186809767Y-123061000D01*
X186517233Y-124081000D02*
X186809767Y-124081000D01*
X193547500Y-132742224D02*
X193547500Y-132232776D01*
X194592500Y-132742224D02*
X194592500Y-132232776D01*
X156990000Y-141860000D02*
X156990000Y-145620000D01*
X156990000Y-145620000D02*
X158250000Y-145620000D01*
X163810000Y-141860000D02*
X163810000Y-145620000D01*
X163810000Y-145620000D02*
X162550000Y-145620000D01*
X164040000Y-140820000D02*
X163710000Y-140580000D01*
X164040000Y-140340000D01*
X164040000Y-140820000D01*
G36*
X164040000Y-140820000D02*
G01*
X163710000Y-140580000D01*
X164040000Y-140340000D01*
X164040000Y-140820000D01*
G37*
X152170000Y-114055000D02*
X152170000Y-118975000D01*
X152420000Y-114055000D02*
X152170000Y-114055000D01*
X152420000Y-118975000D02*
X152170000Y-118975000D01*
X155890000Y-114055000D02*
X155640000Y-114055000D01*
X155890000Y-118975000D02*
X155640000Y-118975000D01*
X155890000Y-118975000D02*
X155890000Y-114055000D01*
X186517233Y-124585000D02*
X186809767Y-124585000D01*
X186517233Y-125605000D02*
X186809767Y-125605000D01*
X189827500Y-116400000D02*
X189877500Y-116400000D01*
X189827500Y-118220000D02*
X189827500Y-116400000D01*
X189877500Y-118220000D02*
X189827500Y-118220000D01*
X192897500Y-116400000D02*
X192947500Y-116400000D01*
X192947500Y-116400000D02*
X192947500Y-118220000D01*
X192947500Y-118220000D02*
X192897500Y-118220000D01*
X193227500Y-116100000D02*
X192897500Y-115860000D01*
X193227500Y-115620000D01*
X193227500Y-116100000D01*
G36*
X193227500Y-116100000D02*
G01*
X192897500Y-115860000D01*
X193227500Y-115620000D01*
X193227500Y-116100000D01*
G37*
X194690276Y-117206500D02*
X195199724Y-117206500D01*
X194690276Y-118251500D02*
X195199724Y-118251500D01*
X194947476Y-122524300D02*
X195456924Y-122524300D01*
X194947476Y-123569300D02*
X195456924Y-123569300D01*
X195187500Y-132232776D02*
X195187500Y-132742224D01*
X196232500Y-132232776D02*
X196232500Y-132742224D01*
X190777500Y-131177500D02*
X185267500Y-131177500D01*
X190777500Y-134477500D02*
X185267500Y-134477500D01*
X190777500Y-134477500D02*
X190777500Y-131177500D01*
X184265276Y-138825000D02*
X184774724Y-138825000D01*
X184265276Y-139870000D02*
X184774724Y-139870000D01*
X180940000Y-114320000D02*
X180940000Y-111660000D01*
X180940000Y-114320000D02*
X182640000Y-114320000D01*
X182640000Y-114320000D02*
X182640000Y-111660000D01*
X189315000Y-146450000D02*
X189315000Y-149750000D01*
X189315000Y-146450000D02*
X194825000Y-146450000D01*
X189315000Y-149750000D02*
X194825000Y-149750000D01*
X181070000Y-109548767D02*
X181070000Y-109256233D01*
X182090000Y-109548767D02*
X182090000Y-109256233D01*
X161397733Y-132586000D02*
X161690267Y-132586000D01*
X161397733Y-133606000D02*
X161690267Y-133606000D01*
X194731476Y-115630300D02*
X195240924Y-115630300D01*
X194731476Y-116675300D02*
X195240924Y-116675300D01*
X160380752Y-106457000D02*
X158958248Y-106457000D01*
X160380752Y-108277000D02*
X158958248Y-108277000D01*
X174990000Y-147796267D02*
X174990000Y-147503733D01*
X176010000Y-147796267D02*
X176010000Y-147503733D01*
X180905000Y-136924564D02*
X180905000Y-136470436D01*
X182375000Y-136924564D02*
X182375000Y-136470436D01*
X162409000Y-129183000D02*
X159409000Y-129183000D01*
X162409000Y-132183000D02*
X159409000Y-132183000D01*
X159059000Y-129283000D02*
X158819000Y-128953000D01*
X159299000Y-128953000D01*
X159059000Y-129283000D01*
G36*
X159059000Y-129283000D02*
G01*
X158819000Y-128953000D01*
X159299000Y-128953000D01*
X159059000Y-129283000D01*
G37*
X191073733Y-140347500D02*
X191366267Y-140347500D01*
X191073733Y-141367500D02*
X191366267Y-141367500D01*
X186720000Y-110550000D02*
X186720000Y-112250000D01*
X196060000Y-110550000D02*
X196060000Y-112250000D01*
X152873600Y-108993000D02*
X152873600Y-110463000D01*
X152873600Y-110463000D02*
X155333600Y-110463000D01*
X155333600Y-108993000D02*
X152873600Y-108993000D01*
X158737224Y-114209500D02*
X158227776Y-114209500D01*
X158737224Y-115254500D02*
X158227776Y-115254500D01*
X170490000Y-146522936D02*
X170490000Y-147977064D01*
X172310000Y-146522936D02*
X172310000Y-147977064D01*
X158670776Y-116833100D02*
X159180224Y-116833100D01*
X158670776Y-117878100D02*
X159180224Y-117878100D01*
X172219000Y-141585733D02*
X172219000Y-141878267D01*
X173239000Y-141585733D02*
X173239000Y-141878267D01*
X163955000Y-130510233D02*
X163955000Y-130802767D01*
X164975000Y-130510233D02*
X164975000Y-130802767D01*
X184870000Y-136506267D02*
X184870000Y-136213733D01*
X185890000Y-136506267D02*
X185890000Y-136213733D01*
X182372724Y-118095500D02*
X181863276Y-118095500D01*
X182372724Y-119140500D02*
X181863276Y-119140500D01*
X183490000Y-147509420D02*
X183490000Y-147790580D01*
X184510000Y-147509420D02*
X184510000Y-147790580D01*
X152798000Y-121810000D02*
X154178000Y-121810000D01*
X152798000Y-123190000D02*
X152798000Y-121810000D01*
X152798000Y-124460000D02*
X152798000Y-139810000D01*
X152798000Y-124460000D02*
X155558000Y-124460000D01*
X152798000Y-139810000D02*
X155558000Y-139810000D01*
X155558000Y-124460000D02*
X155558000Y-139810000D01*
D14*
X153820000Y-157160000D02*
X195120000Y-157160000D01*
X153820000Y-177660000D02*
X153820000Y-157160000D01*
X195120000Y-157160000D02*
X195120000Y-177660000D01*
X195120000Y-177660000D02*
X153820000Y-177660000D01*
D12*
X158570000Y-154910000D02*
G75*
G02*
X158370000Y-154910000I-100000J0D01*
G01*
X158370000Y-154910000D02*
G75*
G02*
X158570000Y-154910000I100000J0D01*
G01*
D13*
X157278700Y-121365100D02*
X157278700Y-118705100D01*
X157278700Y-121365100D02*
X158978700Y-121365100D01*
X158978700Y-121365100D02*
X158978700Y-118705100D01*
X164336000Y-135147267D02*
X164336000Y-134854733D01*
X165356000Y-135147267D02*
X165356000Y-134854733D01*
X158248233Y-137866000D02*
X158540767Y-137866000D01*
X158248233Y-138886000D02*
X158540767Y-138886000D01*
X161650733Y-137866000D02*
X161943267Y-137866000D01*
X161650733Y-138886000D02*
X161943267Y-138886000D01*
X188870000Y-124100000D02*
X195470000Y-124100000D01*
X188870000Y-125800000D02*
X188870000Y-124100000D01*
X188870000Y-130500000D02*
X188870000Y-128800000D01*
X195470000Y-124100000D02*
X195470000Y-125800000D01*
X195470000Y-128800000D02*
X195470000Y-130500000D01*
X195470000Y-130500000D02*
X188870000Y-130500000D01*
D12*
X175500000Y-139100000D02*
X180400000Y-139100000D01*
X175500000Y-142300000D02*
X175500000Y-139100000D01*
X180400000Y-139100000D02*
X180400000Y-142300000D01*
X180400000Y-142300000D02*
X175500000Y-142300000D01*
X180530000Y-137250000D02*
X180530000Y-138750000D01*
D13*
X159785267Y-108837000D02*
X159492733Y-108837000D01*
X159785267Y-109857000D02*
X159492733Y-109857000D01*
X168019000Y-141878267D02*
X168019000Y-141585733D01*
X169039000Y-141878267D02*
X169039000Y-141585733D01*
X182885000Y-136924564D02*
X182885000Y-136470436D01*
X184355000Y-136924564D02*
X184355000Y-136470436D01*
X181920000Y-147904724D02*
X181920000Y-147395276D01*
X182965000Y-147904724D02*
X182965000Y-147395276D01*
X191520000Y-154526252D02*
X191520000Y-151753748D01*
X194940000Y-154526252D02*
X194940000Y-151753748D01*
X186605000Y-119418263D02*
X186605000Y-120865737D01*
X189315000Y-119418263D02*
X189315000Y-120865737D01*
X158737224Y-110907500D02*
X158227776Y-110907500D01*
X158737224Y-111952500D02*
X158227776Y-111952500D01*
X191097500Y-133083767D02*
X191097500Y-132791233D01*
X192117500Y-133083767D02*
X192117500Y-132791233D01*
X176820000Y-147904724D02*
X176820000Y-147395276D01*
X177865000Y-147904724D02*
X177865000Y-147395276D01*
X169085000Y-123592706D02*
X175505000Y-123592706D01*
X169085000Y-130492706D02*
X175505000Y-130492706D01*
X175505000Y-123592706D02*
X175505000Y-124062706D01*
X175505000Y-130492706D02*
X175505000Y-130022706D01*
X177575000Y-130452706D02*
X176895000Y-130452706D01*
X177235000Y-129982706D01*
X177575000Y-130452706D01*
G36*
X177575000Y-130452706D02*
G01*
X176895000Y-130452706D01*
X177235000Y-129982706D01*
X177575000Y-130452706D01*
G37*
X159370000Y-119673733D02*
X159370000Y-119966267D01*
X160390000Y-119673733D02*
X160390000Y-119966267D01*
X183860000Y-127782936D02*
X183860000Y-129237064D01*
X185680000Y-127782936D02*
X185680000Y-129237064D01*
X186190000Y-127772936D02*
X186190000Y-129227064D01*
X188010000Y-127772936D02*
X188010000Y-129227064D01*
X152873600Y-110974200D02*
X152873600Y-112444200D01*
X152873600Y-112444200D02*
X155333600Y-112444200D01*
X155333600Y-110974200D02*
X152873600Y-110974200D01*
M02*
