%TF.GenerationSoftware,KiCad,Pcbnew,9.0.5*%
%TF.CreationDate,2026-03-09T10:36:54+01:00*%
%TF.ProjectId,CanBus_Sniffer_v1,43616e42-7573-45f5-936e-69666665725f,rev?*%
%TF.SameCoordinates,Original*%
%TF.FileFunction,Drillmap*%
%TF.FilePolarity,Positive*%
%FSLAX45Y45*%
G04 Gerber Fmt 4.5, Leading zero omitted, Abs format (unit mm)*
G04 Created by KiCad (PCBNEW 9.0.5) date 2026-03-09 10:36:54*
%MOMM*%
%LPD*%
G01*
G04 APERTURE LIST*
%ADD10C,0.200000*%
%ADD11C,0.100000*%
%ADD12C,0.210000*%
G04 APERTURE END LIST*
D10*
X15185600Y-10575300D02*
X19730700Y-10575300D01*
X19730700Y-15679700D01*
X15185600Y-15679700D01*
X15185600Y-10575300D01*
D11*
X18817500Y-11273000D02*
X18882500Y-11338000D01*
X18882500Y-11273000D02*
X18817500Y-11338000D01*
X19395500Y-11273000D02*
X19460500Y-11338000D01*
X19460500Y-11273000D02*
X19395500Y-11338000D01*
D12*
X15700600Y-15151100D02*
G75*
G02*
X15490600Y-15151100I-105000J0D01*
G01*
X15490600Y-15151100D02*
G75*
G02*
X15700600Y-15151100I105000J0D01*
G01*
X18034000Y-13286000D02*
G75*
G02*
X17824000Y-13286000I-105000J0D01*
G01*
X17824000Y-13286000D02*
G75*
G02*
X18034000Y-13286000I105000J0D01*
G01*
D10*
X15436377Y-16001184D02*
X15436377Y-15801184D01*
X15436377Y-15801184D02*
X15483996Y-15801184D01*
X15483996Y-15801184D02*
X15512567Y-15810708D01*
X15512567Y-15810708D02*
X15531615Y-15829755D01*
X15531615Y-15829755D02*
X15541139Y-15848803D01*
X15541139Y-15848803D02*
X15550662Y-15886898D01*
X15550662Y-15886898D02*
X15550662Y-15915469D01*
X15550662Y-15915469D02*
X15541139Y-15953565D01*
X15541139Y-15953565D02*
X15531615Y-15972612D01*
X15531615Y-15972612D02*
X15512567Y-15991660D01*
X15512567Y-15991660D02*
X15483996Y-16001184D01*
X15483996Y-16001184D02*
X15436377Y-16001184D01*
X15636377Y-16001184D02*
X15636377Y-15867850D01*
X15636377Y-15905946D02*
X15645901Y-15886898D01*
X15645901Y-15886898D02*
X15655424Y-15877374D01*
X15655424Y-15877374D02*
X15674472Y-15867850D01*
X15674472Y-15867850D02*
X15693520Y-15867850D01*
X15760186Y-16001184D02*
X15760186Y-15867850D01*
X15760186Y-15801184D02*
X15750662Y-15810708D01*
X15750662Y-15810708D02*
X15760186Y-15820231D01*
X15760186Y-15820231D02*
X15769710Y-15810708D01*
X15769710Y-15810708D02*
X15760186Y-15801184D01*
X15760186Y-15801184D02*
X15760186Y-15820231D01*
X15883996Y-16001184D02*
X15864948Y-15991660D01*
X15864948Y-15991660D02*
X15855424Y-15972612D01*
X15855424Y-15972612D02*
X15855424Y-15801184D01*
X15988758Y-16001184D02*
X15969710Y-15991660D01*
X15969710Y-15991660D02*
X15960186Y-15972612D01*
X15960186Y-15972612D02*
X15960186Y-15801184D01*
X16217329Y-16001184D02*
X16217329Y-15801184D01*
X16217329Y-15801184D02*
X16283996Y-15944041D01*
X16283996Y-15944041D02*
X16350662Y-15801184D01*
X16350662Y-15801184D02*
X16350662Y-16001184D01*
X16531615Y-16001184D02*
X16531615Y-15896422D01*
X16531615Y-15896422D02*
X16522091Y-15877374D01*
X16522091Y-15877374D02*
X16503043Y-15867850D01*
X16503043Y-15867850D02*
X16464948Y-15867850D01*
X16464948Y-15867850D02*
X16445901Y-15877374D01*
X16531615Y-15991660D02*
X16512567Y-16001184D01*
X16512567Y-16001184D02*
X16464948Y-16001184D01*
X16464948Y-16001184D02*
X16445901Y-15991660D01*
X16445901Y-15991660D02*
X16436377Y-15972612D01*
X16436377Y-15972612D02*
X16436377Y-15953565D01*
X16436377Y-15953565D02*
X16445901Y-15934517D01*
X16445901Y-15934517D02*
X16464948Y-15924993D01*
X16464948Y-15924993D02*
X16512567Y-15924993D01*
X16512567Y-15924993D02*
X16531615Y-15915469D01*
X16626853Y-15867850D02*
X16626853Y-16067850D01*
X16626853Y-15877374D02*
X16645901Y-15867850D01*
X16645901Y-15867850D02*
X16683996Y-15867850D01*
X16683996Y-15867850D02*
X16703043Y-15877374D01*
X16703043Y-15877374D02*
X16712567Y-15886898D01*
X16712567Y-15886898D02*
X16722091Y-15905946D01*
X16722091Y-15905946D02*
X16722091Y-15963088D01*
X16722091Y-15963088D02*
X16712567Y-15982136D01*
X16712567Y-15982136D02*
X16703043Y-15991660D01*
X16703043Y-15991660D02*
X16683996Y-16001184D01*
X16683996Y-16001184D02*
X16645901Y-16001184D01*
X16645901Y-16001184D02*
X16626853Y-15991660D01*
X16807805Y-15982136D02*
X16817329Y-15991660D01*
X16817329Y-15991660D02*
X16807805Y-16001184D01*
X16807805Y-16001184D02*
X16798282Y-15991660D01*
X16798282Y-15991660D02*
X16807805Y-15982136D01*
X16807805Y-15982136D02*
X16807805Y-16001184D01*
X16807805Y-15877374D02*
X16817329Y-15886898D01*
X16817329Y-15886898D02*
X16807805Y-15896422D01*
X16807805Y-15896422D02*
X16798282Y-15886898D01*
X16798282Y-15886898D02*
X16807805Y-15877374D01*
X16807805Y-15877374D02*
X16807805Y-15896422D01*
D11*
X15110600Y-16297200D02*
X15175600Y-16362200D01*
X15175600Y-16297200D02*
X15110600Y-16362200D01*
D10*
X15474472Y-16221184D02*
X15493520Y-16221184D01*
X15493520Y-16221184D02*
X15512567Y-16230708D01*
X15512567Y-16230708D02*
X15522091Y-16240231D01*
X15522091Y-16240231D02*
X15531615Y-16259279D01*
X15531615Y-16259279D02*
X15541139Y-16297374D01*
X15541139Y-16297374D02*
X15541139Y-16344993D01*
X15541139Y-16344993D02*
X15531615Y-16383088D01*
X15531615Y-16383088D02*
X15522091Y-16402136D01*
X15522091Y-16402136D02*
X15512567Y-16411660D01*
X15512567Y-16411660D02*
X15493520Y-16421184D01*
X15493520Y-16421184D02*
X15474472Y-16421184D01*
X15474472Y-16421184D02*
X15455424Y-16411660D01*
X15455424Y-16411660D02*
X15445901Y-16402136D01*
X15445901Y-16402136D02*
X15436377Y-16383088D01*
X15436377Y-16383088D02*
X15426853Y-16344993D01*
X15426853Y-16344993D02*
X15426853Y-16297374D01*
X15426853Y-16297374D02*
X15436377Y-16259279D01*
X15436377Y-16259279D02*
X15445901Y-16240231D01*
X15445901Y-16240231D02*
X15455424Y-16230708D01*
X15455424Y-16230708D02*
X15474472Y-16221184D01*
X15626853Y-16402136D02*
X15636377Y-16411660D01*
X15636377Y-16411660D02*
X15626853Y-16421184D01*
X15626853Y-16421184D02*
X15617329Y-16411660D01*
X15617329Y-16411660D02*
X15626853Y-16402136D01*
X15626853Y-16402136D02*
X15626853Y-16421184D01*
X15807805Y-16221184D02*
X15769710Y-16221184D01*
X15769710Y-16221184D02*
X15750662Y-16230708D01*
X15750662Y-16230708D02*
X15741139Y-16240231D01*
X15741139Y-16240231D02*
X15722091Y-16268803D01*
X15722091Y-16268803D02*
X15712567Y-16306898D01*
X15712567Y-16306898D02*
X15712567Y-16383088D01*
X15712567Y-16383088D02*
X15722091Y-16402136D01*
X15722091Y-16402136D02*
X15731615Y-16411660D01*
X15731615Y-16411660D02*
X15750662Y-16421184D01*
X15750662Y-16421184D02*
X15788758Y-16421184D01*
X15788758Y-16421184D02*
X15807805Y-16411660D01*
X15807805Y-16411660D02*
X15817329Y-16402136D01*
X15817329Y-16402136D02*
X15826853Y-16383088D01*
X15826853Y-16383088D02*
X15826853Y-16335469D01*
X15826853Y-16335469D02*
X15817329Y-16316422D01*
X15817329Y-16316422D02*
X15807805Y-16306898D01*
X15807805Y-16306898D02*
X15788758Y-16297374D01*
X15788758Y-16297374D02*
X15750662Y-16297374D01*
X15750662Y-16297374D02*
X15731615Y-16306898D01*
X15731615Y-16306898D02*
X15722091Y-16316422D01*
X15722091Y-16316422D02*
X15712567Y-16335469D01*
X16007805Y-16221184D02*
X15912567Y-16221184D01*
X15912567Y-16221184D02*
X15903043Y-16316422D01*
X15903043Y-16316422D02*
X15912567Y-16306898D01*
X15912567Y-16306898D02*
X15931615Y-16297374D01*
X15931615Y-16297374D02*
X15979234Y-16297374D01*
X15979234Y-16297374D02*
X15998282Y-16306898D01*
X15998282Y-16306898D02*
X16007805Y-16316422D01*
X16007805Y-16316422D02*
X16017329Y-16335469D01*
X16017329Y-16335469D02*
X16017329Y-16383088D01*
X16017329Y-16383088D02*
X16007805Y-16402136D01*
X16007805Y-16402136D02*
X15998282Y-16411660D01*
X15998282Y-16411660D02*
X15979234Y-16421184D01*
X15979234Y-16421184D02*
X15931615Y-16421184D01*
X15931615Y-16421184D02*
X15912567Y-16411660D01*
X15912567Y-16411660D02*
X15903043Y-16402136D01*
X16141139Y-16221184D02*
X16160186Y-16221184D01*
X16160186Y-16221184D02*
X16179234Y-16230708D01*
X16179234Y-16230708D02*
X16188758Y-16240231D01*
X16188758Y-16240231D02*
X16198282Y-16259279D01*
X16198282Y-16259279D02*
X16207805Y-16297374D01*
X16207805Y-16297374D02*
X16207805Y-16344993D01*
X16207805Y-16344993D02*
X16198282Y-16383088D01*
X16198282Y-16383088D02*
X16188758Y-16402136D01*
X16188758Y-16402136D02*
X16179234Y-16411660D01*
X16179234Y-16411660D02*
X16160186Y-16421184D01*
X16160186Y-16421184D02*
X16141139Y-16421184D01*
X16141139Y-16421184D02*
X16122091Y-16411660D01*
X16122091Y-16411660D02*
X16112567Y-16402136D01*
X16112567Y-16402136D02*
X16103043Y-16383088D01*
X16103043Y-16383088D02*
X16093520Y-16344993D01*
X16093520Y-16344993D02*
X16093520Y-16297374D01*
X16093520Y-16297374D02*
X16103043Y-16259279D01*
X16103043Y-16259279D02*
X16112567Y-16240231D01*
X16112567Y-16240231D02*
X16122091Y-16230708D01*
X16122091Y-16230708D02*
X16141139Y-16221184D01*
X16293520Y-16421184D02*
X16293520Y-16287850D01*
X16293520Y-16306898D02*
X16303043Y-16297374D01*
X16303043Y-16297374D02*
X16322091Y-16287850D01*
X16322091Y-16287850D02*
X16350663Y-16287850D01*
X16350663Y-16287850D02*
X16369710Y-16297374D01*
X16369710Y-16297374D02*
X16379234Y-16316422D01*
X16379234Y-16316422D02*
X16379234Y-16421184D01*
X16379234Y-16316422D02*
X16388758Y-16297374D01*
X16388758Y-16297374D02*
X16407805Y-16287850D01*
X16407805Y-16287850D02*
X16436377Y-16287850D01*
X16436377Y-16287850D02*
X16455424Y-16297374D01*
X16455424Y-16297374D02*
X16464948Y-16316422D01*
X16464948Y-16316422D02*
X16464948Y-16421184D01*
X16560186Y-16421184D02*
X16560186Y-16287850D01*
X16560186Y-16306898D02*
X16569710Y-16297374D01*
X16569710Y-16297374D02*
X16588758Y-16287850D01*
X16588758Y-16287850D02*
X16617329Y-16287850D01*
X16617329Y-16287850D02*
X16636377Y-16297374D01*
X16636377Y-16297374D02*
X16645901Y-16316422D01*
X16645901Y-16316422D02*
X16645901Y-16421184D01*
X16645901Y-16316422D02*
X16655424Y-16297374D01*
X16655424Y-16297374D02*
X16674472Y-16287850D01*
X16674472Y-16287850D02*
X16703043Y-16287850D01*
X16703043Y-16287850D02*
X16722091Y-16297374D01*
X16722091Y-16297374D02*
X16731615Y-16316422D01*
X16731615Y-16316422D02*
X16731615Y-16421184D01*
X17122091Y-16211660D02*
X16950663Y-16468803D01*
X17379234Y-16221184D02*
X17398282Y-16221184D01*
X17398282Y-16221184D02*
X17417329Y-16230708D01*
X17417329Y-16230708D02*
X17426853Y-16240231D01*
X17426853Y-16240231D02*
X17436377Y-16259279D01*
X17436377Y-16259279D02*
X17445901Y-16297374D01*
X17445901Y-16297374D02*
X17445901Y-16344993D01*
X17445901Y-16344993D02*
X17436377Y-16383088D01*
X17436377Y-16383088D02*
X17426853Y-16402136D01*
X17426853Y-16402136D02*
X17417329Y-16411660D01*
X17417329Y-16411660D02*
X17398282Y-16421184D01*
X17398282Y-16421184D02*
X17379234Y-16421184D01*
X17379234Y-16421184D02*
X17360187Y-16411660D01*
X17360187Y-16411660D02*
X17350663Y-16402136D01*
X17350663Y-16402136D02*
X17341139Y-16383088D01*
X17341139Y-16383088D02*
X17331615Y-16344993D01*
X17331615Y-16344993D02*
X17331615Y-16297374D01*
X17331615Y-16297374D02*
X17341139Y-16259279D01*
X17341139Y-16259279D02*
X17350663Y-16240231D01*
X17350663Y-16240231D02*
X17360187Y-16230708D01*
X17360187Y-16230708D02*
X17379234Y-16221184D01*
X17531615Y-16402136D02*
X17541139Y-16411660D01*
X17541139Y-16411660D02*
X17531615Y-16421184D01*
X17531615Y-16421184D02*
X17522091Y-16411660D01*
X17522091Y-16411660D02*
X17531615Y-16402136D01*
X17531615Y-16402136D02*
X17531615Y-16421184D01*
X17664948Y-16221184D02*
X17683996Y-16221184D01*
X17683996Y-16221184D02*
X17703044Y-16230708D01*
X17703044Y-16230708D02*
X17712568Y-16240231D01*
X17712568Y-16240231D02*
X17722091Y-16259279D01*
X17722091Y-16259279D02*
X17731615Y-16297374D01*
X17731615Y-16297374D02*
X17731615Y-16344993D01*
X17731615Y-16344993D02*
X17722091Y-16383088D01*
X17722091Y-16383088D02*
X17712568Y-16402136D01*
X17712568Y-16402136D02*
X17703044Y-16411660D01*
X17703044Y-16411660D02*
X17683996Y-16421184D01*
X17683996Y-16421184D02*
X17664948Y-16421184D01*
X17664948Y-16421184D02*
X17645901Y-16411660D01*
X17645901Y-16411660D02*
X17636377Y-16402136D01*
X17636377Y-16402136D02*
X17626853Y-16383088D01*
X17626853Y-16383088D02*
X17617329Y-16344993D01*
X17617329Y-16344993D02*
X17617329Y-16297374D01*
X17617329Y-16297374D02*
X17626853Y-16259279D01*
X17626853Y-16259279D02*
X17636377Y-16240231D01*
X17636377Y-16240231D02*
X17645901Y-16230708D01*
X17645901Y-16230708D02*
X17664948Y-16221184D01*
X17807806Y-16240231D02*
X17817329Y-16230708D01*
X17817329Y-16230708D02*
X17836377Y-16221184D01*
X17836377Y-16221184D02*
X17883996Y-16221184D01*
X17883996Y-16221184D02*
X17903044Y-16230708D01*
X17903044Y-16230708D02*
X17912568Y-16240231D01*
X17912568Y-16240231D02*
X17922091Y-16259279D01*
X17922091Y-16259279D02*
X17922091Y-16278327D01*
X17922091Y-16278327D02*
X17912568Y-16306898D01*
X17912568Y-16306898D02*
X17798282Y-16421184D01*
X17798282Y-16421184D02*
X17922091Y-16421184D01*
X18103044Y-16221184D02*
X18007806Y-16221184D01*
X18007806Y-16221184D02*
X17998282Y-16316422D01*
X17998282Y-16316422D02*
X18007806Y-16306898D01*
X18007806Y-16306898D02*
X18026853Y-16297374D01*
X18026853Y-16297374D02*
X18074472Y-16297374D01*
X18074472Y-16297374D02*
X18093520Y-16306898D01*
X18093520Y-16306898D02*
X18103044Y-16316422D01*
X18103044Y-16316422D02*
X18112568Y-16335469D01*
X18112568Y-16335469D02*
X18112568Y-16383088D01*
X18112568Y-16383088D02*
X18103044Y-16402136D01*
X18103044Y-16402136D02*
X18093520Y-16411660D01*
X18093520Y-16411660D02*
X18074472Y-16421184D01*
X18074472Y-16421184D02*
X18026853Y-16421184D01*
X18026853Y-16421184D02*
X18007806Y-16411660D01*
X18007806Y-16411660D02*
X17998282Y-16402136D01*
X18283996Y-16221184D02*
X18245901Y-16221184D01*
X18245901Y-16221184D02*
X18226853Y-16230708D01*
X18226853Y-16230708D02*
X18217329Y-16240231D01*
X18217329Y-16240231D02*
X18198282Y-16268803D01*
X18198282Y-16268803D02*
X18188758Y-16306898D01*
X18188758Y-16306898D02*
X18188758Y-16383088D01*
X18188758Y-16383088D02*
X18198282Y-16402136D01*
X18198282Y-16402136D02*
X18207806Y-16411660D01*
X18207806Y-16411660D02*
X18226853Y-16421184D01*
X18226853Y-16421184D02*
X18264949Y-16421184D01*
X18264949Y-16421184D02*
X18283996Y-16411660D01*
X18283996Y-16411660D02*
X18293520Y-16402136D01*
X18293520Y-16402136D02*
X18303044Y-16383088D01*
X18303044Y-16383088D02*
X18303044Y-16335469D01*
X18303044Y-16335469D02*
X18293520Y-16316422D01*
X18293520Y-16316422D02*
X18283996Y-16306898D01*
X18283996Y-16306898D02*
X18264949Y-16297374D01*
X18264949Y-16297374D02*
X18226853Y-16297374D01*
X18226853Y-16297374D02*
X18207806Y-16306898D01*
X18207806Y-16306898D02*
X18198282Y-16316422D01*
X18198282Y-16316422D02*
X18188758Y-16335469D01*
X18379234Y-16221184D02*
X18379234Y-16259279D01*
X18455425Y-16221184D02*
X18455425Y-16259279D01*
X18750663Y-16497374D02*
X18741139Y-16487850D01*
X18741139Y-16487850D02*
X18722091Y-16459279D01*
X18722091Y-16459279D02*
X18712568Y-16440231D01*
X18712568Y-16440231D02*
X18703044Y-16411660D01*
X18703044Y-16411660D02*
X18693520Y-16364041D01*
X18693520Y-16364041D02*
X18693520Y-16325946D01*
X18693520Y-16325946D02*
X18703044Y-16278327D01*
X18703044Y-16278327D02*
X18712568Y-16249755D01*
X18712568Y-16249755D02*
X18722091Y-16230708D01*
X18722091Y-16230708D02*
X18741139Y-16202136D01*
X18741139Y-16202136D02*
X18750663Y-16192612D01*
X18817330Y-16240231D02*
X18826853Y-16230708D01*
X18826853Y-16230708D02*
X18845901Y-16221184D01*
X18845901Y-16221184D02*
X18893520Y-16221184D01*
X18893520Y-16221184D02*
X18912568Y-16230708D01*
X18912568Y-16230708D02*
X18922091Y-16240231D01*
X18922091Y-16240231D02*
X18931615Y-16259279D01*
X18931615Y-16259279D02*
X18931615Y-16278327D01*
X18931615Y-16278327D02*
X18922091Y-16306898D01*
X18922091Y-16306898D02*
X18807806Y-16421184D01*
X18807806Y-16421184D02*
X18931615Y-16421184D01*
X19169711Y-16421184D02*
X19169711Y-16221184D01*
X19255425Y-16421184D02*
X19255425Y-16316422D01*
X19255425Y-16316422D02*
X19245901Y-16297374D01*
X19245901Y-16297374D02*
X19226853Y-16287850D01*
X19226853Y-16287850D02*
X19198282Y-16287850D01*
X19198282Y-16287850D02*
X19179234Y-16297374D01*
X19179234Y-16297374D02*
X19169711Y-16306898D01*
X19379234Y-16421184D02*
X19360187Y-16411660D01*
X19360187Y-16411660D02*
X19350663Y-16402136D01*
X19350663Y-16402136D02*
X19341139Y-16383088D01*
X19341139Y-16383088D02*
X19341139Y-16325946D01*
X19341139Y-16325946D02*
X19350663Y-16306898D01*
X19350663Y-16306898D02*
X19360187Y-16297374D01*
X19360187Y-16297374D02*
X19379234Y-16287850D01*
X19379234Y-16287850D02*
X19407806Y-16287850D01*
X19407806Y-16287850D02*
X19426853Y-16297374D01*
X19426853Y-16297374D02*
X19436377Y-16306898D01*
X19436377Y-16306898D02*
X19445901Y-16325946D01*
X19445901Y-16325946D02*
X19445901Y-16383088D01*
X19445901Y-16383088D02*
X19436377Y-16402136D01*
X19436377Y-16402136D02*
X19426853Y-16411660D01*
X19426853Y-16411660D02*
X19407806Y-16421184D01*
X19407806Y-16421184D02*
X19379234Y-16421184D01*
X19560187Y-16421184D02*
X19541139Y-16411660D01*
X19541139Y-16411660D02*
X19531615Y-16392612D01*
X19531615Y-16392612D02*
X19531615Y-16221184D01*
X19712568Y-16411660D02*
X19693520Y-16421184D01*
X19693520Y-16421184D02*
X19655425Y-16421184D01*
X19655425Y-16421184D02*
X19636377Y-16411660D01*
X19636377Y-16411660D02*
X19626853Y-16392612D01*
X19626853Y-16392612D02*
X19626853Y-16316422D01*
X19626853Y-16316422D02*
X19636377Y-16297374D01*
X19636377Y-16297374D02*
X19655425Y-16287850D01*
X19655425Y-16287850D02*
X19693520Y-16287850D01*
X19693520Y-16287850D02*
X19712568Y-16297374D01*
X19712568Y-16297374D02*
X19722092Y-16316422D01*
X19722092Y-16316422D02*
X19722092Y-16335469D01*
X19722092Y-16335469D02*
X19626853Y-16354517D01*
X19798282Y-16411660D02*
X19817330Y-16421184D01*
X19817330Y-16421184D02*
X19855425Y-16421184D01*
X19855425Y-16421184D02*
X19874473Y-16411660D01*
X19874473Y-16411660D02*
X19883996Y-16392612D01*
X19883996Y-16392612D02*
X19883996Y-16383088D01*
X19883996Y-16383088D02*
X19874473Y-16364041D01*
X19874473Y-16364041D02*
X19855425Y-16354517D01*
X19855425Y-16354517D02*
X19826853Y-16354517D01*
X19826853Y-16354517D02*
X19807806Y-16344993D01*
X19807806Y-16344993D02*
X19798282Y-16325946D01*
X19798282Y-16325946D02*
X19798282Y-16316422D01*
X19798282Y-16316422D02*
X19807806Y-16297374D01*
X19807806Y-16297374D02*
X19826853Y-16287850D01*
X19826853Y-16287850D02*
X19855425Y-16287850D01*
X19855425Y-16287850D02*
X19874473Y-16297374D01*
X19950663Y-16497374D02*
X19960187Y-16487850D01*
X19960187Y-16487850D02*
X19979234Y-16459279D01*
X19979234Y-16459279D02*
X19988758Y-16440231D01*
X19988758Y-16440231D02*
X19998282Y-16411660D01*
X19998282Y-16411660D02*
X20007806Y-16364041D01*
X20007806Y-16364041D02*
X20007806Y-16325946D01*
X20007806Y-16325946D02*
X19998282Y-16278327D01*
X19998282Y-16278327D02*
X19988758Y-16249755D01*
X19988758Y-16249755D02*
X19979234Y-16230708D01*
X19979234Y-16230708D02*
X19960187Y-16202136D01*
X19960187Y-16202136D02*
X19950663Y-16192612D01*
X20312568Y-16497374D02*
X20303044Y-16487850D01*
X20303044Y-16487850D02*
X20283996Y-16459279D01*
X20283996Y-16459279D02*
X20274473Y-16440231D01*
X20274473Y-16440231D02*
X20264949Y-16411660D01*
X20264949Y-16411660D02*
X20255425Y-16364041D01*
X20255425Y-16364041D02*
X20255425Y-16325946D01*
X20255425Y-16325946D02*
X20264949Y-16278327D01*
X20264949Y-16278327D02*
X20274473Y-16249755D01*
X20274473Y-16249755D02*
X20283996Y-16230708D01*
X20283996Y-16230708D02*
X20303044Y-16202136D01*
X20303044Y-16202136D02*
X20312568Y-16192612D01*
X20388758Y-16287850D02*
X20388758Y-16421184D01*
X20388758Y-16306898D02*
X20398282Y-16297374D01*
X20398282Y-16297374D02*
X20417330Y-16287850D01*
X20417330Y-16287850D02*
X20445901Y-16287850D01*
X20445901Y-16287850D02*
X20464949Y-16297374D01*
X20464949Y-16297374D02*
X20474473Y-16316422D01*
X20474473Y-16316422D02*
X20474473Y-16421184D01*
X20598282Y-16421184D02*
X20579234Y-16411660D01*
X20579234Y-16411660D02*
X20569711Y-16402136D01*
X20569711Y-16402136D02*
X20560187Y-16383088D01*
X20560187Y-16383088D02*
X20560187Y-16325946D01*
X20560187Y-16325946D02*
X20569711Y-16306898D01*
X20569711Y-16306898D02*
X20579234Y-16297374D01*
X20579234Y-16297374D02*
X20598282Y-16287850D01*
X20598282Y-16287850D02*
X20626854Y-16287850D01*
X20626854Y-16287850D02*
X20645901Y-16297374D01*
X20645901Y-16297374D02*
X20655425Y-16306898D01*
X20655425Y-16306898D02*
X20664949Y-16325946D01*
X20664949Y-16325946D02*
X20664949Y-16383088D01*
X20664949Y-16383088D02*
X20655425Y-16402136D01*
X20655425Y-16402136D02*
X20645901Y-16411660D01*
X20645901Y-16411660D02*
X20626854Y-16421184D01*
X20626854Y-16421184D02*
X20598282Y-16421184D01*
X20722092Y-16287850D02*
X20798282Y-16287850D01*
X20750663Y-16221184D02*
X20750663Y-16392612D01*
X20750663Y-16392612D02*
X20760187Y-16411660D01*
X20760187Y-16411660D02*
X20779234Y-16421184D01*
X20779234Y-16421184D02*
X20798282Y-16421184D01*
X21017330Y-16287850D02*
X21017330Y-16487850D01*
X21017330Y-16297374D02*
X21036377Y-16287850D01*
X21036377Y-16287850D02*
X21074473Y-16287850D01*
X21074473Y-16287850D02*
X21093520Y-16297374D01*
X21093520Y-16297374D02*
X21103044Y-16306898D01*
X21103044Y-16306898D02*
X21112568Y-16325946D01*
X21112568Y-16325946D02*
X21112568Y-16383088D01*
X21112568Y-16383088D02*
X21103044Y-16402136D01*
X21103044Y-16402136D02*
X21093520Y-16411660D01*
X21093520Y-16411660D02*
X21074473Y-16421184D01*
X21074473Y-16421184D02*
X21036377Y-16421184D01*
X21036377Y-16421184D02*
X21017330Y-16411660D01*
X21226854Y-16421184D02*
X21207806Y-16411660D01*
X21207806Y-16411660D02*
X21198282Y-16392612D01*
X21198282Y-16392612D02*
X21198282Y-16221184D01*
X21388758Y-16421184D02*
X21388758Y-16316422D01*
X21388758Y-16316422D02*
X21379235Y-16297374D01*
X21379235Y-16297374D02*
X21360187Y-16287850D01*
X21360187Y-16287850D02*
X21322092Y-16287850D01*
X21322092Y-16287850D02*
X21303044Y-16297374D01*
X21388758Y-16411660D02*
X21369711Y-16421184D01*
X21369711Y-16421184D02*
X21322092Y-16421184D01*
X21322092Y-16421184D02*
X21303044Y-16411660D01*
X21303044Y-16411660D02*
X21293520Y-16392612D01*
X21293520Y-16392612D02*
X21293520Y-16373565D01*
X21293520Y-16373565D02*
X21303044Y-16354517D01*
X21303044Y-16354517D02*
X21322092Y-16344993D01*
X21322092Y-16344993D02*
X21369711Y-16344993D01*
X21369711Y-16344993D02*
X21388758Y-16335469D01*
X21455425Y-16287850D02*
X21531615Y-16287850D01*
X21483996Y-16221184D02*
X21483996Y-16392612D01*
X21483996Y-16392612D02*
X21493520Y-16411660D01*
X21493520Y-16411660D02*
X21512568Y-16421184D01*
X21512568Y-16421184D02*
X21531615Y-16421184D01*
X21674473Y-16411660D02*
X21655425Y-16421184D01*
X21655425Y-16421184D02*
X21617330Y-16421184D01*
X21617330Y-16421184D02*
X21598282Y-16411660D01*
X21598282Y-16411660D02*
X21588758Y-16392612D01*
X21588758Y-16392612D02*
X21588758Y-16316422D01*
X21588758Y-16316422D02*
X21598282Y-16297374D01*
X21598282Y-16297374D02*
X21617330Y-16287850D01*
X21617330Y-16287850D02*
X21655425Y-16287850D01*
X21655425Y-16287850D02*
X21674473Y-16297374D01*
X21674473Y-16297374D02*
X21683996Y-16316422D01*
X21683996Y-16316422D02*
X21683996Y-16335469D01*
X21683996Y-16335469D02*
X21588758Y-16354517D01*
X21855425Y-16421184D02*
X21855425Y-16221184D01*
X21855425Y-16411660D02*
X21836377Y-16421184D01*
X21836377Y-16421184D02*
X21798282Y-16421184D01*
X21798282Y-16421184D02*
X21779235Y-16411660D01*
X21779235Y-16411660D02*
X21769711Y-16402136D01*
X21769711Y-16402136D02*
X21760187Y-16383088D01*
X21760187Y-16383088D02*
X21760187Y-16325946D01*
X21760187Y-16325946D02*
X21769711Y-16306898D01*
X21769711Y-16306898D02*
X21779235Y-16297374D01*
X21779235Y-16297374D02*
X21798282Y-16287850D01*
X21798282Y-16287850D02*
X21836377Y-16287850D01*
X21836377Y-16287850D02*
X21855425Y-16297374D01*
X21931616Y-16497374D02*
X21941139Y-16487850D01*
X21941139Y-16487850D02*
X21960187Y-16459279D01*
X21960187Y-16459279D02*
X21969711Y-16440231D01*
X21969711Y-16440231D02*
X21979235Y-16411660D01*
X21979235Y-16411660D02*
X21988758Y-16364041D01*
X21988758Y-16364041D02*
X21988758Y-16325946D01*
X21988758Y-16325946D02*
X21979235Y-16278327D01*
X21979235Y-16278327D02*
X21969711Y-16249755D01*
X21969711Y-16249755D02*
X21960187Y-16230708D01*
X21960187Y-16230708D02*
X21941139Y-16202136D01*
X21941139Y-16202136D02*
X21931616Y-16192612D01*
X15175600Y-16593700D02*
G75*
G02*
X14975600Y-16593700I-100000J0D01*
G01*
X14975600Y-16593700D02*
G75*
G02*
X15175600Y-16593700I100000J0D01*
G01*
X15426853Y-16504231D02*
X15436377Y-16494708D01*
X15436377Y-16494708D02*
X15455424Y-16485184D01*
X15455424Y-16485184D02*
X15503043Y-16485184D01*
X15503043Y-16485184D02*
X15522091Y-16494708D01*
X15522091Y-16494708D02*
X15531615Y-16504231D01*
X15531615Y-16504231D02*
X15541139Y-16523279D01*
X15541139Y-16523279D02*
X15541139Y-16542327D01*
X15541139Y-16542327D02*
X15531615Y-16570898D01*
X15531615Y-16570898D02*
X15417329Y-16685184D01*
X15417329Y-16685184D02*
X15541139Y-16685184D01*
X15626853Y-16666136D02*
X15636377Y-16675660D01*
X15636377Y-16675660D02*
X15626853Y-16685184D01*
X15626853Y-16685184D02*
X15617329Y-16675660D01*
X15617329Y-16675660D02*
X15626853Y-16666136D01*
X15626853Y-16666136D02*
X15626853Y-16685184D01*
X15826853Y-16685184D02*
X15712567Y-16685184D01*
X15769710Y-16685184D02*
X15769710Y-16485184D01*
X15769710Y-16485184D02*
X15750662Y-16513755D01*
X15750662Y-16513755D02*
X15731615Y-16532803D01*
X15731615Y-16532803D02*
X15712567Y-16542327D01*
X15950662Y-16485184D02*
X15969710Y-16485184D01*
X15969710Y-16485184D02*
X15988758Y-16494708D01*
X15988758Y-16494708D02*
X15998282Y-16504231D01*
X15998282Y-16504231D02*
X16007805Y-16523279D01*
X16007805Y-16523279D02*
X16017329Y-16561374D01*
X16017329Y-16561374D02*
X16017329Y-16608993D01*
X16017329Y-16608993D02*
X16007805Y-16647088D01*
X16007805Y-16647088D02*
X15998282Y-16666136D01*
X15998282Y-16666136D02*
X15988758Y-16675660D01*
X15988758Y-16675660D02*
X15969710Y-16685184D01*
X15969710Y-16685184D02*
X15950662Y-16685184D01*
X15950662Y-16685184D02*
X15931615Y-16675660D01*
X15931615Y-16675660D02*
X15922091Y-16666136D01*
X15922091Y-16666136D02*
X15912567Y-16647088D01*
X15912567Y-16647088D02*
X15903043Y-16608993D01*
X15903043Y-16608993D02*
X15903043Y-16561374D01*
X15903043Y-16561374D02*
X15912567Y-16523279D01*
X15912567Y-16523279D02*
X15922091Y-16504231D01*
X15922091Y-16504231D02*
X15931615Y-16494708D01*
X15931615Y-16494708D02*
X15950662Y-16485184D01*
X16141139Y-16485184D02*
X16160186Y-16485184D01*
X16160186Y-16485184D02*
X16179234Y-16494708D01*
X16179234Y-16494708D02*
X16188758Y-16504231D01*
X16188758Y-16504231D02*
X16198282Y-16523279D01*
X16198282Y-16523279D02*
X16207805Y-16561374D01*
X16207805Y-16561374D02*
X16207805Y-16608993D01*
X16207805Y-16608993D02*
X16198282Y-16647088D01*
X16198282Y-16647088D02*
X16188758Y-16666136D01*
X16188758Y-16666136D02*
X16179234Y-16675660D01*
X16179234Y-16675660D02*
X16160186Y-16685184D01*
X16160186Y-16685184D02*
X16141139Y-16685184D01*
X16141139Y-16685184D02*
X16122091Y-16675660D01*
X16122091Y-16675660D02*
X16112567Y-16666136D01*
X16112567Y-16666136D02*
X16103043Y-16647088D01*
X16103043Y-16647088D02*
X16093520Y-16608993D01*
X16093520Y-16608993D02*
X16093520Y-16561374D01*
X16093520Y-16561374D02*
X16103043Y-16523279D01*
X16103043Y-16523279D02*
X16112567Y-16504231D01*
X16112567Y-16504231D02*
X16122091Y-16494708D01*
X16122091Y-16494708D02*
X16141139Y-16485184D01*
X16293520Y-16685184D02*
X16293520Y-16551850D01*
X16293520Y-16570898D02*
X16303043Y-16561374D01*
X16303043Y-16561374D02*
X16322091Y-16551850D01*
X16322091Y-16551850D02*
X16350663Y-16551850D01*
X16350663Y-16551850D02*
X16369710Y-16561374D01*
X16369710Y-16561374D02*
X16379234Y-16580422D01*
X16379234Y-16580422D02*
X16379234Y-16685184D01*
X16379234Y-16580422D02*
X16388758Y-16561374D01*
X16388758Y-16561374D02*
X16407805Y-16551850D01*
X16407805Y-16551850D02*
X16436377Y-16551850D01*
X16436377Y-16551850D02*
X16455424Y-16561374D01*
X16455424Y-16561374D02*
X16464948Y-16580422D01*
X16464948Y-16580422D02*
X16464948Y-16685184D01*
X16560186Y-16685184D02*
X16560186Y-16551850D01*
X16560186Y-16570898D02*
X16569710Y-16561374D01*
X16569710Y-16561374D02*
X16588758Y-16551850D01*
X16588758Y-16551850D02*
X16617329Y-16551850D01*
X16617329Y-16551850D02*
X16636377Y-16561374D01*
X16636377Y-16561374D02*
X16645901Y-16580422D01*
X16645901Y-16580422D02*
X16645901Y-16685184D01*
X16645901Y-16580422D02*
X16655424Y-16561374D01*
X16655424Y-16561374D02*
X16674472Y-16551850D01*
X16674472Y-16551850D02*
X16703043Y-16551850D01*
X16703043Y-16551850D02*
X16722091Y-16561374D01*
X16722091Y-16561374D02*
X16731615Y-16580422D01*
X16731615Y-16580422D02*
X16731615Y-16685184D01*
X17122091Y-16475660D02*
X16950663Y-16732803D01*
X17379234Y-16485184D02*
X17398282Y-16485184D01*
X17398282Y-16485184D02*
X17417329Y-16494708D01*
X17417329Y-16494708D02*
X17426853Y-16504231D01*
X17426853Y-16504231D02*
X17436377Y-16523279D01*
X17436377Y-16523279D02*
X17445901Y-16561374D01*
X17445901Y-16561374D02*
X17445901Y-16608993D01*
X17445901Y-16608993D02*
X17436377Y-16647088D01*
X17436377Y-16647088D02*
X17426853Y-16666136D01*
X17426853Y-16666136D02*
X17417329Y-16675660D01*
X17417329Y-16675660D02*
X17398282Y-16685184D01*
X17398282Y-16685184D02*
X17379234Y-16685184D01*
X17379234Y-16685184D02*
X17360187Y-16675660D01*
X17360187Y-16675660D02*
X17350663Y-16666136D01*
X17350663Y-16666136D02*
X17341139Y-16647088D01*
X17341139Y-16647088D02*
X17331615Y-16608993D01*
X17331615Y-16608993D02*
X17331615Y-16561374D01*
X17331615Y-16561374D02*
X17341139Y-16523279D01*
X17341139Y-16523279D02*
X17350663Y-16504231D01*
X17350663Y-16504231D02*
X17360187Y-16494708D01*
X17360187Y-16494708D02*
X17379234Y-16485184D01*
X17531615Y-16666136D02*
X17541139Y-16675660D01*
X17541139Y-16675660D02*
X17531615Y-16685184D01*
X17531615Y-16685184D02*
X17522091Y-16675660D01*
X17522091Y-16675660D02*
X17531615Y-16666136D01*
X17531615Y-16666136D02*
X17531615Y-16685184D01*
X17664948Y-16485184D02*
X17683996Y-16485184D01*
X17683996Y-16485184D02*
X17703044Y-16494708D01*
X17703044Y-16494708D02*
X17712568Y-16504231D01*
X17712568Y-16504231D02*
X17722091Y-16523279D01*
X17722091Y-16523279D02*
X17731615Y-16561374D01*
X17731615Y-16561374D02*
X17731615Y-16608993D01*
X17731615Y-16608993D02*
X17722091Y-16647088D01*
X17722091Y-16647088D02*
X17712568Y-16666136D01*
X17712568Y-16666136D02*
X17703044Y-16675660D01*
X17703044Y-16675660D02*
X17683996Y-16685184D01*
X17683996Y-16685184D02*
X17664948Y-16685184D01*
X17664948Y-16685184D02*
X17645901Y-16675660D01*
X17645901Y-16675660D02*
X17636377Y-16666136D01*
X17636377Y-16666136D02*
X17626853Y-16647088D01*
X17626853Y-16647088D02*
X17617329Y-16608993D01*
X17617329Y-16608993D02*
X17617329Y-16561374D01*
X17617329Y-16561374D02*
X17626853Y-16523279D01*
X17626853Y-16523279D02*
X17636377Y-16504231D01*
X17636377Y-16504231D02*
X17645901Y-16494708D01*
X17645901Y-16494708D02*
X17664948Y-16485184D01*
X17845901Y-16570898D02*
X17826853Y-16561374D01*
X17826853Y-16561374D02*
X17817329Y-16551850D01*
X17817329Y-16551850D02*
X17807806Y-16532803D01*
X17807806Y-16532803D02*
X17807806Y-16523279D01*
X17807806Y-16523279D02*
X17817329Y-16504231D01*
X17817329Y-16504231D02*
X17826853Y-16494708D01*
X17826853Y-16494708D02*
X17845901Y-16485184D01*
X17845901Y-16485184D02*
X17883996Y-16485184D01*
X17883996Y-16485184D02*
X17903044Y-16494708D01*
X17903044Y-16494708D02*
X17912568Y-16504231D01*
X17912568Y-16504231D02*
X17922091Y-16523279D01*
X17922091Y-16523279D02*
X17922091Y-16532803D01*
X17922091Y-16532803D02*
X17912568Y-16551850D01*
X17912568Y-16551850D02*
X17903044Y-16561374D01*
X17903044Y-16561374D02*
X17883996Y-16570898D01*
X17883996Y-16570898D02*
X17845901Y-16570898D01*
X17845901Y-16570898D02*
X17826853Y-16580422D01*
X17826853Y-16580422D02*
X17817329Y-16589946D01*
X17817329Y-16589946D02*
X17807806Y-16608993D01*
X17807806Y-16608993D02*
X17807806Y-16647088D01*
X17807806Y-16647088D02*
X17817329Y-16666136D01*
X17817329Y-16666136D02*
X17826853Y-16675660D01*
X17826853Y-16675660D02*
X17845901Y-16685184D01*
X17845901Y-16685184D02*
X17883996Y-16685184D01*
X17883996Y-16685184D02*
X17903044Y-16675660D01*
X17903044Y-16675660D02*
X17912568Y-16666136D01*
X17912568Y-16666136D02*
X17922091Y-16647088D01*
X17922091Y-16647088D02*
X17922091Y-16608993D01*
X17922091Y-16608993D02*
X17912568Y-16589946D01*
X17912568Y-16589946D02*
X17903044Y-16580422D01*
X17903044Y-16580422D02*
X17883996Y-16570898D01*
X17998282Y-16504231D02*
X18007806Y-16494708D01*
X18007806Y-16494708D02*
X18026853Y-16485184D01*
X18026853Y-16485184D02*
X18074472Y-16485184D01*
X18074472Y-16485184D02*
X18093520Y-16494708D01*
X18093520Y-16494708D02*
X18103044Y-16504231D01*
X18103044Y-16504231D02*
X18112568Y-16523279D01*
X18112568Y-16523279D02*
X18112568Y-16542327D01*
X18112568Y-16542327D02*
X18103044Y-16570898D01*
X18103044Y-16570898D02*
X17988758Y-16685184D01*
X17988758Y-16685184D02*
X18112568Y-16685184D01*
X18179234Y-16485184D02*
X18312568Y-16485184D01*
X18312568Y-16485184D02*
X18226853Y-16685184D01*
X18379234Y-16485184D02*
X18379234Y-16523279D01*
X18455425Y-16485184D02*
X18455425Y-16523279D01*
X18750663Y-16761374D02*
X18741139Y-16751850D01*
X18741139Y-16751850D02*
X18722091Y-16723279D01*
X18722091Y-16723279D02*
X18712568Y-16704231D01*
X18712568Y-16704231D02*
X18703044Y-16675660D01*
X18703044Y-16675660D02*
X18693520Y-16628041D01*
X18693520Y-16628041D02*
X18693520Y-16589946D01*
X18693520Y-16589946D02*
X18703044Y-16542327D01*
X18703044Y-16542327D02*
X18712568Y-16513755D01*
X18712568Y-16513755D02*
X18722091Y-16494708D01*
X18722091Y-16494708D02*
X18741139Y-16466136D01*
X18741139Y-16466136D02*
X18750663Y-16456612D01*
X18817330Y-16504231D02*
X18826853Y-16494708D01*
X18826853Y-16494708D02*
X18845901Y-16485184D01*
X18845901Y-16485184D02*
X18893520Y-16485184D01*
X18893520Y-16485184D02*
X18912568Y-16494708D01*
X18912568Y-16494708D02*
X18922091Y-16504231D01*
X18922091Y-16504231D02*
X18931615Y-16523279D01*
X18931615Y-16523279D02*
X18931615Y-16542327D01*
X18931615Y-16542327D02*
X18922091Y-16570898D01*
X18922091Y-16570898D02*
X18807806Y-16685184D01*
X18807806Y-16685184D02*
X18931615Y-16685184D01*
X19169711Y-16685184D02*
X19169711Y-16485184D01*
X19255425Y-16685184D02*
X19255425Y-16580422D01*
X19255425Y-16580422D02*
X19245901Y-16561374D01*
X19245901Y-16561374D02*
X19226853Y-16551850D01*
X19226853Y-16551850D02*
X19198282Y-16551850D01*
X19198282Y-16551850D02*
X19179234Y-16561374D01*
X19179234Y-16561374D02*
X19169711Y-16570898D01*
X19379234Y-16685184D02*
X19360187Y-16675660D01*
X19360187Y-16675660D02*
X19350663Y-16666136D01*
X19350663Y-16666136D02*
X19341139Y-16647088D01*
X19341139Y-16647088D02*
X19341139Y-16589946D01*
X19341139Y-16589946D02*
X19350663Y-16570898D01*
X19350663Y-16570898D02*
X19360187Y-16561374D01*
X19360187Y-16561374D02*
X19379234Y-16551850D01*
X19379234Y-16551850D02*
X19407806Y-16551850D01*
X19407806Y-16551850D02*
X19426853Y-16561374D01*
X19426853Y-16561374D02*
X19436377Y-16570898D01*
X19436377Y-16570898D02*
X19445901Y-16589946D01*
X19445901Y-16589946D02*
X19445901Y-16647088D01*
X19445901Y-16647088D02*
X19436377Y-16666136D01*
X19436377Y-16666136D02*
X19426853Y-16675660D01*
X19426853Y-16675660D02*
X19407806Y-16685184D01*
X19407806Y-16685184D02*
X19379234Y-16685184D01*
X19560187Y-16685184D02*
X19541139Y-16675660D01*
X19541139Y-16675660D02*
X19531615Y-16656612D01*
X19531615Y-16656612D02*
X19531615Y-16485184D01*
X19712568Y-16675660D02*
X19693520Y-16685184D01*
X19693520Y-16685184D02*
X19655425Y-16685184D01*
X19655425Y-16685184D02*
X19636377Y-16675660D01*
X19636377Y-16675660D02*
X19626853Y-16656612D01*
X19626853Y-16656612D02*
X19626853Y-16580422D01*
X19626853Y-16580422D02*
X19636377Y-16561374D01*
X19636377Y-16561374D02*
X19655425Y-16551850D01*
X19655425Y-16551850D02*
X19693520Y-16551850D01*
X19693520Y-16551850D02*
X19712568Y-16561374D01*
X19712568Y-16561374D02*
X19722092Y-16580422D01*
X19722092Y-16580422D02*
X19722092Y-16599469D01*
X19722092Y-16599469D02*
X19626853Y-16618517D01*
X19798282Y-16675660D02*
X19817330Y-16685184D01*
X19817330Y-16685184D02*
X19855425Y-16685184D01*
X19855425Y-16685184D02*
X19874473Y-16675660D01*
X19874473Y-16675660D02*
X19883996Y-16656612D01*
X19883996Y-16656612D02*
X19883996Y-16647088D01*
X19883996Y-16647088D02*
X19874473Y-16628041D01*
X19874473Y-16628041D02*
X19855425Y-16618517D01*
X19855425Y-16618517D02*
X19826853Y-16618517D01*
X19826853Y-16618517D02*
X19807806Y-16608993D01*
X19807806Y-16608993D02*
X19798282Y-16589946D01*
X19798282Y-16589946D02*
X19798282Y-16580422D01*
X19798282Y-16580422D02*
X19807806Y-16561374D01*
X19807806Y-16561374D02*
X19826853Y-16551850D01*
X19826853Y-16551850D02*
X19855425Y-16551850D01*
X19855425Y-16551850D02*
X19874473Y-16561374D01*
X19950663Y-16761374D02*
X19960187Y-16751850D01*
X19960187Y-16751850D02*
X19979234Y-16723279D01*
X19979234Y-16723279D02*
X19988758Y-16704231D01*
X19988758Y-16704231D02*
X19998282Y-16675660D01*
X19998282Y-16675660D02*
X20007806Y-16628041D01*
X20007806Y-16628041D02*
X20007806Y-16589946D01*
X20007806Y-16589946D02*
X19998282Y-16542327D01*
X19998282Y-16542327D02*
X19988758Y-16513755D01*
X19988758Y-16513755D02*
X19979234Y-16494708D01*
X19979234Y-16494708D02*
X19960187Y-16466136D01*
X19960187Y-16466136D02*
X19950663Y-16456612D01*
X20312568Y-16761374D02*
X20303044Y-16751850D01*
X20303044Y-16751850D02*
X20283996Y-16723279D01*
X20283996Y-16723279D02*
X20274473Y-16704231D01*
X20274473Y-16704231D02*
X20264949Y-16675660D01*
X20264949Y-16675660D02*
X20255425Y-16628041D01*
X20255425Y-16628041D02*
X20255425Y-16589946D01*
X20255425Y-16589946D02*
X20264949Y-16542327D01*
X20264949Y-16542327D02*
X20274473Y-16513755D01*
X20274473Y-16513755D02*
X20283996Y-16494708D01*
X20283996Y-16494708D02*
X20303044Y-16466136D01*
X20303044Y-16466136D02*
X20312568Y-16456612D01*
X20388758Y-16551850D02*
X20388758Y-16685184D01*
X20388758Y-16570898D02*
X20398282Y-16561374D01*
X20398282Y-16561374D02*
X20417330Y-16551850D01*
X20417330Y-16551850D02*
X20445901Y-16551850D01*
X20445901Y-16551850D02*
X20464949Y-16561374D01*
X20464949Y-16561374D02*
X20474473Y-16580422D01*
X20474473Y-16580422D02*
X20474473Y-16685184D01*
X20598282Y-16685184D02*
X20579234Y-16675660D01*
X20579234Y-16675660D02*
X20569711Y-16666136D01*
X20569711Y-16666136D02*
X20560187Y-16647088D01*
X20560187Y-16647088D02*
X20560187Y-16589946D01*
X20560187Y-16589946D02*
X20569711Y-16570898D01*
X20569711Y-16570898D02*
X20579234Y-16561374D01*
X20579234Y-16561374D02*
X20598282Y-16551850D01*
X20598282Y-16551850D02*
X20626854Y-16551850D01*
X20626854Y-16551850D02*
X20645901Y-16561374D01*
X20645901Y-16561374D02*
X20655425Y-16570898D01*
X20655425Y-16570898D02*
X20664949Y-16589946D01*
X20664949Y-16589946D02*
X20664949Y-16647088D01*
X20664949Y-16647088D02*
X20655425Y-16666136D01*
X20655425Y-16666136D02*
X20645901Y-16675660D01*
X20645901Y-16675660D02*
X20626854Y-16685184D01*
X20626854Y-16685184D02*
X20598282Y-16685184D01*
X20722092Y-16551850D02*
X20798282Y-16551850D01*
X20750663Y-16485184D02*
X20750663Y-16656612D01*
X20750663Y-16656612D02*
X20760187Y-16675660D01*
X20760187Y-16675660D02*
X20779234Y-16685184D01*
X20779234Y-16685184D02*
X20798282Y-16685184D01*
X21017330Y-16551850D02*
X21017330Y-16751850D01*
X21017330Y-16561374D02*
X21036377Y-16551850D01*
X21036377Y-16551850D02*
X21074473Y-16551850D01*
X21074473Y-16551850D02*
X21093520Y-16561374D01*
X21093520Y-16561374D02*
X21103044Y-16570898D01*
X21103044Y-16570898D02*
X21112568Y-16589946D01*
X21112568Y-16589946D02*
X21112568Y-16647088D01*
X21112568Y-16647088D02*
X21103044Y-16666136D01*
X21103044Y-16666136D02*
X21093520Y-16675660D01*
X21093520Y-16675660D02*
X21074473Y-16685184D01*
X21074473Y-16685184D02*
X21036377Y-16685184D01*
X21036377Y-16685184D02*
X21017330Y-16675660D01*
X21226854Y-16685184D02*
X21207806Y-16675660D01*
X21207806Y-16675660D02*
X21198282Y-16656612D01*
X21198282Y-16656612D02*
X21198282Y-16485184D01*
X21388758Y-16685184D02*
X21388758Y-16580422D01*
X21388758Y-16580422D02*
X21379235Y-16561374D01*
X21379235Y-16561374D02*
X21360187Y-16551850D01*
X21360187Y-16551850D02*
X21322092Y-16551850D01*
X21322092Y-16551850D02*
X21303044Y-16561374D01*
X21388758Y-16675660D02*
X21369711Y-16685184D01*
X21369711Y-16685184D02*
X21322092Y-16685184D01*
X21322092Y-16685184D02*
X21303044Y-16675660D01*
X21303044Y-16675660D02*
X21293520Y-16656612D01*
X21293520Y-16656612D02*
X21293520Y-16637565D01*
X21293520Y-16637565D02*
X21303044Y-16618517D01*
X21303044Y-16618517D02*
X21322092Y-16608993D01*
X21322092Y-16608993D02*
X21369711Y-16608993D01*
X21369711Y-16608993D02*
X21388758Y-16599469D01*
X21455425Y-16551850D02*
X21531615Y-16551850D01*
X21483996Y-16485184D02*
X21483996Y-16656612D01*
X21483996Y-16656612D02*
X21493520Y-16675660D01*
X21493520Y-16675660D02*
X21512568Y-16685184D01*
X21512568Y-16685184D02*
X21531615Y-16685184D01*
X21674473Y-16675660D02*
X21655425Y-16685184D01*
X21655425Y-16685184D02*
X21617330Y-16685184D01*
X21617330Y-16685184D02*
X21598282Y-16675660D01*
X21598282Y-16675660D02*
X21588758Y-16656612D01*
X21588758Y-16656612D02*
X21588758Y-16580422D01*
X21588758Y-16580422D02*
X21598282Y-16561374D01*
X21598282Y-16561374D02*
X21617330Y-16551850D01*
X21617330Y-16551850D02*
X21655425Y-16551850D01*
X21655425Y-16551850D02*
X21674473Y-16561374D01*
X21674473Y-16561374D02*
X21683996Y-16580422D01*
X21683996Y-16580422D02*
X21683996Y-16599469D01*
X21683996Y-16599469D02*
X21588758Y-16618517D01*
X21855425Y-16685184D02*
X21855425Y-16485184D01*
X21855425Y-16675660D02*
X21836377Y-16685184D01*
X21836377Y-16685184D02*
X21798282Y-16685184D01*
X21798282Y-16685184D02*
X21779235Y-16675660D01*
X21779235Y-16675660D02*
X21769711Y-16666136D01*
X21769711Y-16666136D02*
X21760187Y-16647088D01*
X21760187Y-16647088D02*
X21760187Y-16589946D01*
X21760187Y-16589946D02*
X21769711Y-16570898D01*
X21769711Y-16570898D02*
X21779235Y-16561374D01*
X21779235Y-16561374D02*
X21798282Y-16551850D01*
X21798282Y-16551850D02*
X21836377Y-16551850D01*
X21836377Y-16551850D02*
X21855425Y-16561374D01*
X21931616Y-16761374D02*
X21941139Y-16751850D01*
X21941139Y-16751850D02*
X21960187Y-16723279D01*
X21960187Y-16723279D02*
X21969711Y-16704231D01*
X21969711Y-16704231D02*
X21979235Y-16675660D01*
X21979235Y-16675660D02*
X21988758Y-16628041D01*
X21988758Y-16628041D02*
X21988758Y-16589946D01*
X21988758Y-16589946D02*
X21979235Y-16542327D01*
X21979235Y-16542327D02*
X21969711Y-16513755D01*
X21969711Y-16513755D02*
X21960187Y-16494708D01*
X21960187Y-16494708D02*
X21941139Y-16466136D01*
X21941139Y-16466136D02*
X21931616Y-16456612D01*
M02*
