G04 #@! TF.GenerationSoftware,KiCad,Pcbnew,9.0.5*
G04 #@! TF.CreationDate,2026-03-09T10:43:17+01:00*
G04 #@! TF.ProjectId,CanBus_Sniffer_v1,43616e42-7573-45f5-936e-69666665725f,rev?*
G04 #@! TF.SameCoordinates,Original*
G04 #@! TF.FileFunction,Copper,L2,Inr*
G04 #@! TF.FilePolarity,Positive*
%FSLAX46Y46*%
G04 Gerber Fmt 4.6, Leading zero omitted, Abs format (unit mm)*
G04 Created by KiCad (PCBNEW 9.0.5) date 2026-03-09 10:43:17*
%MOMM*%
%LPD*%
G01*
G04 APERTURE LIST*
%ADD10C,0.300000*%
G04 #@! TA.AperFunction,NonConductor*
%ADD11C,0.300000*%
G04 #@! TD*
G04 #@! TA.AperFunction,HeatsinkPad*
%ADD12O,1.000000X2.100000*%
G04 #@! TD*
G04 #@! TA.AperFunction,HeatsinkPad*
%ADD13O,1.000000X1.800000*%
G04 #@! TD*
G04 #@! TA.AperFunction,ComponentPad*
%ADD14R,1.700000X1.700000*%
G04 #@! TD*
G04 #@! TA.AperFunction,ComponentPad*
%ADD15C,1.700000*%
G04 #@! TD*
G04 #@! TA.AperFunction,ComponentPad*
%ADD16R,2.500000X2.500000*%
G04 #@! TD*
G04 #@! TA.AperFunction,ComponentPad*
%ADD17C,2.500000*%
G04 #@! TD*
G04 #@! TA.AperFunction,ViaPad*
%ADD18C,0.600000*%
G04 #@! TD*
G04 APERTURE END LIST*
D10*
D11*
X18683082Y-139184652D02*
X18897368Y-139256080D01*
X18897368Y-139256080D02*
X19254510Y-139256080D01*
X19254510Y-139256080D02*
X19397368Y-139184652D01*
X19397368Y-139184652D02*
X19468796Y-139113223D01*
X19468796Y-139113223D02*
X19540225Y-138970366D01*
X19540225Y-138970366D02*
X19540225Y-138827509D01*
X19540225Y-138827509D02*
X19468796Y-138684652D01*
X19468796Y-138684652D02*
X19397368Y-138613223D01*
X19397368Y-138613223D02*
X19254510Y-138541794D01*
X19254510Y-138541794D02*
X18968796Y-138470366D01*
X18968796Y-138470366D02*
X18825939Y-138398937D01*
X18825939Y-138398937D02*
X18754510Y-138327509D01*
X18754510Y-138327509D02*
X18683082Y-138184652D01*
X18683082Y-138184652D02*
X18683082Y-138041794D01*
X18683082Y-138041794D02*
X18754510Y-137898937D01*
X18754510Y-137898937D02*
X18825939Y-137827509D01*
X18825939Y-137827509D02*
X18968796Y-137756080D01*
X18968796Y-137756080D02*
X19325939Y-137756080D01*
X19325939Y-137756080D02*
X19540225Y-137827509D01*
X20183081Y-139256080D02*
X20183081Y-137756080D01*
X20897367Y-139256080D02*
X20897367Y-137756080D01*
X20897367Y-137756080D02*
X21397367Y-138827509D01*
X21397367Y-138827509D02*
X21897367Y-137756080D01*
X21897367Y-137756080D02*
X21897367Y-139256080D01*
X23754510Y-139256080D02*
X23754510Y-138256080D01*
X23754510Y-138398937D02*
X23825939Y-138327509D01*
X23825939Y-138327509D02*
X23968796Y-138256080D01*
X23968796Y-138256080D02*
X24183082Y-138256080D01*
X24183082Y-138256080D02*
X24325939Y-138327509D01*
X24325939Y-138327509D02*
X24397368Y-138470366D01*
X24397368Y-138470366D02*
X24397368Y-139256080D01*
X24397368Y-138470366D02*
X24468796Y-138327509D01*
X24468796Y-138327509D02*
X24611653Y-138256080D01*
X24611653Y-138256080D02*
X24825939Y-138256080D01*
X24825939Y-138256080D02*
X24968796Y-138327509D01*
X24968796Y-138327509D02*
X25040225Y-138470366D01*
X25040225Y-138470366D02*
X25040225Y-139256080D01*
X25968796Y-139256080D02*
X25825939Y-139184652D01*
X25825939Y-139184652D02*
X25754510Y-139113223D01*
X25754510Y-139113223D02*
X25683082Y-138970366D01*
X25683082Y-138970366D02*
X25683082Y-138541794D01*
X25683082Y-138541794D02*
X25754510Y-138398937D01*
X25754510Y-138398937D02*
X25825939Y-138327509D01*
X25825939Y-138327509D02*
X25968796Y-138256080D01*
X25968796Y-138256080D02*
X26183082Y-138256080D01*
X26183082Y-138256080D02*
X26325939Y-138327509D01*
X26325939Y-138327509D02*
X26397368Y-138398937D01*
X26397368Y-138398937D02*
X26468796Y-138541794D01*
X26468796Y-138541794D02*
X26468796Y-138970366D01*
X26468796Y-138970366D02*
X26397368Y-139113223D01*
X26397368Y-139113223D02*
X26325939Y-139184652D01*
X26325939Y-139184652D02*
X26183082Y-139256080D01*
X26183082Y-139256080D02*
X25968796Y-139256080D01*
X27754511Y-139256080D02*
X27754511Y-137756080D01*
X27754511Y-139184652D02*
X27611653Y-139256080D01*
X27611653Y-139256080D02*
X27325939Y-139256080D01*
X27325939Y-139256080D02*
X27183082Y-139184652D01*
X27183082Y-139184652D02*
X27111653Y-139113223D01*
X27111653Y-139113223D02*
X27040225Y-138970366D01*
X27040225Y-138970366D02*
X27040225Y-138541794D01*
X27040225Y-138541794D02*
X27111653Y-138398937D01*
X27111653Y-138398937D02*
X27183082Y-138327509D01*
X27183082Y-138327509D02*
X27325939Y-138256080D01*
X27325939Y-138256080D02*
X27611653Y-138256080D01*
X27611653Y-138256080D02*
X27754511Y-138327509D01*
X29111654Y-138256080D02*
X29111654Y-139256080D01*
X28468796Y-138256080D02*
X28468796Y-139041794D01*
X28468796Y-139041794D02*
X28540225Y-139184652D01*
X28540225Y-139184652D02*
X28683082Y-139256080D01*
X28683082Y-139256080D02*
X28897368Y-139256080D01*
X28897368Y-139256080D02*
X29040225Y-139184652D01*
X29040225Y-139184652D02*
X29111654Y-139113223D01*
X30040225Y-139256080D02*
X29897368Y-139184652D01*
X29897368Y-139184652D02*
X29825939Y-139041794D01*
X29825939Y-139041794D02*
X29825939Y-137756080D01*
X31754510Y-138684652D02*
X32897368Y-138684652D01*
X34611653Y-137756080D02*
X35540225Y-137756080D01*
X35540225Y-137756080D02*
X35040225Y-138327509D01*
X35040225Y-138327509D02*
X35254510Y-138327509D01*
X35254510Y-138327509D02*
X35397368Y-138398937D01*
X35397368Y-138398937D02*
X35468796Y-138470366D01*
X35468796Y-138470366D02*
X35540225Y-138613223D01*
X35540225Y-138613223D02*
X35540225Y-138970366D01*
X35540225Y-138970366D02*
X35468796Y-139113223D01*
X35468796Y-139113223D02*
X35397368Y-139184652D01*
X35397368Y-139184652D02*
X35254510Y-139256080D01*
X35254510Y-139256080D02*
X34825939Y-139256080D01*
X34825939Y-139256080D02*
X34683082Y-139184652D01*
X34683082Y-139184652D02*
X34611653Y-139113223D01*
X36254510Y-139184652D02*
X36254510Y-139256080D01*
X36254510Y-139256080D02*
X36183081Y-139398937D01*
X36183081Y-139398937D02*
X36111653Y-139470366D01*
X36754510Y-137756080D02*
X37754510Y-137756080D01*
X37754510Y-137756080D02*
X37111653Y-139256080D01*
X40111653Y-139184652D02*
X39968795Y-139256080D01*
X39968795Y-139256080D02*
X39683081Y-139256080D01*
X39683081Y-139256080D02*
X39540224Y-139184652D01*
X39540224Y-139184652D02*
X39468795Y-139113223D01*
X39468795Y-139113223D02*
X39397367Y-138970366D01*
X39397367Y-138970366D02*
X39397367Y-138541794D01*
X39397367Y-138541794D02*
X39468795Y-138398937D01*
X39468795Y-138398937D02*
X39540224Y-138327509D01*
X39540224Y-138327509D02*
X39683081Y-138256080D01*
X39683081Y-138256080D02*
X39968795Y-138256080D01*
X39968795Y-138256080D02*
X40111653Y-138327509D01*
X40754509Y-139256080D02*
X40754509Y-138256080D01*
X40754509Y-138398937D02*
X40825938Y-138327509D01*
X40825938Y-138327509D02*
X40968795Y-138256080D01*
X40968795Y-138256080D02*
X41183081Y-138256080D01*
X41183081Y-138256080D02*
X41325938Y-138327509D01*
X41325938Y-138327509D02*
X41397367Y-138470366D01*
X41397367Y-138470366D02*
X41397367Y-139256080D01*
X41397367Y-138470366D02*
X41468795Y-138327509D01*
X41468795Y-138327509D02*
X41611652Y-138256080D01*
X41611652Y-138256080D02*
X41825938Y-138256080D01*
X41825938Y-138256080D02*
X41968795Y-138327509D01*
X41968795Y-138327509D02*
X42040224Y-138470366D01*
X42040224Y-138470366D02*
X42040224Y-139256080D01*
X43754509Y-139256080D02*
X44540224Y-138256080D01*
X43754509Y-138256080D02*
X44540224Y-139256080D01*
X44968795Y-137756080D02*
X45897367Y-137756080D01*
X45897367Y-137756080D02*
X45397367Y-138327509D01*
X45397367Y-138327509D02*
X45611652Y-138327509D01*
X45611652Y-138327509D02*
X45754510Y-138398937D01*
X45754510Y-138398937D02*
X45825938Y-138470366D01*
X45825938Y-138470366D02*
X45897367Y-138613223D01*
X45897367Y-138613223D02*
X45897367Y-138970366D01*
X45897367Y-138970366D02*
X45825938Y-139113223D01*
X45825938Y-139113223D02*
X45754510Y-139184652D01*
X45754510Y-139184652D02*
X45611652Y-139256080D01*
X45611652Y-139256080D02*
X45183081Y-139256080D01*
X45183081Y-139256080D02*
X45040224Y-139184652D01*
X45040224Y-139184652D02*
X44968795Y-139113223D01*
X46611652Y-139184652D02*
X46611652Y-139256080D01*
X46611652Y-139256080D02*
X46540223Y-139398937D01*
X46540223Y-139398937D02*
X46468795Y-139470366D01*
X47111652Y-137756080D02*
X48111652Y-137756080D01*
X48111652Y-137756080D02*
X47468795Y-139256080D01*
X50468795Y-139184652D02*
X50325937Y-139256080D01*
X50325937Y-139256080D02*
X50040223Y-139256080D01*
X50040223Y-139256080D02*
X49897366Y-139184652D01*
X49897366Y-139184652D02*
X49825937Y-139113223D01*
X49825937Y-139113223D02*
X49754509Y-138970366D01*
X49754509Y-138970366D02*
X49754509Y-138541794D01*
X49754509Y-138541794D02*
X49825937Y-138398937D01*
X49825937Y-138398937D02*
X49897366Y-138327509D01*
X49897366Y-138327509D02*
X50040223Y-138256080D01*
X50040223Y-138256080D02*
X50325937Y-138256080D01*
X50325937Y-138256080D02*
X50468795Y-138327509D01*
X51111651Y-139256080D02*
X51111651Y-138256080D01*
X51111651Y-138398937D02*
X51183080Y-138327509D01*
X51183080Y-138327509D02*
X51325937Y-138256080D01*
X51325937Y-138256080D02*
X51540223Y-138256080D01*
X51540223Y-138256080D02*
X51683080Y-138327509D01*
X51683080Y-138327509D02*
X51754509Y-138470366D01*
X51754509Y-138470366D02*
X51754509Y-139256080D01*
X51754509Y-138470366D02*
X51825937Y-138327509D01*
X51825937Y-138327509D02*
X51968794Y-138256080D01*
X51968794Y-138256080D02*
X52183080Y-138256080D01*
X52183080Y-138256080D02*
X52325937Y-138327509D01*
X52325937Y-138327509D02*
X52397366Y-138470366D01*
X52397366Y-138470366D02*
X52397366Y-139256080D01*
X19397368Y-141670996D02*
X19397368Y-140170996D01*
X19397368Y-141599568D02*
X19254510Y-141670996D01*
X19254510Y-141670996D02*
X18968796Y-141670996D01*
X18968796Y-141670996D02*
X18825939Y-141599568D01*
X18825939Y-141599568D02*
X18754510Y-141528139D01*
X18754510Y-141528139D02*
X18683082Y-141385282D01*
X18683082Y-141385282D02*
X18683082Y-140956710D01*
X18683082Y-140956710D02*
X18754510Y-140813853D01*
X18754510Y-140813853D02*
X18825939Y-140742425D01*
X18825939Y-140742425D02*
X18968796Y-140670996D01*
X18968796Y-140670996D02*
X19254510Y-140670996D01*
X19254510Y-140670996D02*
X19397368Y-140742425D01*
X20683082Y-141599568D02*
X20540225Y-141670996D01*
X20540225Y-141670996D02*
X20254511Y-141670996D01*
X20254511Y-141670996D02*
X20111653Y-141599568D01*
X20111653Y-141599568D02*
X20040225Y-141456710D01*
X20040225Y-141456710D02*
X20040225Y-140885282D01*
X20040225Y-140885282D02*
X20111653Y-140742425D01*
X20111653Y-140742425D02*
X20254511Y-140670996D01*
X20254511Y-140670996D02*
X20540225Y-140670996D01*
X20540225Y-140670996D02*
X20683082Y-140742425D01*
X20683082Y-140742425D02*
X20754511Y-140885282D01*
X20754511Y-140885282D02*
X20754511Y-141028139D01*
X20754511Y-141028139D02*
X20040225Y-141170996D01*
X21611653Y-141670996D02*
X21468796Y-141599568D01*
X21468796Y-141599568D02*
X21397367Y-141456710D01*
X21397367Y-141456710D02*
X21397367Y-140170996D01*
X22183081Y-141670996D02*
X22183081Y-140170996D01*
X22325939Y-141099568D02*
X22754510Y-141670996D01*
X22754510Y-140670996D02*
X22183081Y-141242425D01*
X24040225Y-141670996D02*
X24040225Y-140885282D01*
X24040225Y-140885282D02*
X23968796Y-140742425D01*
X23968796Y-140742425D02*
X23825939Y-140670996D01*
X23825939Y-140670996D02*
X23540225Y-140670996D01*
X23540225Y-140670996D02*
X23397367Y-140742425D01*
X24040225Y-141599568D02*
X23897367Y-141670996D01*
X23897367Y-141670996D02*
X23540225Y-141670996D01*
X23540225Y-141670996D02*
X23397367Y-141599568D01*
X23397367Y-141599568D02*
X23325939Y-141456710D01*
X23325939Y-141456710D02*
X23325939Y-141313853D01*
X23325939Y-141313853D02*
X23397367Y-141170996D01*
X23397367Y-141170996D02*
X23540225Y-141099568D01*
X23540225Y-141099568D02*
X23897367Y-141099568D01*
X23897367Y-141099568D02*
X24040225Y-141028139D01*
X25897367Y-140670996D02*
X25897367Y-142170996D01*
X25897367Y-140742425D02*
X26040225Y-140670996D01*
X26040225Y-140670996D02*
X26325939Y-140670996D01*
X26325939Y-140670996D02*
X26468796Y-140742425D01*
X26468796Y-140742425D02*
X26540225Y-140813853D01*
X26540225Y-140813853D02*
X26611653Y-140956710D01*
X26611653Y-140956710D02*
X26611653Y-141385282D01*
X26611653Y-141385282D02*
X26540225Y-141528139D01*
X26540225Y-141528139D02*
X26468796Y-141599568D01*
X26468796Y-141599568D02*
X26325939Y-141670996D01*
X26325939Y-141670996D02*
X26040225Y-141670996D01*
X26040225Y-141670996D02*
X25897367Y-141599568D01*
X27254510Y-141670996D02*
X27254510Y-140670996D01*
X27254510Y-140170996D02*
X27183082Y-140242425D01*
X27183082Y-140242425D02*
X27254510Y-140313853D01*
X27254510Y-140313853D02*
X27325939Y-140242425D01*
X27325939Y-140242425D02*
X27254510Y-140170996D01*
X27254510Y-140170996D02*
X27254510Y-140313853D01*
X27968796Y-140670996D02*
X27968796Y-141670996D01*
X27968796Y-140813853D02*
X28040225Y-140742425D01*
X28040225Y-140742425D02*
X28183082Y-140670996D01*
X28183082Y-140670996D02*
X28397368Y-140670996D01*
X28397368Y-140670996D02*
X28540225Y-140742425D01*
X28540225Y-140742425D02*
X28611654Y-140885282D01*
X28611654Y-140885282D02*
X28611654Y-141670996D01*
X30468796Y-141670996D02*
X30468796Y-140170996D01*
X31111654Y-141670996D02*
X31111654Y-140885282D01*
X31111654Y-140885282D02*
X31040225Y-140742425D01*
X31040225Y-140742425D02*
X30897368Y-140670996D01*
X30897368Y-140670996D02*
X30683082Y-140670996D01*
X30683082Y-140670996D02*
X30540225Y-140742425D01*
X30540225Y-140742425D02*
X30468796Y-140813853D01*
X32397368Y-141599568D02*
X32254511Y-141670996D01*
X32254511Y-141670996D02*
X31968797Y-141670996D01*
X31968797Y-141670996D02*
X31825939Y-141599568D01*
X31825939Y-141599568D02*
X31754511Y-141456710D01*
X31754511Y-141456710D02*
X31754511Y-140885282D01*
X31754511Y-140885282D02*
X31825939Y-140742425D01*
X31825939Y-140742425D02*
X31968797Y-140670996D01*
X31968797Y-140670996D02*
X32254511Y-140670996D01*
X32254511Y-140670996D02*
X32397368Y-140742425D01*
X32397368Y-140742425D02*
X32468797Y-140885282D01*
X32468797Y-140885282D02*
X32468797Y-141028139D01*
X32468797Y-141028139D02*
X31754511Y-141170996D01*
X33754511Y-141670996D02*
X33754511Y-140885282D01*
X33754511Y-140885282D02*
X33683082Y-140742425D01*
X33683082Y-140742425D02*
X33540225Y-140670996D01*
X33540225Y-140670996D02*
X33254511Y-140670996D01*
X33254511Y-140670996D02*
X33111653Y-140742425D01*
X33754511Y-141599568D02*
X33611653Y-141670996D01*
X33611653Y-141670996D02*
X33254511Y-141670996D01*
X33254511Y-141670996D02*
X33111653Y-141599568D01*
X33111653Y-141599568D02*
X33040225Y-141456710D01*
X33040225Y-141456710D02*
X33040225Y-141313853D01*
X33040225Y-141313853D02*
X33111653Y-141170996D01*
X33111653Y-141170996D02*
X33254511Y-141099568D01*
X33254511Y-141099568D02*
X33611653Y-141099568D01*
X33611653Y-141099568D02*
X33754511Y-141028139D01*
X35111654Y-141670996D02*
X35111654Y-140170996D01*
X35111654Y-141599568D02*
X34968796Y-141670996D01*
X34968796Y-141670996D02*
X34683082Y-141670996D01*
X34683082Y-141670996D02*
X34540225Y-141599568D01*
X34540225Y-141599568D02*
X34468796Y-141528139D01*
X34468796Y-141528139D02*
X34397368Y-141385282D01*
X34397368Y-141385282D02*
X34397368Y-140956710D01*
X34397368Y-140956710D02*
X34468796Y-140813853D01*
X34468796Y-140813853D02*
X34540225Y-140742425D01*
X34540225Y-140742425D02*
X34683082Y-140670996D01*
X34683082Y-140670996D02*
X34968796Y-140670996D01*
X34968796Y-140670996D02*
X35111654Y-140742425D01*
X35825939Y-141670996D02*
X35825939Y-140670996D01*
X35825939Y-140956710D02*
X35897368Y-140813853D01*
X35897368Y-140813853D02*
X35968797Y-140742425D01*
X35968797Y-140742425D02*
X36111654Y-140670996D01*
X36111654Y-140670996D02*
X36254511Y-140670996D01*
X37397368Y-140670996D02*
X37397368Y-141670996D01*
X36754510Y-140670996D02*
X36754510Y-141456710D01*
X36754510Y-141456710D02*
X36825939Y-141599568D01*
X36825939Y-141599568D02*
X36968796Y-141670996D01*
X36968796Y-141670996D02*
X37183082Y-141670996D01*
X37183082Y-141670996D02*
X37325939Y-141599568D01*
X37325939Y-141599568D02*
X37397368Y-141528139D01*
X40325939Y-140099568D02*
X39040225Y-142028139D01*
X42754511Y-141670996D02*
X41897368Y-141670996D01*
X42325939Y-141670996D02*
X42325939Y-140170996D01*
X42325939Y-140170996D02*
X42183082Y-140385282D01*
X42183082Y-140385282D02*
X42040225Y-140528139D01*
X42040225Y-140528139D02*
X41897368Y-140599568D01*
X43468796Y-141599568D02*
X43468796Y-141670996D01*
X43468796Y-141670996D02*
X43397367Y-141813853D01*
X43397367Y-141813853D02*
X43325939Y-141885282D01*
X43968796Y-140170996D02*
X44968796Y-140170996D01*
X44968796Y-140170996D02*
X44325939Y-141670996D01*
X47325939Y-141599568D02*
X47183081Y-141670996D01*
X47183081Y-141670996D02*
X46897367Y-141670996D01*
X46897367Y-141670996D02*
X46754510Y-141599568D01*
X46754510Y-141599568D02*
X46683081Y-141528139D01*
X46683081Y-141528139D02*
X46611653Y-141385282D01*
X46611653Y-141385282D02*
X46611653Y-140956710D01*
X46611653Y-140956710D02*
X46683081Y-140813853D01*
X46683081Y-140813853D02*
X46754510Y-140742425D01*
X46754510Y-140742425D02*
X46897367Y-140670996D01*
X46897367Y-140670996D02*
X47183081Y-140670996D01*
X47183081Y-140670996D02*
X47325939Y-140742425D01*
X47968795Y-141670996D02*
X47968795Y-140670996D01*
X47968795Y-140813853D02*
X48040224Y-140742425D01*
X48040224Y-140742425D02*
X48183081Y-140670996D01*
X48183081Y-140670996D02*
X48397367Y-140670996D01*
X48397367Y-140670996D02*
X48540224Y-140742425D01*
X48540224Y-140742425D02*
X48611653Y-140885282D01*
X48611653Y-140885282D02*
X48611653Y-141670996D01*
X48611653Y-140885282D02*
X48683081Y-140742425D01*
X48683081Y-140742425D02*
X48825938Y-140670996D01*
X48825938Y-140670996D02*
X49040224Y-140670996D01*
X49040224Y-140670996D02*
X49183081Y-140742425D01*
X49183081Y-140742425D02*
X49254510Y-140885282D01*
X49254510Y-140885282D02*
X49254510Y-141670996D01*
X19611653Y-144085912D02*
X19111653Y-143371626D01*
X18754510Y-144085912D02*
X18754510Y-142585912D01*
X18754510Y-142585912D02*
X19325939Y-142585912D01*
X19325939Y-142585912D02*
X19468796Y-142657341D01*
X19468796Y-142657341D02*
X19540225Y-142728769D01*
X19540225Y-142728769D02*
X19611653Y-142871626D01*
X19611653Y-142871626D02*
X19611653Y-143085912D01*
X19611653Y-143085912D02*
X19540225Y-143228769D01*
X19540225Y-143228769D02*
X19468796Y-143300198D01*
X19468796Y-143300198D02*
X19325939Y-143371626D01*
X19325939Y-143371626D02*
X18754510Y-143371626D01*
X20468796Y-144085912D02*
X20325939Y-144014484D01*
X20325939Y-144014484D02*
X20254510Y-143943055D01*
X20254510Y-143943055D02*
X20183082Y-143800198D01*
X20183082Y-143800198D02*
X20183082Y-143371626D01*
X20183082Y-143371626D02*
X20254510Y-143228769D01*
X20254510Y-143228769D02*
X20325939Y-143157341D01*
X20325939Y-143157341D02*
X20468796Y-143085912D01*
X20468796Y-143085912D02*
X20683082Y-143085912D01*
X20683082Y-143085912D02*
X20825939Y-143157341D01*
X20825939Y-143157341D02*
X20897368Y-143228769D01*
X20897368Y-143228769D02*
X20968796Y-143371626D01*
X20968796Y-143371626D02*
X20968796Y-143800198D01*
X20968796Y-143800198D02*
X20897368Y-143943055D01*
X20897368Y-143943055D02*
X20825939Y-144014484D01*
X20825939Y-144014484D02*
X20683082Y-144085912D01*
X20683082Y-144085912D02*
X20468796Y-144085912D01*
X21468796Y-143085912D02*
X22254511Y-143085912D01*
X22254511Y-143085912D02*
X21468796Y-144085912D01*
X21468796Y-144085912D02*
X22254511Y-144085912D01*
X22611654Y-143085912D02*
X23183082Y-143085912D01*
X22825939Y-142585912D02*
X22825939Y-143871626D01*
X22825939Y-143871626D02*
X22897368Y-144014484D01*
X22897368Y-144014484D02*
X23040225Y-144085912D01*
X23040225Y-144085912D02*
X23183082Y-144085912D01*
X24254511Y-144014484D02*
X24111654Y-144085912D01*
X24111654Y-144085912D02*
X23825940Y-144085912D01*
X23825940Y-144085912D02*
X23683082Y-144014484D01*
X23683082Y-144014484D02*
X23611654Y-143871626D01*
X23611654Y-143871626D02*
X23611654Y-143300198D01*
X23611654Y-143300198D02*
X23683082Y-143157341D01*
X23683082Y-143157341D02*
X23825940Y-143085912D01*
X23825940Y-143085912D02*
X24111654Y-143085912D01*
X24111654Y-143085912D02*
X24254511Y-143157341D01*
X24254511Y-143157341D02*
X24325940Y-143300198D01*
X24325940Y-143300198D02*
X24325940Y-143443055D01*
X24325940Y-143443055D02*
X23611654Y-143585912D01*
X25611654Y-144014484D02*
X25468796Y-144085912D01*
X25468796Y-144085912D02*
X25183082Y-144085912D01*
X25183082Y-144085912D02*
X25040225Y-144014484D01*
X25040225Y-144014484D02*
X24968796Y-143943055D01*
X24968796Y-143943055D02*
X24897368Y-143800198D01*
X24897368Y-143800198D02*
X24897368Y-143371626D01*
X24897368Y-143371626D02*
X24968796Y-143228769D01*
X24968796Y-143228769D02*
X25040225Y-143157341D01*
X25040225Y-143157341D02*
X25183082Y-143085912D01*
X25183082Y-143085912D02*
X25468796Y-143085912D01*
X25468796Y-143085912D02*
X25611654Y-143157341D01*
X27611653Y-144085912D02*
X27468796Y-144014484D01*
X27468796Y-144014484D02*
X27397367Y-143943055D01*
X27397367Y-143943055D02*
X27325939Y-143800198D01*
X27325939Y-143800198D02*
X27325939Y-143371626D01*
X27325939Y-143371626D02*
X27397367Y-143228769D01*
X27397367Y-143228769D02*
X27468796Y-143157341D01*
X27468796Y-143157341D02*
X27611653Y-143085912D01*
X27611653Y-143085912D02*
X27825939Y-143085912D01*
X27825939Y-143085912D02*
X27968796Y-143157341D01*
X27968796Y-143157341D02*
X28040225Y-143228769D01*
X28040225Y-143228769D02*
X28111653Y-143371626D01*
X28111653Y-143371626D02*
X28111653Y-143800198D01*
X28111653Y-143800198D02*
X28040225Y-143943055D01*
X28040225Y-143943055D02*
X27968796Y-144014484D01*
X27968796Y-144014484D02*
X27825939Y-144085912D01*
X27825939Y-144085912D02*
X27611653Y-144085912D01*
X29397368Y-144085912D02*
X29397368Y-142585912D01*
X29397368Y-144014484D02*
X29254510Y-144085912D01*
X29254510Y-144085912D02*
X28968796Y-144085912D01*
X28968796Y-144085912D02*
X28825939Y-144014484D01*
X28825939Y-144014484D02*
X28754510Y-143943055D01*
X28754510Y-143943055D02*
X28683082Y-143800198D01*
X28683082Y-143800198D02*
X28683082Y-143371626D01*
X28683082Y-143371626D02*
X28754510Y-143228769D01*
X28754510Y-143228769D02*
X28825939Y-143157341D01*
X28825939Y-143157341D02*
X28968796Y-143085912D01*
X28968796Y-143085912D02*
X29254510Y-143085912D01*
X29254510Y-143085912D02*
X29397368Y-143157341D01*
X31254510Y-143085912D02*
X31254510Y-144585912D01*
X31254510Y-143157341D02*
X31397368Y-143085912D01*
X31397368Y-143085912D02*
X31683082Y-143085912D01*
X31683082Y-143085912D02*
X31825939Y-143157341D01*
X31825939Y-143157341D02*
X31897368Y-143228769D01*
X31897368Y-143228769D02*
X31968796Y-143371626D01*
X31968796Y-143371626D02*
X31968796Y-143800198D01*
X31968796Y-143800198D02*
X31897368Y-143943055D01*
X31897368Y-143943055D02*
X31825939Y-144014484D01*
X31825939Y-144014484D02*
X31683082Y-144085912D01*
X31683082Y-144085912D02*
X31397368Y-144085912D01*
X31397368Y-144085912D02*
X31254510Y-144014484D01*
X32611653Y-144085912D02*
X32611653Y-143085912D01*
X32611653Y-142585912D02*
X32540225Y-142657341D01*
X32540225Y-142657341D02*
X32611653Y-142728769D01*
X32611653Y-142728769D02*
X32683082Y-142657341D01*
X32683082Y-142657341D02*
X32611653Y-142585912D01*
X32611653Y-142585912D02*
X32611653Y-142728769D01*
X33325939Y-143085912D02*
X33325939Y-144085912D01*
X33325939Y-143228769D02*
X33397368Y-143157341D01*
X33397368Y-143157341D02*
X33540225Y-143085912D01*
X33540225Y-143085912D02*
X33754511Y-143085912D01*
X33754511Y-143085912D02*
X33897368Y-143157341D01*
X33897368Y-143157341D02*
X33968797Y-143300198D01*
X33968797Y-143300198D02*
X33968797Y-144085912D01*
X35325940Y-143085912D02*
X35325940Y-144085912D01*
X34683082Y-143085912D02*
X34683082Y-143871626D01*
X34683082Y-143871626D02*
X34754511Y-144014484D01*
X34754511Y-144014484D02*
X34897368Y-144085912D01*
X34897368Y-144085912D02*
X35111654Y-144085912D01*
X35111654Y-144085912D02*
X35254511Y-144014484D01*
X35254511Y-144014484D02*
X35325940Y-143943055D01*
X37183082Y-144085912D02*
X37183082Y-142585912D01*
X37325940Y-143514484D02*
X37754511Y-144085912D01*
X37754511Y-143085912D02*
X37183082Y-143657341D01*
X40183083Y-144085912D02*
X40183083Y-142585912D01*
X40183083Y-144014484D02*
X40040225Y-144085912D01*
X40040225Y-144085912D02*
X39754511Y-144085912D01*
X39754511Y-144085912D02*
X39611654Y-144014484D01*
X39611654Y-144014484D02*
X39540225Y-143943055D01*
X39540225Y-143943055D02*
X39468797Y-143800198D01*
X39468797Y-143800198D02*
X39468797Y-143371626D01*
X39468797Y-143371626D02*
X39540225Y-143228769D01*
X39540225Y-143228769D02*
X39611654Y-143157341D01*
X39611654Y-143157341D02*
X39754511Y-143085912D01*
X39754511Y-143085912D02*
X40040225Y-143085912D01*
X40040225Y-143085912D02*
X40183083Y-143157341D01*
X40897368Y-144085912D02*
X40897368Y-143085912D01*
X41040226Y-142514484D02*
X40825940Y-142728769D01*
X41611654Y-144085912D02*
X41611654Y-143085912D01*
X41611654Y-143371626D02*
X41683083Y-143228769D01*
X41683083Y-143228769D02*
X41754512Y-143157341D01*
X41754512Y-143157341D02*
X41897369Y-143085912D01*
X41897369Y-143085912D02*
X42040226Y-143085912D01*
X41468797Y-142514484D02*
X41754512Y-142728769D01*
X41754512Y-142728769D02*
X42040226Y-142514484D01*
X43111654Y-144014484D02*
X42968797Y-144085912D01*
X42968797Y-144085912D02*
X42683083Y-144085912D01*
X42683083Y-144085912D02*
X42540225Y-144014484D01*
X42540225Y-144014484D02*
X42468797Y-143871626D01*
X42468797Y-143871626D02*
X42468797Y-143300198D01*
X42468797Y-143300198D02*
X42540225Y-143157341D01*
X42540225Y-143157341D02*
X42683083Y-143085912D01*
X42683083Y-143085912D02*
X42968797Y-143085912D01*
X42968797Y-143085912D02*
X43111654Y-143157341D01*
X43111654Y-143157341D02*
X43183083Y-143300198D01*
X43183083Y-143300198D02*
X43183083Y-143443055D01*
X43183083Y-143443055D02*
X42468797Y-143585912D01*
X44968796Y-143514484D02*
X46111654Y-143514484D01*
X47825939Y-142585912D02*
X48754511Y-142585912D01*
X48754511Y-142585912D02*
X48254511Y-143157341D01*
X48254511Y-143157341D02*
X48468796Y-143157341D01*
X48468796Y-143157341D02*
X48611654Y-143228769D01*
X48611654Y-143228769D02*
X48683082Y-143300198D01*
X48683082Y-143300198D02*
X48754511Y-143443055D01*
X48754511Y-143443055D02*
X48754511Y-143800198D01*
X48754511Y-143800198D02*
X48683082Y-143943055D01*
X48683082Y-143943055D02*
X48611654Y-144014484D01*
X48611654Y-144014484D02*
X48468796Y-144085912D01*
X48468796Y-144085912D02*
X48040225Y-144085912D01*
X48040225Y-144085912D02*
X47897368Y-144014484D01*
X47897368Y-144014484D02*
X47825939Y-143943055D01*
X49468796Y-144014484D02*
X49468796Y-144085912D01*
X49468796Y-144085912D02*
X49397367Y-144228769D01*
X49397367Y-144228769D02*
X49325939Y-144300198D01*
X50040225Y-142728769D02*
X50111653Y-142657341D01*
X50111653Y-142657341D02*
X50254511Y-142585912D01*
X50254511Y-142585912D02*
X50611653Y-142585912D01*
X50611653Y-142585912D02*
X50754511Y-142657341D01*
X50754511Y-142657341D02*
X50825939Y-142728769D01*
X50825939Y-142728769D02*
X50897368Y-142871626D01*
X50897368Y-142871626D02*
X50897368Y-143014484D01*
X50897368Y-143014484D02*
X50825939Y-143228769D01*
X50825939Y-143228769D02*
X49968796Y-144085912D01*
X49968796Y-144085912D02*
X50897368Y-144085912D01*
X53325939Y-144014484D02*
X53183081Y-144085912D01*
X53183081Y-144085912D02*
X52897367Y-144085912D01*
X52897367Y-144085912D02*
X52754510Y-144014484D01*
X52754510Y-144014484D02*
X52683081Y-143943055D01*
X52683081Y-143943055D02*
X52611653Y-143800198D01*
X52611653Y-143800198D02*
X52611653Y-143371626D01*
X52611653Y-143371626D02*
X52683081Y-143228769D01*
X52683081Y-143228769D02*
X52754510Y-143157341D01*
X52754510Y-143157341D02*
X52897367Y-143085912D01*
X52897367Y-143085912D02*
X53183081Y-143085912D01*
X53183081Y-143085912D02*
X53325939Y-143157341D01*
X53968795Y-144085912D02*
X53968795Y-143085912D01*
X53968795Y-143228769D02*
X54040224Y-143157341D01*
X54040224Y-143157341D02*
X54183081Y-143085912D01*
X54183081Y-143085912D02*
X54397367Y-143085912D01*
X54397367Y-143085912D02*
X54540224Y-143157341D01*
X54540224Y-143157341D02*
X54611653Y-143300198D01*
X54611653Y-143300198D02*
X54611653Y-144085912D01*
X54611653Y-143300198D02*
X54683081Y-143157341D01*
X54683081Y-143157341D02*
X54825938Y-143085912D01*
X54825938Y-143085912D02*
X55040224Y-143085912D01*
X55040224Y-143085912D02*
X55183081Y-143157341D01*
X55183081Y-143157341D02*
X55254510Y-143300198D01*
X55254510Y-143300198D02*
X55254510Y-144085912D01*
X18968796Y-146500828D02*
X18825939Y-146429400D01*
X18825939Y-146429400D02*
X18754510Y-146357971D01*
X18754510Y-146357971D02*
X18683082Y-146215114D01*
X18683082Y-146215114D02*
X18683082Y-145786542D01*
X18683082Y-145786542D02*
X18754510Y-145643685D01*
X18754510Y-145643685D02*
X18825939Y-145572257D01*
X18825939Y-145572257D02*
X18968796Y-145500828D01*
X18968796Y-145500828D02*
X19183082Y-145500828D01*
X19183082Y-145500828D02*
X19325939Y-145572257D01*
X19325939Y-145572257D02*
X19397368Y-145643685D01*
X19397368Y-145643685D02*
X19468796Y-145786542D01*
X19468796Y-145786542D02*
X19468796Y-146215114D01*
X19468796Y-146215114D02*
X19397368Y-146357971D01*
X19397368Y-146357971D02*
X19325939Y-146429400D01*
X19325939Y-146429400D02*
X19183082Y-146500828D01*
X19183082Y-146500828D02*
X18968796Y-146500828D01*
X20754511Y-146500828D02*
X20754511Y-145000828D01*
X20754511Y-146429400D02*
X20611653Y-146500828D01*
X20611653Y-146500828D02*
X20325939Y-146500828D01*
X20325939Y-146500828D02*
X20183082Y-146429400D01*
X20183082Y-146429400D02*
X20111653Y-146357971D01*
X20111653Y-146357971D02*
X20040225Y-146215114D01*
X20040225Y-146215114D02*
X20040225Y-145786542D01*
X20040225Y-145786542D02*
X20111653Y-145643685D01*
X20111653Y-145643685D02*
X20183082Y-145572257D01*
X20183082Y-145572257D02*
X20325939Y-145500828D01*
X20325939Y-145500828D02*
X20611653Y-145500828D01*
X20611653Y-145500828D02*
X20754511Y-145572257D01*
X22611653Y-146500828D02*
X22611653Y-145000828D01*
X23254511Y-146500828D02*
X23254511Y-145715114D01*
X23254511Y-145715114D02*
X23183082Y-145572257D01*
X23183082Y-145572257D02*
X23040225Y-145500828D01*
X23040225Y-145500828D02*
X22825939Y-145500828D01*
X22825939Y-145500828D02*
X22683082Y-145572257D01*
X22683082Y-145572257D02*
X22611653Y-145643685D01*
X24183082Y-146500828D02*
X24040225Y-146429400D01*
X24040225Y-146429400D02*
X23968796Y-146286542D01*
X23968796Y-146286542D02*
X23968796Y-145000828D01*
X25397368Y-146500828D02*
X25397368Y-145715114D01*
X25397368Y-145715114D02*
X25325939Y-145572257D01*
X25325939Y-145572257D02*
X25183082Y-145500828D01*
X25183082Y-145500828D02*
X24897368Y-145500828D01*
X24897368Y-145500828D02*
X24754510Y-145572257D01*
X25397368Y-146429400D02*
X25254510Y-146500828D01*
X25254510Y-146500828D02*
X24897368Y-146500828D01*
X24897368Y-146500828D02*
X24754510Y-146429400D01*
X24754510Y-146429400D02*
X24683082Y-146286542D01*
X24683082Y-146286542D02*
X24683082Y-146143685D01*
X24683082Y-146143685D02*
X24754510Y-146000828D01*
X24754510Y-146000828D02*
X24897368Y-145929400D01*
X24897368Y-145929400D02*
X25254510Y-145929400D01*
X25254510Y-145929400D02*
X25397368Y-145857971D01*
X25968796Y-145500828D02*
X26325939Y-146500828D01*
X26325939Y-146500828D02*
X26683082Y-145500828D01*
X27254510Y-146500828D02*
X27254510Y-145500828D01*
X27254510Y-145000828D02*
X27183082Y-145072257D01*
X27183082Y-145072257D02*
X27254510Y-145143685D01*
X27254510Y-145143685D02*
X27325939Y-145072257D01*
X27325939Y-145072257D02*
X27254510Y-145000828D01*
X27254510Y-145000828D02*
X27254510Y-145143685D01*
X28611654Y-146429400D02*
X28468796Y-146500828D01*
X28468796Y-146500828D02*
X28183082Y-146500828D01*
X28183082Y-146500828D02*
X28040225Y-146429400D01*
X28040225Y-146429400D02*
X27968796Y-146357971D01*
X27968796Y-146357971D02*
X27897368Y-146215114D01*
X27897368Y-146215114D02*
X27897368Y-145786542D01*
X27897368Y-145786542D02*
X27968796Y-145643685D01*
X27968796Y-145643685D02*
X28040225Y-145572257D01*
X28040225Y-145572257D02*
X28183082Y-145500828D01*
X28183082Y-145500828D02*
X28468796Y-145500828D01*
X28468796Y-145500828D02*
X28611654Y-145572257D01*
X29254510Y-146500828D02*
X29254510Y-145000828D01*
X29397368Y-145929400D02*
X29825939Y-146500828D01*
X29825939Y-145500828D02*
X29254510Y-146072257D01*
X30325939Y-145500828D02*
X30683082Y-146500828D01*
X31040225Y-145500828D02*
X30683082Y-146500828D01*
X30683082Y-146500828D02*
X30540225Y-146857971D01*
X30540225Y-146857971D02*
X30468796Y-146929400D01*
X30468796Y-146929400D02*
X30325939Y-147000828D01*
X32754510Y-145500828D02*
X32754510Y-147000828D01*
X32754510Y-145572257D02*
X32897368Y-145500828D01*
X32897368Y-145500828D02*
X33183082Y-145500828D01*
X33183082Y-145500828D02*
X33325939Y-145572257D01*
X33325939Y-145572257D02*
X33397368Y-145643685D01*
X33397368Y-145643685D02*
X33468796Y-145786542D01*
X33468796Y-145786542D02*
X33468796Y-146215114D01*
X33468796Y-146215114D02*
X33397368Y-146357971D01*
X33397368Y-146357971D02*
X33325939Y-146429400D01*
X33325939Y-146429400D02*
X33183082Y-146500828D01*
X33183082Y-146500828D02*
X32897368Y-146500828D01*
X32897368Y-146500828D02*
X32754510Y-146429400D01*
X34111653Y-146500828D02*
X34111653Y-145500828D01*
X34111653Y-145000828D02*
X34040225Y-145072257D01*
X34040225Y-145072257D02*
X34111653Y-145143685D01*
X34111653Y-145143685D02*
X34183082Y-145072257D01*
X34183082Y-145072257D02*
X34111653Y-145000828D01*
X34111653Y-145000828D02*
X34111653Y-145143685D01*
X34825939Y-145500828D02*
X34825939Y-146500828D01*
X34825939Y-145643685D02*
X34897368Y-145572257D01*
X34897368Y-145572257D02*
X35040225Y-145500828D01*
X35040225Y-145500828D02*
X35254511Y-145500828D01*
X35254511Y-145500828D02*
X35397368Y-145572257D01*
X35397368Y-145572257D02*
X35468797Y-145715114D01*
X35468797Y-145715114D02*
X35468797Y-146500828D01*
X36825940Y-145500828D02*
X36825940Y-146500828D01*
X36183082Y-145500828D02*
X36183082Y-146286542D01*
X36183082Y-146286542D02*
X36254511Y-146429400D01*
X36254511Y-146429400D02*
X36397368Y-146500828D01*
X36397368Y-146500828D02*
X36611654Y-146500828D01*
X36611654Y-146500828D02*
X36754511Y-146429400D01*
X36754511Y-146429400D02*
X36825940Y-146357971D01*
X38683082Y-146500828D02*
X38683082Y-145000828D01*
X38825940Y-145929400D02*
X39254511Y-146500828D01*
X39254511Y-145500828D02*
X38683082Y-146072257D01*
X41040225Y-145500828D02*
X41040225Y-147000828D01*
X41040225Y-145572257D02*
X41183083Y-145500828D01*
X41183083Y-145500828D02*
X41468797Y-145500828D01*
X41468797Y-145500828D02*
X41611654Y-145572257D01*
X41611654Y-145572257D02*
X41683083Y-145643685D01*
X41683083Y-145643685D02*
X41754511Y-145786542D01*
X41754511Y-145786542D02*
X41754511Y-146215114D01*
X41754511Y-146215114D02*
X41683083Y-146357971D01*
X41683083Y-146357971D02*
X41611654Y-146429400D01*
X41611654Y-146429400D02*
X41468797Y-146500828D01*
X41468797Y-146500828D02*
X41183083Y-146500828D01*
X41183083Y-146500828D02*
X41040225Y-146429400D01*
X42397368Y-146500828D02*
X42397368Y-145500828D01*
X42397368Y-145786542D02*
X42468797Y-145643685D01*
X42468797Y-145643685D02*
X42540226Y-145572257D01*
X42540226Y-145572257D02*
X42683083Y-145500828D01*
X42683083Y-145500828D02*
X42825940Y-145500828D01*
X43540225Y-146500828D02*
X43397368Y-146429400D01*
X43397368Y-146429400D02*
X43325939Y-146357971D01*
X43325939Y-146357971D02*
X43254511Y-146215114D01*
X43254511Y-146215114D02*
X43254511Y-145786542D01*
X43254511Y-145786542D02*
X43325939Y-145643685D01*
X43325939Y-145643685D02*
X43397368Y-145572257D01*
X43397368Y-145572257D02*
X43540225Y-145500828D01*
X43540225Y-145500828D02*
X43754511Y-145500828D01*
X43754511Y-145500828D02*
X43897368Y-145572257D01*
X43897368Y-145572257D02*
X43968797Y-145643685D01*
X43968797Y-145643685D02*
X44040225Y-145786542D01*
X44040225Y-145786542D02*
X44040225Y-146215114D01*
X44040225Y-146215114D02*
X43968797Y-146357971D01*
X43968797Y-146357971D02*
X43897368Y-146429400D01*
X43897368Y-146429400D02*
X43754511Y-146500828D01*
X43754511Y-146500828D02*
X43540225Y-146500828D01*
X44611654Y-146429400D02*
X44754511Y-146500828D01*
X44754511Y-146500828D02*
X45040225Y-146500828D01*
X45040225Y-146500828D02*
X45183082Y-146429400D01*
X45183082Y-146429400D02*
X45254511Y-146286542D01*
X45254511Y-146286542D02*
X45254511Y-146215114D01*
X45254511Y-146215114D02*
X45183082Y-146072257D01*
X45183082Y-146072257D02*
X45040225Y-146000828D01*
X45040225Y-146000828D02*
X44825940Y-146000828D01*
X44825940Y-146000828D02*
X44683082Y-145929400D01*
X44683082Y-145929400D02*
X44611654Y-145786542D01*
X44611654Y-145786542D02*
X44611654Y-145715114D01*
X44611654Y-145715114D02*
X44683082Y-145572257D01*
X44683082Y-145572257D02*
X44825940Y-145500828D01*
X44825940Y-145500828D02*
X45040225Y-145500828D01*
X45040225Y-145500828D02*
X45183082Y-145572257D01*
X45683083Y-145500828D02*
X46254511Y-145500828D01*
X45897368Y-145000828D02*
X45897368Y-146286542D01*
X45897368Y-146286542D02*
X45968797Y-146429400D01*
X45968797Y-146429400D02*
X46111654Y-146500828D01*
X46111654Y-146500828D02*
X46254511Y-146500828D01*
X46754511Y-146500828D02*
X46754511Y-145500828D01*
X46754511Y-145786542D02*
X46825940Y-145643685D01*
X46825940Y-145643685D02*
X46897369Y-145572257D01*
X46897369Y-145572257D02*
X47040226Y-145500828D01*
X47040226Y-145500828D02*
X47183083Y-145500828D01*
X48254511Y-146429400D02*
X48111654Y-146500828D01*
X48111654Y-146500828D02*
X47825940Y-146500828D01*
X47825940Y-146500828D02*
X47683082Y-146429400D01*
X47683082Y-146429400D02*
X47611654Y-146286542D01*
X47611654Y-146286542D02*
X47611654Y-145715114D01*
X47611654Y-145715114D02*
X47683082Y-145572257D01*
X47683082Y-145572257D02*
X47825940Y-145500828D01*
X47825940Y-145500828D02*
X48111654Y-145500828D01*
X48111654Y-145500828D02*
X48254511Y-145572257D01*
X48254511Y-145572257D02*
X48325940Y-145715114D01*
X48325940Y-145715114D02*
X48325940Y-145857971D01*
X48325940Y-145857971D02*
X47611654Y-146000828D01*
X49611654Y-146500828D02*
X49611654Y-145000828D01*
X49611654Y-146429400D02*
X49468796Y-146500828D01*
X49468796Y-146500828D02*
X49183082Y-146500828D01*
X49183082Y-146500828D02*
X49040225Y-146429400D01*
X49040225Y-146429400D02*
X48968796Y-146357971D01*
X48968796Y-146357971D02*
X48897368Y-146215114D01*
X48897368Y-146215114D02*
X48897368Y-145786542D01*
X48897368Y-145786542D02*
X48968796Y-145643685D01*
X48968796Y-145643685D02*
X49040225Y-145572257D01*
X49040225Y-145572257D02*
X49183082Y-145500828D01*
X49183082Y-145500828D02*
X49468796Y-145500828D01*
X49468796Y-145500828D02*
X49611654Y-145572257D01*
X50968797Y-145500828D02*
X50968797Y-146500828D01*
X50325939Y-145500828D02*
X50325939Y-146286542D01*
X50325939Y-146286542D02*
X50397368Y-146429400D01*
X50397368Y-146429400D02*
X50540225Y-146500828D01*
X50540225Y-146500828D02*
X50754511Y-146500828D01*
X50754511Y-146500828D02*
X50897368Y-146429400D01*
X50897368Y-146429400D02*
X50968797Y-146357971D01*
X53468797Y-146500828D02*
X53468797Y-145000828D01*
X53468797Y-146429400D02*
X53325939Y-146500828D01*
X53325939Y-146500828D02*
X53040225Y-146500828D01*
X53040225Y-146500828D02*
X52897368Y-146429400D01*
X52897368Y-146429400D02*
X52825939Y-146357971D01*
X52825939Y-146357971D02*
X52754511Y-146215114D01*
X52754511Y-146215114D02*
X52754511Y-145786542D01*
X52754511Y-145786542D02*
X52825939Y-145643685D01*
X52825939Y-145643685D02*
X52897368Y-145572257D01*
X52897368Y-145572257D02*
X53040225Y-145500828D01*
X53040225Y-145500828D02*
X53325939Y-145500828D01*
X53325939Y-145500828D02*
X53468797Y-145572257D01*
X54183082Y-146500828D02*
X54183082Y-145500828D01*
X54183082Y-145000828D02*
X54111654Y-145072257D01*
X54111654Y-145072257D02*
X54183082Y-145143685D01*
X54183082Y-145143685D02*
X54254511Y-145072257D01*
X54254511Y-145072257D02*
X54183082Y-145000828D01*
X54183082Y-145000828D02*
X54183082Y-145143685D01*
X54897368Y-146500828D02*
X54897368Y-145500828D01*
X54897368Y-145786542D02*
X54968797Y-145643685D01*
X54968797Y-145643685D02*
X55040226Y-145572257D01*
X55040226Y-145572257D02*
X55183083Y-145500828D01*
X55183083Y-145500828D02*
X55325940Y-145500828D01*
X55683082Y-145500828D02*
X56040225Y-146500828D01*
X56397368Y-145500828D02*
X56040225Y-146500828D01*
X56040225Y-146500828D02*
X55897368Y-146857971D01*
X55897368Y-146857971D02*
X55825939Y-146929400D01*
X55825939Y-146929400D02*
X55683082Y-147000828D01*
X57040225Y-146429400D02*
X57040225Y-146500828D01*
X57040225Y-146500828D02*
X56968796Y-146643685D01*
X56968796Y-146643685D02*
X56897368Y-146715114D01*
X58683082Y-145500828D02*
X59468797Y-145500828D01*
X59468797Y-145500828D02*
X58683082Y-146500828D01*
X58683082Y-146500828D02*
X59468797Y-146500828D01*
X61183082Y-145500828D02*
X61183082Y-147000828D01*
X61183082Y-145572257D02*
X61325940Y-145500828D01*
X61325940Y-145500828D02*
X61611654Y-145500828D01*
X61611654Y-145500828D02*
X61754511Y-145572257D01*
X61754511Y-145572257D02*
X61825940Y-145643685D01*
X61825940Y-145643685D02*
X61897368Y-145786542D01*
X61897368Y-145786542D02*
X61897368Y-146215114D01*
X61897368Y-146215114D02*
X61825940Y-146357971D01*
X61825940Y-146357971D02*
X61754511Y-146429400D01*
X61754511Y-146429400D02*
X61611654Y-146500828D01*
X61611654Y-146500828D02*
X61325940Y-146500828D01*
X61325940Y-146500828D02*
X61183082Y-146429400D01*
X62754511Y-146500828D02*
X62611654Y-146429400D01*
X62611654Y-146429400D02*
X62540225Y-146357971D01*
X62540225Y-146357971D02*
X62468797Y-146215114D01*
X62468797Y-146215114D02*
X62468797Y-145786542D01*
X62468797Y-145786542D02*
X62540225Y-145643685D01*
X62540225Y-145643685D02*
X62611654Y-145572257D01*
X62611654Y-145572257D02*
X62754511Y-145500828D01*
X62754511Y-145500828D02*
X62968797Y-145500828D01*
X62968797Y-145500828D02*
X63111654Y-145572257D01*
X63111654Y-145572257D02*
X63183083Y-145643685D01*
X63183083Y-145643685D02*
X63254511Y-145786542D01*
X63254511Y-145786542D02*
X63254511Y-146215114D01*
X63254511Y-146215114D02*
X63183083Y-146357971D01*
X63183083Y-146357971D02*
X63111654Y-146429400D01*
X63111654Y-146429400D02*
X62968797Y-146500828D01*
X62968797Y-146500828D02*
X62754511Y-146500828D01*
X63754511Y-145500828D02*
X64540226Y-145500828D01*
X64540226Y-145500828D02*
X63754511Y-146500828D01*
X63754511Y-146500828D02*
X64540226Y-146500828D01*
X65111654Y-146500828D02*
X65111654Y-145500828D01*
X65111654Y-145000828D02*
X65040226Y-145072257D01*
X65040226Y-145072257D02*
X65111654Y-145143685D01*
X65111654Y-145143685D02*
X65183083Y-145072257D01*
X65183083Y-145072257D02*
X65111654Y-145000828D01*
X65111654Y-145000828D02*
X65111654Y-145143685D01*
X66468798Y-146429400D02*
X66325940Y-146500828D01*
X66325940Y-146500828D02*
X66040226Y-146500828D01*
X66040226Y-146500828D02*
X65897369Y-146429400D01*
X65897369Y-146429400D02*
X65825940Y-146357971D01*
X65825940Y-146357971D02*
X65754512Y-146215114D01*
X65754512Y-146215114D02*
X65754512Y-145786542D01*
X65754512Y-145786542D02*
X65825940Y-145643685D01*
X65825940Y-145643685D02*
X65897369Y-145572257D01*
X65897369Y-145572257D02*
X66040226Y-145500828D01*
X66040226Y-145500828D02*
X66325940Y-145500828D01*
X66325940Y-145500828D02*
X66468798Y-145572257D01*
X67683083Y-146429400D02*
X67540226Y-146500828D01*
X67540226Y-146500828D02*
X67254512Y-146500828D01*
X67254512Y-146500828D02*
X67111654Y-146429400D01*
X67111654Y-146429400D02*
X67040226Y-146286542D01*
X67040226Y-146286542D02*
X67040226Y-145715114D01*
X67040226Y-145715114D02*
X67111654Y-145572257D01*
X67111654Y-145572257D02*
X67254512Y-145500828D01*
X67254512Y-145500828D02*
X67540226Y-145500828D01*
X67540226Y-145500828D02*
X67683083Y-145572257D01*
X67683083Y-145572257D02*
X67754512Y-145715114D01*
X67754512Y-145715114D02*
X67754512Y-145857971D01*
X67754512Y-145857971D02*
X67040226Y-146000828D01*
X70325940Y-145072257D02*
X70183083Y-145000828D01*
X70183083Y-145000828D02*
X69968797Y-145000828D01*
X69968797Y-145000828D02*
X69754511Y-145072257D01*
X69754511Y-145072257D02*
X69611654Y-145215114D01*
X69611654Y-145215114D02*
X69540225Y-145357971D01*
X69540225Y-145357971D02*
X69468797Y-145643685D01*
X69468797Y-145643685D02*
X69468797Y-145857971D01*
X69468797Y-145857971D02*
X69540225Y-146143685D01*
X69540225Y-146143685D02*
X69611654Y-146286542D01*
X69611654Y-146286542D02*
X69754511Y-146429400D01*
X69754511Y-146429400D02*
X69968797Y-146500828D01*
X69968797Y-146500828D02*
X70111654Y-146500828D01*
X70111654Y-146500828D02*
X70325940Y-146429400D01*
X70325940Y-146429400D02*
X70397368Y-146357971D01*
X70397368Y-146357971D02*
X70397368Y-145857971D01*
X70397368Y-145857971D02*
X70111654Y-145857971D01*
X71040225Y-146500828D02*
X71040225Y-145000828D01*
X71040225Y-145000828D02*
X71897368Y-146500828D01*
X71897368Y-146500828D02*
X71897368Y-145000828D01*
X72611654Y-146500828D02*
X72611654Y-145000828D01*
X72611654Y-145000828D02*
X72968797Y-145000828D01*
X72968797Y-145000828D02*
X73183083Y-145072257D01*
X73183083Y-145072257D02*
X73325940Y-145215114D01*
X73325940Y-145215114D02*
X73397369Y-145357971D01*
X73397369Y-145357971D02*
X73468797Y-145643685D01*
X73468797Y-145643685D02*
X73468797Y-145857971D01*
X73468797Y-145857971D02*
X73397369Y-146143685D01*
X73397369Y-146143685D02*
X73325940Y-146286542D01*
X73325940Y-146286542D02*
X73183083Y-146429400D01*
X73183083Y-146429400D02*
X72968797Y-146500828D01*
X72968797Y-146500828D02*
X72611654Y-146500828D01*
X75254511Y-145929400D02*
X76397369Y-145929400D01*
X78325940Y-146500828D02*
X78611654Y-146500828D01*
X78611654Y-146500828D02*
X78754511Y-146429400D01*
X78754511Y-146429400D02*
X78825940Y-146357971D01*
X78825940Y-146357971D02*
X78968797Y-146143685D01*
X78968797Y-146143685D02*
X79040226Y-145857971D01*
X79040226Y-145857971D02*
X79040226Y-145286542D01*
X79040226Y-145286542D02*
X78968797Y-145143685D01*
X78968797Y-145143685D02*
X78897369Y-145072257D01*
X78897369Y-145072257D02*
X78754511Y-145000828D01*
X78754511Y-145000828D02*
X78468797Y-145000828D01*
X78468797Y-145000828D02*
X78325940Y-145072257D01*
X78325940Y-145072257D02*
X78254511Y-145143685D01*
X78254511Y-145143685D02*
X78183083Y-145286542D01*
X78183083Y-145286542D02*
X78183083Y-145643685D01*
X78183083Y-145643685D02*
X78254511Y-145786542D01*
X78254511Y-145786542D02*
X78325940Y-145857971D01*
X78325940Y-145857971D02*
X78468797Y-145929400D01*
X78468797Y-145929400D02*
X78754511Y-145929400D01*
X78754511Y-145929400D02*
X78897369Y-145857971D01*
X78897369Y-145857971D02*
X78968797Y-145786542D01*
X78968797Y-145786542D02*
X79040226Y-145643685D01*
X80397368Y-145000828D02*
X79683082Y-145000828D01*
X79683082Y-145000828D02*
X79611654Y-145715114D01*
X79611654Y-145715114D02*
X79683082Y-145643685D01*
X79683082Y-145643685D02*
X79825940Y-145572257D01*
X79825940Y-145572257D02*
X80183082Y-145572257D01*
X80183082Y-145572257D02*
X80325940Y-145643685D01*
X80325940Y-145643685D02*
X80397368Y-145715114D01*
X80397368Y-145715114D02*
X80468797Y-145857971D01*
X80468797Y-145857971D02*
X80468797Y-146215114D01*
X80468797Y-146215114D02*
X80397368Y-146357971D01*
X80397368Y-146357971D02*
X80325940Y-146429400D01*
X80325940Y-146429400D02*
X80183082Y-146500828D01*
X80183082Y-146500828D02*
X79825940Y-146500828D01*
X79825940Y-146500828D02*
X79683082Y-146429400D01*
X79683082Y-146429400D02*
X79611654Y-146357971D01*
X81111653Y-146500828D02*
X81111653Y-145500828D01*
X81111653Y-145643685D02*
X81183082Y-145572257D01*
X81183082Y-145572257D02*
X81325939Y-145500828D01*
X81325939Y-145500828D02*
X81540225Y-145500828D01*
X81540225Y-145500828D02*
X81683082Y-145572257D01*
X81683082Y-145572257D02*
X81754511Y-145715114D01*
X81754511Y-145715114D02*
X81754511Y-146500828D01*
X81754511Y-145715114D02*
X81825939Y-145572257D01*
X81825939Y-145572257D02*
X81968796Y-145500828D01*
X81968796Y-145500828D02*
X82183082Y-145500828D01*
X82183082Y-145500828D02*
X82325939Y-145572257D01*
X82325939Y-145572257D02*
X82397368Y-145715114D01*
X82397368Y-145715114D02*
X82397368Y-146500828D01*
X83111653Y-146500828D02*
X83111653Y-145500828D01*
X83111653Y-145643685D02*
X83183082Y-145572257D01*
X83183082Y-145572257D02*
X83325939Y-145500828D01*
X83325939Y-145500828D02*
X83540225Y-145500828D01*
X83540225Y-145500828D02*
X83683082Y-145572257D01*
X83683082Y-145572257D02*
X83754511Y-145715114D01*
X83754511Y-145715114D02*
X83754511Y-146500828D01*
X83754511Y-145715114D02*
X83825939Y-145572257D01*
X83825939Y-145572257D02*
X83968796Y-145500828D01*
X83968796Y-145500828D02*
X84183082Y-145500828D01*
X84183082Y-145500828D02*
X84325939Y-145572257D01*
X84325939Y-145572257D02*
X84397368Y-145715114D01*
X84397368Y-145715114D02*
X84397368Y-146500828D01*
D12*
X195710000Y-113555000D03*
D13*
X195710000Y-109375000D03*
D12*
X187070000Y-113555000D03*
D13*
X187070000Y-109375000D03*
D14*
X154178000Y-123190000D03*
D15*
X154178000Y-125730000D03*
X154178000Y-128270000D03*
X154178000Y-130810000D03*
X154178000Y-133350000D03*
X154178000Y-135890000D03*
X154178000Y-138430000D03*
D16*
X160470000Y-154910000D03*
D17*
X164470000Y-154910000D03*
X168470000Y-154910000D03*
X172470000Y-154910000D03*
X176470000Y-154910000D03*
X180470000Y-154910000D03*
X184470000Y-154910000D03*
X188470000Y-154910000D03*
X160470000Y-151910000D03*
X164470000Y-151910000D03*
X168470000Y-151910000D03*
X172470000Y-151910000D03*
X176470000Y-151910000D03*
X180470000Y-151910000D03*
X184470000Y-151910000D03*
X188470000Y-151910000D03*
D18*
X164211000Y-132588000D03*
X163576000Y-132969000D03*
X184658000Y-107696000D03*
X170300000Y-108100000D03*
X159800000Y-126300000D03*
X170079000Y-143357000D03*
X164100000Y-126700000D03*
X173469058Y-141677058D03*
X189950000Y-135420000D03*
X182890000Y-125950000D03*
X163703000Y-121920000D03*
X164500000Y-140570000D03*
X172790000Y-111182000D03*
X180430000Y-123490000D03*
X194691000Y-109347000D03*
X171140000Y-116657000D03*
X174760000Y-140310000D03*
X181102000Y-107442000D03*
X191850000Y-117280000D03*
X168402000Y-115570000D03*
X194818000Y-112014000D03*
X183646403Y-123374000D03*
X157861000Y-130302000D03*
X173990000Y-115570000D03*
X158480000Y-120050000D03*
X183502500Y-132827500D03*
X188236331Y-115973331D03*
X188750000Y-123280000D03*
X169030000Y-123620000D03*
X190500000Y-137200000D03*
X190500000Y-138300000D03*
X168540000Y-107880000D03*
X170960000Y-123327706D03*
X172000000Y-108200000D03*
X189400000Y-137200000D03*
X152660000Y-111760000D03*
X189960000Y-139340000D03*
X181630000Y-134570000D03*
X179900000Y-147450000D03*
X169050000Y-144390000D03*
X180790000Y-127820000D03*
X176700000Y-109600000D03*
X195960000Y-137830000D03*
X195900000Y-118700000D03*
X189400000Y-138300000D03*
X169545000Y-116586000D03*
X169490000Y-111197000D03*
X167376000Y-127040000D03*
X163830000Y-135890000D03*
X156820000Y-135500000D03*
X158496000Y-110236000D03*
X176300000Y-108300000D03*
X170930000Y-130350000D03*
X173060000Y-130250000D03*
X172900000Y-108200000D03*
X174069000Y-112220000D03*
X168529000Y-143510000D03*
X193290000Y-140860000D03*
X156845000Y-107442000D03*
X159280000Y-137210000D03*
X180000000Y-136200000D03*
X179514000Y-106870000D03*
X152660000Y-109728000D03*
X166040000Y-107645000D03*
X176821442Y-110278558D03*
X183100000Y-121200000D03*
X188490000Y-141910000D03*
X162660000Y-137160000D03*
X187960000Y-112141000D03*
X165500000Y-109100000D03*
X172820000Y-123772349D03*
X174068000Y-113870000D03*
X195750000Y-141530000D03*
X173700000Y-108300000D03*
X184430000Y-134280000D03*
X172790000Y-116643000D03*
X178585000Y-139275000D03*
X183210000Y-134390000D03*
X152660000Y-107442000D03*
X184000000Y-149400000D03*
X180740000Y-126090000D03*
X171370000Y-144450000D03*
X165800000Y-108400000D03*
X190500000Y-136300000D03*
X174500000Y-108300000D03*
X156270000Y-123140000D03*
X171140000Y-111054000D03*
X156464000Y-119126000D03*
X189230000Y-125090000D03*
X193322000Y-121578000D03*
X168323000Y-112220000D03*
X188468000Y-109474000D03*
X168451000Y-113870000D03*
X175550000Y-149650000D03*
X179406636Y-120176636D03*
X183390000Y-130180000D03*
X194070000Y-132370000D03*
X195520000Y-140090000D03*
X167680000Y-107879000D03*
X189400000Y-136300000D03*
X180910000Y-143380000D03*
X169400000Y-107900000D03*
X180990000Y-129540000D03*
X180086000Y-111379000D03*
X193100000Y-123100000D03*
X184658000Y-118745000D03*
X161417000Y-110490000D03*
X174400000Y-146800000D03*
X164846000Y-133096000D03*
X164465000Y-128778000D03*
X162179000Y-109093000D03*
X176050000Y-144660000D03*
X176826000Y-130758706D03*
X157550000Y-137230000D03*
X156845000Y-116459000D03*
X166370000Y-132334000D03*
X177300000Y-145750000D03*
X182450000Y-145650000D03*
X176100000Y-136200000D03*
X183610000Y-124700000D03*
X176310000Y-124012706D03*
X179850000Y-139360000D03*
X173910000Y-137360000D03*
X184700000Y-128500000D03*
X195045000Y-132400000D03*
X161036000Y-131699000D03*
X157180000Y-128732000D03*
X189113000Y-115824000D03*
X190845167Y-117335070D03*
X194689456Y-115205000D03*
X190119000Y-112903000D03*
X182190000Y-122520000D03*
X193469416Y-138754705D03*
X195677198Y-135772980D03*
X168148000Y-132207000D03*
X168084500Y-122805000D03*
X168656000Y-119888000D03*
X163322000Y-124333000D03*
X162750500Y-123761500D03*
X169037000Y-118999000D03*
X170200000Y-137610000D03*
X174640000Y-124370000D03*
X171450000Y-135999000D03*
X174510000Y-119620000D03*
X165862000Y-110363000D03*
X179959000Y-114300000D03*
G04 #@! TA.AperFunction,Conductor*
G36*
X196749539Y-106273185D02*
G01*
X196795294Y-106325989D01*
X196806500Y-106377500D01*
X196806500Y-108407300D01*
X196786815Y-108474339D01*
X196734011Y-108520094D01*
X196664853Y-108530038D01*
X196601297Y-108501013D01*
X196579398Y-108476191D01*
X196486751Y-108337537D01*
X196486748Y-108337533D01*
X196347466Y-108198251D01*
X196347462Y-108198248D01*
X196183684Y-108088814D01*
X196183671Y-108088807D01*
X196001691Y-108013429D01*
X196001683Y-108013427D01*
X195960000Y-108005135D01*
X195960000Y-108808011D01*
X195950060Y-108790795D01*
X195894205Y-108734940D01*
X195825796Y-108695444D01*
X195749496Y-108675000D01*
X195670504Y-108675000D01*
X195594204Y-108695444D01*
X195525795Y-108734940D01*
X195469940Y-108790795D01*
X195460000Y-108808011D01*
X195460000Y-108005136D01*
X195459999Y-108005135D01*
X195418316Y-108013427D01*
X195418308Y-108013429D01*
X195236328Y-108088807D01*
X195236315Y-108088814D01*
X195072537Y-108198248D01*
X195072533Y-108198251D01*
X194933251Y-108337533D01*
X194933248Y-108337537D01*
X194823814Y-108501315D01*
X194823807Y-108501328D01*
X194748430Y-108683306D01*
X194748427Y-108683318D01*
X194710000Y-108876504D01*
X194710000Y-109125000D01*
X195410000Y-109125000D01*
X195410000Y-109625000D01*
X194710000Y-109625000D01*
X194710000Y-109873495D01*
X194748427Y-110066681D01*
X194748430Y-110066693D01*
X194823807Y-110248671D01*
X194823814Y-110248684D01*
X194933248Y-110412462D01*
X194933251Y-110412466D01*
X195072533Y-110551748D01*
X195072537Y-110551751D01*
X195236315Y-110661185D01*
X195236328Y-110661192D01*
X195418308Y-110736569D01*
X195460000Y-110744862D01*
X195460000Y-109941988D01*
X195469940Y-109959205D01*
X195525795Y-110015060D01*
X195594204Y-110054556D01*
X195670504Y-110075000D01*
X195749496Y-110075000D01*
X195825796Y-110054556D01*
X195894205Y-110015060D01*
X195950060Y-109959205D01*
X195960000Y-109941988D01*
X195960000Y-110744862D01*
X196001690Y-110736569D01*
X196001692Y-110736569D01*
X196183671Y-110661192D01*
X196183684Y-110661185D01*
X196347462Y-110551751D01*
X196347466Y-110551748D01*
X196486748Y-110412466D01*
X196486751Y-110412462D01*
X196579398Y-110273808D01*
X196633010Y-110229003D01*
X196702335Y-110220296D01*
X196765363Y-110250451D01*
X196802082Y-110309894D01*
X196806500Y-110342699D01*
X196806500Y-112437300D01*
X196786815Y-112504339D01*
X196734011Y-112550094D01*
X196664853Y-112560038D01*
X196601297Y-112531013D01*
X196579398Y-112506191D01*
X196486751Y-112367537D01*
X196486748Y-112367533D01*
X196347466Y-112228251D01*
X196347462Y-112228248D01*
X196183684Y-112118814D01*
X196183671Y-112118807D01*
X196001691Y-112043429D01*
X196001683Y-112043427D01*
X195960000Y-112035135D01*
X195960000Y-112838011D01*
X195950060Y-112820795D01*
X195894205Y-112764940D01*
X195825796Y-112725444D01*
X195749496Y-112705000D01*
X195670504Y-112705000D01*
X195594204Y-112725444D01*
X195525795Y-112764940D01*
X195469940Y-112820795D01*
X195460000Y-112838011D01*
X195460000Y-112035136D01*
X195459999Y-112035135D01*
X195418316Y-112043427D01*
X195418308Y-112043429D01*
X195236328Y-112118807D01*
X195236315Y-112118814D01*
X195072537Y-112228248D01*
X195072533Y-112228251D01*
X194933251Y-112367533D01*
X194933248Y-112367537D01*
X194823814Y-112531315D01*
X194823809Y-112531324D01*
X194819866Y-112540845D01*
X194776023Y-112595247D01*
X194709728Y-112617310D01*
X194642030Y-112600029D01*
X194636597Y-112596351D01*
X194502136Y-112518719D01*
X194428950Y-112499109D01*
X194355766Y-112479500D01*
X194204234Y-112479500D01*
X194057863Y-112518719D01*
X193926635Y-112594485D01*
X193926632Y-112594487D01*
X193819487Y-112701632D01*
X193819485Y-112701635D01*
X193743719Y-112832863D01*
X193704500Y-112979234D01*
X193704500Y-113130765D01*
X193743719Y-113277136D01*
X193759807Y-113305000D01*
X193819485Y-113408365D01*
X193926635Y-113515515D01*
X194057865Y-113591281D01*
X194204234Y-113630500D01*
X194204236Y-113630500D01*
X194355764Y-113630500D01*
X194355766Y-113630500D01*
X194502135Y-113591281D01*
X194633365Y-113515515D01*
X194740515Y-113408365D01*
X194764397Y-113366999D01*
X194814964Y-113318784D01*
X194871784Y-113305000D01*
X195410000Y-113305000D01*
X195410000Y-113805000D01*
X194710000Y-113805000D01*
X194710000Y-114203495D01*
X194748427Y-114396681D01*
X194748429Y-114396689D01*
X194784200Y-114483047D01*
X194791669Y-114552516D01*
X194760394Y-114614996D01*
X194700305Y-114650648D01*
X194669639Y-114654500D01*
X194616981Y-114654500D01*
X194488449Y-114688940D01*
X194476967Y-114692017D01*
X194351444Y-114764488D01*
X194351438Y-114764493D01*
X194248949Y-114866982D01*
X194248944Y-114866988D01*
X194176473Y-114992511D01*
X194176472Y-114992515D01*
X194138956Y-115132525D01*
X194138956Y-115277475D01*
X194167364Y-115383493D01*
X194176473Y-115417488D01*
X194248944Y-115543011D01*
X194248946Y-115543013D01*
X194248947Y-115543015D01*
X194351441Y-115645509D01*
X194351442Y-115645510D01*
X194351444Y-115645511D01*
X194476967Y-115717982D01*
X194476968Y-115717982D01*
X194476971Y-115717984D01*
X194616981Y-115755500D01*
X194616984Y-115755500D01*
X194761928Y-115755500D01*
X194761931Y-115755500D01*
X194901941Y-115717984D01*
X195027471Y-115645509D01*
X195129965Y-115543015D01*
X195202440Y-115417485D01*
X195239956Y-115277475D01*
X195239956Y-115178272D01*
X195259641Y-115111233D01*
X195312445Y-115065478D01*
X195381603Y-115055534D01*
X195411413Y-115063713D01*
X195418309Y-115066570D01*
X195460000Y-115074862D01*
X195460000Y-114271988D01*
X195469940Y-114289205D01*
X195525795Y-114345060D01*
X195594204Y-114384556D01*
X195670504Y-114405000D01*
X195749496Y-114405000D01*
X195825796Y-114384556D01*
X195894205Y-114345060D01*
X195950060Y-114289205D01*
X195960000Y-114271988D01*
X195960000Y-115074862D01*
X196001690Y-115066569D01*
X196001692Y-115066569D01*
X196183671Y-114991192D01*
X196183684Y-114991185D01*
X196347462Y-114881751D01*
X196347466Y-114881748D01*
X196486748Y-114742466D01*
X196486751Y-114742462D01*
X196579398Y-114603808D01*
X196633010Y-114559003D01*
X196702335Y-114550296D01*
X196765363Y-114580451D01*
X196802082Y-114639894D01*
X196806500Y-114672699D01*
X196806500Y-156172500D01*
X196786815Y-156239539D01*
X196734011Y-156285294D01*
X196682500Y-156296500D01*
X189496081Y-156296500D01*
X189429042Y-156276815D01*
X189383287Y-156224011D01*
X189373343Y-156154853D01*
X189402368Y-156091297D01*
X189423196Y-156072182D01*
X189447510Y-156054517D01*
X189614517Y-155887510D01*
X189753343Y-155696433D01*
X189860568Y-155485992D01*
X189933553Y-155261368D01*
X189970500Y-155028097D01*
X189970500Y-154791902D01*
X189933553Y-154558631D01*
X189860566Y-154334003D01*
X189753342Y-154123566D01*
X189614517Y-153932490D01*
X189447510Y-153765483D01*
X189256433Y-153626657D01*
X189048057Y-153520484D01*
X188997262Y-153472511D01*
X188980467Y-153404690D01*
X189003004Y-153338555D01*
X189048057Y-153299515D01*
X189256433Y-153193343D01*
X189447510Y-153054517D01*
X189614517Y-152887510D01*
X189753343Y-152696433D01*
X189860568Y-152485992D01*
X189933553Y-152261368D01*
X189944443Y-152192610D01*
X189970500Y-152028097D01*
X189970500Y-151791902D01*
X189933553Y-151558631D01*
X189860566Y-151334003D01*
X189753342Y-151123566D01*
X189614517Y-150932490D01*
X189447510Y-150765483D01*
X189256433Y-150626657D01*
X189045996Y-150519433D01*
X188821368Y-150446446D01*
X188588097Y-150409500D01*
X188588092Y-150409500D01*
X188351908Y-150409500D01*
X188351903Y-150409500D01*
X188118631Y-150446446D01*
X187894003Y-150519433D01*
X187683566Y-150626657D01*
X187632470Y-150663781D01*
X187492490Y-150765483D01*
X187492488Y-150765485D01*
X187492487Y-150765485D01*
X187325485Y-150932487D01*
X187325485Y-150932488D01*
X187325483Y-150932490D01*
X187267878Y-151011776D01*
X187186657Y-151123566D01*
X187079433Y-151334003D01*
X187006446Y-151558631D01*
X186969500Y-151791902D01*
X186969500Y-152028097D01*
X187006446Y-152261368D01*
X187079433Y-152485996D01*
X187149387Y-152623287D01*
X187186657Y-152696433D01*
X187325483Y-152887510D01*
X187492490Y-153054517D01*
X187683567Y-153193343D01*
X187829801Y-153267853D01*
X187891941Y-153299515D01*
X187942737Y-153347490D01*
X187959532Y-153415311D01*
X187936995Y-153481446D01*
X187891941Y-153520485D01*
X187683566Y-153626657D01*
X187574550Y-153705862D01*
X187492490Y-153765483D01*
X187492488Y-153765485D01*
X187492487Y-153765485D01*
X187325485Y-153932487D01*
X187325485Y-153932488D01*
X187325483Y-153932490D01*
X187265862Y-154014550D01*
X187186657Y-154123566D01*
X187079433Y-154334003D01*
X187006446Y-154558631D01*
X186969500Y-154791902D01*
X186969500Y-155028097D01*
X187006446Y-155261368D01*
X187079433Y-155485996D01*
X187186657Y-155696433D01*
X187325483Y-155887510D01*
X187492490Y-156054517D01*
X187492493Y-156054519D01*
X187516804Y-156072182D01*
X187559470Y-156127511D01*
X187565449Y-156197125D01*
X187532844Y-156258920D01*
X187472005Y-156293277D01*
X187443919Y-156296500D01*
X185496081Y-156296500D01*
X185429042Y-156276815D01*
X185383287Y-156224011D01*
X185373343Y-156154853D01*
X185402368Y-156091297D01*
X185423196Y-156072182D01*
X185447510Y-156054517D01*
X185614517Y-155887510D01*
X185753343Y-155696433D01*
X185860568Y-155485992D01*
X185933553Y-155261368D01*
X185970500Y-155028097D01*
X185970500Y-154791902D01*
X185933553Y-154558631D01*
X185860566Y-154334003D01*
X185753342Y-154123566D01*
X185614517Y-153932490D01*
X185447510Y-153765483D01*
X185256433Y-153626657D01*
X185048057Y-153520484D01*
X184997262Y-153472511D01*
X184980467Y-153404690D01*
X185003004Y-153338555D01*
X185048057Y-153299515D01*
X185256433Y-153193343D01*
X185447510Y-153054517D01*
X185614517Y-152887510D01*
X185753343Y-152696433D01*
X185860568Y-152485992D01*
X185933553Y-152261368D01*
X185944443Y-152192610D01*
X185970500Y-152028097D01*
X185970500Y-151791902D01*
X185933553Y-151558631D01*
X185860566Y-151334003D01*
X185753342Y-151123566D01*
X185614517Y-150932490D01*
X185447510Y-150765483D01*
X185256433Y-150626657D01*
X185045996Y-150519433D01*
X184821368Y-150446446D01*
X184588097Y-150409500D01*
X184588092Y-150409500D01*
X184351908Y-150409500D01*
X184351903Y-150409500D01*
X184118631Y-150446446D01*
X183894003Y-150519433D01*
X183683566Y-150626657D01*
X183632470Y-150663781D01*
X183492490Y-150765483D01*
X183492488Y-150765485D01*
X183492487Y-150765485D01*
X183325485Y-150932487D01*
X183325485Y-150932488D01*
X183325483Y-150932490D01*
X183267878Y-151011776D01*
X183186657Y-151123566D01*
X183079433Y-151334003D01*
X183006446Y-151558631D01*
X182969500Y-151791902D01*
X182969500Y-152028097D01*
X183006446Y-152261368D01*
X183079433Y-152485996D01*
X183149387Y-152623287D01*
X183186657Y-152696433D01*
X183325483Y-152887510D01*
X183492490Y-153054517D01*
X183683567Y-153193343D01*
X183829801Y-153267853D01*
X183891941Y-153299515D01*
X183942737Y-153347490D01*
X183959532Y-153415311D01*
X183936995Y-153481446D01*
X183891941Y-153520485D01*
X183683566Y-153626657D01*
X183574550Y-153705862D01*
X183492490Y-153765483D01*
X183492488Y-153765485D01*
X183492487Y-153765485D01*
X183325485Y-153932487D01*
X183325485Y-153932488D01*
X183325483Y-153932490D01*
X183265862Y-154014550D01*
X183186657Y-154123566D01*
X183079433Y-154334003D01*
X183006446Y-154558631D01*
X182969500Y-154791902D01*
X182969500Y-155028097D01*
X183006446Y-155261368D01*
X183079433Y-155485996D01*
X183186657Y-155696433D01*
X183325483Y-155887510D01*
X183492490Y-156054517D01*
X183492493Y-156054519D01*
X183516804Y-156072182D01*
X183559470Y-156127511D01*
X183565449Y-156197125D01*
X183532844Y-156258920D01*
X183472005Y-156293277D01*
X183443919Y-156296500D01*
X181496081Y-156296500D01*
X181429042Y-156276815D01*
X181383287Y-156224011D01*
X181373343Y-156154853D01*
X181402368Y-156091297D01*
X181423196Y-156072182D01*
X181447510Y-156054517D01*
X181614517Y-155887510D01*
X181753343Y-155696433D01*
X181860568Y-155485992D01*
X181933553Y-155261368D01*
X181970500Y-155028097D01*
X181970500Y-154791902D01*
X181933553Y-154558631D01*
X181860566Y-154334003D01*
X181753342Y-154123566D01*
X181614517Y-153932490D01*
X181447510Y-153765483D01*
X181256433Y-153626657D01*
X181048057Y-153520484D01*
X180997262Y-153472511D01*
X180980467Y-153404690D01*
X181003004Y-153338555D01*
X181048057Y-153299515D01*
X181256433Y-153193343D01*
X181447510Y-153054517D01*
X181614517Y-152887510D01*
X181753343Y-152696433D01*
X181860568Y-152485992D01*
X181933553Y-152261368D01*
X181944443Y-152192610D01*
X181970500Y-152028097D01*
X181970500Y-151791902D01*
X181933553Y-151558631D01*
X181860566Y-151334003D01*
X181753342Y-151123566D01*
X181614517Y-150932490D01*
X181447510Y-150765483D01*
X181256433Y-150626657D01*
X181045996Y-150519433D01*
X180821368Y-150446446D01*
X180588097Y-150409500D01*
X180588092Y-150409500D01*
X180351908Y-150409500D01*
X180351903Y-150409500D01*
X180118631Y-150446446D01*
X179894003Y-150519433D01*
X179683566Y-150626657D01*
X179632470Y-150663781D01*
X179492490Y-150765483D01*
X179492488Y-150765485D01*
X179492487Y-150765485D01*
X179325485Y-150932487D01*
X179325485Y-150932488D01*
X179325483Y-150932490D01*
X179267878Y-151011776D01*
X179186657Y-151123566D01*
X179079433Y-151334003D01*
X179006446Y-151558631D01*
X178969500Y-151791902D01*
X178969500Y-152028097D01*
X179006446Y-152261368D01*
X179079433Y-152485996D01*
X179149387Y-152623287D01*
X179186657Y-152696433D01*
X179325483Y-152887510D01*
X179492490Y-153054517D01*
X179683567Y-153193343D01*
X179829801Y-153267853D01*
X179891941Y-153299515D01*
X179942737Y-153347490D01*
X179959532Y-153415311D01*
X179936995Y-153481446D01*
X179891941Y-153520485D01*
X179683566Y-153626657D01*
X179574550Y-153705862D01*
X179492490Y-153765483D01*
X179492488Y-153765485D01*
X179492487Y-153765485D01*
X179325485Y-153932487D01*
X179325485Y-153932488D01*
X179325483Y-153932490D01*
X179265862Y-154014550D01*
X179186657Y-154123566D01*
X179079433Y-154334003D01*
X179006446Y-154558631D01*
X178969500Y-154791902D01*
X178969500Y-155028097D01*
X179006446Y-155261368D01*
X179079433Y-155485996D01*
X179186657Y-155696433D01*
X179325483Y-155887510D01*
X179492490Y-156054517D01*
X179492493Y-156054519D01*
X179516804Y-156072182D01*
X179559470Y-156127511D01*
X179565449Y-156197125D01*
X179532844Y-156258920D01*
X179472005Y-156293277D01*
X179443919Y-156296500D01*
X177496081Y-156296500D01*
X177429042Y-156276815D01*
X177383287Y-156224011D01*
X177373343Y-156154853D01*
X177402368Y-156091297D01*
X177423196Y-156072182D01*
X177447510Y-156054517D01*
X177614517Y-155887510D01*
X177753343Y-155696433D01*
X177860568Y-155485992D01*
X177933553Y-155261368D01*
X177970500Y-155028097D01*
X177970500Y-154791902D01*
X177933553Y-154558631D01*
X177860566Y-154334003D01*
X177753342Y-154123566D01*
X177614517Y-153932490D01*
X177447510Y-153765483D01*
X177256433Y-153626657D01*
X177048057Y-153520484D01*
X176997262Y-153472511D01*
X176980467Y-153404690D01*
X177003004Y-153338555D01*
X177048057Y-153299515D01*
X177256433Y-153193343D01*
X177447510Y-153054517D01*
X177614517Y-152887510D01*
X177753343Y-152696433D01*
X177860568Y-152485992D01*
X177933553Y-152261368D01*
X177944443Y-152192610D01*
X177970500Y-152028097D01*
X177970500Y-151791902D01*
X177933553Y-151558631D01*
X177860566Y-151334003D01*
X177753342Y-151123566D01*
X177614517Y-150932490D01*
X177447510Y-150765483D01*
X177256433Y-150626657D01*
X177045996Y-150519433D01*
X176821368Y-150446446D01*
X176588097Y-150409500D01*
X176588092Y-150409500D01*
X176351908Y-150409500D01*
X176351903Y-150409500D01*
X176118631Y-150446446D01*
X175894003Y-150519433D01*
X175683566Y-150626657D01*
X175632470Y-150663781D01*
X175492490Y-150765483D01*
X175492488Y-150765485D01*
X175492487Y-150765485D01*
X175325485Y-150932487D01*
X175325485Y-150932488D01*
X175325483Y-150932490D01*
X175267878Y-151011776D01*
X175186657Y-151123566D01*
X175079433Y-151334003D01*
X175006446Y-151558631D01*
X174969500Y-151791902D01*
X174969500Y-152028097D01*
X175006446Y-152261368D01*
X175079433Y-152485996D01*
X175149387Y-152623287D01*
X175186657Y-152696433D01*
X175325483Y-152887510D01*
X175492490Y-153054517D01*
X175683567Y-153193343D01*
X175829801Y-153267853D01*
X175891941Y-153299515D01*
X175942737Y-153347490D01*
X175959532Y-153415311D01*
X175936995Y-153481446D01*
X175891941Y-153520485D01*
X175683566Y-153626657D01*
X175574550Y-153705862D01*
X175492490Y-153765483D01*
X175492488Y-153765485D01*
X175492487Y-153765485D01*
X175325485Y-153932487D01*
X175325485Y-153932488D01*
X175325483Y-153932490D01*
X175265862Y-154014550D01*
X175186657Y-154123566D01*
X175079433Y-154334003D01*
X175006446Y-154558631D01*
X174969500Y-154791902D01*
X174969500Y-155028097D01*
X175006446Y-155261368D01*
X175079433Y-155485996D01*
X175186657Y-155696433D01*
X175325483Y-155887510D01*
X175492490Y-156054517D01*
X175492493Y-156054519D01*
X175516804Y-156072182D01*
X175559470Y-156127511D01*
X175565449Y-156197125D01*
X175532844Y-156258920D01*
X175472005Y-156293277D01*
X175443919Y-156296500D01*
X173496081Y-156296500D01*
X173429042Y-156276815D01*
X173383287Y-156224011D01*
X173373343Y-156154853D01*
X173402368Y-156091297D01*
X173423196Y-156072182D01*
X173447510Y-156054517D01*
X173614517Y-155887510D01*
X173753343Y-155696433D01*
X173860568Y-155485992D01*
X173933553Y-155261368D01*
X173970500Y-155028097D01*
X173970500Y-154791902D01*
X173933553Y-154558631D01*
X173860566Y-154334003D01*
X173753342Y-154123566D01*
X173614517Y-153932490D01*
X173447510Y-153765483D01*
X173256433Y-153626657D01*
X173048057Y-153520484D01*
X172997262Y-153472511D01*
X172980467Y-153404690D01*
X173003004Y-153338555D01*
X173048057Y-153299515D01*
X173256433Y-153193343D01*
X173447510Y-153054517D01*
X173614517Y-152887510D01*
X173753343Y-152696433D01*
X173860568Y-152485992D01*
X173933553Y-152261368D01*
X173944443Y-152192610D01*
X173970500Y-152028097D01*
X173970500Y-151791902D01*
X173933553Y-151558631D01*
X173860566Y-151334003D01*
X173753342Y-151123566D01*
X173614517Y-150932490D01*
X173447510Y-150765483D01*
X173256433Y-150626657D01*
X173045996Y-150519433D01*
X172821368Y-150446446D01*
X172588097Y-150409500D01*
X172588092Y-150409500D01*
X172351908Y-150409500D01*
X172351903Y-150409500D01*
X172118631Y-150446446D01*
X171894003Y-150519433D01*
X171683566Y-150626657D01*
X171632470Y-150663781D01*
X171492490Y-150765483D01*
X171492488Y-150765485D01*
X171492487Y-150765485D01*
X171325485Y-150932487D01*
X171325485Y-150932488D01*
X171325483Y-150932490D01*
X171267878Y-151011776D01*
X171186657Y-151123566D01*
X171079433Y-151334003D01*
X171006446Y-151558631D01*
X170969500Y-151791902D01*
X170969500Y-152028097D01*
X171006446Y-152261368D01*
X171079433Y-152485996D01*
X171149387Y-152623287D01*
X171186657Y-152696433D01*
X171325483Y-152887510D01*
X171492490Y-153054517D01*
X171683567Y-153193343D01*
X171829801Y-153267853D01*
X171891941Y-153299515D01*
X171942737Y-153347490D01*
X171959532Y-153415311D01*
X171936995Y-153481446D01*
X171891941Y-153520485D01*
X171683566Y-153626657D01*
X171574550Y-153705862D01*
X171492490Y-153765483D01*
X171492488Y-153765485D01*
X171492487Y-153765485D01*
X171325485Y-153932487D01*
X171325485Y-153932488D01*
X171325483Y-153932490D01*
X171265862Y-154014550D01*
X171186657Y-154123566D01*
X171079433Y-154334003D01*
X171006446Y-154558631D01*
X170969500Y-154791902D01*
X170969500Y-155028097D01*
X171006446Y-155261368D01*
X171079433Y-155485996D01*
X171186657Y-155696433D01*
X171325483Y-155887510D01*
X171492490Y-156054517D01*
X171492493Y-156054519D01*
X171516804Y-156072182D01*
X171559470Y-156127511D01*
X171565449Y-156197125D01*
X171532844Y-156258920D01*
X171472005Y-156293277D01*
X171443919Y-156296500D01*
X169496081Y-156296500D01*
X169429042Y-156276815D01*
X169383287Y-156224011D01*
X169373343Y-156154853D01*
X169402368Y-156091297D01*
X169423196Y-156072182D01*
X169447510Y-156054517D01*
X169614517Y-155887510D01*
X169753343Y-155696433D01*
X169860568Y-155485992D01*
X169933553Y-155261368D01*
X169970500Y-155028097D01*
X169970500Y-154791902D01*
X169933553Y-154558631D01*
X169860566Y-154334003D01*
X169753342Y-154123566D01*
X169614517Y-153932490D01*
X169447510Y-153765483D01*
X169256433Y-153626657D01*
X169048057Y-153520484D01*
X168997262Y-153472511D01*
X168980467Y-153404690D01*
X169003004Y-153338555D01*
X169048057Y-153299515D01*
X169256433Y-153193343D01*
X169447510Y-153054517D01*
X169614517Y-152887510D01*
X169753343Y-152696433D01*
X169860568Y-152485992D01*
X169933553Y-152261368D01*
X169944443Y-152192610D01*
X169970500Y-152028097D01*
X169970500Y-151791902D01*
X169933553Y-151558631D01*
X169860566Y-151334003D01*
X169753342Y-151123566D01*
X169614517Y-150932490D01*
X169447510Y-150765483D01*
X169256433Y-150626657D01*
X169045996Y-150519433D01*
X168821368Y-150446446D01*
X168588097Y-150409500D01*
X168588092Y-150409500D01*
X168351908Y-150409500D01*
X168351903Y-150409500D01*
X168118631Y-150446446D01*
X167894003Y-150519433D01*
X167683566Y-150626657D01*
X167632470Y-150663781D01*
X167492490Y-150765483D01*
X167492488Y-150765485D01*
X167492487Y-150765485D01*
X167325485Y-150932487D01*
X167325485Y-150932488D01*
X167325483Y-150932490D01*
X167267878Y-151011776D01*
X167186657Y-151123566D01*
X167079433Y-151334003D01*
X167006446Y-151558631D01*
X166969500Y-151791902D01*
X166969500Y-152028097D01*
X167006446Y-152261368D01*
X167079433Y-152485996D01*
X167149387Y-152623287D01*
X167186657Y-152696433D01*
X167325483Y-152887510D01*
X167492490Y-153054517D01*
X167683567Y-153193343D01*
X167829801Y-153267853D01*
X167891941Y-153299515D01*
X167942737Y-153347490D01*
X167959532Y-153415311D01*
X167936995Y-153481446D01*
X167891941Y-153520485D01*
X167683566Y-153626657D01*
X167574550Y-153705862D01*
X167492490Y-153765483D01*
X167492488Y-153765485D01*
X167492487Y-153765485D01*
X167325485Y-153932487D01*
X167325485Y-153932488D01*
X167325483Y-153932490D01*
X167265862Y-154014550D01*
X167186657Y-154123566D01*
X167079433Y-154334003D01*
X167006446Y-154558631D01*
X166969500Y-154791902D01*
X166969500Y-155028097D01*
X167006446Y-155261368D01*
X167079433Y-155485996D01*
X167186657Y-155696433D01*
X167325483Y-155887510D01*
X167492490Y-156054517D01*
X167492493Y-156054519D01*
X167516804Y-156072182D01*
X167559470Y-156127511D01*
X167565449Y-156197125D01*
X167532844Y-156258920D01*
X167472005Y-156293277D01*
X167443919Y-156296500D01*
X165496081Y-156296500D01*
X165429042Y-156276815D01*
X165383287Y-156224011D01*
X165373343Y-156154853D01*
X165402368Y-156091297D01*
X165423196Y-156072182D01*
X165447510Y-156054517D01*
X165614517Y-155887510D01*
X165753343Y-155696433D01*
X165860568Y-155485992D01*
X165933553Y-155261368D01*
X165970500Y-155028097D01*
X165970500Y-154791902D01*
X165933553Y-154558631D01*
X165860566Y-154334003D01*
X165753342Y-154123566D01*
X165614517Y-153932490D01*
X165447510Y-153765483D01*
X165256433Y-153626657D01*
X165048057Y-153520484D01*
X164997262Y-153472511D01*
X164980467Y-153404690D01*
X165003004Y-153338555D01*
X165048057Y-153299515D01*
X165256433Y-153193343D01*
X165447510Y-153054517D01*
X165614517Y-152887510D01*
X165753343Y-152696433D01*
X165860568Y-152485992D01*
X165933553Y-152261368D01*
X165944443Y-152192610D01*
X165970500Y-152028097D01*
X165970500Y-151791902D01*
X165933553Y-151558631D01*
X165860566Y-151334003D01*
X165753342Y-151123566D01*
X165614517Y-150932490D01*
X165447510Y-150765483D01*
X165256433Y-150626657D01*
X165045996Y-150519433D01*
X164821368Y-150446446D01*
X164588097Y-150409500D01*
X164588092Y-150409500D01*
X164351908Y-150409500D01*
X164351903Y-150409500D01*
X164118631Y-150446446D01*
X163894003Y-150519433D01*
X163683566Y-150626657D01*
X163632470Y-150663781D01*
X163492490Y-150765483D01*
X163492488Y-150765485D01*
X163492487Y-150765485D01*
X163325485Y-150932487D01*
X163325485Y-150932488D01*
X163325483Y-150932490D01*
X163267878Y-151011776D01*
X163186657Y-151123566D01*
X163079433Y-151334003D01*
X163006446Y-151558631D01*
X162969500Y-151791902D01*
X162969500Y-152028097D01*
X163006446Y-152261368D01*
X163079433Y-152485996D01*
X163149387Y-152623287D01*
X163186657Y-152696433D01*
X163325483Y-152887510D01*
X163492490Y-153054517D01*
X163683567Y-153193343D01*
X163829801Y-153267853D01*
X163891941Y-153299515D01*
X163942737Y-153347490D01*
X163959532Y-153415311D01*
X163936995Y-153481446D01*
X163891941Y-153520485D01*
X163683566Y-153626657D01*
X163574550Y-153705862D01*
X163492490Y-153765483D01*
X163492488Y-153765485D01*
X163492487Y-153765485D01*
X163325485Y-153932487D01*
X163325485Y-153932488D01*
X163325483Y-153932490D01*
X163265862Y-154014550D01*
X163186657Y-154123566D01*
X163079433Y-154334003D01*
X163006446Y-154558631D01*
X162969500Y-154791902D01*
X162969500Y-155028097D01*
X163006446Y-155261368D01*
X163079433Y-155485996D01*
X163186657Y-155696433D01*
X163325483Y-155887510D01*
X163492490Y-156054517D01*
X163492493Y-156054519D01*
X163516804Y-156072182D01*
X163559470Y-156127511D01*
X163565449Y-156197125D01*
X163532844Y-156258920D01*
X163472005Y-156293277D01*
X163443919Y-156296500D01*
X162094500Y-156296500D01*
X162027461Y-156276815D01*
X161981706Y-156224011D01*
X161970500Y-156172500D01*
X161970500Y-153635323D01*
X161970499Y-153635321D01*
X161955967Y-153562264D01*
X161955966Y-153562260D01*
X161928053Y-153520485D01*
X161900601Y-153479399D01*
X161817740Y-153424034D01*
X161817739Y-153424033D01*
X161817735Y-153424032D01*
X161744677Y-153409500D01*
X161744674Y-153409500D01*
X161340551Y-153409500D01*
X161273512Y-153389815D01*
X161227757Y-153337011D01*
X161217813Y-153267853D01*
X161246838Y-153204297D01*
X161267662Y-153185184D01*
X161447510Y-153054517D01*
X161614517Y-152887510D01*
X161753343Y-152696433D01*
X161860568Y-152485992D01*
X161933553Y-152261368D01*
X161944443Y-152192610D01*
X161970500Y-152028097D01*
X161970500Y-151791902D01*
X161933553Y-151558631D01*
X161860566Y-151334003D01*
X161753342Y-151123566D01*
X161614517Y-150932490D01*
X161447510Y-150765483D01*
X161256433Y-150626657D01*
X161045996Y-150519433D01*
X160821368Y-150446446D01*
X160588097Y-150409500D01*
X160588092Y-150409500D01*
X160351908Y-150409500D01*
X160351903Y-150409500D01*
X160118631Y-150446446D01*
X159894003Y-150519433D01*
X159683566Y-150626657D01*
X159632470Y-150663781D01*
X159492490Y-150765483D01*
X159492488Y-150765485D01*
X159492487Y-150765485D01*
X159325485Y-150932487D01*
X159325485Y-150932488D01*
X159325483Y-150932490D01*
X159267878Y-151011776D01*
X159186657Y-151123566D01*
X159079433Y-151334003D01*
X159006446Y-151558631D01*
X158969500Y-151791902D01*
X158969500Y-152028097D01*
X159006446Y-152261368D01*
X159079433Y-152485996D01*
X159149387Y-152623287D01*
X159186657Y-152696433D01*
X159325483Y-152887510D01*
X159492490Y-153054517D01*
X159672335Y-153185183D01*
X159715000Y-153240512D01*
X159720979Y-153310126D01*
X159688373Y-153371920D01*
X159627534Y-153406278D01*
X159599449Y-153409500D01*
X159195323Y-153409500D01*
X159122264Y-153424032D01*
X159122260Y-153424033D01*
X159039399Y-153479399D01*
X158984033Y-153562260D01*
X158984032Y-153562264D01*
X158969500Y-153635321D01*
X158969500Y-156172500D01*
X158949815Y-156239539D01*
X158897011Y-156285294D01*
X158845500Y-156296500D01*
X152480500Y-156296500D01*
X152413461Y-156276815D01*
X152367706Y-156224011D01*
X152356500Y-156172500D01*
X152356500Y-151408648D01*
X154655500Y-151408648D01*
X154655500Y-151613351D01*
X154687522Y-151815534D01*
X154750781Y-152010223D01*
X154843715Y-152192613D01*
X154964028Y-152358213D01*
X155108786Y-152502971D01*
X155263749Y-152615556D01*
X155274390Y-152623287D01*
X155390607Y-152682503D01*
X155456776Y-152716218D01*
X155456778Y-152716218D01*
X155456781Y-152716220D01*
X155561137Y-152750127D01*
X155651465Y-152779477D01*
X155752557Y-152795488D01*
X155853648Y-152811500D01*
X155853649Y-152811500D01*
X156058351Y-152811500D01*
X156058352Y-152811500D01*
X156260534Y-152779477D01*
X156455219Y-152716220D01*
X156637610Y-152623287D01*
X156730590Y-152555732D01*
X156803213Y-152502971D01*
X156803215Y-152502968D01*
X156803219Y-152502966D01*
X156947966Y-152358219D01*
X156947968Y-152358215D01*
X156947971Y-152358213D01*
X157018332Y-152261368D01*
X157068287Y-152192610D01*
X157161220Y-152010219D01*
X157224477Y-151815534D01*
X157256500Y-151613352D01*
X157256500Y-151408648D01*
X157224477Y-151206466D01*
X157197541Y-151123567D01*
X157161218Y-151011776D01*
X157120818Y-150932487D01*
X157068287Y-150829390D01*
X157021858Y-150765485D01*
X156947971Y-150663786D01*
X156803213Y-150519028D01*
X156637613Y-150398715D01*
X156637612Y-150398714D01*
X156637610Y-150398713D01*
X156580653Y-150369691D01*
X156455223Y-150305781D01*
X156260534Y-150242522D01*
X156085995Y-150214878D01*
X156058352Y-150210500D01*
X155853648Y-150210500D01*
X155829329Y-150214351D01*
X155651465Y-150242522D01*
X155456776Y-150305781D01*
X155274386Y-150398715D01*
X155108786Y-150519028D01*
X154964028Y-150663786D01*
X154843715Y-150829386D01*
X154750781Y-151011776D01*
X154687522Y-151206465D01*
X154655500Y-151408648D01*
X152356500Y-151408648D01*
X152356500Y-146727525D01*
X173849500Y-146727525D01*
X173849500Y-146872475D01*
X173887016Y-147012485D01*
X173887017Y-147012488D01*
X173959488Y-147138011D01*
X173959490Y-147138013D01*
X173959491Y-147138015D01*
X174061985Y-147240509D01*
X174061986Y-147240510D01*
X174061988Y-147240511D01*
X174187511Y-147312982D01*
X174187512Y-147312982D01*
X174187515Y-147312984D01*
X174327525Y-147350500D01*
X174327528Y-147350500D01*
X174472472Y-147350500D01*
X174472475Y-147350500D01*
X174612485Y-147312984D01*
X174738015Y-147240509D01*
X174840509Y-147138015D01*
X174912984Y-147012485D01*
X174950500Y-146872475D01*
X174950500Y-146727525D01*
X174912984Y-146587515D01*
X174840509Y-146461985D01*
X174738015Y-146359491D01*
X174738013Y-146359490D01*
X174738011Y-146359488D01*
X174612488Y-146287017D01*
X174612489Y-146287017D01*
X174601006Y-146283940D01*
X174472475Y-146249500D01*
X174327525Y-146249500D01*
X174198993Y-146283940D01*
X174187511Y-146287017D01*
X174061988Y-146359488D01*
X174061982Y-146359493D01*
X173959493Y-146461982D01*
X173959488Y-146461988D01*
X173887017Y-146587511D01*
X173887016Y-146587515D01*
X173849500Y-146727525D01*
X152356500Y-146727525D01*
X152356500Y-145677525D01*
X176749500Y-145677525D01*
X176749500Y-145822475D01*
X176760221Y-145862485D01*
X176787017Y-145962488D01*
X176859488Y-146088011D01*
X176859490Y-146088013D01*
X176859491Y-146088015D01*
X176961985Y-146190509D01*
X176961986Y-146190510D01*
X176961988Y-146190511D01*
X177087511Y-146262982D01*
X177087512Y-146262982D01*
X177087515Y-146262984D01*
X177227525Y-146300500D01*
X177227528Y-146300500D01*
X177372472Y-146300500D01*
X177372475Y-146300500D01*
X177512485Y-146262984D01*
X177638015Y-146190509D01*
X177740509Y-146088015D01*
X177812984Y-145962485D01*
X177850500Y-145822475D01*
X177850500Y-145677525D01*
X177823705Y-145577525D01*
X181899500Y-145577525D01*
X181899500Y-145722475D01*
X181937016Y-145862485D01*
X181937017Y-145862488D01*
X182009488Y-145988011D01*
X182009490Y-145988013D01*
X182009491Y-145988015D01*
X182111985Y-146090509D01*
X182111986Y-146090510D01*
X182111988Y-146090511D01*
X182237511Y-146162982D01*
X182237512Y-146162982D01*
X182237515Y-146162984D01*
X182377525Y-146200500D01*
X182377528Y-146200500D01*
X182522472Y-146200500D01*
X182522475Y-146200500D01*
X182662485Y-146162984D01*
X182788015Y-146090509D01*
X182890509Y-145988015D01*
X182962984Y-145862485D01*
X183000500Y-145722475D01*
X183000500Y-145577525D01*
X182962984Y-145437515D01*
X182948244Y-145411985D01*
X182890511Y-145311988D01*
X182890506Y-145311982D01*
X182788017Y-145209493D01*
X182788011Y-145209488D01*
X182662488Y-145137017D01*
X182662489Y-145137017D01*
X182651006Y-145133940D01*
X182522475Y-145099500D01*
X182377525Y-145099500D01*
X182248993Y-145133940D01*
X182237511Y-145137017D01*
X182111988Y-145209488D01*
X182111982Y-145209493D01*
X182009493Y-145311982D01*
X182009488Y-145311988D01*
X181937017Y-145437511D01*
X181937016Y-145437515D01*
X181899500Y-145577525D01*
X177823705Y-145577525D01*
X177812984Y-145537515D01*
X177755246Y-145437511D01*
X177740511Y-145411988D01*
X177740506Y-145411982D01*
X177638017Y-145309493D01*
X177638011Y-145309488D01*
X177512488Y-145237017D01*
X177512489Y-145237017D01*
X177501006Y-145233940D01*
X177372475Y-145199500D01*
X177227525Y-145199500D01*
X177098993Y-145233940D01*
X177087511Y-145237017D01*
X176961988Y-145309488D01*
X176961982Y-145309493D01*
X176859493Y-145411982D01*
X176859488Y-145411988D01*
X176787017Y-145537511D01*
X176787016Y-145537515D01*
X176749500Y-145677525D01*
X152356500Y-145677525D01*
X152356500Y-144587525D01*
X175499500Y-144587525D01*
X175499500Y-144732475D01*
X175537016Y-144872485D01*
X175537017Y-144872488D01*
X175609488Y-144998011D01*
X175609490Y-144998013D01*
X175609491Y-144998015D01*
X175711985Y-145100509D01*
X175711986Y-145100510D01*
X175711988Y-145100511D01*
X175837511Y-145172982D01*
X175837512Y-145172982D01*
X175837515Y-145172984D01*
X175977525Y-145210500D01*
X175977528Y-145210500D01*
X176122472Y-145210500D01*
X176122475Y-145210500D01*
X176262485Y-145172984D01*
X176388015Y-145100509D01*
X176490509Y-144998015D01*
X176562984Y-144872485D01*
X176600500Y-144732475D01*
X176600500Y-144587525D01*
X176562984Y-144447515D01*
X176490509Y-144321985D01*
X176388015Y-144219491D01*
X176388013Y-144219490D01*
X176388011Y-144219488D01*
X176262488Y-144147017D01*
X176262489Y-144147017D01*
X176251006Y-144143940D01*
X176122475Y-144109500D01*
X175977525Y-144109500D01*
X175848993Y-144143940D01*
X175837511Y-144147017D01*
X175711988Y-144219488D01*
X175711982Y-144219493D01*
X175609493Y-144321982D01*
X175609488Y-144321988D01*
X175537017Y-144447511D01*
X175537016Y-144447515D01*
X175499500Y-144587525D01*
X152356500Y-144587525D01*
X152356500Y-135783753D01*
X152828000Y-135783753D01*
X152828000Y-135996246D01*
X152861242Y-136206127D01*
X152861242Y-136206130D01*
X152926904Y-136408217D01*
X153023375Y-136597550D01*
X153062728Y-136651716D01*
X153695037Y-136019408D01*
X153712075Y-136082993D01*
X153777901Y-136197007D01*
X153870993Y-136290099D01*
X153985007Y-136355925D01*
X154048590Y-136372962D01*
X153416282Y-137005269D01*
X153416282Y-137005270D01*
X153470449Y-137044624D01*
X153659784Y-137141096D01*
X153758711Y-137173239D01*
X153816387Y-137212676D01*
X153843586Y-137277034D01*
X153831672Y-137345881D01*
X153784428Y-137397357D01*
X153758722Y-137409097D01*
X153757522Y-137409487D01*
X153755550Y-137410128D01*
X153601211Y-137488768D01*
X153534104Y-137537525D01*
X153461072Y-137590586D01*
X153461070Y-137590588D01*
X153461069Y-137590588D01*
X153338588Y-137713069D01*
X153338588Y-137713070D01*
X153338586Y-137713072D01*
X153316855Y-137742982D01*
X153236768Y-137853211D01*
X153158128Y-138007552D01*
X153104597Y-138172302D01*
X153093602Y-138241722D01*
X153077500Y-138343389D01*
X153077500Y-138516611D01*
X153081556Y-138542220D01*
X153103731Y-138682232D01*
X153104598Y-138687701D01*
X153158127Y-138852445D01*
X153236768Y-139006788D01*
X153338586Y-139146928D01*
X153461072Y-139269414D01*
X153601212Y-139371232D01*
X153755555Y-139449873D01*
X153920299Y-139503402D01*
X154091389Y-139530500D01*
X154091390Y-139530500D01*
X154264610Y-139530500D01*
X154264611Y-139530500D01*
X154435701Y-139503402D01*
X154600445Y-139449873D01*
X154754788Y-139371232D01*
X154870000Y-139287525D01*
X179299500Y-139287525D01*
X179299500Y-139432475D01*
X179325766Y-139530500D01*
X179337017Y-139572488D01*
X179409488Y-139698011D01*
X179409490Y-139698013D01*
X179409491Y-139698015D01*
X179511985Y-139800509D01*
X179511986Y-139800510D01*
X179511988Y-139800511D01*
X179637511Y-139872982D01*
X179637512Y-139872982D01*
X179637515Y-139872984D01*
X179777525Y-139910500D01*
X179777528Y-139910500D01*
X179922472Y-139910500D01*
X179922475Y-139910500D01*
X180062485Y-139872984D01*
X180188015Y-139800509D01*
X180290509Y-139698015D01*
X180362984Y-139572485D01*
X180400500Y-139432475D01*
X180400500Y-139287525D01*
X180362984Y-139147515D01*
X180362646Y-139146930D01*
X180290511Y-139021988D01*
X180290506Y-139021982D01*
X180188017Y-138919493D01*
X180188011Y-138919488D01*
X180062488Y-138847017D01*
X180062489Y-138847017D01*
X180051006Y-138843940D01*
X179922475Y-138809500D01*
X179777525Y-138809500D01*
X179648993Y-138843940D01*
X179637511Y-138847017D01*
X179511988Y-138919488D01*
X179511982Y-138919493D01*
X179409493Y-139021982D01*
X179409488Y-139021988D01*
X179337017Y-139147511D01*
X179337016Y-139147515D01*
X179299500Y-139287525D01*
X154870000Y-139287525D01*
X154894928Y-139269414D01*
X155017414Y-139146928D01*
X155119232Y-139006788D01*
X155197873Y-138852445D01*
X155251402Y-138687701D01*
X155252269Y-138682230D01*
X192918916Y-138682230D01*
X192918916Y-138827180D01*
X192956432Y-138967190D01*
X192956433Y-138967193D01*
X193028904Y-139092716D01*
X193028906Y-139092718D01*
X193028907Y-139092720D01*
X193131401Y-139195214D01*
X193131402Y-139195215D01*
X193131404Y-139195216D01*
X193256927Y-139267687D01*
X193256928Y-139267687D01*
X193256931Y-139267689D01*
X193396941Y-139305205D01*
X193396944Y-139305205D01*
X193541888Y-139305205D01*
X193541891Y-139305205D01*
X193681901Y-139267689D01*
X193807431Y-139195214D01*
X193909925Y-139092720D01*
X193982400Y-138967190D01*
X194019916Y-138827180D01*
X194019916Y-138682230D01*
X193982400Y-138542220D01*
X193909925Y-138416690D01*
X193807431Y-138314196D01*
X193807429Y-138314195D01*
X193807427Y-138314193D01*
X193681904Y-138241722D01*
X193681905Y-138241722D01*
X193670422Y-138238645D01*
X193541891Y-138204205D01*
X193396941Y-138204205D01*
X193268409Y-138238645D01*
X193256927Y-138241722D01*
X193131404Y-138314193D01*
X193131398Y-138314198D01*
X193028909Y-138416687D01*
X193028904Y-138416693D01*
X192956433Y-138542216D01*
X192956432Y-138542220D01*
X192918916Y-138682230D01*
X155252269Y-138682230D01*
X155278500Y-138516611D01*
X155278500Y-138343389D01*
X155251402Y-138172299D01*
X155197873Y-138007555D01*
X155119232Y-137853212D01*
X155017414Y-137713072D01*
X154894928Y-137590586D01*
X154754788Y-137488768D01*
X154663952Y-137442485D01*
X154600446Y-137410127D01*
X154597284Y-137409100D01*
X154596236Y-137408383D01*
X154595952Y-137408266D01*
X154595976Y-137408206D01*
X154539609Y-137369661D01*
X154512413Y-137305302D01*
X154524329Y-137236456D01*
X154571574Y-137184981D01*
X154597288Y-137173239D01*
X154645651Y-137157525D01*
X156999500Y-137157525D01*
X156999500Y-137302475D01*
X157028346Y-137410127D01*
X157037017Y-137442488D01*
X157109488Y-137568011D01*
X157109490Y-137568013D01*
X157109491Y-137568015D01*
X157211985Y-137670509D01*
X157211986Y-137670510D01*
X157211988Y-137670511D01*
X157337511Y-137742982D01*
X157337512Y-137742982D01*
X157337515Y-137742984D01*
X157477525Y-137780500D01*
X157477528Y-137780500D01*
X157622472Y-137780500D01*
X157622475Y-137780500D01*
X157762485Y-137742984D01*
X157888015Y-137670509D01*
X157990509Y-137568015D01*
X158008112Y-137537525D01*
X169649500Y-137537525D01*
X169649500Y-137682475D01*
X169681128Y-137800511D01*
X169687017Y-137822488D01*
X169759488Y-137948011D01*
X169759490Y-137948013D01*
X169759491Y-137948015D01*
X169861985Y-138050509D01*
X169861986Y-138050510D01*
X169861988Y-138050511D01*
X169987511Y-138122982D01*
X169987512Y-138122982D01*
X169987515Y-138122984D01*
X170127525Y-138160500D01*
X170127528Y-138160500D01*
X170272472Y-138160500D01*
X170272475Y-138160500D01*
X170412485Y-138122984D01*
X170538015Y-138050509D01*
X170640509Y-137948015D01*
X170712984Y-137822485D01*
X170750500Y-137682475D01*
X170750500Y-137537525D01*
X170712984Y-137397515D01*
X170659745Y-137305302D01*
X170649481Y-137287525D01*
X173359500Y-137287525D01*
X173359500Y-137432475D01*
X173387649Y-137537527D01*
X173397017Y-137572488D01*
X173469488Y-137698011D01*
X173469490Y-137698013D01*
X173469491Y-137698015D01*
X173571985Y-137800509D01*
X173571986Y-137800510D01*
X173571988Y-137800511D01*
X173697511Y-137872982D01*
X173697512Y-137872982D01*
X173697515Y-137872984D01*
X173837525Y-137910500D01*
X173837528Y-137910500D01*
X173982472Y-137910500D01*
X173982475Y-137910500D01*
X174122485Y-137872984D01*
X174248015Y-137800509D01*
X174350509Y-137698015D01*
X174422984Y-137572485D01*
X174460500Y-137432475D01*
X174460500Y-137287525D01*
X174422984Y-137147515D01*
X174393828Y-137097016D01*
X174350511Y-137021988D01*
X174350506Y-137021982D01*
X174248017Y-136919493D01*
X174248011Y-136919488D01*
X174122488Y-136847017D01*
X174122489Y-136847017D01*
X174111006Y-136843940D01*
X173982475Y-136809500D01*
X173837525Y-136809500D01*
X173708993Y-136843940D01*
X173697511Y-136847017D01*
X173571988Y-136919488D01*
X173571982Y-136919493D01*
X173469493Y-137021982D01*
X173469488Y-137021988D01*
X173397017Y-137147511D01*
X173397016Y-137147515D01*
X173359500Y-137287525D01*
X170649481Y-137287525D01*
X170640511Y-137271988D01*
X170640506Y-137271982D01*
X170538017Y-137169493D01*
X170538011Y-137169488D01*
X170412488Y-137097017D01*
X170412489Y-137097017D01*
X170401006Y-137093940D01*
X170272475Y-137059500D01*
X170127525Y-137059500D01*
X169998993Y-137093940D01*
X169987511Y-137097017D01*
X169861988Y-137169488D01*
X169861982Y-137169493D01*
X169759493Y-137271982D01*
X169759488Y-137271988D01*
X169687017Y-137397511D01*
X169687016Y-137397515D01*
X169649500Y-137537525D01*
X158008112Y-137537525D01*
X158062984Y-137442485D01*
X158100500Y-137302475D01*
X158100500Y-137157525D01*
X158062984Y-137017515D01*
X158055914Y-137005270D01*
X157990511Y-136891988D01*
X157990506Y-136891982D01*
X157888017Y-136789493D01*
X157888011Y-136789488D01*
X157762488Y-136717017D01*
X157762489Y-136717017D01*
X157751006Y-136713940D01*
X157622475Y-136679500D01*
X157477525Y-136679500D01*
X157348993Y-136713940D01*
X157337511Y-136717017D01*
X157211988Y-136789488D01*
X157211982Y-136789493D01*
X157109493Y-136891982D01*
X157109488Y-136891988D01*
X157037017Y-137017511D01*
X157037016Y-137017515D01*
X156999500Y-137157525D01*
X154645651Y-137157525D01*
X154696215Y-137141096D01*
X154885554Y-137044622D01*
X154939716Y-137005270D01*
X154939717Y-137005270D01*
X154307408Y-136372962D01*
X154370993Y-136355925D01*
X154485007Y-136290099D01*
X154578099Y-136197007D01*
X154643925Y-136082993D01*
X154660962Y-136019409D01*
X155293270Y-136651717D01*
X155293270Y-136651716D01*
X155332622Y-136597554D01*
X155429095Y-136408217D01*
X155494757Y-136206130D01*
X155494757Y-136206127D01*
X155528000Y-135996246D01*
X155528000Y-135926525D01*
X170899500Y-135926525D01*
X170899500Y-136071475D01*
X170935581Y-136206130D01*
X170937017Y-136211488D01*
X171009488Y-136337011D01*
X171009490Y-136337013D01*
X171009491Y-136337015D01*
X171111985Y-136439509D01*
X171111986Y-136439510D01*
X171111988Y-136439511D01*
X171237511Y-136511982D01*
X171237512Y-136511982D01*
X171237515Y-136511984D01*
X171377525Y-136549500D01*
X171377528Y-136549500D01*
X171522472Y-136549500D01*
X171522475Y-136549500D01*
X171662485Y-136511984D01*
X171788015Y-136439509D01*
X171890509Y-136337015D01*
X171962984Y-136211485D01*
X171985481Y-136127525D01*
X175549500Y-136127525D01*
X175549500Y-136272475D01*
X175587016Y-136412485D01*
X175587017Y-136412488D01*
X175659488Y-136538011D01*
X175659490Y-136538013D01*
X175659491Y-136538015D01*
X175761985Y-136640509D01*
X175761986Y-136640510D01*
X175761988Y-136640511D01*
X175887511Y-136712982D01*
X175887512Y-136712982D01*
X175887515Y-136712984D01*
X176027525Y-136750500D01*
X176027528Y-136750500D01*
X176172472Y-136750500D01*
X176172475Y-136750500D01*
X176312485Y-136712984D01*
X176438015Y-136640509D01*
X176540509Y-136538015D01*
X176612984Y-136412485D01*
X176650500Y-136272475D01*
X176650500Y-136127525D01*
X176612984Y-135987515D01*
X176611800Y-135985465D01*
X176540511Y-135861988D01*
X176540506Y-135861982D01*
X176438017Y-135759493D01*
X176438011Y-135759488D01*
X176335850Y-135700505D01*
X195126698Y-135700505D01*
X195126698Y-135845455D01*
X195156272Y-135955826D01*
X195164215Y-135985468D01*
X195236686Y-136110991D01*
X195236688Y-136110993D01*
X195236689Y-136110995D01*
X195339183Y-136213489D01*
X195339184Y-136213490D01*
X195339186Y-136213491D01*
X195464709Y-136285962D01*
X195464710Y-136285962D01*
X195464713Y-136285964D01*
X195604723Y-136323480D01*
X195604726Y-136323480D01*
X195749670Y-136323480D01*
X195749673Y-136323480D01*
X195889683Y-136285964D01*
X196015213Y-136213489D01*
X196117707Y-136110995D01*
X196190182Y-135985465D01*
X196227698Y-135845455D01*
X196227698Y-135700505D01*
X196190182Y-135560495D01*
X196189023Y-135558488D01*
X196117709Y-135434968D01*
X196117704Y-135434962D01*
X196015215Y-135332473D01*
X196015209Y-135332468D01*
X195889686Y-135259997D01*
X195889687Y-135259997D01*
X195878204Y-135256920D01*
X195749673Y-135222480D01*
X195604723Y-135222480D01*
X195476191Y-135256920D01*
X195464709Y-135259997D01*
X195339186Y-135332468D01*
X195339180Y-135332473D01*
X195236691Y-135434962D01*
X195236686Y-135434968D01*
X195164215Y-135560491D01*
X195164214Y-135560495D01*
X195126698Y-135700505D01*
X176335850Y-135700505D01*
X176312488Y-135687017D01*
X176312489Y-135687017D01*
X176301006Y-135683940D01*
X176172475Y-135649500D01*
X176027525Y-135649500D01*
X175898993Y-135683940D01*
X175887511Y-135687017D01*
X175761988Y-135759488D01*
X175761982Y-135759493D01*
X175659493Y-135861982D01*
X175659488Y-135861988D01*
X175587017Y-135987511D01*
X175582583Y-136004055D01*
X175549500Y-136127525D01*
X171985481Y-136127525D01*
X172000500Y-136071475D01*
X172000500Y-135926525D01*
X171962984Y-135786515D01*
X171961389Y-135783753D01*
X171890511Y-135660988D01*
X171890506Y-135660982D01*
X171788017Y-135558493D01*
X171788011Y-135558488D01*
X171662488Y-135486017D01*
X171662489Y-135486017D01*
X171651006Y-135482940D01*
X171522475Y-135448500D01*
X171377525Y-135448500D01*
X171248993Y-135482940D01*
X171237511Y-135486017D01*
X171111988Y-135558488D01*
X171111982Y-135558493D01*
X171009493Y-135660982D01*
X171009488Y-135660988D01*
X170937017Y-135786511D01*
X170937016Y-135786515D01*
X170899500Y-135926525D01*
X155528000Y-135926525D01*
X155528000Y-135783753D01*
X155494757Y-135573872D01*
X155494757Y-135573869D01*
X155429095Y-135371782D01*
X155332624Y-135182449D01*
X155293270Y-135128282D01*
X155293269Y-135128282D01*
X154660962Y-135760590D01*
X154643925Y-135697007D01*
X154578099Y-135582993D01*
X154485007Y-135489901D01*
X154370993Y-135424075D01*
X154307409Y-135407037D01*
X154939716Y-134774728D01*
X154885550Y-134735375D01*
X154696217Y-134638904D01*
X154597287Y-134606760D01*
X154539611Y-134567323D01*
X154512413Y-134502964D01*
X154524328Y-134434118D01*
X154571572Y-134382642D01*
X154597290Y-134370897D01*
X154600445Y-134369873D01*
X154754788Y-134291232D01*
X154894928Y-134189414D01*
X155017414Y-134066928D01*
X155119232Y-133926788D01*
X155197873Y-133772445D01*
X155251402Y-133607701D01*
X155278500Y-133436611D01*
X155278500Y-133263389D01*
X155251402Y-133092299D01*
X155229056Y-133023525D01*
X164295500Y-133023525D01*
X164295500Y-133168475D01*
X164333016Y-133308485D01*
X164333017Y-133308488D01*
X164405488Y-133434011D01*
X164405490Y-133434013D01*
X164405491Y-133434015D01*
X164507985Y-133536509D01*
X164507986Y-133536510D01*
X164507988Y-133536511D01*
X164633511Y-133608982D01*
X164633512Y-133608982D01*
X164633515Y-133608984D01*
X164773525Y-133646500D01*
X164773528Y-133646500D01*
X164918472Y-133646500D01*
X164918475Y-133646500D01*
X165058485Y-133608984D01*
X165184015Y-133536509D01*
X165286509Y-133434015D01*
X165358984Y-133308485D01*
X165396500Y-133168475D01*
X165396500Y-133023525D01*
X165358984Y-132883515D01*
X165334154Y-132840509D01*
X165286511Y-132757988D01*
X165286506Y-132757982D01*
X165184017Y-132655493D01*
X165184011Y-132655488D01*
X165058488Y-132583017D01*
X165058489Y-132583017D01*
X165047006Y-132579940D01*
X164918475Y-132545500D01*
X164773525Y-132545500D01*
X164644993Y-132579940D01*
X164633511Y-132583017D01*
X164507988Y-132655488D01*
X164507982Y-132655493D01*
X164405493Y-132757982D01*
X164405488Y-132757988D01*
X164333017Y-132883511D01*
X164333016Y-132883515D01*
X164295500Y-133023525D01*
X155229056Y-133023525D01*
X155197873Y-132927555D01*
X155119232Y-132773212D01*
X155017414Y-132633072D01*
X154894928Y-132510586D01*
X154754788Y-132408768D01*
X154600445Y-132330127D01*
X154435701Y-132276598D01*
X154435699Y-132276597D01*
X154435698Y-132276597D01*
X154340537Y-132261525D01*
X165819500Y-132261525D01*
X165819500Y-132406475D01*
X165856621Y-132545011D01*
X165857017Y-132546488D01*
X165929488Y-132672011D01*
X165929490Y-132672013D01*
X165929491Y-132672015D01*
X166031985Y-132774509D01*
X166031986Y-132774510D01*
X166031988Y-132774511D01*
X166157511Y-132846982D01*
X166157512Y-132846982D01*
X166157515Y-132846984D01*
X166297525Y-132884500D01*
X166297528Y-132884500D01*
X166442472Y-132884500D01*
X166442475Y-132884500D01*
X166582485Y-132846984D01*
X166708015Y-132774509D01*
X166724876Y-132757648D01*
X177989500Y-132757648D01*
X177989500Y-132962351D01*
X178021522Y-133164534D01*
X178084781Y-133359223D01*
X178124213Y-133436611D01*
X178175112Y-133536506D01*
X178177715Y-133541613D01*
X178298028Y-133707213D01*
X178442786Y-133851971D01*
X178545765Y-133926788D01*
X178608390Y-133972287D01*
X178724607Y-134031503D01*
X178790776Y-134065218D01*
X178790778Y-134065218D01*
X178790781Y-134065220D01*
X178895137Y-134099127D01*
X178985465Y-134128477D01*
X179086557Y-134144488D01*
X179187648Y-134160500D01*
X179187649Y-134160500D01*
X179392351Y-134160500D01*
X179392352Y-134160500D01*
X179594534Y-134128477D01*
X179789219Y-134065220D01*
X179971610Y-133972287D01*
X180064590Y-133904732D01*
X180137213Y-133851971D01*
X180137215Y-133851968D01*
X180137219Y-133851966D01*
X180281966Y-133707219D01*
X180281968Y-133707215D01*
X180281971Y-133707213D01*
X180354272Y-133607697D01*
X180402287Y-133541610D01*
X180495220Y-133359219D01*
X180558477Y-133164534D01*
X180590500Y-132962352D01*
X180590500Y-132757648D01*
X180573056Y-132647511D01*
X180558477Y-132555465D01*
X180538428Y-132493764D01*
X180495220Y-132360781D01*
X180478275Y-132327525D01*
X194494500Y-132327525D01*
X194494500Y-132472475D01*
X194516738Y-132555466D01*
X194532017Y-132612488D01*
X194604488Y-132738011D01*
X194604490Y-132738013D01*
X194604491Y-132738015D01*
X194706985Y-132840509D01*
X194706986Y-132840510D01*
X194706988Y-132840511D01*
X194832511Y-132912982D01*
X194832512Y-132912982D01*
X194832515Y-132912984D01*
X194972525Y-132950500D01*
X194972528Y-132950500D01*
X195117472Y-132950500D01*
X195117475Y-132950500D01*
X195257485Y-132912984D01*
X195383015Y-132840509D01*
X195485509Y-132738015D01*
X195557984Y-132612485D01*
X195595500Y-132472475D01*
X195595500Y-132327525D01*
X195557984Y-132187515D01*
X195552713Y-132178386D01*
X195485511Y-132061988D01*
X195485506Y-132061982D01*
X195383017Y-131959493D01*
X195383011Y-131959488D01*
X195257488Y-131887017D01*
X195257489Y-131887017D01*
X195246006Y-131883940D01*
X195117475Y-131849500D01*
X194972525Y-131849500D01*
X194843993Y-131883940D01*
X194832511Y-131887017D01*
X194706988Y-131959488D01*
X194706982Y-131959493D01*
X194604493Y-132061982D01*
X194604488Y-132061988D01*
X194532017Y-132187511D01*
X194532016Y-132187515D01*
X194494500Y-132327525D01*
X180478275Y-132327525D01*
X180402287Y-132178390D01*
X180387830Y-132158491D01*
X180281971Y-132012786D01*
X180137213Y-131868028D01*
X179971613Y-131747715D01*
X179971612Y-131747714D01*
X179971610Y-131747713D01*
X179914653Y-131718691D01*
X179789223Y-131654781D01*
X179594534Y-131591522D01*
X179419995Y-131563878D01*
X179392352Y-131559500D01*
X179187648Y-131559500D01*
X179163329Y-131563351D01*
X178985465Y-131591522D01*
X178790776Y-131654781D01*
X178608386Y-131747715D01*
X178442786Y-131868028D01*
X178298028Y-132012786D01*
X178177715Y-132178386D01*
X178084781Y-132360776D01*
X178021522Y-132555465D01*
X177989500Y-132757648D01*
X166724876Y-132757648D01*
X166810509Y-132672015D01*
X166882984Y-132546485D01*
X166920500Y-132406475D01*
X166920500Y-132261525D01*
X166886470Y-132134525D01*
X167597500Y-132134525D01*
X167597500Y-132279475D01*
X167635016Y-132419485D01*
X167635017Y-132419488D01*
X167707488Y-132545011D01*
X167707490Y-132545013D01*
X167707491Y-132545015D01*
X167809985Y-132647509D01*
X167809986Y-132647510D01*
X167809988Y-132647511D01*
X167935511Y-132719982D01*
X167935512Y-132719982D01*
X167935515Y-132719984D01*
X168075525Y-132757500D01*
X168075528Y-132757500D01*
X168220472Y-132757500D01*
X168220475Y-132757500D01*
X168360485Y-132719984D01*
X168486015Y-132647509D01*
X168588509Y-132545015D01*
X168660984Y-132419485D01*
X168698500Y-132279475D01*
X168698500Y-132134525D01*
X168660984Y-131994515D01*
X168613046Y-131911485D01*
X168588511Y-131868988D01*
X168588506Y-131868982D01*
X168486017Y-131766493D01*
X168486011Y-131766488D01*
X168360488Y-131694017D01*
X168360489Y-131694017D01*
X168349006Y-131690940D01*
X168220475Y-131656500D01*
X168075525Y-131656500D01*
X167946993Y-131690940D01*
X167935511Y-131694017D01*
X167809988Y-131766488D01*
X167809982Y-131766493D01*
X167707493Y-131868982D01*
X167707488Y-131868988D01*
X167635017Y-131994511D01*
X167635016Y-131994515D01*
X167597500Y-132134525D01*
X166886470Y-132134525D01*
X166882984Y-132121515D01*
X166848614Y-132061985D01*
X166810511Y-131995988D01*
X166810506Y-131995982D01*
X166708017Y-131893493D01*
X166708011Y-131893488D01*
X166582488Y-131821017D01*
X166582489Y-131821017D01*
X166571006Y-131817940D01*
X166442475Y-131783500D01*
X166297525Y-131783500D01*
X166168993Y-131817940D01*
X166157511Y-131821017D01*
X166031988Y-131893488D01*
X166031982Y-131893493D01*
X165929493Y-131995982D01*
X165929488Y-131995988D01*
X165857017Y-132121511D01*
X165857016Y-132121515D01*
X165819500Y-132261525D01*
X154340537Y-132261525D01*
X154304271Y-132255781D01*
X154264611Y-132249500D01*
X154091389Y-132249500D01*
X154051728Y-132255781D01*
X153920302Y-132276597D01*
X153755552Y-132330128D01*
X153601211Y-132408768D01*
X153521256Y-132466859D01*
X153461072Y-132510586D01*
X153461070Y-132510588D01*
X153461069Y-132510588D01*
X153338588Y-132633069D01*
X153338588Y-132633070D01*
X153338586Y-132633072D01*
X153322300Y-132655488D01*
X153236768Y-132773211D01*
X153158128Y-132927552D01*
X153104597Y-133092302D01*
X153077500Y-133263389D01*
X153077500Y-133436610D01*
X153093322Y-133536511D01*
X153104598Y-133607701D01*
X153158127Y-133772445D01*
X153236768Y-133926788D01*
X153338586Y-134066928D01*
X153461072Y-134189414D01*
X153601212Y-134291232D01*
X153755555Y-134369873D01*
X153758708Y-134370897D01*
X153759752Y-134371611D01*
X153760048Y-134371734D01*
X153760022Y-134371795D01*
X153816383Y-134410330D01*
X153843585Y-134474688D01*
X153831674Y-134543535D01*
X153784433Y-134595013D01*
X153758712Y-134606760D01*
X153659783Y-134638904D01*
X153470439Y-134735380D01*
X153416282Y-134774727D01*
X153416282Y-134774728D01*
X154048591Y-135407037D01*
X153985007Y-135424075D01*
X153870993Y-135489901D01*
X153777901Y-135582993D01*
X153712075Y-135697007D01*
X153695037Y-135760590D01*
X153062728Y-135128282D01*
X153062727Y-135128282D01*
X153023380Y-135182439D01*
X152926904Y-135371782D01*
X152861242Y-135573869D01*
X152861242Y-135573872D01*
X152828000Y-135783753D01*
X152356500Y-135783753D01*
X152356500Y-130723389D01*
X153077500Y-130723389D01*
X153077500Y-130896611D01*
X153104598Y-131067701D01*
X153158127Y-131232445D01*
X153236768Y-131386788D01*
X153338586Y-131526928D01*
X153461072Y-131649414D01*
X153601212Y-131751232D01*
X153755555Y-131829873D01*
X153920299Y-131883402D01*
X154091389Y-131910500D01*
X154091390Y-131910500D01*
X154264610Y-131910500D01*
X154264611Y-131910500D01*
X154435701Y-131883402D01*
X154600445Y-131829873D01*
X154754788Y-131751232D01*
X154894928Y-131649414D01*
X154917817Y-131626525D01*
X160485500Y-131626525D01*
X160485500Y-131771475D01*
X160518195Y-131893493D01*
X160523017Y-131911488D01*
X160595488Y-132037011D01*
X160595490Y-132037013D01*
X160595491Y-132037015D01*
X160697985Y-132139509D01*
X160697986Y-132139510D01*
X160697988Y-132139511D01*
X160823511Y-132211982D01*
X160823512Y-132211982D01*
X160823515Y-132211984D01*
X160963525Y-132249500D01*
X160963528Y-132249500D01*
X161108472Y-132249500D01*
X161108475Y-132249500D01*
X161248485Y-132211984D01*
X161374015Y-132139509D01*
X161476509Y-132037015D01*
X161548984Y-131911485D01*
X161586500Y-131771475D01*
X161586500Y-131626525D01*
X161548984Y-131486515D01*
X161491406Y-131386788D01*
X161476511Y-131360988D01*
X161476506Y-131360982D01*
X161374017Y-131258493D01*
X161374011Y-131258488D01*
X161248488Y-131186017D01*
X161248489Y-131186017D01*
X161237006Y-131182940D01*
X161108475Y-131148500D01*
X160963525Y-131148500D01*
X160834993Y-131182940D01*
X160823511Y-131186017D01*
X160697988Y-131258488D01*
X160697982Y-131258493D01*
X160595493Y-131360982D01*
X160595488Y-131360988D01*
X160523017Y-131486511D01*
X160523016Y-131486515D01*
X160485500Y-131626525D01*
X154917817Y-131626525D01*
X155017414Y-131526928D01*
X155119232Y-131386788D01*
X155197873Y-131232445D01*
X155251402Y-131067701D01*
X155278500Y-130896611D01*
X155278500Y-130723389D01*
X155272615Y-130686231D01*
X176275500Y-130686231D01*
X176275500Y-130831181D01*
X176313016Y-130971191D01*
X176313017Y-130971194D01*
X176385488Y-131096717D01*
X176385490Y-131096719D01*
X176385491Y-131096721D01*
X176487985Y-131199215D01*
X176487986Y-131199216D01*
X176487988Y-131199217D01*
X176613511Y-131271688D01*
X176613512Y-131271688D01*
X176613515Y-131271690D01*
X176753525Y-131309206D01*
X176753528Y-131309206D01*
X176898472Y-131309206D01*
X176898475Y-131309206D01*
X177038485Y-131271690D01*
X177164015Y-131199215D01*
X177266509Y-131096721D01*
X177338984Y-130971191D01*
X177376500Y-130831181D01*
X177376500Y-130686231D01*
X177338984Y-130546221D01*
X177266509Y-130420691D01*
X177164015Y-130318197D01*
X177164013Y-130318196D01*
X177164011Y-130318194D01*
X177038488Y-130245723D01*
X177038489Y-130245723D01*
X177027006Y-130242646D01*
X176898475Y-130208206D01*
X176753525Y-130208206D01*
X176624993Y-130242646D01*
X176613511Y-130245723D01*
X176487988Y-130318194D01*
X176487982Y-130318199D01*
X176385493Y-130420688D01*
X176385488Y-130420694D01*
X176313017Y-130546217D01*
X176313016Y-130546221D01*
X176275500Y-130686231D01*
X155272615Y-130686231D01*
X155251402Y-130552299D01*
X155197873Y-130387555D01*
X155119232Y-130233212D01*
X155017414Y-130093072D01*
X154894928Y-129970586D01*
X154754788Y-129868768D01*
X154600445Y-129790127D01*
X154435701Y-129736598D01*
X154435699Y-129736597D01*
X154435698Y-129736597D01*
X154304271Y-129715781D01*
X154264611Y-129709500D01*
X154091389Y-129709500D01*
X154051728Y-129715781D01*
X153920302Y-129736597D01*
X153755552Y-129790128D01*
X153601211Y-129868768D01*
X153521256Y-129926859D01*
X153461072Y-129970586D01*
X153461070Y-129970588D01*
X153461069Y-129970588D01*
X153338588Y-130093069D01*
X153338588Y-130093070D01*
X153338586Y-130093072D01*
X153294859Y-130153256D01*
X153236768Y-130233211D01*
X153158128Y-130387552D01*
X153104597Y-130552302D01*
X153083385Y-130686231D01*
X153077500Y-130723389D01*
X152356500Y-130723389D01*
X152356500Y-129467525D01*
X180439500Y-129467525D01*
X180439500Y-129612475D01*
X180465498Y-129709500D01*
X180477017Y-129752488D01*
X180549488Y-129878011D01*
X180549490Y-129878013D01*
X180549491Y-129878015D01*
X180651985Y-129980509D01*
X180651986Y-129980510D01*
X180651988Y-129980511D01*
X180777511Y-130052982D01*
X180777512Y-130052982D01*
X180777515Y-130052984D01*
X180917525Y-130090500D01*
X180917528Y-130090500D01*
X181062472Y-130090500D01*
X181062475Y-130090500D01*
X181202485Y-130052984D01*
X181328015Y-129980509D01*
X181430509Y-129878015D01*
X181502984Y-129752485D01*
X181540500Y-129612475D01*
X181540500Y-129467525D01*
X181502984Y-129327515D01*
X181481251Y-129289873D01*
X181430511Y-129201988D01*
X181430506Y-129201982D01*
X181328017Y-129099493D01*
X181328011Y-129099488D01*
X181202488Y-129027017D01*
X181202489Y-129027017D01*
X181150117Y-129012984D01*
X181062475Y-128989500D01*
X180917525Y-128989500D01*
X180829883Y-129012984D01*
X180777511Y-129027017D01*
X180651988Y-129099488D01*
X180651982Y-129099493D01*
X180549493Y-129201982D01*
X180549488Y-129201988D01*
X180477017Y-129327511D01*
X180477016Y-129327515D01*
X180439500Y-129467525D01*
X152356500Y-129467525D01*
X152356500Y-128183389D01*
X153077500Y-128183389D01*
X153077500Y-128356611D01*
X153083420Y-128393988D01*
X153103300Y-128519511D01*
X153104598Y-128527701D01*
X153158127Y-128692445D01*
X153236768Y-128846788D01*
X153338586Y-128986928D01*
X153461072Y-129109414D01*
X153601212Y-129211232D01*
X153755555Y-129289873D01*
X153920299Y-129343402D01*
X154091389Y-129370500D01*
X154091390Y-129370500D01*
X154264610Y-129370500D01*
X154264611Y-129370500D01*
X154435701Y-129343402D01*
X154600445Y-129289873D01*
X154754788Y-129211232D01*
X154894928Y-129109414D01*
X155017414Y-128986928D01*
X155119232Y-128846788D01*
X155197873Y-128692445D01*
X155208569Y-128659525D01*
X156629500Y-128659525D01*
X156629500Y-128804475D01*
X156641826Y-128850475D01*
X156667017Y-128944488D01*
X156739488Y-129070011D01*
X156739490Y-129070013D01*
X156739491Y-129070015D01*
X156841985Y-129172509D01*
X156841986Y-129172510D01*
X156841988Y-129172511D01*
X156967511Y-129244982D01*
X156967512Y-129244982D01*
X156967515Y-129244984D01*
X157107525Y-129282500D01*
X157107528Y-129282500D01*
X157252472Y-129282500D01*
X157252475Y-129282500D01*
X157392485Y-129244984D01*
X157518015Y-129172509D01*
X157620509Y-129070015D01*
X157692984Y-128944485D01*
X157730500Y-128804475D01*
X157730500Y-128705525D01*
X163914500Y-128705525D01*
X163914500Y-128850475D01*
X163951752Y-128989500D01*
X163952017Y-128990488D01*
X164024488Y-129116011D01*
X164024490Y-129116013D01*
X164024491Y-129116015D01*
X164126985Y-129218509D01*
X164126986Y-129218510D01*
X164126988Y-129218511D01*
X164252511Y-129290982D01*
X164252512Y-129290982D01*
X164252515Y-129290984D01*
X164392525Y-129328500D01*
X164392528Y-129328500D01*
X164537472Y-129328500D01*
X164537475Y-129328500D01*
X164677485Y-129290984D01*
X164803015Y-129218509D01*
X164905509Y-129116015D01*
X164977984Y-128990485D01*
X165015500Y-128850475D01*
X165015500Y-128705525D01*
X164977984Y-128565515D01*
X164905509Y-128439985D01*
X164893049Y-128427525D01*
X184149500Y-128427525D01*
X184149500Y-128572475D01*
X184181647Y-128692447D01*
X184187017Y-128712488D01*
X184259488Y-128838011D01*
X184259490Y-128838013D01*
X184259491Y-128838015D01*
X184361985Y-128940509D01*
X184361986Y-128940510D01*
X184361988Y-128940511D01*
X184487511Y-129012982D01*
X184487512Y-129012982D01*
X184487515Y-129012984D01*
X184627525Y-129050500D01*
X184627528Y-129050500D01*
X184772472Y-129050500D01*
X184772475Y-129050500D01*
X184912485Y-129012984D01*
X185038015Y-128940509D01*
X185140509Y-128838015D01*
X185212984Y-128712485D01*
X185250500Y-128572475D01*
X185250500Y-128427525D01*
X185212984Y-128287515D01*
X185178334Y-128227500D01*
X185140511Y-128161988D01*
X185140506Y-128161982D01*
X185038017Y-128059493D01*
X185038011Y-128059488D01*
X184912488Y-127987017D01*
X184912489Y-127987017D01*
X184901006Y-127983940D01*
X184772475Y-127949500D01*
X184627525Y-127949500D01*
X184498993Y-127983940D01*
X184487511Y-127987017D01*
X184361988Y-128059488D01*
X184361982Y-128059493D01*
X184259493Y-128161982D01*
X184259488Y-128161988D01*
X184187017Y-128287511D01*
X184187016Y-128287515D01*
X184149500Y-128427525D01*
X164893049Y-128427525D01*
X164803015Y-128337491D01*
X164803013Y-128337490D01*
X164803011Y-128337488D01*
X164677488Y-128265017D01*
X164677489Y-128265017D01*
X164666006Y-128261940D01*
X164537475Y-128227500D01*
X164392525Y-128227500D01*
X164263993Y-128261940D01*
X164252511Y-128265017D01*
X164126988Y-128337488D01*
X164126982Y-128337493D01*
X164024493Y-128439982D01*
X164024488Y-128439988D01*
X163952017Y-128565511D01*
X163952016Y-128565515D01*
X163914500Y-128705525D01*
X157730500Y-128705525D01*
X157730500Y-128659525D01*
X157692984Y-128519515D01*
X157670976Y-128481397D01*
X157620511Y-128393988D01*
X157620506Y-128393982D01*
X157518017Y-128291493D01*
X157518011Y-128291488D01*
X157392488Y-128219017D01*
X157392489Y-128219017D01*
X157381006Y-128215940D01*
X157252475Y-128181500D01*
X157107525Y-128181500D01*
X156978993Y-128215940D01*
X156967511Y-128219017D01*
X156841988Y-128291488D01*
X156841982Y-128291493D01*
X156739493Y-128393982D01*
X156739488Y-128393988D01*
X156667017Y-128519511D01*
X156667016Y-128519515D01*
X156629500Y-128659525D01*
X155208569Y-128659525D01*
X155251402Y-128527701D01*
X155278500Y-128356611D01*
X155278500Y-128183389D01*
X155251402Y-128012299D01*
X155197873Y-127847555D01*
X155119232Y-127693212D01*
X155017414Y-127553072D01*
X154894928Y-127430586D01*
X154754788Y-127328768D01*
X154600445Y-127250127D01*
X154435701Y-127196598D01*
X154435699Y-127196597D01*
X154435698Y-127196597D01*
X154304271Y-127175781D01*
X154264611Y-127169500D01*
X154091389Y-127169500D01*
X154051728Y-127175781D01*
X153920302Y-127196597D01*
X153755552Y-127250128D01*
X153601211Y-127328768D01*
X153521256Y-127386859D01*
X153461072Y-127430586D01*
X153461070Y-127430588D01*
X153461069Y-127430588D01*
X153338588Y-127553069D01*
X153338588Y-127553070D01*
X153338586Y-127553072D01*
X153294859Y-127613256D01*
X153236768Y-127693211D01*
X153158128Y-127847552D01*
X153104597Y-128012302D01*
X153080890Y-128161985D01*
X153077500Y-128183389D01*
X152356500Y-128183389D01*
X152356500Y-122292155D01*
X152828000Y-122292155D01*
X152828000Y-122940000D01*
X153744988Y-122940000D01*
X153712075Y-122997007D01*
X153678000Y-123124174D01*
X153678000Y-123255826D01*
X153712075Y-123382993D01*
X153744988Y-123440000D01*
X152828000Y-123440000D01*
X152828000Y-124087844D01*
X152834401Y-124147372D01*
X152834403Y-124147379D01*
X152884645Y-124282086D01*
X152884649Y-124282093D01*
X152970809Y-124397187D01*
X152970812Y-124397190D01*
X153085906Y-124483350D01*
X153085913Y-124483354D01*
X153220620Y-124533596D01*
X153220627Y-124533598D01*
X153280155Y-124539999D01*
X153280172Y-124540000D01*
X153572949Y-124540000D01*
X153639988Y-124559685D01*
X153685743Y-124612489D01*
X153695687Y-124681647D01*
X153666662Y-124745203D01*
X153629244Y-124774485D01*
X153601211Y-124788768D01*
X153571292Y-124810506D01*
X153461072Y-124890586D01*
X153461070Y-124890588D01*
X153461069Y-124890588D01*
X153338588Y-125013069D01*
X153338588Y-125013070D01*
X153338586Y-125013072D01*
X153294859Y-125073256D01*
X153236768Y-125153211D01*
X153158128Y-125307552D01*
X153104597Y-125472302D01*
X153077500Y-125643389D01*
X153077500Y-125816611D01*
X153104598Y-125987701D01*
X153158127Y-126152445D01*
X153236768Y-126306788D01*
X153338586Y-126446928D01*
X153461072Y-126569414D01*
X153601212Y-126671232D01*
X153755555Y-126749873D01*
X153920299Y-126803402D01*
X154091389Y-126830500D01*
X154091390Y-126830500D01*
X154264610Y-126830500D01*
X154264611Y-126830500D01*
X154435701Y-126803402D01*
X154600445Y-126749873D01*
X154754788Y-126671232D01*
X154894928Y-126569414D01*
X155017414Y-126446928D01*
X155119232Y-126306788D01*
X155197873Y-126152445D01*
X155251402Y-125987701D01*
X155278500Y-125816611D01*
X155278500Y-125643389D01*
X155251402Y-125472299D01*
X155197873Y-125307555D01*
X155119232Y-125153212D01*
X155017414Y-125013072D01*
X154894928Y-124890586D01*
X154754788Y-124788768D01*
X154726756Y-124774485D01*
X154675960Y-124726510D01*
X154659165Y-124658689D01*
X154681703Y-124592554D01*
X154736418Y-124549103D01*
X154783051Y-124540000D01*
X155075828Y-124540000D01*
X155075844Y-124539999D01*
X155135372Y-124533598D01*
X155135379Y-124533596D01*
X155270086Y-124483354D01*
X155270093Y-124483350D01*
X155385187Y-124397190D01*
X155385190Y-124397187D01*
X155471350Y-124282093D01*
X155471354Y-124282086D01*
X155521596Y-124147379D01*
X155521598Y-124147372D01*
X155527999Y-124087844D01*
X155528000Y-124087827D01*
X155528000Y-123689025D01*
X162200000Y-123689025D01*
X162200000Y-123833975D01*
X162228472Y-123940231D01*
X162237517Y-123973988D01*
X162309988Y-124099511D01*
X162309990Y-124099513D01*
X162309991Y-124099515D01*
X162412485Y-124202009D01*
X162538015Y-124274484D01*
X162678025Y-124312000D01*
X162678030Y-124312000D01*
X162682594Y-124313223D01*
X162742255Y-124349588D01*
X162770276Y-124400904D01*
X162771500Y-124405472D01*
X162771500Y-124405475D01*
X162809016Y-124545485D01*
X162809017Y-124545488D01*
X162881488Y-124671011D01*
X162881490Y-124671013D01*
X162881491Y-124671015D01*
X162983985Y-124773509D01*
X162983986Y-124773510D01*
X162983988Y-124773511D01*
X163109511Y-124845982D01*
X163109512Y-124845982D01*
X163109515Y-124845984D01*
X163249525Y-124883500D01*
X163249528Y-124883500D01*
X163394472Y-124883500D01*
X163394475Y-124883500D01*
X163534485Y-124845984D01*
X163660015Y-124773509D01*
X163762509Y-124671015D01*
X163834984Y-124545485D01*
X163872500Y-124405475D01*
X163872500Y-124297525D01*
X174089500Y-124297525D01*
X174089500Y-124442475D01*
X174120907Y-124559685D01*
X174127017Y-124582488D01*
X174199488Y-124708011D01*
X174199490Y-124708013D01*
X174199491Y-124708015D01*
X174301985Y-124810509D01*
X174301986Y-124810510D01*
X174301988Y-124810511D01*
X174427511Y-124882982D01*
X174427512Y-124882982D01*
X174427515Y-124882984D01*
X174567525Y-124920500D01*
X174567528Y-124920500D01*
X174712472Y-124920500D01*
X174712475Y-124920500D01*
X174852485Y-124882984D01*
X174978015Y-124810509D01*
X175080509Y-124708015D01*
X175126980Y-124627525D01*
X183059500Y-124627525D01*
X183059500Y-124772475D01*
X183091148Y-124890586D01*
X183097017Y-124912488D01*
X183169488Y-125038011D01*
X183169490Y-125038013D01*
X183169491Y-125038015D01*
X183271985Y-125140509D01*
X183271986Y-125140510D01*
X183271988Y-125140511D01*
X183397511Y-125212982D01*
X183397512Y-125212982D01*
X183397515Y-125212984D01*
X183537525Y-125250500D01*
X183537528Y-125250500D01*
X183682472Y-125250500D01*
X183682475Y-125250500D01*
X183822485Y-125212984D01*
X183948015Y-125140509D01*
X184050509Y-125038015D01*
X184122984Y-124912485D01*
X184160500Y-124772475D01*
X184160500Y-124627525D01*
X184122984Y-124487515D01*
X184120579Y-124483350D01*
X184050511Y-124361988D01*
X184050506Y-124361982D01*
X183948017Y-124259493D01*
X183948011Y-124259488D01*
X183822488Y-124187017D01*
X183822489Y-124187017D01*
X183811006Y-124183940D01*
X183682475Y-124149500D01*
X183537525Y-124149500D01*
X183408993Y-124183940D01*
X183397511Y-124187017D01*
X183271988Y-124259488D01*
X183271982Y-124259493D01*
X183169493Y-124361982D01*
X183169488Y-124361988D01*
X183097017Y-124487511D01*
X183097016Y-124487515D01*
X183059500Y-124627525D01*
X175126980Y-124627525D01*
X175152984Y-124582485D01*
X175190500Y-124442475D01*
X175190500Y-124297525D01*
X175152984Y-124157515D01*
X175119495Y-124099511D01*
X175080511Y-124031988D01*
X175080506Y-124031982D01*
X174988755Y-123940231D01*
X175759500Y-123940231D01*
X175759500Y-124085181D01*
X175790805Y-124202011D01*
X175797017Y-124225194D01*
X175869488Y-124350717D01*
X175869490Y-124350719D01*
X175869491Y-124350721D01*
X175971985Y-124453215D01*
X175971986Y-124453216D01*
X175971988Y-124453217D01*
X176097511Y-124525688D01*
X176097512Y-124525688D01*
X176097515Y-124525690D01*
X176237525Y-124563206D01*
X176237528Y-124563206D01*
X176382472Y-124563206D01*
X176382475Y-124563206D01*
X176522485Y-124525690D01*
X176522487Y-124525688D01*
X176522489Y-124525688D01*
X176522490Y-124525687D01*
X176546177Y-124512012D01*
X176546178Y-124512011D01*
X176559763Y-124504167D01*
X176648015Y-124453215D01*
X176750509Y-124350721D01*
X176822984Y-124225191D01*
X176860500Y-124085181D01*
X176860500Y-123940231D01*
X176822984Y-123800221D01*
X176750509Y-123674691D01*
X176648015Y-123572197D01*
X176648013Y-123572196D01*
X176648011Y-123572194D01*
X176522488Y-123499723D01*
X176522489Y-123499723D01*
X176511006Y-123496646D01*
X176382475Y-123462206D01*
X176237525Y-123462206D01*
X176108993Y-123496646D01*
X176097511Y-123499723D01*
X175971988Y-123572194D01*
X175971982Y-123572199D01*
X175869493Y-123674688D01*
X175869488Y-123674694D01*
X175797017Y-123800217D01*
X175797016Y-123800221D01*
X175759500Y-123940231D01*
X174988755Y-123940231D01*
X174978017Y-123929493D01*
X174978011Y-123929488D01*
X174852488Y-123857017D01*
X174852489Y-123857017D01*
X174841006Y-123853940D01*
X174712475Y-123819500D01*
X174567525Y-123819500D01*
X174438993Y-123853940D01*
X174427511Y-123857017D01*
X174301988Y-123929488D01*
X174301982Y-123929493D01*
X174199493Y-124031982D01*
X174199488Y-124031988D01*
X174127017Y-124157511D01*
X174127016Y-124157515D01*
X174089500Y-124297525D01*
X163872500Y-124297525D01*
X163872500Y-124260525D01*
X163834984Y-124120515D01*
X163822857Y-124099511D01*
X163762511Y-123994988D01*
X163762506Y-123994982D01*
X163660017Y-123892493D01*
X163660011Y-123892488D01*
X163534488Y-123820017D01*
X163534489Y-123820017D01*
X163522713Y-123816861D01*
X163394475Y-123782500D01*
X163394472Y-123782500D01*
X163389904Y-123781276D01*
X163330244Y-123744911D01*
X163302223Y-123693594D01*
X163301000Y-123689029D01*
X163301000Y-123689025D01*
X163263484Y-123549015D01*
X163258574Y-123540511D01*
X163191011Y-123423488D01*
X163191006Y-123423482D01*
X163088517Y-123320993D01*
X163088511Y-123320988D01*
X162962988Y-123248517D01*
X162962989Y-123248517D01*
X162951506Y-123245440D01*
X162822975Y-123211000D01*
X162678025Y-123211000D01*
X162549493Y-123245440D01*
X162538011Y-123248517D01*
X162412488Y-123320988D01*
X162412482Y-123320993D01*
X162309993Y-123423482D01*
X162309988Y-123423488D01*
X162237517Y-123549011D01*
X162237516Y-123549015D01*
X162200000Y-123689025D01*
X155528000Y-123689025D01*
X155528000Y-123440000D01*
X154611012Y-123440000D01*
X154643925Y-123382993D01*
X154678000Y-123255826D01*
X154678000Y-123124174D01*
X154643925Y-122997007D01*
X154611012Y-122940000D01*
X155528000Y-122940000D01*
X155528000Y-122732525D01*
X167534000Y-122732525D01*
X167534000Y-122877475D01*
X167556250Y-122960511D01*
X167571517Y-123017488D01*
X167643988Y-123143011D01*
X167643990Y-123143013D01*
X167643991Y-123143015D01*
X167746485Y-123245509D01*
X167746486Y-123245510D01*
X167746488Y-123245511D01*
X167872011Y-123317982D01*
X167872012Y-123317982D01*
X167872015Y-123317984D01*
X168012025Y-123355500D01*
X168012028Y-123355500D01*
X168156972Y-123355500D01*
X168156975Y-123355500D01*
X168296985Y-123317984D01*
X168422515Y-123245509D01*
X168525009Y-123143015D01*
X168597484Y-123017485D01*
X168635000Y-122877475D01*
X168635000Y-122732525D01*
X168597484Y-122592515D01*
X168594309Y-122587016D01*
X168544878Y-122501398D01*
X168544877Y-122501396D01*
X168525013Y-122466991D01*
X168525010Y-122466988D01*
X168525009Y-122466985D01*
X168505549Y-122447525D01*
X181639500Y-122447525D01*
X181639500Y-122592475D01*
X181657458Y-122659493D01*
X181677017Y-122732488D01*
X181749488Y-122858011D01*
X181749490Y-122858013D01*
X181749491Y-122858015D01*
X181851985Y-122960509D01*
X181851986Y-122960510D01*
X181851988Y-122960511D01*
X181977511Y-123032982D01*
X181977512Y-123032982D01*
X181977515Y-123032984D01*
X182117525Y-123070500D01*
X182117528Y-123070500D01*
X182262472Y-123070500D01*
X182262475Y-123070500D01*
X182402485Y-123032984D01*
X182411940Y-123027525D01*
X192549500Y-123027525D01*
X192549500Y-123172475D01*
X192587016Y-123312485D01*
X192587017Y-123312488D01*
X192659488Y-123438011D01*
X192659490Y-123438013D01*
X192659491Y-123438015D01*
X192761985Y-123540509D01*
X192761986Y-123540510D01*
X192761988Y-123540511D01*
X192887511Y-123612982D01*
X192887512Y-123612982D01*
X192887515Y-123612984D01*
X193027525Y-123650500D01*
X193027528Y-123650500D01*
X193172472Y-123650500D01*
X193172475Y-123650500D01*
X193312485Y-123612984D01*
X193438015Y-123540509D01*
X193540509Y-123438015D01*
X193612984Y-123312485D01*
X193650500Y-123172475D01*
X193650500Y-123027525D01*
X193612984Y-122887515D01*
X193610373Y-122882993D01*
X193540511Y-122761988D01*
X193540506Y-122761982D01*
X193438017Y-122659493D01*
X193438011Y-122659488D01*
X193312488Y-122587017D01*
X193312489Y-122587017D01*
X193301006Y-122583940D01*
X193172475Y-122549500D01*
X193027525Y-122549500D01*
X192898993Y-122583940D01*
X192887511Y-122587017D01*
X192761988Y-122659488D01*
X192761982Y-122659493D01*
X192659493Y-122761982D01*
X192659488Y-122761988D01*
X192587017Y-122887511D01*
X192587016Y-122887515D01*
X192549500Y-123027525D01*
X182411940Y-123027525D01*
X182528015Y-122960509D01*
X182630509Y-122858015D01*
X182702984Y-122732485D01*
X182740500Y-122592475D01*
X182740500Y-122447525D01*
X182702984Y-122307515D01*
X182694036Y-122292017D01*
X182630511Y-122181988D01*
X182630506Y-122181982D01*
X182528017Y-122079493D01*
X182528011Y-122079488D01*
X182402488Y-122007017D01*
X182402489Y-122007017D01*
X182391006Y-122003940D01*
X182262475Y-121969500D01*
X182117525Y-121969500D01*
X181988993Y-122003940D01*
X181977511Y-122007017D01*
X181851988Y-122079488D01*
X181851982Y-122079493D01*
X181749493Y-122181982D01*
X181749488Y-122181988D01*
X181677017Y-122307511D01*
X181677016Y-122307515D01*
X181639500Y-122447525D01*
X168505549Y-122447525D01*
X168422515Y-122364491D01*
X168422513Y-122364490D01*
X168422511Y-122364488D01*
X168296988Y-122292017D01*
X168296989Y-122292017D01*
X168285506Y-122288940D01*
X168156975Y-122254500D01*
X168012025Y-122254500D01*
X167883493Y-122288940D01*
X167872011Y-122292017D01*
X167746488Y-122364488D01*
X167746482Y-122364493D01*
X167643993Y-122466982D01*
X167643988Y-122466988D01*
X167571517Y-122592511D01*
X167571516Y-122592515D01*
X167534000Y-122732525D01*
X155528000Y-122732525D01*
X155528000Y-122292172D01*
X155527999Y-122292155D01*
X155521598Y-122232627D01*
X155521596Y-122232620D01*
X155471354Y-122097913D01*
X155471350Y-122097906D01*
X155385190Y-121982812D01*
X155385187Y-121982809D01*
X155270093Y-121896649D01*
X155270086Y-121896645D01*
X155135379Y-121846403D01*
X155135372Y-121846401D01*
X155075844Y-121840000D01*
X154428000Y-121840000D01*
X154428000Y-122756988D01*
X154370993Y-122724075D01*
X154243826Y-122690000D01*
X154112174Y-122690000D01*
X153985007Y-122724075D01*
X153928000Y-122756988D01*
X153928000Y-121840000D01*
X153280155Y-121840000D01*
X153220627Y-121846401D01*
X153220620Y-121846403D01*
X153085913Y-121896645D01*
X153085906Y-121896649D01*
X152970812Y-121982809D01*
X152970809Y-121982812D01*
X152884649Y-122097906D01*
X152884645Y-122097913D01*
X152834403Y-122232620D01*
X152834401Y-122232627D01*
X152828000Y-122292155D01*
X152356500Y-122292155D01*
X152356500Y-119815525D01*
X168105500Y-119815525D01*
X168105500Y-119960475D01*
X168132305Y-120060511D01*
X168143017Y-120100488D01*
X168215488Y-120226011D01*
X168215490Y-120226013D01*
X168215491Y-120226015D01*
X168317985Y-120328509D01*
X168317986Y-120328510D01*
X168317988Y-120328511D01*
X168443511Y-120400982D01*
X168443512Y-120400982D01*
X168443515Y-120400984D01*
X168583525Y-120438500D01*
X168583528Y-120438500D01*
X168728472Y-120438500D01*
X168728475Y-120438500D01*
X168868485Y-120400984D01*
X168994015Y-120328509D01*
X169096509Y-120226015D01*
X169168984Y-120100485D01*
X169206500Y-119960475D01*
X169206500Y-119815525D01*
X169168984Y-119675515D01*
X169168982Y-119675511D01*
X169166880Y-119667665D01*
X169168956Y-119667108D01*
X169162695Y-119608908D01*
X169193415Y-119547525D01*
X173959500Y-119547525D01*
X173959500Y-119692475D01*
X173992472Y-119815525D01*
X173997017Y-119832488D01*
X174069488Y-119958011D01*
X174069490Y-119958013D01*
X174069491Y-119958015D01*
X174171985Y-120060509D01*
X174171986Y-120060510D01*
X174171988Y-120060511D01*
X174297511Y-120132982D01*
X174297512Y-120132982D01*
X174297515Y-120132984D01*
X174437525Y-120170500D01*
X174437528Y-120170500D01*
X174582472Y-120170500D01*
X174582475Y-120170500D01*
X174722485Y-120132984D01*
X174848015Y-120060509D01*
X174950509Y-119958015D01*
X175022984Y-119832485D01*
X175060500Y-119692475D01*
X175060500Y-119547525D01*
X175022984Y-119407515D01*
X175004221Y-119375017D01*
X174950511Y-119281988D01*
X174950506Y-119281982D01*
X174848017Y-119179493D01*
X174848011Y-119179488D01*
X174722488Y-119107017D01*
X174722489Y-119107017D01*
X174711006Y-119103940D01*
X174582475Y-119069500D01*
X174437525Y-119069500D01*
X174308993Y-119103940D01*
X174297511Y-119107017D01*
X174171988Y-119179488D01*
X174171982Y-119179493D01*
X174069493Y-119281982D01*
X174069488Y-119281988D01*
X173997017Y-119407511D01*
X173997016Y-119407515D01*
X173959500Y-119547525D01*
X169193415Y-119547525D01*
X169193965Y-119546426D01*
X169224246Y-119522664D01*
X169237718Y-119515136D01*
X169249485Y-119511984D01*
X169375015Y-119439509D01*
X169477509Y-119337015D01*
X169549984Y-119211485D01*
X169587500Y-119071475D01*
X169587500Y-118926525D01*
X169549984Y-118786515D01*
X169549982Y-118786511D01*
X169515277Y-118726400D01*
X169515276Y-118726399D01*
X169512015Y-118720752D01*
X169484172Y-118672525D01*
X184107500Y-118672525D01*
X184107500Y-118817475D01*
X184136721Y-118926527D01*
X184145017Y-118957488D01*
X184217488Y-119083011D01*
X184217490Y-119083013D01*
X184217491Y-119083015D01*
X184319985Y-119185509D01*
X184319986Y-119185510D01*
X184319988Y-119185511D01*
X184445511Y-119257982D01*
X184445512Y-119257982D01*
X184445515Y-119257984D01*
X184585525Y-119295500D01*
X184585528Y-119295500D01*
X184730472Y-119295500D01*
X184730475Y-119295500D01*
X184870485Y-119257984D01*
X184996015Y-119185509D01*
X185098509Y-119083015D01*
X185170984Y-118957485D01*
X185208500Y-118817475D01*
X185208500Y-118672525D01*
X185170984Y-118532515D01*
X185144138Y-118486017D01*
X185098511Y-118406988D01*
X185098506Y-118406982D01*
X184996017Y-118304493D01*
X184996011Y-118304488D01*
X184870488Y-118232017D01*
X184870489Y-118232017D01*
X184859006Y-118228940D01*
X184730475Y-118194500D01*
X184585525Y-118194500D01*
X184456993Y-118228940D01*
X184445511Y-118232017D01*
X184319988Y-118304488D01*
X184319982Y-118304493D01*
X184217493Y-118406982D01*
X184217488Y-118406988D01*
X184145017Y-118532511D01*
X184145016Y-118532515D01*
X184107500Y-118672525D01*
X169484172Y-118672525D01*
X169477509Y-118660985D01*
X169375015Y-118558491D01*
X169375013Y-118558490D01*
X169375011Y-118558488D01*
X169249488Y-118486017D01*
X169249489Y-118486017D01*
X169238006Y-118482940D01*
X169109475Y-118448500D01*
X168964525Y-118448500D01*
X168835993Y-118482940D01*
X168824511Y-118486017D01*
X168698988Y-118558488D01*
X168698982Y-118558493D01*
X168596493Y-118660982D01*
X168596488Y-118660988D01*
X168524017Y-118786511D01*
X168524016Y-118786515D01*
X168486500Y-118926525D01*
X168486500Y-119071475D01*
X168524016Y-119211485D01*
X168524017Y-119211486D01*
X168526120Y-119219335D01*
X168524044Y-119219891D01*
X168530302Y-119278104D01*
X168499025Y-119340583D01*
X168450207Y-119369948D01*
X168451019Y-119371908D01*
X168443511Y-119375017D01*
X168317988Y-119447488D01*
X168317982Y-119447493D01*
X168215493Y-119549982D01*
X168215488Y-119549988D01*
X168143017Y-119675511D01*
X168143016Y-119675515D01*
X168105500Y-119815525D01*
X152356500Y-119815525D01*
X152356500Y-117262595D01*
X190294667Y-117262595D01*
X190294667Y-117407545D01*
X190332183Y-117547555D01*
X190332184Y-117547558D01*
X190404655Y-117673081D01*
X190404657Y-117673083D01*
X190404658Y-117673085D01*
X190507152Y-117775579D01*
X190507153Y-117775580D01*
X190507155Y-117775581D01*
X190632678Y-117848052D01*
X190632679Y-117848052D01*
X190632682Y-117848054D01*
X190772692Y-117885570D01*
X190772695Y-117885570D01*
X190917639Y-117885570D01*
X190917642Y-117885570D01*
X191057652Y-117848054D01*
X191183182Y-117775579D01*
X191285676Y-117673085D01*
X191358151Y-117547555D01*
X191395667Y-117407545D01*
X191395667Y-117262595D01*
X191358151Y-117122585D01*
X191285676Y-116997055D01*
X191183182Y-116894561D01*
X191183180Y-116894560D01*
X191183178Y-116894558D01*
X191057655Y-116822087D01*
X191057656Y-116822087D01*
X191046173Y-116819010D01*
X190917642Y-116784570D01*
X190772692Y-116784570D01*
X190644160Y-116819010D01*
X190632678Y-116822087D01*
X190507155Y-116894558D01*
X190507149Y-116894563D01*
X190404660Y-116997052D01*
X190404655Y-116997058D01*
X190332184Y-117122581D01*
X190332183Y-117122585D01*
X190294667Y-117262595D01*
X152356500Y-117262595D01*
X152356500Y-116386525D01*
X156294500Y-116386525D01*
X156294500Y-116531475D01*
X156332016Y-116671485D01*
X156332017Y-116671488D01*
X156404488Y-116797011D01*
X156404490Y-116797013D01*
X156404491Y-116797015D01*
X156506985Y-116899509D01*
X156506986Y-116899510D01*
X156506988Y-116899511D01*
X156632511Y-116971982D01*
X156632512Y-116971982D01*
X156632515Y-116971984D01*
X156772525Y-117009500D01*
X156772528Y-117009500D01*
X156917472Y-117009500D01*
X156917475Y-117009500D01*
X157057485Y-116971984D01*
X157183015Y-116899509D01*
X157285509Y-116797015D01*
X157357984Y-116671485D01*
X157395500Y-116531475D01*
X157395500Y-116386525D01*
X157357984Y-116246515D01*
X157309195Y-116162011D01*
X157285511Y-116120988D01*
X157285506Y-116120982D01*
X157183017Y-116018493D01*
X157183011Y-116018488D01*
X157057488Y-115946017D01*
X157057489Y-115946017D01*
X157046006Y-115942940D01*
X156917475Y-115908500D01*
X156772525Y-115908500D01*
X156643993Y-115942940D01*
X156632511Y-115946017D01*
X156506988Y-116018488D01*
X156506982Y-116018493D01*
X156404493Y-116120982D01*
X156404488Y-116120988D01*
X156332017Y-116246511D01*
X156332016Y-116246515D01*
X156294500Y-116386525D01*
X152356500Y-116386525D01*
X152356500Y-115751525D01*
X188562500Y-115751525D01*
X188562500Y-115896475D01*
X188595195Y-116018493D01*
X188600017Y-116036488D01*
X188672488Y-116162011D01*
X188672490Y-116162013D01*
X188672491Y-116162015D01*
X188774985Y-116264509D01*
X188774986Y-116264510D01*
X188774988Y-116264511D01*
X188900511Y-116336982D01*
X188900512Y-116336982D01*
X188900515Y-116336984D01*
X189040525Y-116374500D01*
X189040528Y-116374500D01*
X189185472Y-116374500D01*
X189185475Y-116374500D01*
X189325485Y-116336984D01*
X189451015Y-116264509D01*
X189553509Y-116162015D01*
X189625984Y-116036485D01*
X189663500Y-115896475D01*
X189663500Y-115751525D01*
X189625984Y-115611515D01*
X189586435Y-115543015D01*
X189553511Y-115485988D01*
X189553506Y-115485982D01*
X189451017Y-115383493D01*
X189451011Y-115383488D01*
X189325488Y-115311017D01*
X189325489Y-115311017D01*
X189314006Y-115307940D01*
X189185475Y-115273500D01*
X189040525Y-115273500D01*
X188911993Y-115307940D01*
X188900511Y-115311017D01*
X188774988Y-115383488D01*
X188774982Y-115383493D01*
X188672493Y-115485982D01*
X188672488Y-115485988D01*
X188600017Y-115611511D01*
X188600016Y-115611515D01*
X188562500Y-115751525D01*
X152356500Y-115751525D01*
X152356500Y-114227525D01*
X179408500Y-114227525D01*
X179408500Y-114372475D01*
X179438128Y-114483047D01*
X179446017Y-114512488D01*
X179518488Y-114638011D01*
X179518490Y-114638013D01*
X179518491Y-114638015D01*
X179620985Y-114740509D01*
X179620986Y-114740510D01*
X179620988Y-114740511D01*
X179746511Y-114812982D01*
X179746512Y-114812982D01*
X179746515Y-114812984D01*
X179886525Y-114850500D01*
X179886528Y-114850500D01*
X180031472Y-114850500D01*
X180031475Y-114850500D01*
X180171485Y-114812984D01*
X180297015Y-114740509D01*
X180399509Y-114638015D01*
X180471984Y-114512485D01*
X180509500Y-114372475D01*
X180509500Y-114227525D01*
X180471984Y-114087515D01*
X180399509Y-113961985D01*
X180297015Y-113859491D01*
X180297013Y-113859490D01*
X180297011Y-113859488D01*
X180171488Y-113787017D01*
X180171489Y-113787017D01*
X180160006Y-113783940D01*
X180031475Y-113749500D01*
X179886525Y-113749500D01*
X179757993Y-113783940D01*
X179746511Y-113787017D01*
X179620988Y-113859488D01*
X179620982Y-113859493D01*
X179518493Y-113961982D01*
X179518488Y-113961988D01*
X179446017Y-114087511D01*
X179446016Y-114087515D01*
X179408500Y-114227525D01*
X152356500Y-114227525D01*
X152356500Y-112906504D01*
X186070000Y-112906504D01*
X186070000Y-113305000D01*
X186770000Y-113305000D01*
X186770000Y-113805000D01*
X186070000Y-113805000D01*
X186070000Y-114203495D01*
X186108427Y-114396681D01*
X186108430Y-114396693D01*
X186183807Y-114578671D01*
X186183814Y-114578684D01*
X186293248Y-114742462D01*
X186293251Y-114742466D01*
X186432533Y-114881748D01*
X186432537Y-114881751D01*
X186596315Y-114991185D01*
X186596328Y-114991192D01*
X186778308Y-115066569D01*
X186820000Y-115074862D01*
X186820000Y-114271988D01*
X186829940Y-114289205D01*
X186885795Y-114345060D01*
X186954204Y-114384556D01*
X187030504Y-114405000D01*
X187109496Y-114405000D01*
X187185796Y-114384556D01*
X187254205Y-114345060D01*
X187310060Y-114289205D01*
X187320000Y-114271988D01*
X187320000Y-115074862D01*
X187361690Y-115066569D01*
X187361692Y-115066569D01*
X187498656Y-115009837D01*
X187498658Y-115009837D01*
X187543675Y-114991190D01*
X187543684Y-114991185D01*
X187707462Y-114881751D01*
X187707466Y-114881748D01*
X187846748Y-114742466D01*
X187846751Y-114742462D01*
X187956185Y-114578684D01*
X187956192Y-114578671D01*
X188031569Y-114396693D01*
X188031572Y-114396681D01*
X188069999Y-114203495D01*
X188070000Y-114203492D01*
X188070000Y-113805000D01*
X187370000Y-113805000D01*
X187370000Y-113305000D01*
X187908216Y-113305000D01*
X187975255Y-113324685D01*
X188015602Y-113366999D01*
X188039485Y-113408365D01*
X188146635Y-113515515D01*
X188277865Y-113591281D01*
X188424234Y-113630500D01*
X188424236Y-113630500D01*
X188575764Y-113630500D01*
X188575766Y-113630500D01*
X188722135Y-113591281D01*
X188853365Y-113515515D01*
X188960515Y-113408365D01*
X189036281Y-113277135D01*
X189075500Y-113130766D01*
X189075500Y-112979234D01*
X189036281Y-112832865D01*
X189034930Y-112830525D01*
X189568500Y-112830525D01*
X189568500Y-112975475D01*
X189606016Y-113115485D01*
X189606017Y-113115488D01*
X189678488Y-113241011D01*
X189678490Y-113241013D01*
X189678491Y-113241015D01*
X189780985Y-113343509D01*
X189780986Y-113343510D01*
X189780988Y-113343511D01*
X189906511Y-113415982D01*
X189906512Y-113415982D01*
X189906515Y-113415984D01*
X190046525Y-113453500D01*
X190046528Y-113453500D01*
X190191472Y-113453500D01*
X190191475Y-113453500D01*
X190331485Y-113415984D01*
X190457015Y-113343509D01*
X190559509Y-113241015D01*
X190631984Y-113115485D01*
X190669500Y-112975475D01*
X190669500Y-112830525D01*
X190631984Y-112690515D01*
X190581407Y-112602914D01*
X190559511Y-112564988D01*
X190559506Y-112564982D01*
X190457017Y-112462493D01*
X190457011Y-112462488D01*
X190331488Y-112390017D01*
X190331489Y-112390017D01*
X190320006Y-112386940D01*
X190191475Y-112352500D01*
X190046525Y-112352500D01*
X189917993Y-112386940D01*
X189906511Y-112390017D01*
X189780988Y-112462488D01*
X189780982Y-112462493D01*
X189678493Y-112564982D01*
X189678488Y-112564988D01*
X189606017Y-112690511D01*
X189606016Y-112690515D01*
X189568500Y-112830525D01*
X189034930Y-112830525D01*
X188960515Y-112701635D01*
X188853365Y-112594485D01*
X188776478Y-112550094D01*
X188722136Y-112518719D01*
X188648950Y-112499109D01*
X188575766Y-112479500D01*
X188424234Y-112479500D01*
X188277863Y-112518719D01*
X188197735Y-112564982D01*
X188146635Y-112594485D01*
X188146633Y-112594486D01*
X188139597Y-112598549D01*
X188138327Y-112596349D01*
X188084995Y-112616960D01*
X188016552Y-112602914D01*
X187966568Y-112554094D01*
X187960131Y-112540838D01*
X187956192Y-112531328D01*
X187956185Y-112531315D01*
X187846751Y-112367537D01*
X187846748Y-112367533D01*
X187707466Y-112228251D01*
X187707462Y-112228248D01*
X187543684Y-112118814D01*
X187543671Y-112118807D01*
X187361691Y-112043429D01*
X187361683Y-112043427D01*
X187320000Y-112035135D01*
X187320000Y-112838011D01*
X187310060Y-112820795D01*
X187254205Y-112764940D01*
X187185796Y-112725444D01*
X187109496Y-112705000D01*
X187030504Y-112705000D01*
X186954204Y-112725444D01*
X186885795Y-112764940D01*
X186829940Y-112820795D01*
X186820000Y-112838011D01*
X186820000Y-112035136D01*
X186819999Y-112035135D01*
X186778316Y-112043427D01*
X186778308Y-112043429D01*
X186596328Y-112118807D01*
X186596315Y-112118814D01*
X186432537Y-112228248D01*
X186432533Y-112228251D01*
X186293251Y-112367533D01*
X186293248Y-112367537D01*
X186183814Y-112531315D01*
X186183807Y-112531328D01*
X186108430Y-112713306D01*
X186108427Y-112713318D01*
X186070000Y-112906504D01*
X152356500Y-112906504D01*
X152356500Y-111306525D01*
X179535500Y-111306525D01*
X179535500Y-111451475D01*
X179573016Y-111591485D01*
X179573017Y-111591488D01*
X179645488Y-111717011D01*
X179645490Y-111717013D01*
X179645491Y-111717015D01*
X179747985Y-111819509D01*
X179747986Y-111819510D01*
X179747988Y-111819511D01*
X179873511Y-111891982D01*
X179873512Y-111891982D01*
X179873515Y-111891984D01*
X180013525Y-111929500D01*
X180013528Y-111929500D01*
X180158472Y-111929500D01*
X180158475Y-111929500D01*
X180298485Y-111891984D01*
X180424015Y-111819509D01*
X180526509Y-111717015D01*
X180598984Y-111591485D01*
X180636500Y-111451475D01*
X180636500Y-111306525D01*
X180598984Y-111166515D01*
X180526509Y-111040985D01*
X180424015Y-110938491D01*
X180424013Y-110938490D01*
X180424011Y-110938488D01*
X180298488Y-110866017D01*
X180298489Y-110866017D01*
X180287006Y-110862940D01*
X180158475Y-110828500D01*
X180013525Y-110828500D01*
X179884993Y-110862940D01*
X179873511Y-110866017D01*
X179747988Y-110938488D01*
X179747982Y-110938493D01*
X179645493Y-111040982D01*
X179645488Y-111040988D01*
X179573017Y-111166511D01*
X179573016Y-111166515D01*
X179535500Y-111306525D01*
X152356500Y-111306525D01*
X152356500Y-110417525D01*
X160866500Y-110417525D01*
X160866500Y-110562475D01*
X160903621Y-110701011D01*
X160904017Y-110702488D01*
X160976488Y-110828011D01*
X160976490Y-110828013D01*
X160976491Y-110828015D01*
X161078985Y-110930509D01*
X161078986Y-110930510D01*
X161078988Y-110930511D01*
X161204511Y-111002982D01*
X161204512Y-111002982D01*
X161204515Y-111002984D01*
X161344525Y-111040500D01*
X161344528Y-111040500D01*
X161489472Y-111040500D01*
X161489475Y-111040500D01*
X161629485Y-111002984D01*
X161755015Y-110930509D01*
X161857509Y-110828015D01*
X161929984Y-110702485D01*
X161967500Y-110562475D01*
X161967500Y-110417525D01*
X161933470Y-110290525D01*
X165311500Y-110290525D01*
X165311500Y-110435475D01*
X165345529Y-110562472D01*
X165349017Y-110575488D01*
X165421488Y-110701011D01*
X165421490Y-110701013D01*
X165421491Y-110701015D01*
X165523985Y-110803509D01*
X165523987Y-110803510D01*
X165649511Y-110875982D01*
X165649512Y-110875982D01*
X165649515Y-110875984D01*
X165789525Y-110913500D01*
X165789528Y-110913500D01*
X165934472Y-110913500D01*
X165934475Y-110913500D01*
X166074485Y-110875984D01*
X166200015Y-110803509D01*
X166302509Y-110701015D01*
X166374984Y-110575485D01*
X166412500Y-110435475D01*
X166412500Y-110290525D01*
X166374984Y-110150515D01*
X166331385Y-110075000D01*
X166302511Y-110024988D01*
X166302506Y-110024982D01*
X166200017Y-109922493D01*
X166200011Y-109922488D01*
X166074488Y-109850017D01*
X166074489Y-109850017D01*
X166063006Y-109846940D01*
X165934475Y-109812500D01*
X165789525Y-109812500D01*
X165660993Y-109846940D01*
X165649511Y-109850017D01*
X165523988Y-109922488D01*
X165523982Y-109922493D01*
X165421493Y-110024982D01*
X165421488Y-110024988D01*
X165349017Y-110150511D01*
X165349016Y-110150515D01*
X165311500Y-110290525D01*
X161933470Y-110290525D01*
X161929984Y-110277515D01*
X161913338Y-110248684D01*
X161857511Y-110151988D01*
X161857506Y-110151982D01*
X161755017Y-110049493D01*
X161755011Y-110049488D01*
X161629488Y-109977017D01*
X161629489Y-109977017D01*
X161618006Y-109973940D01*
X161489475Y-109939500D01*
X161344525Y-109939500D01*
X161215993Y-109973940D01*
X161204511Y-109977017D01*
X161078988Y-110049488D01*
X161078982Y-110049493D01*
X160976493Y-110151982D01*
X160976488Y-110151988D01*
X160904017Y-110277511D01*
X160904016Y-110277515D01*
X160866500Y-110417525D01*
X152356500Y-110417525D01*
X152356500Y-109020525D01*
X161628500Y-109020525D01*
X161628500Y-109165475D01*
X161666016Y-109305485D01*
X161666017Y-109305488D01*
X161738488Y-109431011D01*
X161738490Y-109431013D01*
X161738491Y-109431015D01*
X161840985Y-109533509D01*
X161840986Y-109533510D01*
X161840988Y-109533511D01*
X161966511Y-109605982D01*
X161966512Y-109605982D01*
X161966515Y-109605984D01*
X162106525Y-109643500D01*
X162106528Y-109643500D01*
X162251472Y-109643500D01*
X162251475Y-109643500D01*
X162391485Y-109605984D01*
X162517015Y-109533509D01*
X162619509Y-109431015D01*
X162691984Y-109305485D01*
X162729500Y-109165475D01*
X162729500Y-109020525D01*
X162691984Y-108880515D01*
X162689668Y-108876504D01*
X186070000Y-108876504D01*
X186070000Y-109125000D01*
X186770000Y-109125000D01*
X186770000Y-109625000D01*
X186070000Y-109625000D01*
X186070000Y-109873495D01*
X186108427Y-110066681D01*
X186108430Y-110066693D01*
X186183807Y-110248671D01*
X186183814Y-110248684D01*
X186293248Y-110412462D01*
X186293251Y-110412466D01*
X186432533Y-110551748D01*
X186432537Y-110551751D01*
X186596315Y-110661185D01*
X186596328Y-110661192D01*
X186778308Y-110736569D01*
X186820000Y-110744862D01*
X186820000Y-109941988D01*
X186829940Y-109959205D01*
X186885795Y-110015060D01*
X186954204Y-110054556D01*
X187030504Y-110075000D01*
X187109496Y-110075000D01*
X187185796Y-110054556D01*
X187254205Y-110015060D01*
X187310060Y-109959205D01*
X187320000Y-109941988D01*
X187320000Y-110744862D01*
X187361690Y-110736569D01*
X187361692Y-110736569D01*
X187543671Y-110661192D01*
X187543684Y-110661185D01*
X187707462Y-110551751D01*
X187707466Y-110551748D01*
X187846748Y-110412466D01*
X187846751Y-110412462D01*
X187956185Y-110248684D01*
X187956192Y-110248671D01*
X188031569Y-110066693D01*
X188031572Y-110066681D01*
X188069999Y-109873495D01*
X188070000Y-109873492D01*
X188070000Y-109625000D01*
X187370000Y-109625000D01*
X187370000Y-109125000D01*
X188070000Y-109125000D01*
X188070000Y-108876508D01*
X188069999Y-108876504D01*
X188031572Y-108683318D01*
X188031569Y-108683306D01*
X187956192Y-108501328D01*
X187956185Y-108501315D01*
X187846751Y-108337537D01*
X187846748Y-108337533D01*
X187707466Y-108198251D01*
X187707462Y-108198248D01*
X187543684Y-108088814D01*
X187543671Y-108088807D01*
X187361691Y-108013429D01*
X187361683Y-108013427D01*
X187320000Y-108005135D01*
X187320000Y-108808011D01*
X187310060Y-108790795D01*
X187254205Y-108734940D01*
X187185796Y-108695444D01*
X187109496Y-108675000D01*
X187030504Y-108675000D01*
X186954204Y-108695444D01*
X186885795Y-108734940D01*
X186829940Y-108790795D01*
X186820000Y-108808011D01*
X186820000Y-108005136D01*
X186819999Y-108005135D01*
X186778316Y-108013427D01*
X186778308Y-108013429D01*
X186596328Y-108088807D01*
X186596315Y-108088814D01*
X186432537Y-108198248D01*
X186432533Y-108198251D01*
X186293251Y-108337533D01*
X186293248Y-108337537D01*
X186183814Y-108501315D01*
X186183807Y-108501328D01*
X186108430Y-108683306D01*
X186108427Y-108683318D01*
X186070000Y-108876504D01*
X162689668Y-108876504D01*
X162619511Y-108754988D01*
X162619506Y-108754982D01*
X162517017Y-108652493D01*
X162517011Y-108652488D01*
X162391488Y-108580017D01*
X162391489Y-108580017D01*
X162380006Y-108576940D01*
X162251475Y-108542500D01*
X162106525Y-108542500D01*
X161977993Y-108576940D01*
X161966511Y-108580017D01*
X161840988Y-108652488D01*
X161840982Y-108652493D01*
X161738493Y-108754982D01*
X161738488Y-108754988D01*
X161666017Y-108880511D01*
X161666016Y-108880515D01*
X161628500Y-109020525D01*
X152356500Y-109020525D01*
X152356500Y-106377500D01*
X152376185Y-106310461D01*
X152428989Y-106264706D01*
X152480500Y-106253500D01*
X196682500Y-106253500D01*
X196749539Y-106273185D01*
G37*
G04 #@! TD.AperFunction*
M02*
