M48
; DRILL file {KiCad 9.0.5} date 2026-03-09T10:36:54+0100
; FORMAT={-:-/ absolute / metric / decimal}
; #@! TF.CreationDate,2026-03-09T10:36:54+01:00
; #@! TF.GenerationSoftware,Kicad,Pcbnew,9.0.5
; #@! TF.FileFunction,Plated,1,4,PTH
FMAT,2
METRIC
; #@! TA.AperFunction,Plated,PTH,ViaDrill
T1C0.300
; #@! TA.AperFunction,Plated,PTH,ComponentDrill
T2C0.600
; #@! TA.AperFunction,Plated,PTH,ComponentDrill
T3C1.000
; #@! TA.AperFunction,Plated,PTH,ComponentDrill
T4C1.500
%
G90
G05
T1
X152.66Y-107.442
X152.66Y-109.728
X152.66Y-111.76
X156.27Y-123.14
X156.464Y-119.126
X156.82Y-135.5
X156.845Y-107.442
X156.845Y-116.459
X157.18Y-128.732
X157.55Y-137.23
X157.861Y-130.302
X158.48Y-120.05
X158.496Y-110.236
X159.28Y-137.21
X159.8Y-126.3
X161.036Y-131.699
X161.417Y-110.49
X162.179Y-109.093
X162.66Y-137.16
X162.75Y-123.761
X163.322Y-124.333
X163.576Y-132.969
X163.703Y-121.92
X163.83Y-135.89
X164.1Y-126.7
X164.211Y-132.588
X164.465Y-128.778
X164.5Y-140.57
X164.846Y-133.096
X165.5Y-109.1
X165.8Y-108.4
X165.862Y-110.363
X166.04Y-107.645
X166.37Y-132.334
X167.376Y-127.04
X167.68Y-107.879
X168.084Y-122.805
X168.148Y-132.207
X168.323Y-112.22
X168.402Y-115.57
X168.451Y-113.87
X168.529Y-143.51
X168.54Y-107.88
X168.656Y-119.888
X169.03Y-123.62
X169.037Y-118.999
X169.05Y-144.39
X169.4Y-107.9
X169.49Y-111.197
X169.545Y-116.586
X170.079Y-143.357
X170.2Y-137.61
X170.3Y-108.1
X170.93Y-130.35
X170.96Y-123.328
X171.14Y-111.054
X171.14Y-116.657
X171.37Y-144.45
X171.45Y-135.999
X172.0Y-108.2
X172.79Y-111.182
X172.79Y-116.643
X172.82Y-123.772
X172.9Y-108.2
X173.06Y-130.25
X173.469Y-141.677
X173.7Y-108.3
X173.91Y-137.36
X173.99Y-115.57
X174.068Y-113.87
X174.069Y-112.22
X174.4Y-146.8
X174.5Y-108.3
X174.51Y-119.62
X174.64Y-124.37
X174.76Y-140.31
X175.55Y-149.65
X176.05Y-144.66
X176.1Y-136.2
X176.3Y-108.3
X176.31Y-124.013
X176.7Y-109.6
X176.821Y-110.279
X176.826Y-130.759
X177.3Y-145.75
X178.585Y-139.275
X179.407Y-120.177
X179.514Y-106.87
X179.85Y-139.36
X179.9Y-147.45
X179.959Y-114.3
X180.0Y-136.2
X180.086Y-111.379
X180.43Y-123.49
X180.74Y-126.09
X180.79Y-127.82
X180.91Y-143.38
X180.99Y-129.54
X181.102Y-107.442
X181.63Y-134.57
X182.19Y-122.52
X182.45Y-145.65
X182.89Y-125.95
X183.1Y-121.2
X183.21Y-134.39
X183.39Y-130.18
X183.502Y-132.827
X183.61Y-124.7
X183.646Y-123.374
X184.0Y-149.4
X184.43Y-134.28
X184.658Y-107.696
X184.658Y-118.745
X184.7Y-128.5
X187.96Y-112.141
X188.236Y-115.973
X188.468Y-109.474
X188.49Y-141.91
X188.75Y-123.28
X189.113Y-115.824
X189.23Y-125.09
X189.4Y-136.3
X189.4Y-137.2
X189.4Y-138.3
X189.95Y-135.42
X189.96Y-139.34
X190.119Y-112.903
X190.5Y-136.3
X190.5Y-137.2
X190.5Y-138.3
X190.845Y-117.335
X191.85Y-117.28
X193.1Y-123.1
X193.29Y-140.86
X193.322Y-121.578
X193.469Y-138.755
X194.07Y-132.37
X194.689Y-115.205
X194.691Y-109.347
X194.818Y-112.014
X195.045Y-132.4
X195.52Y-140.09
X195.677Y-135.773
X195.75Y-141.53
X195.9Y-118.7
X195.96Y-137.83
T3
X154.178Y-123.19
X154.178Y-125.73
X154.178Y-128.27
X154.178Y-130.81
X154.178Y-133.35
X154.178Y-135.89
X154.178Y-138.43
T4
X160.47Y-151.91
X160.47Y-154.91
X164.47Y-151.91
X164.47Y-154.91
X168.47Y-151.91
X168.47Y-154.91
X172.47Y-151.91
X172.47Y-154.91
X176.47Y-151.91
X176.47Y-154.91
X180.47Y-151.91
X180.47Y-154.91
X184.47Y-151.91
X184.47Y-154.91
X188.47Y-151.91
X188.47Y-154.91
T2
X187.07Y-109.775G85X187.07Y-108.975
G05
X187.07Y-114.105G85X187.07Y-113.005
G05
X195.71Y-109.775G85X195.71Y-108.975
G05
X195.71Y-114.105G85X195.71Y-113.005
G05
M30
