G04 #@! TF.GenerationSoftware,KiCad,Pcbnew,9.0.5*
G04 #@! TF.CreationDate,2026-03-09T10:43:17+01:00*
G04 #@! TF.ProjectId,CanBus_Sniffer_v1,43616e42-7573-45f5-936e-69666665725f,rev?*
G04 #@! TF.SameCoordinates,Original*
G04 #@! TF.FileFunction,Paste,Top*
G04 #@! TF.FilePolarity,Positive*
%FSLAX46Y46*%
G04 Gerber Fmt 4.6, Leading zero omitted, Abs format (unit mm)*
G04 Created by KiCad (PCBNEW 9.0.5) date 2026-03-09 10:43:17*
%MOMM*%
%LPD*%
G01*
G04 APERTURE LIST*
G04 Aperture macros list*
%AMRoundRect*
0 Rectangle with rounded corners*
0 $1 Rounding radius*
0 $2 $3 $4 $5 $6 $7 $8 $9 X,Y pos of 4 corners*
0 Add a 4 corners polygon primitive as box body*
4,1,4,$2,$3,$4,$5,$6,$7,$8,$9,$2,$3,0*
0 Add four circle primitives for the rounded corners*
1,1,$1+$1,$2,$3*
1,1,$1+$1,$4,$5*
1,1,$1+$1,$6,$7*
1,1,$1+$1,$8,$9*
0 Add four rect primitives between the rounded corners*
20,1,$1+$1,$2,$3,$4,$5,0*
20,1,$1+$1,$4,$5,$6,$7,0*
20,1,$1+$1,$6,$7,$8,$9,0*
20,1,$1+$1,$8,$9,$2,$3,0*%
%AMOutline5P*
0 Free polygon, 5 corners , with rotation*
0 The origin of the aperture is its center*
0 number of corners: always 5*
0 $1 to $10 corner X, Y*
0 $11 Rotation angle, in degrees counterclockwise*
0 create outline with 5 corners*
4,1,5,$1,$2,$3,$4,$5,$6,$7,$8,$9,$10,$1,$2,$11*%
%AMOutline6P*
0 Free polygon, 6 corners , with rotation*
0 The origin of the aperture is its center*
0 number of corners: always 6*
0 $1 to $12 corner X, Y*
0 $13 Rotation angle, in degrees counterclockwise*
0 create outline with 6 corners*
4,1,6,$1,$2,$3,$4,$5,$6,$7,$8,$9,$10,$11,$12,$1,$2,$13*%
%AMOutline7P*
0 Free polygon, 7 corners , with rotation*
0 The origin of the aperture is its center*
0 number of corners: always 7*
0 $1 to $14 corner X, Y*
0 $15 Rotation angle, in degrees counterclockwise*
0 create outline with 7 corners*
4,1,7,$1,$2,$3,$4,$5,$6,$7,$8,$9,$10,$11,$12,$13,$14,$1,$2,$15*%
%AMOutline8P*
0 Free polygon, 8 corners , with rotation*
0 The origin of the aperture is its center*
0 number of corners: always 8*
0 $1 to $16 corner X, Y*
0 $17 Rotation angle, in degrees counterclockwise*
0 create outline with 8 corners*
4,1,8,$1,$2,$3,$4,$5,$6,$7,$8,$9,$10,$11,$12,$13,$14,$15,$16,$1,$2,$17*%
G04 Aperture macros list end*
%ADD10R,1.929998X0.909998*%
%ADD11R,1.911559X0.896057*%
%ADD12R,0.650000X1.500000*%
%ADD13RoundRect,0.237500X-0.287500X-0.237500X0.287500X-0.237500X0.287500X0.237500X-0.287500X0.237500X0*%
%ADD14RoundRect,0.230000X-0.230000X-0.375000X0.230000X-0.375000X0.230000X0.375000X-0.230000X0.375000X0*%
%ADD15RoundRect,0.150000X-0.825000X-0.150000X0.825000X-0.150000X0.825000X0.150000X-0.825000X0.150000X0*%
%ADD16RoundRect,0.237500X0.237500X-0.300000X0.237500X0.300000X-0.237500X0.300000X-0.237500X-0.300000X0*%
%ADD17RoundRect,0.200000X-0.200000X0.250000X-0.200000X-0.250000X0.200000X-0.250000X0.200000X0.250000X0*%
%ADD18R,0.909998X1.929998*%
%ADD19R,0.896057X1.911559*%
%ADD20RoundRect,0.237500X-0.237500X0.250000X-0.237500X-0.250000X0.237500X-0.250000X0.237500X0.250000X0*%
%ADD21RoundRect,0.250000X-1.000000X-0.900000X1.000000X-0.900000X1.000000X0.900000X-1.000000X0.900000X0*%
%ADD22RoundRect,0.250000X0.350000X-0.275000X0.350000X0.275000X-0.350000X0.275000X-0.350000X-0.275000X0*%
%ADD23RoundRect,0.237500X-0.300000X-0.237500X0.300000X-0.237500X0.300000X0.237500X-0.300000X0.237500X0*%
%ADD24R,0.800000X0.400000*%
%ADD25R,0.400000X0.800000*%
%ADD26Outline5P,-0.600000X0.204000X-0.204000X0.600000X0.600000X0.600000X0.600000X-0.600000X-0.600000X-0.600000X0.000000*%
%ADD27R,1.200000X1.200000*%
%ADD28R,0.800000X0.800000*%
%ADD29R,0.475000X0.300000*%
%ADD30RoundRect,0.237500X0.250000X0.237500X-0.250000X0.237500X-0.250000X-0.237500X0.250000X-0.237500X0*%
%ADD31RoundRect,0.237500X0.237500X-0.250000X0.237500X0.250000X-0.237500X0.250000X-0.237500X-0.250000X0*%
%ADD32RoundRect,0.237500X-0.237500X0.300000X-0.237500X-0.300000X0.237500X-0.300000X0.237500X0.300000X0*%
%ADD33RoundRect,0.250000X0.625000X-0.400000X0.625000X0.400000X-0.625000X0.400000X-0.625000X-0.400000X0*%
%ADD34RoundRect,0.162500X0.162500X-0.447500X0.162500X0.447500X-0.162500X0.447500X-0.162500X-0.447500X0*%
%ADD35RoundRect,0.237500X-0.250000X-0.237500X0.250000X-0.237500X0.250000X0.237500X-0.250000X0.237500X0*%
%ADD36RoundRect,0.375000X-0.375000X0.625000X-0.375000X-0.625000X0.375000X-0.625000X0.375000X0.625000X0*%
%ADD37RoundRect,0.500000X-1.400000X0.500000X-1.400000X-0.500000X1.400000X-0.500000X1.400000X0.500000X0*%
%ADD38RoundRect,0.250000X-0.250000X0.475000X-0.250000X-0.475000X0.250000X-0.475000X0.250000X0.475000X0*%
%ADD39RoundRect,0.150000X-0.150000X0.512500X-0.150000X-0.512500X0.150000X-0.512500X0.150000X0.512500X0*%
%ADD40RoundRect,0.250000X1.000000X0.650000X-1.000000X0.650000X-1.000000X-0.650000X1.000000X-0.650000X0*%
%ADD41RoundRect,0.112500X0.112500X-0.187500X0.112500X0.187500X-0.112500X0.187500X-0.112500X-0.187500X0*%
%ADD42RoundRect,0.250000X-1.000000X-0.650000X1.000000X-0.650000X1.000000X0.650000X-1.000000X0.650000X0*%
%ADD43RoundRect,0.250000X0.412500X0.650000X-0.412500X0.650000X-0.412500X-0.650000X0.412500X-0.650000X0*%
%ADD44RoundRect,0.250000X0.450000X-0.350000X0.450000X0.350000X-0.450000X0.350000X-0.450000X-0.350000X0*%
%ADD45R,1.600000X0.300000*%
%ADD46RoundRect,0.150000X0.150000X0.425000X-0.150000X0.425000X-0.150000X-0.425000X0.150000X-0.425000X0*%
%ADD47RoundRect,0.075000X0.075000X0.500000X-0.075000X0.500000X-0.075000X-0.500000X0.075000X-0.500000X0*%
%ADD48O,1.000000X2.100000*%
%ADD49O,1.000000X1.800000*%
%ADD50RoundRect,0.250000X-0.625000X0.400000X-0.625000X-0.400000X0.625000X-0.400000X0.625000X0.400000X0*%
%ADD51RoundRect,0.225000X-0.250000X0.225000X-0.250000X-0.225000X0.250000X-0.225000X0.250000X0.225000X0*%
%ADD52R,1.500000X2.400000*%
%ADD53RoundRect,0.237500X0.300000X0.237500X-0.300000X0.237500X-0.300000X-0.237500X0.300000X-0.237500X0*%
%ADD54RoundRect,0.250000X1.450000X-0.400000X1.450000X0.400000X-1.450000X0.400000X-1.450000X-0.400000X0*%
%ADD55RoundRect,0.250000X-1.075000X0.400000X-1.075000X-0.400000X1.075000X-0.400000X1.075000X0.400000X0*%
%ADD56RoundRect,0.250000X1.275000X1.125000X-1.275000X1.125000X-1.275000X-1.125000X1.275000X-1.125000X0*%
%ADD57RoundRect,0.200000X0.900000X0.200000X-0.900000X0.200000X-0.900000X-0.200000X0.900000X-0.200000X0*%
G04 APERTURE END LIST*
D10*
X184345001Y-112374999D03*
D11*
X184336840Y-108891972D03*
D12*
X166370000Y-139065000D03*
X167640000Y-139065000D03*
X168910000Y-139065000D03*
X170180000Y-139065000D03*
X171450000Y-139065000D03*
X172720000Y-139065000D03*
X173990000Y-139065000D03*
X173990000Y-133665000D03*
X172720000Y-133665000D03*
X171450000Y-133665000D03*
X170180000Y-133665000D03*
X168910000Y-133665000D03*
X167640000Y-133665000D03*
X166370000Y-133665000D03*
D13*
X194361000Y-121300000D03*
X196111000Y-121300000D03*
D14*
X189380000Y-136605000D03*
X189380000Y-138105000D03*
X190520000Y-136605000D03*
X190520000Y-138105000D03*
D15*
X187475000Y-135450000D03*
X187475000Y-136720000D03*
X187475000Y-137990000D03*
X187475000Y-139260000D03*
X192425000Y-139260000D03*
X192425000Y-137990000D03*
X192425000Y-136720000D03*
X192425000Y-135450000D03*
D16*
X179485000Y-129545206D03*
X179485000Y-127820206D03*
D17*
X170079000Y-140894500D03*
X170079000Y-142294500D03*
X171179000Y-142294500D03*
X171179000Y-140894500D03*
D18*
X181165001Y-116174601D03*
D19*
X184648028Y-116166440D03*
D20*
X195960000Y-134935000D03*
X195960000Y-136760000D03*
D21*
X190700000Y-144100000D03*
X195000000Y-144100000D03*
D22*
X188200000Y-145450000D03*
X188200000Y-143150000D03*
D23*
X177187500Y-136200000D03*
X178912500Y-136200000D03*
D24*
X164140000Y-107920000D03*
X164140000Y-108770000D03*
X164140000Y-109620000D03*
X164140000Y-110470000D03*
X164140000Y-111320000D03*
X164140000Y-112170000D03*
X164140000Y-113020000D03*
X164140000Y-113870000D03*
X164140000Y-114720000D03*
X164140000Y-115570000D03*
X164140000Y-116420000D03*
X164140000Y-117270000D03*
X164140000Y-118120000D03*
X164140000Y-118970000D03*
X164140000Y-119820000D03*
D25*
X165190000Y-120870000D03*
X166040000Y-120870000D03*
X166890000Y-120870000D03*
X167740000Y-120870000D03*
X168590000Y-120870000D03*
X169440000Y-120870000D03*
X170290000Y-120870000D03*
X171140000Y-120870000D03*
X171990000Y-120870000D03*
X172840000Y-120870000D03*
X173690000Y-120870000D03*
X174540000Y-120870000D03*
X175390000Y-120870000D03*
X176240000Y-120870000D03*
X177090000Y-120870000D03*
D24*
X178140000Y-119820000D03*
X178140000Y-118970000D03*
X178140000Y-118120000D03*
X178140000Y-117270000D03*
X178140000Y-116420000D03*
X178140000Y-115570000D03*
X178140000Y-114720000D03*
X178140000Y-113870000D03*
X178140000Y-113020000D03*
X178140000Y-112170000D03*
X178140000Y-111320000D03*
X178140000Y-110470000D03*
X178140000Y-109620000D03*
X178140000Y-108770000D03*
X178140000Y-107920000D03*
D25*
X177090000Y-106870000D03*
X176240000Y-106870000D03*
X175390000Y-106870000D03*
X174540000Y-106870000D03*
X173690000Y-106870000D03*
X172840000Y-106870000D03*
X171990000Y-106870000D03*
X171140000Y-106870000D03*
X170290000Y-106870000D03*
X169440000Y-106870000D03*
X168590000Y-106870000D03*
X167740000Y-106870000D03*
X166890000Y-106870000D03*
X166040000Y-106870000D03*
X165190000Y-106870000D03*
D26*
X169490000Y-112220000D03*
D27*
X169490000Y-113870000D03*
X169490000Y-115520000D03*
X171140000Y-112220000D03*
X171140000Y-113870000D03*
X171140000Y-115520000D03*
X172790000Y-112220000D03*
X172790000Y-113870000D03*
X172790000Y-115520000D03*
D28*
X164140000Y-106870000D03*
X164140000Y-120870000D03*
X178140000Y-120870000D03*
X178140000Y-106870000D03*
D29*
X182885000Y-125000000D03*
X182885000Y-124500000D03*
X182885000Y-124000000D03*
X182885000Y-123500000D03*
X181209000Y-123500000D03*
X181209000Y-124000000D03*
X181209000Y-124500000D03*
X181209000Y-125000000D03*
D16*
X194440000Y-136720000D03*
X194440000Y-134995000D03*
D30*
X159395000Y-113055600D03*
X157570000Y-113055600D03*
D13*
X153658600Y-107492800D03*
X155408600Y-107492800D03*
D31*
X180070000Y-110315000D03*
X180070000Y-108490000D03*
D32*
X194440000Y-138365000D03*
X194440000Y-140090000D03*
X179445000Y-124360206D03*
X179445000Y-126085206D03*
D33*
X169050000Y-148800000D03*
X169050000Y-145700000D03*
D23*
X187111300Y-116879200D03*
X188836300Y-116879200D03*
D34*
X178950000Y-148960000D03*
X180850000Y-148960000D03*
X179900000Y-146340000D03*
D35*
X186937500Y-140847500D03*
X188762500Y-140847500D03*
D23*
X185801000Y-123571000D03*
X187526000Y-123571000D03*
D31*
X194070000Y-133400000D03*
X194070000Y-131575000D03*
D36*
X162700000Y-140560000D03*
X160400000Y-140560000D03*
D37*
X160400000Y-146860000D03*
D36*
X158100000Y-140560000D03*
D38*
X154880000Y-113940000D03*
X153180000Y-113940000D03*
X154880000Y-119090000D03*
X153180000Y-119090000D03*
D23*
X185801000Y-125095000D03*
X187526000Y-125095000D03*
D39*
X192337500Y-116172500D03*
X191387500Y-116172500D03*
X190437500Y-116172500D03*
X190437500Y-118447500D03*
X191387500Y-118447500D03*
X192337500Y-118447500D03*
D35*
X194032500Y-117729000D03*
X195857500Y-117729000D03*
X194289700Y-123046800D03*
X196114700Y-123046800D03*
D20*
X195710000Y-131575000D03*
X195710000Y-133400000D03*
D40*
X189267500Y-132827500D03*
X185267500Y-132827500D03*
D35*
X183607500Y-139347500D03*
X185432500Y-139347500D03*
D41*
X181790000Y-113760000D03*
X181790000Y-111660000D03*
D42*
X190825000Y-148100000D03*
X194825000Y-148100000D03*
D16*
X181580000Y-110265000D03*
X181580000Y-108540000D03*
D23*
X160681500Y-133096000D03*
X162406500Y-133096000D03*
D35*
X194073700Y-116152800D03*
X195898700Y-116152800D03*
D43*
X161232000Y-107367000D03*
X158107000Y-107367000D03*
D16*
X175500000Y-148512500D03*
X175500000Y-146787500D03*
D44*
X181640000Y-137697500D03*
X181640000Y-135697500D03*
D45*
X159209000Y-129708000D03*
X159209000Y-130358000D03*
X159209000Y-131008000D03*
X159209000Y-131658000D03*
X162609000Y-131658000D03*
X162609000Y-131008000D03*
X162609000Y-130358000D03*
X162609000Y-129708000D03*
D23*
X190357500Y-140857500D03*
X192082500Y-140857500D03*
D46*
X194590000Y-114130000D03*
X193790000Y-114130000D03*
D47*
X192640000Y-114130000D03*
X191640000Y-114130000D03*
X191140000Y-114130000D03*
X190140000Y-114130000D03*
D46*
X188990000Y-114130000D03*
X188190000Y-114130000D03*
X188190000Y-114130000D03*
X188990000Y-114130000D03*
D47*
X189640000Y-114130000D03*
X190640000Y-114130000D03*
X192140000Y-114130000D03*
X193140000Y-114130000D03*
D46*
X193790000Y-114130000D03*
X194590000Y-114130000D03*
D48*
X195710000Y-113555000D03*
D49*
X195710000Y-109375000D03*
D48*
X187070000Y-113555000D03*
D49*
X187070000Y-109375000D03*
D13*
X153658600Y-109728000D03*
X155408600Y-109728000D03*
D30*
X159395000Y-114732000D03*
X157570000Y-114732000D03*
D50*
X171400000Y-145700000D03*
X171400000Y-148800000D03*
D35*
X158013000Y-117355600D03*
X159838000Y-117355600D03*
D32*
X172729000Y-140869500D03*
X172729000Y-142594500D03*
X164465000Y-129794000D03*
X164465000Y-131519000D03*
D16*
X185380000Y-137222500D03*
X185380000Y-135497500D03*
D30*
X183030500Y-118618000D03*
X181205500Y-118618000D03*
D51*
X184000000Y-146875000D03*
X184000000Y-148425000D03*
D41*
X158128700Y-120805100D03*
X158128700Y-118705100D03*
D16*
X164846000Y-135863500D03*
X164846000Y-134138500D03*
D23*
X157532000Y-138376000D03*
X159257000Y-138376000D03*
X160934500Y-138376000D03*
X162659500Y-138376000D03*
D52*
X194920000Y-127300000D03*
X189420000Y-127300000D03*
D12*
X179855000Y-138000000D03*
X178585000Y-138000000D03*
X177315000Y-138000000D03*
X176045000Y-138000000D03*
X176045000Y-143400000D03*
X177315000Y-143400000D03*
X178585000Y-143400000D03*
X179855000Y-143400000D03*
D53*
X160501500Y-109347000D03*
X158776500Y-109347000D03*
D16*
X168529000Y-142594500D03*
X168529000Y-140869500D03*
D44*
X183620000Y-137697500D03*
X183620000Y-135697500D03*
D31*
X182442500Y-148562500D03*
X182442500Y-146737500D03*
D54*
X193230000Y-155365000D03*
X193230000Y-150915000D03*
D55*
X187960000Y-118592000D03*
X187960000Y-121692000D03*
D30*
X159395000Y-111430000D03*
X157570000Y-111430000D03*
D16*
X191607500Y-133800000D03*
X191607500Y-132075000D03*
D31*
X177342500Y-148562500D03*
X177342500Y-146737500D03*
D56*
X172610000Y-128567706D03*
X172610000Y-125517706D03*
X169260000Y-128567706D03*
X169260000Y-125517706D03*
D57*
X177235000Y-129322706D03*
X177235000Y-128182706D03*
X177235000Y-127042706D03*
X177235000Y-125902706D03*
X177235000Y-124762706D03*
D32*
X159880000Y-118957500D03*
X159880000Y-120682500D03*
D50*
X184770000Y-126960000D03*
X184770000Y-130060000D03*
X187100000Y-126950000D03*
X187100000Y-130050000D03*
D13*
X153658600Y-111709200D03*
X155408600Y-111709200D03*
M02*
